  0
SECTION
  2
HEADER
  9
$ACADVER
  1
AC1027
  9
$ACADMAINTVER
 70
105
  9
$DWGCODEPAGE
  3
ANSI_1252
  9
$LASTSAVEDBY
  1
ezdxf
  9
$REQUIREDVERSIONS
160
0
  9
$INSBASE
 10
0.0
 20
0.0
 30
0.0
  9
$EXTMIN
 10
1e+20
 20
1e+20
 30
1e+20
  9
$EXTMAX
 10
-1e+20
 20
-1e+20
 30
-1e+20
  9
$LIMMIN
 10
0.0
 20
0.0
  9
$LIMMAX
 10
420.0
 20
297.0
  9
$ORTHOMODE
 70
0
  9
$REGENMODE
 70
1
  9
$FILLMODE
 70
1
  9
$QTEXTMODE
 70
0
  9
$MIRRTEXT
 70
1
  9
$LTSCALE
 40
1.0
  9
$ATTMODE
 70
1
  9
$TEXTSIZE
 40
2.5
  9
$TRACEWID
 40
1.0
  9
$TEXTSTYLE
  7
Standard
  9
$CLAYER
  8
0
  9
$CELTYPE
  6
ByLayer
  9
$CECOLOR
 62
256
  9
$CELTSCALE
 40
1.0
  9
$DISPSILH
 70
0
  9
$DIMSCALE
 40
1.0
  9
$DIMASZ
 40
2.5
  9
$DIMEXO
 40
0.625
  9
$DIMDLI
 40
3.75
  9
$DIMRND
 40
0.0
  9
$DIMDLE
 40
0.0
  9
$DIMEXE
 40
1.25
  9
$DIMTP
 40
0.0
  9
$DIMTM
 40
0.0
  9
$DIMTXT
 40
2.5
  9
$DIMCEN
 40
2.5
  9
$DIMTSZ
 40
0.0
  9
$DIMTOL
 70
0
  9
$DIMLIM
 70
0
  9
$DIMTIH
 70
0
  9
$DIMTOH
 70
0
  9
$DIMSE1
 70
0
  9
$DIMSE2
 70
0
  9
$DIMTAD
 70
1
  9
$DIMZIN
 70
8
  9
$DIMBLK
  1

  9
$DIMASO
 70
1
  9
$DIMSHO
 70
1
  9
$DIMPOST
  1

  9
$DIMAPOST
  1

  9
$DIMALT
 70
0
  9
$DIMALTD
 70
3
  9
$DIMALTF
 40
0.03937007874
  9
$DIMLFAC
 40
1.0
  9
$DIMTOFL
 70
1
  9
$DIMTVP
 40
0.0
  9
$DIMTIX
 70
0
  9
$DIMSOXD
 70
0
  9
$DIMSAH
 70
0
  9
$DIMBLK1
  1

  9
$DIMBLK2
  1

  9
$DIMSTYLE
  2
ISO-25
  9
$DIMCLRD
 70
0
  9
$DIMCLRE
 70
0
  9
$DIMCLRT
 70
0
  9
$DIMTFAC
 40
1.0
  9
$DIMGAP
 40
0.625
  9
$DIMJUST
 70
0
  9
$DIMSD1
 70
0
  9
$DIMSD2
 70
0
  9
$DIMTOLJ
 70
0
  9
$DIMTZIN
 70
8
  9
$DIMALTZ
 70
0
  9
$DIMALTTZ
 70
0
  9
$DIMUPT
 70
0
  9
$DIMDEC
 70
2
  9
$DIMTDEC
 70
2
  9
$DIMALTU
 70
2
  9
$DIMALTTD
 70
3
  9
$DIMTXSTY
  7
Standard
  9
$DIMAUNIT
 70
0
  9
$DIMADEC
 70
0
  9
$DIMALTRND
 40
0.0
  9
$DIMAZIN
 70
0
  9
$DIMDSEP
 70
44
  9
$DIMATFIT
 70
3
  9
$DIMFRAC
 70
0
  9
$DIMLDRBLK
  1

  9
$DIMLUNIT
 70
2
  9
$DIMLWD
 70
-2
  9
$DIMLWE
 70
-2
  9
$DIMTMOVE
 70
0
  9
$DIMFXL
 40
1.0
  9
$DIMFXLON
 70
0
  9
$DIMJOGANG
 40
0.785398163397
  9
$DIMTFILL
 70
0
  9
$DIMTFILLCLR
 70
0
  9
$DIMARCSYM
 70
0
  9
$DIMLTYPE
  6

  9
$DIMLTEX1
  6

  9
$DIMLTEX2
  6

  9
$DIMTXTDIRECTION
 70
0
  9
$LUNITS
 70
2
  9
$LUPREC
 70
4
  9
$SKETCHINC
 40
1.0
  9
$FILLETRAD
 40
10.0
  9
$AUNITS
 70
0
  9
$AUPREC
 70
2
  9
$MENU
  1
.
  9
$ELEVATION
 40
0.0
  9
$PELEVATION
 40
0.0
  9
$THICKNESS
 40
0.0
  9
$LIMCHECK
 70
0
  9
$CHAMFERA
 40
0.0
  9
$CHAMFERB
 40
0.0
  9
$CHAMFERC
 40
0.0
  9
$CHAMFERD
 40
0.0
  9
$SKPOLY
 70
0
  9
$TDCREATE
 40
2460970.9023263888
  9
$TDUCREATE
 40
2458532.153996898
  9
$TDUPDATE
 40
2460970.9023263888
  9
$TDUUPDATE
 40
2458532.1544311
  9
$TDINDWG
 40
0.0
  9
$TDUSRTIMER
 40
0.0
  9
$USRTIMER
 70
1
  9
$ANGBASE
 50
0.0
  9
$ANGDIR
 70
0
  9
$PDMODE
 70
0
  9
$PDSIZE
 40
0.0
  9
$PLINEWID
 40
0.0
  9
$SPLFRAME
 70
0
  9
$SPLINETYPE
 70
6
  9
$SPLINESEGS
 70
8
  9
$HANDSEED
  5
29D
  9
$SURFTAB1
 70
6
  9
$SURFTAB2
 70
6
  9
$SURFTYPE
 70
6
  9
$SURFU
 70
6
  9
$SURFV
 70
6
  9
$UCSBASE
  2

  9
$UCSNAME
  2

  9
$UCSORG
 10
0.0
 20
0.0
 30
0.0
  9
$UCSXDIR
 10
1.0
 20
0.0
 30
0.0
  9
$UCSYDIR
 10
0.0
 20
1.0
 30
0.0
  9
$UCSORTHOREF
  2

  9
$UCSORTHOVIEW
 70
0
  9
$UCSORGTOP
 10
0.0
 20
0.0
 30
0.0
  9
$UCSORGBOTTOM
 10
0.0
 20
0.0
 30
0.0
  9
$UCSORGLEFT
 10
0.0
 20
0.0
 30
0.0
  9
$UCSORGRIGHT
 10
0.0
 20
0.0
 30
0.0
  9
$UCSORGFRONT
 10
0.0
 20
0.0
 30
0.0
  9
$UCSORGBACK
 10
0.0
 20
0.0
 30
0.0
  9
$PUCSBASE
  2

  9
$PUCSNAME
  2

  9
$PUCSORG
 10
0.0
 20
0.0
 30
0.0
  9
$PUCSXDIR
 10
1.0
 20
0.0
 30
0.0
  9
$PUCSYDIR
 10
0.0
 20
1.0
 30
0.0
  9
$PUCSORTHOREF
  2

  9
$PUCSORTHOVIEW
 70
0
  9
$PUCSORGTOP
 10
0.0
 20
0.0
 30
0.0
  9
$PUCSORGBOTTOM
 10
0.0
 20
0.0
 30
0.0
  9
$PUCSORGLEFT
 10
0.0
 20
0.0
 30
0.0
  9
$PUCSORGRIGHT
 10
0.0
 20
0.0
 30
0.0
  9
$PUCSORGFRONT
 10
0.0
 20
0.0
 30
0.0
  9
$PUCSORGBACK
 10
0.0
 20
0.0
 30
0.0
  9
$USERI1
 70
0
  9
$USERI2
 70
0
  9
$USERI3
 70
0
  9
$USERI4
 70
0
  9
$USERI5
 70
0
  9
$USERR1
 40
0.0
  9
$USERR2
 40
0.0
  9
$USERR3
 40
0.0
  9
$USERR4
 40
0.0
  9
$USERR5
 40
0.0
  9
$WORLDVIEW
 70
1
  9
$SHADEDGE
 70
3
  9
$SHADEDIF
 70
70
  9
$TILEMODE
 70
1
  9
$MAXACTVP
 70
64
  9
$PINSBASE
 10
0.0
 20
0.0
 30
0.0
  9
$PLIMCHECK
 70
0
  9
$PEXTMIN
 10
1e+20
 20
1e+20
 30
1e+20
  9
$PEXTMAX
 10
-1e+20
 20
-1e+20
 30
-1e+20
  9
$PLIMMIN
 10
0.0
 20
0.0
  9
$PLIMMAX
 10
420.0
 20
297.0
  9
$UNITMODE
 70
0
  9
$VISRETAIN
 70
1
  9
$PLINEGEN
 70
0
  9
$PSLTSCALE
 70
1
  9
$TREEDEPTH
 70
3020
  9
$CMLSTYLE
  2
Standard
  9
$CMLJUST
 70
0
  9
$CMLSCALE
 40
20.0
  9
$PROXYGRAPHICS
 70
1
  9
$MEASUREMENT
 70
1
  9
$CELWEIGHT
370
-1
  9
$ENDCAPS
280
0
  9
$JOINSTYLE
280
0
  9
$LWDISPLAY
290
0
  9
$INSUNITS
 70
6
  9
$HYPERLINKBASE
  1

  9
$STYLESHEET
  1

  9
$XEDIT
290
1
  9
$CEPSNTYPE
380
0
  9
$PSTYLEMODE
290
1
  9
$FINGERPRINTGUID
  2
{F9C63AD1-A59C-4A09-8AFB-4BDB660CBF17}
  9
$VERSIONGUID
  2
{6C746777-047E-4061-BA6A-FFDE68547279}
  9
$EXTNAMES
290
1
  9
$PSVPSCALE
 40
0.0
  9
$OLESTARTUP
290
0
  9
$SORTENTS
280
127
  9
$INDEXCTL
280
0
  9
$HIDETEXT
280
1
  9
$XCLIPFRAME
280
1
  9
$HALOGAP
280
0
  9
$OBSCOLOR
 70
257
  9
$OBSLTYPE
280
0
  9
$INTERSECTIONDISPLAY
280
0
  9
$INTERSECTIONCOLOR
 70
257
  9
$DIMASSOC
280
2
  9
$PROJECTNAME
  1

  9
$CAMERADISPLAY
290
0
  9
$LENSLENGTH
 40
50.0
  9
$CAMERAHEIGHT
 40
0.0
  9
$STEPSPERSEC
 40
24.0
  9
$STEPSIZE
 40
100.0
  9
$3DDWFPREC
 40
2.0
  9
$PSOLWIDTH
 40
0.005
  9
$PSOLHEIGHT
 40
0.08
  9
$LOFTANG1
 40
1.570796326795
  9
$LOFTANG2
 40
1.570796326795
  9
$LOFTMAG1
 40
0.0
  9
$LOFTMAG2
 40
0.0
  9
$LOFTPARAM
 70
7
  9
$LOFTNORMALS
280
1
  9
$LATITUDE
 40
37.795
  9
$LONGITUDE
 40
-122.394
  9
$NORTHDIRECTION
 40
0.0
  9
$TIMEZONE
 70
-8000
  9
$LIGHTGLYPHDISPLAY
280
1
  9
$TILEMODELIGHTSYNCH
280
1
  9
$CMATERIAL
347
20
  9
$SOLIDHIST
280
0
  9
$SHOWHIST
280
1
  9
$DWFFRAME
280
2
  9
$DGNFRAME
280
2
  9
$REALWORLDSCALE
290
1
  9
$INTERFERECOLOR
 62
256
  9
$CSHADOW
280
0
  9
$SHADOWPLANELOCATION
 40
0.0
  0
ENDSEC
  0
SECTION
  2
CLASSES
  0
CLASS
  1
ACDBDICTIONARYWDFLT
  2
AcDbDictionaryWithDefault
  3
ObjectDBX Classes
 90
0
 91
0
280
0
281
0
  0
CLASS
  1
SUN
  2
AcDbSun
  3
SCENEOE
 90
1153
 91
0
280
0
281
0
  0
CLASS
  1
VISUALSTYLE
  2
AcDbVisualStyle
  3
ObjectDBX Classes
 90
4095
 91
0
280
0
281
0
  0
CLASS
  1
MATERIAL
  2
AcDbMaterial
  3
ObjectDBX Classes
 90
1153
 91
0
280
0
281
0
  0
CLASS
  1
SCALE
  2
AcDbScale
  3
ObjectDBX Classes
 90
1153
 91
0
280
0
281
0
  0
CLASS
  1
TABLESTYLE
  2
AcDbTableStyle
  3
ObjectDBX Classes
 90
4095
 91
0
280
0
281
0
  0
CLASS
  1
MLEADERSTYLE
  2
AcDbMLeaderStyle
  3
ACDB_MLEADERSTYLE_CLASS
 90
4095
 91
0
280
0
281
0
  0
CLASS
  1
DICTIONARYVAR
  2
AcDbDictionaryVar
  3
ObjectDBX Classes
 90
0
 91
0
280
0
281
0
  0
CLASS
  1
CELLSTYLEMAP
  2
AcDbCellStyleMap
  3
ObjectDBX Classes
 90
1152
 91
0
280
0
281
0
  0
CLASS
  1
MENTALRAYRENDERSETTINGS
  2
AcDbMentalRayRenderSettings
  3
SCENEOE
 90
1024
 91
0
280
0
281
0
  0
CLASS
  1
ACDBDETAILVIEWSTYLE
  2
AcDbDetailViewStyle
  3
ObjectDBX Classes
 90
1025
 91
0
280
0
281
0
  0
CLASS
  1
ACDBSECTIONVIEWSTYLE
  2
AcDbSectionViewStyle
  3
ObjectDBX Classes
 90
1025
 91
0
280
0
281
0
  0
CLASS
  1
RASTERVARIABLES
  2
AcDbRasterVariables
  3
ISM
 90
0
 91
0
280
0
281
0
  0
CLASS
  1
ACDBPLACEHOLDER
  2
AcDbPlaceHolder
  3
ObjectDBX Classes
 90
0
 91
0
280
0
281
0
  0
CLASS
  1
LAYOUT
  2
AcDbLayout
  3
ObjectDBX Classes
 90
0
 91
0
280
0
281
0
  0
ENDSEC
  0
SECTION
  2
TABLES
  0
TABLE
  2
VPORT
  5
8
330
0
100
AcDbSymbolTable
 70
1
  0
VPORT
  5
23
330
8
100
AcDbSymbolTableRecord
100
AcDbViewportTableRecord
  2
*Active
 70
0
 10
0.0
 20
0.0
 11
1.0
 21
1.0
 12
0.0
 22
0.0
 13
0.0
 23
0.0
 14
0.5
 24
0.5
 15
0.5
 25
0.5
 16
0.0
 26
0.0
 36
1.0
 17
0.0
 27
0.0
 37
0.0
 40
1000.0
 41
1.34
 42
50.0
 43
0.0
 44
0.0
 50
0.0
 51
0.0
 71
0
 72
1000
 73
1
 74
3
 75
0
 76
0
 77
0
 78
0
281
0
 65
0
146
0.0
  0
ENDTAB
  0
TABLE
  2
LTYPE
  5
2
330
0
100
AcDbSymbolTable
 70
3
  0
LTYPE
  5
24
330
2
100
AcDbSymbolTableRecord
100
AcDbLinetypeTableRecord
  2
ByBlock
 70
0
  3

 72
65
 73
0
 40
0.0
  0
LTYPE
  5
25
330
2
100
AcDbSymbolTableRecord
100
AcDbLinetypeTableRecord
  2
ByLayer
 70
0
  3

 72
65
 73
0
 40
0.0
  0
LTYPE
  5
26
330
2
100
AcDbSymbolTableRecord
100
AcDbLinetypeTableRecord
  2
Continuous
 70
0
  3

 72
65
 73
0
 40
0.0
  0
ENDTAB
  0
TABLE
  2
LAYER
  5
1
330
0
100
AcDbSymbolTable
 70
11
  0
LAYER
  5
27
330
1
100
AcDbSymbolTableRecord
100
AcDbLayerTableRecord
  2
0
 70
0
 62
7
  6
Continuous
370
-3
390
13
347
21
  0
LAYER
  5
28
330
1
100
AcDbSymbolTableRecord
100
AcDbLayerTableRecord
  2
Defpoints
 70
0
 62
7
  6
Continuous
290
0
370
-3
390
13
347
21
  0
LAYER
  5
2F
330
1
100
AcDbSymbolTableRecord
100
AcDbLayerTableRecord
  2
MAT-NULL
 70
0
 62
7
  6
Continuous
370
-3
390
13
347
21
  0
LAYER
  5
3C
330
1
100
AcDbSymbolTableRecord
100
AcDbLayerTableRecord
  2
MAT-SAND
 70
0
 62
7
  6
Continuous
370
-3
390
13
347
21
  0
LAYER
  5
6B
330
1
100
AcDbSymbolTableRecord
100
AcDbLayerTableRecord
  2
MAT-CONCRETE
 70
0
 62
7
  6
Continuous
370
-3
390
13
347
21
  0
LAYER
  5
74
330
1
100
AcDbSymbolTableRecord
100
AcDbLayerTableRecord
  2
MAT-FIN
 70
0
 62
7
  6
Continuous
370
-3
390
13
347
21
  0
LAYER
  5
187
330
1
100
AcDbSymbolTableRecord
100
AcDbLayerTableRecord
  2
MAT-MATERIAL
 70
0
 62
7
  6
Continuous
370
-3
390
13
347
21
  0
LAYER
  5
244
330
1
100
AcDbSymbolTableRecord
100
AcDbLayerTableRecord
  2
A-ANNO
 70
0
 62
7
  6
Continuous
370
-3
390
13
347
21
  0
LAYER
  5
246
330
1
100
AcDbSymbolTableRecord
100
AcDbLayerTableRecord
  2
A-GRID
 70
0
 62
7
  6
Continuous
370
-3
390
13
347
21
  0
LAYER
  5
24C
330
1
100
AcDbSymbolTableRecord
100
AcDbLayerTableRecord
  2
A-DIMS
 70
0
 62
7
  6
Continuous
370
-3
390
13
347
21
  0
LAYER
  5
24E
330
1
100
AcDbSymbolTableRecord
100
AcDbLayerTableRecord
  2
A-TEXT
 70
0
 62
7
  6
Continuous
370
-3
390
13
347
21
  0
ENDTAB
  0
TABLE
  2
STYLE
  5
5
330
0
100
AcDbSymbolTable
 70
1
  0
STYLE
  5
29
330
5
100
AcDbSymbolTableRecord
100
AcDbTextStyleTableRecord
  2
Standard
 70
0
 40
0.0
 41
1.0
 50
0.0
 71
0
 42
2.5
  3
txt
  4

  0
ENDTAB
  0
TABLE
  2
VIEW
  5
7
330
0
100
AcDbSymbolTable
 70
0
  0
ENDTAB
  0
TABLE
  2
UCS
  5
6
330
0
100
AcDbSymbolTable
 70
0
  0
ENDTAB
  0
TABLE
  2
APPID
  5
3
330
0
100
AcDbSymbolTable
 70
3
  0
APPID
  5
2A
330
3
100
AcDbSymbolTableRecord
100
AcDbRegAppTableRecord
  2
ACAD
 70
0
  0
APPID
  5
29A
330
3
100
AcDbSymbolTableRecord
100
AcDbRegAppTableRecord
  2
HATCHBACKGROUNDCOLOR
 70
0
  0
APPID
  5
29B
330
3
100
AcDbSymbolTableRecord
100
AcDbRegAppTableRecord
  2
EZDXF
 70
0
  0
ENDTAB
  0
TABLE
  2
DIMSTYLE
  5
4
330
0
100
AcDbSymbolTable
 70
1
100
AcDbDimStyleTable
  0
DIMSTYLE
105
2B
330
4
100
AcDbSymbolTableRecord
100
AcDbDimStyleTableRecord
  2
Standard
 70
0
 40
1.0
 41
2.5
 42
0.625
 43
3.75
 44
1.25
 45
0.0
 46
0.0
 47
0.0
 48
0.0
 49
2.5
140
2.5
141
2.5
142
0.0
143
0.03937007874
144
1.0
145
0.0
146
1.0
147
0.625
148
0.0
 69
0
 70
0
 71
0
 72
0
 73
0
 74
0
 75
0
 76
0
 77
1
 78
8
 79
3
170
0
171
3
172
1
173
0
174
0
175
0
176
0
177
0
178
0
179
2
271
2
272
2
273
2
274
3
275
0
276
0
277
2
278
44
279
0
280
0
281
0
282
0
283
0
284
8
285
0
286
0
288
0
289
3
290
0
371
-2
372
-2
  0
ENDTAB
  0
TABLE
  2
BLOCK_RECORD
  5
9
330
0
100
AcDbSymbolTable
 70
2
  0
BLOCK_RECORD
  5
17
330
9
100
AcDbSymbolTableRecord
100
AcDbBlockTableRecord
  2
*Model_Space
340
1A
 70
0
280
1
281
0
  0
BLOCK_RECORD
  5
1B
330
9
100
AcDbSymbolTableRecord
100
AcDbBlockTableRecord
  2
*Paper_Space
340
1E
 70
0
280
1
281
0
  0
ENDTAB
  0
ENDSEC
  0
SECTION
  2
BLOCKS
  0
BLOCK
  5
18
330
17
100
AcDbEntity
  8
0
100
AcDbBlockBegin
  2
*Model_Space
 70
0
 10
0.0
 20
0.0
 30
0.0
  3
*Model_Space
  1

  0
ENDBLK
  5
19
330
17
100
AcDbEntity
  8
0
100
AcDbBlockEnd
  0
BLOCK
  5
1C
330
1B
100
AcDbEntity
  8
0
100
AcDbBlockBegin
  2
*Paper_Space
 70
0
 10
0.0
 20
0.0
 30
0.0
  3
*Paper_Space
  1

  0
ENDBLK
  5
1D
330
1B
100
AcDbEntity
  8
0
100
AcDbBlockEnd
  0
ENDSEC
  0
SECTION
  2
ENTITIES
  0
LWPOLYLINE
  5
30
330
17
100
AcDbEntity
  8
MAT-NULL
  6
Continuous
370
13
100
AcDbPolyline
 90
2
 70
0
 10
65.3065586538438
 20
63.460642896590805
 10
66.306558631492
 20
63.460643210507264
  0
LWPOLYLINE
  5
31
330
17
100
AcDbEntity
  8
MAT-NULL
  6
Continuous
370
13
100
AcDbPolyline
 90
2
 70
0
 10
65.30654076060328
 20
120.46064776490194
 10
65.3065586538438
 20
63.460642896590805
  0
LWPOLYLINE
  5
32
330
17
100
AcDbEntity
  8
MAT-NULL
  6
Continuous
370
13
100
AcDbPolyline
 90
2
 70
0
 10
65.30654076060328
 20
120.46064776490194
 10
66.30654073825124
 20
120.46064886957203
  0
LWPOLYLINE
  5
33
330
17
100
AcDbEntity
  8
MAT-NULL
  6
Continuous
370
13
100
AcDbPolyline
 90
2
 70
0
 10
66.306558631492
 20
63.460643210507264
 10
66.30654073825124
 20
120.46064886957203
  0
LWPOLYLINE
  5
34
330
17
100
AcDbEntity
  8
MAT-NULL
  6
Continuous
370
13
100
AcDbPolyline
 90
2
 70
0
 10
66.30653885475131
 20
126.46065239757245
 10
66.30653571559552
 20
136.46062391625782
  0
LWPOLYLINE
  5
35
330
17
100
AcDbEntity
  8
MAT-NULL
  6
Continuous
370
13
100
AcDbPolyline
 90
2
 70
0
 10
66.30653885475131
 20
126.46065239757245
 10
65.30653887710335
 20
126.46065129290237
  0
LWPOLYLINE
  5
36
330
17
100
AcDbEntity
  8
MAT-NULL
  6
Continuous
370
13
100
AcDbPolyline
 90
2
 70
0
 10
65.3065357379473
 20
136.46062360234134
 10
65.30653887710335
 20
126.46065129290237
  0
LWPOLYLINE
  5
37
330
17
100
AcDbEntity
  8
MAT-NULL
  6
Continuous
370
13
100
AcDbPolyline
 90
2
 70
0
 10
66.30653571559552
 20
136.46062391625782
 10
65.3065357379473
 20
136.46062360234134
  0
LWPOLYLINE
  5
38
330
17
100
AcDbEntity
  8
MAT-NULL
  6
Continuous
370
13
100
AcDbPolyline
 90
2
 70
0
 10
239.30655029439686
 20
137.4605189897334
 10
239.30655044539267
 20
136.46051901208517
  0
LWPOLYLINE
  5
39
330
17
100
AcDbEntity
  8
MAT-NULL
  6
Continuous
370
13
100
AcDbPolyline
 90
2
 70
0
 10
156.27713875156203
 20
136.4605064749925
 10
239.30655044539267
 20
136.46051901208517
  0
LWPOLYLINE
  5
3A
330
17
100
AcDbEntity
  8
MAT-NULL
  6
Continuous
370
13
100
AcDbPolyline
 90
2
 70
0
 10
156.27713860056622
 20
137.46050645264077
 10
156.27713875156203
 20
136.4605064749925
  0
LWPOLYLINE
  5
3B
330
17
100
AcDbEntity
  8
MAT-NULL
  6
Continuous
370
13
100
AcDbPolyline
 90
2
 70
0
 10
156.27713860056622
 20
137.46050645264077
 10
239.30655029439686
 20
137.4605189897334
  0
LWPOLYLINE
  5
3D
330
17
100
AcDbEntity
  8
MAT-SAND
  6
Continuous
370
5
100
AcDbPolyline
 90
2
 70
0
 10
145.24159206817237
 20
136.46049246908072
 10
145.49158833906029
 20
136.46049244722536
  0
LWPOLYLINE
  5
3E
330
17
100
AcDbEntity
  8
MAT-SAND
  6
Continuous
370
5
100
AcDbPolyline
 90
2
 70
0
 10
145.8415883327273
 20
136.4604924166274
 10
154.2415918670067
 20
136.46049168227577
  0
LWPOLYLINE
  5
3F
330
17
100
AcDbEntity
  8
MAT-SAND
  6
Continuous
370
5
100
AcDbPolyline
 90
2
 70
0
 10
238.30656243351075
 20
106.42783327233434
 10
238.3065592017377
 20
69.4606590198473
  0
LWPOLYLINE
  5
40
330
17
100
AcDbEntity
  8
MAT-SAND
  6
Continuous
370
5
100
AcDbPolyline
 90
2
 70
0
 10
244.30655720008917
 20
192.460651142048
 10
244.30656023200152
 20
192.46065114204774
  0
LWPOLYLINE
  5
41
330
17
100
AcDbEntity
  8
MAT-SAND
  6
Continuous
370
5
100
AcDbPolyline
 90
2
 70
0
 10
244.30655874581421
 20
175.4606503013243
 10
244.30655720008917
 20
175.46065030132445
  0
LWPOLYLINE
  5
42
330
17
100
AcDbEntity
  8
MAT-SAND
  6
Continuous
370
5
100
AcDbPolyline
 90
2
 70
0
 10
244.30656023200152
 20
192.46065114204774
 10
244.30656023200143
 20
192.46065047370237
  0
LWPOLYLINE
  5
43
330
17
100
AcDbEntity
  8
MAT-SAND
  6
Continuous
370
5
100
AcDbPolyline
 90
2
 70
0
 10
150.30656729217102
 20
192.4606526282346
 10
150.30656921936577
 20
192.46065262823444
  0
LWPOLYLINE
  5
44
330
17
100
AcDbEntity
  8
MAT-SAND
  6
Continuous
370
5
100
AcDbPolyline
 90
2
 70
0
 10
167.30657036526506
 20
192.46065114204717
 10
167.30657301570682
 20
192.46065114204694
  0
LWPOLYLINE
  5
45
330
17
100
AcDbEntity
  8
MAT-SAND
  6
Continuous
370
5
100
AcDbPolyline
 90
2
 70
0
 10
150.30656729217083
 20
192.46065047370237
 10
150.30656729217102
 20
192.4606526282346
  0
LWPOLYLINE
  5
46
330
17
100
AcDbEntity
  8
MAT-SAND
  6
Continuous
370
5
100
AcDbPolyline
 90
2
 70
0
 10
167.30657152951957
 20
175.4606503013235
 10
167.30657036526506
 20
175.46065030132362
  0
LWPOLYLINE
  5
47
330
17
100
AcDbEntity
  8
MAT-SAND
  6
Continuous
370
5
100
AcDbPolyline
 90
2
 70
0
 10
150.30656860901422
 20
175.46065178751095
 10
150.30656580598375
 20
175.4606517875112
  0
LWPOLYLINE
  5
48
330
17
100
AcDbEntity
  8
MAT-SAND
  6
Continuous
370
5
100
AcDbPolyline
 90
2
 70
0
 10
167.30657301570682
 20
192.46065114204694
 10
167.30657301570676
 20
192.46065047370237
  0
LWPOLYLINE
  5
49
330
17
100
AcDbEntity
  8
MAT-SAND
  6
Continuous
370
5
100
AcDbPolyline
 90
2
 70
0
 10
-14.546478853694053
 20
319.4882830561664
 10
-14.546478853694053
 20
-61.989599042138366
  0
LWPOLYLINE
  5
4A
330
17
100
AcDbEntity
  8
MAT-SAND
  6
Continuous
370
5
100
AcDbPolyline
 90
2
 70
0
 10
373.4760124733273
 20
-61.989599042138366
 10
-14.546478853694026
 20
-61.989599042138366
  0
LWPOLYLINE
  5
4B
330
17
100
AcDbEntity
  8
MAT-SAND
  6
Continuous
370
5
100
AcDbPolyline
 90
2
 70
0
 10
373.4760124733273
 20
319.4882830561664
 10
-14.546478853694026
 20
319.4882830561664
  0
LWPOLYLINE
  5
4C
330
17
100
AcDbEntity
  8
MAT-SAND
  6
Continuous
370
5
100
AcDbPolyline
 90
2
 70
0
 10
373.4760124733273
 20
319.4882830561664
 10
373.4760124733273
 20
-61.989599042138366
  0
LWPOLYLINE
  5
4D
330
17
100
AcDbEntity
  8
MAT-NULL
  6
Continuous
370
13
100
AcDbPolyline
 90
2
 70
0
 10
65.30653661136597
 20
137.4606266041645
 10
65.30653700078032
 20
136.4606266265163
  0
LWPOLYLINE
  5
4E
330
17
100
AcDbEntity
  8
MAT-NULL
  6
Continuous
370
13
100
AcDbPolyline
 90
2
 70
0
 10
144.9915855924064
 20
137.46065763466743
 10
65.30653661136597
 20
137.4606266041645
  0
LWPOLYLINE
  5
4F
330
17
100
AcDbEntity
  8
MAT-NULL
  6
Continuous
370
13
100
AcDbPolyline
 90
2
 70
0
 10
144.9915855924064
 20
137.46065763466743
 10
144.9915855924064
 20
136.4606576570191
  0
LWPOLYLINE
  5
50
330
17
100
AcDbEntity
  8
MAT-NULL
  6
Continuous
370
13
100
AcDbPolyline
 90
2
 70
0
 10
65.30653700078032
 20
136.4606266265163
 10
144.9915855924064
 20
136.4606576570191
  0
LWPOLYLINE
  5
51
330
17
100
AcDbEntity
  8
MAT-NULL
  6
Continuous
370
13
100
AcDbPolyline
 90
2
 70
0
 10
154.49158232830717
 20
136.46066135645432
 10
156.30655039323926
 20
136.46066206322897
  0
LWPOLYLINE
  5
52
330
17
100
AcDbEntity
  8
MAT-NULL
  6
Continuous
370
13
100
AcDbPolyline
 90
2
 70
0
 10
154.49158232830717
 20
136.46066135645432
 10
154.49158232830717
 20
137.46066133410264
  0
LWPOLYLINE
  5
53
330
17
100
AcDbEntity
  8
MAT-NULL
  6
Continuous
370
13
100
AcDbPolyline
 90
2
 70
0
 10
156.30655000382492
 20
137.46066204087714
 10
154.49158232830717
 20
137.46066133410264
  0
LWPOLYLINE
  5
54
330
17
100
AcDbEntity
  8
MAT-NULL
  6
Continuous
370
13
100
AcDbPolyline
 90
2
 70
0
 10
156.30655039323926
 20
136.46066206322897
 10
156.30655000382492
 20
137.46066204087714
  0
LWPOLYLINE
  5
55
330
17
100
AcDbEntity
  8
MAT-NULL
  6
Continuous
370
13
100
AcDbPolyline
 90
2
 70
0
 10
154.30656165743522
 20
63.46064609165564
 10
134.3065633251732
 20
63.460646965883356
  0
LWPOLYLINE
  5
56
330
17
100
AcDbEntity
  8
MAT-NULL
  6
Continuous
370
13
100
AcDbPolyline
 90
2
 70
0
 10
154.30656165743522
 20
64.46064606930392
 10
134.3065633251732
 20
64.46064694353159
  0
LWPOLYLINE
  5
57
330
17
100
AcDbEntity
  8
MAT-NULL
  6
Continuous
370
13
100
AcDbPolyline
 90
2
 70
0
 10
124.30657155875066
 20
63.46064609165564
 10
124.30657155875066
 20
64.46064606930388
  0
LWPOLYLINE
  5
58
330
17
100
AcDbEntity
  8
MAT-NULL
  6
Continuous
370
13
100
AcDbPolyline
 90
2
 70
0
 10
134.30656301919348
 20
64.46064694353159
 10
124.30657155875066
 20
64.46064606930388
  0
LWPOLYLINE
  5
59
330
17
100
AcDbEntity
  8
MAT-NULL
  6
Continuous
370
13
100
AcDbPolyline
 90
2
 70
0
 10
134.30656301919348
 20
63.460646965883356
 10
134.30656301919348
 20
64.46064694353159
  0
LWPOLYLINE
  5
5A
330
17
100
AcDbEntity
  8
MAT-NULL
  6
Continuous
370
13
100
AcDbPolyline
 90
2
 70
0
 10
134.30656301919348
 20
63.460646965883356
 10
124.30657155875066
 20
63.46064609165564
  0
LWPOLYLINE
  5
5B
330
17
100
AcDbEntity
  8
MAT-NULL
  6
Continuous
370
13
100
AcDbPolyline
 90
2
 70
0
 10
124.30657186473034
 20
63.46064609165564
 10
104.30657353246832
 20
63.460646965883356
  0
LWPOLYLINE
  5
5C
330
17
100
AcDbEntity
  8
MAT-NULL
  6
Continuous
370
13
100
AcDbPolyline
 90
2
 70
0
 10
124.30657186473034
 20
64.46064606930392
 10
104.30657353246832
 20
64.46064694353159
  0
LWPOLYLINE
  5
5D
330
17
100
AcDbEntity
  8
MAT-NULL
  6
Continuous
370
13
100
AcDbPolyline
 90
2
 70
0
 10
94.30657100859982
 20
63.46064609165571
 10
94.30657100859982
 20
64.46064606930395
  0
LWPOLYLINE
  5
5E
330
17
100
AcDbEntity
  8
MAT-NULL
  6
Continuous
370
13
100
AcDbPolyline
 90
2
 70
0
 10
104.3065732264886
 20
64.46064694353159
 10
94.30657100859982
 20
64.46064606930395
  0
LWPOLYLINE
  5
5F
330
17
100
AcDbEntity
  8
MAT-NULL
  6
Continuous
370
13
100
AcDbPolyline
 90
2
 70
0
 10
104.3065732264886
 20
63.460646965883356
 10
104.3065732264886
 20
64.46064694353159
  0
LWPOLYLINE
  5
60
330
17
100
AcDbEntity
  8
MAT-NULL
  6
Continuous
370
13
100
AcDbPolyline
 90
2
 70
0
 10
104.3065732264886
 20
63.460646965883356
 10
94.30657100859982
 20
63.46064609165571
  0
LWPOLYLINE
  5
61
330
17
100
AcDbEntity
  8
MAT-NULL
  6
Continuous
370
13
100
AcDbPolyline
 90
2
 70
0
 10
94.3065713145795
 20
63.46064609165571
 10
74.30657542372367
 20
63.460646965883285
  0
LWPOLYLINE
  5
62
330
17
100
AcDbEntity
  8
MAT-NULL
  6
Continuous
370
13
100
AcDbPolyline
 90
2
 70
0
 10
94.3065713145795
 20
64.46064606930395
 10
74.30657542372367
 20
64.46064694353156
  0
LWPOLYLINE
  5
63
330
17
100
AcDbEntity
  8
MAT-NULL
  6
Continuous
370
13
100
AcDbPolyline
 90
2
 70
0
 10
66.30655717326712
 20
63.46064652876948
 10
66.30655717326712
 20
64.46064650641775
  0
LWPOLYLINE
  5
64
330
17
100
AcDbEntity
  8
MAT-NULL
  6
Continuous
370
13
100
AcDbPolyline
 90
2
 70
0
 10
74.30657511774395
 20
64.46064694353151
 10
66.30655717326712
 20
64.46064650641775
  0
LWPOLYLINE
  5
65
330
17
100
AcDbEntity
  8
MAT-NULL
  6
Continuous
370
13
100
AcDbPolyline
 90
2
 70
0
 10
74.30657511774395
 20
63.460646965883285
 10
74.30657511774395
 20
64.46064694353151
  0
LWPOLYLINE
  5
66
330
17
100
AcDbEntity
  8
MAT-NULL
  6
Continuous
370
13
100
AcDbPolyline
 90
2
 70
0
 10
74.30657511774395
 20
63.460646965883285
 10
66.30655717326712
 20
63.46064652876948
  0
LWPOLYLINE
  5
67
330
17
100
AcDbEntity
  8
MAT-NULL
  6
Continuous
370
13
100
AcDbPolyline
 90
2
 70
0
 10
156.30657635436998
 20
63.46064652876948
 10
154.30656135145554
 20
63.46064609165564
  0
LWPOLYLINE
  5
68
330
17
100
AcDbEntity
  8
MAT-NULL
  6
Continuous
370
13
100
AcDbPolyline
 90
2
 70
0
 10
154.30656135145554
 20
63.46064609165564
 10
154.30656135145554
 20
64.46064606930388
  0
LWPOLYLINE
  5
69
330
17
100
AcDbEntity
  8
MAT-NULL
  6
Continuous
370
13
100
AcDbPolyline
 90
2
 70
0
 10
156.30657635436998
 20
64.46064650641775
 10
154.30656135145554
 20
64.46064606930388
  0
LWPOLYLINE
  5
6A
330
17
100
AcDbEntity
  8
MAT-NULL
  6
Continuous
370
13
100
AcDbPolyline
 90
2
 70
0
 10
156.30657635436998
 20
63.46064652876948
 10
156.30657635436998
 20
64.46064650641775
  0
LWPOLYLINE
  5
6C
330
17
100
AcDbEntity
  8
MAT-CONCRETE
  6
Continuous
370
5
100
AcDbPolyline
 90
2
 70
0
 10
66.30654723913358
 20
116.46065282252468
 10
68.3065471944301
 20
116.46065297352048
  0
LWPOLYLINE
  5
6D
330
17
100
AcDbEntity
  8
MAT-CONCRETE
  6
Continuous
370
5
100
AcDbPolyline
 90
2
 70
0
 10
66.30654693714239
 20
120.46064737585243
 10
66.30654723913358
 20
116.46065282252468
  0
LWPOLYLINE
  5
6E
330
17
100
AcDbEntity
  8
MAT-CONCRETE
  6
Continuous
370
5
100
AcDbPolyline
 90
2
 70
0
 10
66.30654693714239
 20
120.46064737585243
 10
68.30654689243886
 20
120.46064800368536
  0
LWPOLYLINE
  5
6F
330
17
100
AcDbEntity
  8
MAT-CONCRETE
  6
Continuous
370
5
100
AcDbPolyline
 90
2
 70
0
 10
68.3065471944301
 20
116.46065297352048
 10
68.30654689243886
 20
120.46064800368536
  0
LWPOLYLINE
  5
70
330
17
100
AcDbEntity
  8
MAT-CONCRETE
  6
Continuous
370
5
100
AcDbPolyline
 90
2
 70
0
 10
68.3065464394511
 20
126.46065275238745
 10
68.3065456844721
 20
136.4606525264862
  0
LWPOLYLINE
  5
71
330
17
100
AcDbEntity
  8
MAT-CONCRETE
  6
Continuous
370
5
100
AcDbPolyline
 90
2
 70
0
 10
68.3065464394511
 20
126.46065275238745
 10
66.30654648415462
 20
126.46065212455453
  0
LWPOLYLINE
  5
72
330
17
100
AcDbEntity
  8
MAT-CONCRETE
  6
Continuous
370
5
100
AcDbPolyline
 90
2
 70
0
 10
66.3065457291756
 20
136.46065237549038
 10
66.30654648415462
 20
126.46065212455453
  0
LWPOLYLINE
  5
73
330
17
100
AcDbEntity
  8
MAT-CONCRETE
  6
Continuous
370
5
100
AcDbPolyline
 90
2
 70
0
 10
68.3065456844721
 20
136.4606525264862
 10
66.3065457291756
 20
136.46065237549038
  0
LWPOLYLINE
  5
75
330
17
100
AcDbEntity
  8
MAT-FIN
  6
Continuous
370
5
100
AcDbPolyline
 90
2
 70
0
 10
238.30654680003968
 20
136.46051890747032
 10
238.30658480001964
 20
63.460642714071604
  0
LWPOLYLINE
  5
76
330
17
100
AcDbEntity
  8
MAT-FIN
  6
Continuous
370
5
100
AcDbPolyline
 90
2
 70
0
 10
239.30654677768777
 20
136.46051942801884
 10
238.30654680003968
 20
136.46051890747032
  0
LWPOLYLINE
  5
77
330
17
100
AcDbEntity
  8
MAT-FIN
  6
Continuous
370
5
100
AcDbPolyline
 90
2
 70
0
 10
239.30658477766775
 20
63.460643234620136
 10
239.30654677768777
 20
136.46051942801884
  0
LWPOLYLINE
  5
78
330
17
100
AcDbEntity
  8
MAT-FIN
  6
Continuous
370
5
100
AcDbPolyline
 90
2
 70
0
 10
238.30658480001964
 20
63.460642714071604
 10
239.30658477766775
 20
63.460643234620136
  0
LWPOLYLINE
  5
79
330
17
100
AcDbEntity
  8
MAT-CONCRETE
  6
Continuous
370
5
100
AcDbPolyline
 90
2
 70
0
 10
98.30657438702501
 20
66.46065504478304
 10
98.30655931903432
 20
114.46065492557345
  0
LWPOLYLINE
  5
7A
330
17
100
AcDbEntity
  8
MAT-CONCRETE
  6
Continuous
370
5
100
AcDbPolyline
 90
2
 70
0
 10
96.30657443172858
 20
66.46065441695012
 10
98.30657438702501
 20
66.46065504478304
  0
LWPOLYLINE
  5
7B
330
17
100
AcDbEntity
  8
MAT-CONCRETE
  6
Continuous
370
5
100
AcDbPolyline
 90
2
 70
0
 10
96.3065593637379
 20
114.46065429774052
 10
96.30657443172858
 20
66.46065441695012
  0
LWPOLYLINE
  5
7C
330
17
100
AcDbEntity
  8
MAT-CONCRETE
  6
Continuous
370
5
100
AcDbPolyline
 90
2
 70
0
 10
98.30655931903432
 20
114.46065492557345
 10
96.3065593637379
 20
114.46065429774052
  0
LWPOLYLINE
  5
7D
330
17
100
AcDbEntity
  8
MAT-CONCRETE
  6
Continuous
370
5
100
AcDbPolyline
 90
2
 70
0
 10
128.30657371647274
 20
66.46065504478135
 10
128.30655864848208
 20
114.46065492557345
  0
LWPOLYLINE
  5
7E
330
17
100
AcDbEntity
  8
MAT-CONCRETE
  6
Continuous
370
5
100
AcDbPolyline
 90
2
 70
0
 10
126.30657376117632
 20
66.46065441694842
 10
128.30657371647274
 20
66.46065504478135
  0
LWPOLYLINE
  5
7F
330
17
100
AcDbEntity
  8
MAT-CONCRETE
  6
Continuous
370
5
100
AcDbPolyline
 90
2
 70
0
 10
126.30655869318565
 20
114.46065429774052
 10
126.30657376117632
 20
66.46065441694842
  0
LWPOLYLINE
  5
80
330
17
100
AcDbEntity
  8
MAT-CONCRETE
  6
Continuous
370
5
100
AcDbPolyline
 90
2
 70
0
 10
128.30655864848208
 20
114.46065492557345
 10
126.30655869318565
 20
114.46065429774052
  0
LWPOLYLINE
  5
81
330
17
100
AcDbEntity
  8
MAT-FIN
  6
Continuous
370
5
100
AcDbPolyline
 90
2
 70
0
 10
238.30658493957964
 20
64.46064650641775
 10
156.30656946672485
 20
64.46064650641775
  0
LWPOLYLINE
  5
82
330
17
100
AcDbEntity
  8
MAT-FIN
  6
Continuous
370
5
100
AcDbPolyline
 90
2
 70
0
 10
238.30658493957964
 20
63.46064652876948
 10
238.30658493957964
 20
64.46064650641775
  0
LWPOLYLINE
  5
83
330
17
100
AcDbEntity
  8
MAT-FIN
  6
Continuous
370
5
100
AcDbPolyline
 90
2
 70
0
 10
156.30656946672485
 20
63.46064652876948
 10
238.30658493957964
 20
63.46064652876948
  0
LWPOLYLINE
  5
84
330
17
100
AcDbEntity
  8
MAT-FIN
  6
Continuous
370
5
100
AcDbPolyline
 90
2
 70
0
 10
156.30656946672485
 20
64.46064650641775
 10
156.30656946672485
 20
63.46064652876948
  0
LWPOLYLINE
  5
85
330
17
100
AcDbEntity
  8
MAT-CONCRETE
  6
Continuous
370
5
100
AcDbPolyline
 90
2
 70
0
 10
209.9691640161737
 20
116.46065297352102
 10
209.9691640161737
 20
114.46065301822452
  0
LWPOLYLINE
  5
86
330
17
100
AcDbEntity
  8
MAT-CONCRETE
  6
Continuous
370
5
100
AcDbPolyline
 90
2
 70
0
 10
209.9691640161737
 20
114.46065301822452
 10
208.30656639708533
 20
114.46065301822452
  0
LWPOLYLINE
  5
87
330
17
100
AcDbEntity
  8
MAT-CONCRETE
  6
Continuous
370
5
100
AcDbPolyline
 90
2
 70
0
 10
208.30656639708533
 20
114.46065301822452
 10
208.30656639708533
 20
116.46065297352102
  0
LWPOLYLINE
  5
88
330
17
100
AcDbEntity
  8
MAT-CONCRETE
  6
Continuous
370
5
100
AcDbPolyline
 90
2
 70
0
 10
209.9691640161737
 20
116.46065297352102
 10
208.30656639708533
 20
116.46065297352102
  0
LWPOLYLINE
  5
89
330
17
100
AcDbEntity
  8
MAT-CONCRETE
  6
Continuous
370
5
100
AcDbPolyline
 90
2
 70
0
 10
218.96916381500802
 20
114.46065301822452
 10
218.96916381500802
 20
116.46065297352102
  0
LWPOLYLINE
  5
8A
330
17
100
AcDbEntity
  8
MAT-CONCRETE
  6
Continuous
370
5
100
AcDbPolyline
 90
2
 70
0
 10
233.3065658382918
 20
116.46065297352102
 10
218.96916381500802
 20
116.46065297352102
  0
LWPOLYLINE
  5
8B
330
17
100
AcDbEntity
  8
MAT-CONCRETE
  6
Continuous
370
5
100
AcDbPolyline
 90
2
 70
0
 10
233.3065658382918
 20
114.46065301822452
 10
233.3065658382918
 20
116.46065297352102
  0
LWPOLYLINE
  5
8C
330
17
100
AcDbEntity
  8
MAT-CONCRETE
  6
Continuous
370
5
100
AcDbPolyline
 90
2
 70
0
 10
233.3065658382918
 20
114.46065301822452
 10
218.96916381500802
 20
114.46065301822452
  0
LWPOLYLINE
  5
8D
330
17
100
AcDbEntity
  8
MAT-CONCRETE
  6
Continuous
370
5
100
AcDbPolyline
 90
2
 70
0
 10
158.3065711624238
 20
69.46064566805134
 10
158.30655797792963
 20
111.46065308527973
  0
LWPOLYLINE
  5
8E
330
17
100
AcDbEntity
  8
MAT-CONCRETE
  6
Continuous
370
5
100
AcDbPolyline
 90
2
 70
0
 10
156.3065712071274
 20
69.46064504021842
 10
158.3065711624238
 20
69.46064566805134
  0
LWPOLYLINE
  5
8F
330
17
100
AcDbEntity
  8
MAT-CONCRETE
  6
Continuous
370
5
100
AcDbPolyline
 90
2
 70
0
 10
156.3065580226332
 20
111.4606524574468
 10
156.3065712071274
 20
69.46064504021842
  0
LWPOLYLINE
  5
90
330
17
100
AcDbEntity
  8
MAT-CONCRETE
  6
Continuous
370
5
100
AcDbPolyline
 90
2
 70
0
 10
158.30655797792963
 20
111.46065308527973
 10
156.3065580226332
 20
111.4606524574468
  0
LWPOLYLINE
  5
91
330
17
100
AcDbEntity
  8
MAT-CONCRETE
  6
Continuous
370
5
100
AcDbPolyline
 90
2
 70
0
 10
238.30655230354452
 20
116.46065286755861
 10
238.30654665304752
 20
134.46065447853863
  0
LWPOLYLINE
  5
92
330
17
100
AcDbEntity
  8
MAT-CONCRETE
  6
Continuous
370
5
100
AcDbPolyline
 90
2
 70
0
 10
236.30655234824812
 20
116.46065223972568
 10
238.30655230354452
 20
116.46065286755861
  0
LWPOLYLINE
  5
93
330
17
100
AcDbEntity
  8
MAT-CONCRETE
  6
Continuous
370
5
100
AcDbPolyline
 90
2
 70
0
 10
236.3065466977511
 20
134.46065385070568
 10
236.30655234824812
 20
116.46065223972568
  0
LWPOLYLINE
  5
94
330
17
100
AcDbEntity
  8
MAT-CONCRETE
  6
Continuous
370
5
100
AcDbPolyline
 90
2
 70
0
 10
238.30654665304752
 20
134.46065447853863
 10
236.3065466977511
 20
134.46065385070568
  0
LWPOLYLINE
  5
95
330
17
100
AcDbEntity
  8
MAT-CONCRETE
  6
Continuous
370
5
100
AcDbPolyline
 90
2
 70
0
 10
233.3065652025093
 20
66.46065409110814
 10
161.30656935496614
 20
66.46065409110814
  0
LWPOLYLINE
  5
96
330
17
100
AcDbEntity
  8
MAT-CONCRETE
  6
Continuous
370
5
100
AcDbPolyline
 90
2
 70
0
 10
233.3065652025093
 20
64.46065413581162
 10
233.3065652025093
 20
66.46065409110814
  0
LWPOLYLINE
  5
97
330
17
100
AcDbEntity
  8
MAT-CONCRETE
  6
Continuous
370
5
100
AcDbPolyline
 90
2
 70
0
 10
161.30656935496614
 20
64.46065413581162
 10
233.3065652025093
 20
64.46065413581162
  0
LWPOLYLINE
  5
98
330
17
100
AcDbEntity
  8
MAT-CONCRETE
  6
Continuous
370
5
100
AcDbPolyline
 90
2
 70
0
 10
161.30656935496614
 20
66.46065409110814
 10
161.30656935496614
 20
64.46065413581162
  0
LWPOLYLINE
  5
99
330
17
100
AcDbEntity
  8
MAT-CONCRETE
  6
Continuous
370
5
100
AcDbPolyline
 90
2
 70
0
 10
85.20656018404664
 20
116.46065297352102
 10
85.20656018404664
 20
114.46065301822452
  0
LWPOLYLINE
  5
9A
330
17
100
AcDbEntity
  8
MAT-CONCRETE
  6
Continuous
370
5
100
AcDbPolyline
 90
2
 70
0
 10
85.20656018404664
 20
114.46065301822452
 10
71.30655944569416
 20
114.46065301822452
  0
LWPOLYLINE
  5
9B
330
17
100
AcDbEntity
  8
MAT-CONCRETE
  6
Continuous
370
5
100
AcDbPolyline
 90
2
 70
0
 10
71.30655944569416
 20
114.46065301822452
 10
71.30655944569416
 20
116.46065297352102
  0
LWPOLYLINE
  5
9C
330
17
100
AcDbEntity
  8
MAT-CONCRETE
  6
Continuous
370
5
100
AcDbPolyline
 90
2
 70
0
 10
85.20656018404664
 20
116.46065297352102
 10
71.30655944569416
 20
116.46065297352102
  0
LWPOLYLINE
  5
9D
330
17
100
AcDbEntity
  8
MAT-CONCRETE
  6
Continuous
370
5
100
AcDbPolyline
 90
2
 70
0
 10
115.20655951349438
 20
116.46065297352102
 10
115.20655951349438
 20
114.46065301822452
  0
LWPOLYLINE
  5
9E
330
17
100
AcDbEntity
  8
MAT-CONCRETE
  6
Continuous
370
5
100
AcDbPolyline
 90
2
 70
0
 10
115.20655951349438
 20
114.46065301822452
 10
94.20655998288096
 20
114.46065301822452
  0
LWPOLYLINE
  5
9F
330
17
100
AcDbEntity
  8
MAT-CONCRETE
  6
Continuous
370
5
100
AcDbPolyline
 90
2
 70
0
 10
94.20655998288096
 20
114.46065301822452
 10
94.20655998288096
 20
116.46065297352102
  0
LWPOLYLINE
  5
A0
330
17
100
AcDbEntity
  8
MAT-CONCRETE
  6
Continuous
370
5
100
AcDbPolyline
 90
2
 70
0
 10
115.20655951349438
 20
116.46065297352102
 10
94.20655998288096
 20
116.46065297352102
  0
LWPOLYLINE
  5
A1
330
17
100
AcDbEntity
  8
MAT-CONCRETE
  6
Continuous
370
5
100
AcDbPolyline
 90
2
 70
0
 10
145.24159206817228
 20
116.46065297352102
 10
145.24159206817228
 20
114.46065301822452
  0
LWPOLYLINE
  5
A2
330
17
100
AcDbEntity
  8
MAT-CONCRETE
  6
Continuous
370
5
100
AcDbPolyline
 90
2
 70
0
 10
145.24159206817228
 20
114.46065301822452
 10
124.2065593123287
 20
114.46065301822452
  0
LWPOLYLINE
  5
A3
330
17
100
AcDbEntity
  8
MAT-CONCRETE
  6
Continuous
370
5
100
AcDbPolyline
 90
2
 70
0
 10
124.2065593123287
 20
114.46065301822452
 10
124.2065593123287
 20
116.46065297352102
  0
LWPOLYLINE
  5
A4
330
17
100
AcDbEntity
  8
MAT-CONCRETE
  6
Continuous
370
5
100
AcDbPolyline
 90
2
 70
0
 10
145.24159206817228
 20
116.46065297352102
 10
124.2065593123287
 20
116.46065297352102
  0
LWPOLYLINE
  5
A5
330
17
100
AcDbEntity
  8
MAT-CONCRETE
  6
Continuous
370
5
100
AcDbPolyline
 90
2
 70
0
 10
154.2415918670066
 20
114.46065301822452
 10
154.2415918670066
 20
116.46065297352102
  0
LWPOLYLINE
  5
A6
330
17
100
AcDbEntity
  8
MAT-CONCRETE
  6
Continuous
370
5
100
AcDbPolyline
 90
2
 70
0
 10
156.30655754579612
 20
116.46065297352102
 10
154.2415918670066
 20
116.46065297352102
  0
LWPOLYLINE
  5
A7
330
17
100
AcDbEntity
  8
MAT-CONCRETE
  6
Continuous
370
5
100
AcDbPolyline
 90
2
 70
0
 10
156.30655754579612
 20
114.46065301822452
 10
156.30655754579612
 20
116.46065297352102
  0
LWPOLYLINE
  5
A8
330
17
100
AcDbEntity
  8
MAT-CONCRETE
  6
Continuous
370
5
100
AcDbPolyline
 90
2
 70
0
 10
156.30655754579612
 20
114.46065301822452
 10
154.2415918670066
 20
114.46065301822452
  0
LWPOLYLINE
  5
A9
330
17
100
AcDbEntity
  8
MAT-CONCRETE
  6
Continuous
370
5
100
AcDbPolyline
 90
2
 70
0
 10
134.30656232906873
 20
64.46065413581162
 10
154.30656066133082
 20
64.46065413581162
  0
LWPOLYLINE
  5
AA
330
17
100
AcDbEntity
  8
MAT-CONCRETE
  6
Continuous
370
5
100
AcDbPolyline
 90
2
 70
0
 10
134.30656232906873
 20
66.46065409110814
 10
154.30656066133082
 20
66.46065409110814
  0
LWPOLYLINE
  5
AB
330
17
100
AcDbEntity
  8
MAT-CONCRETE
  6
Continuous
370
5
100
AcDbPolyline
 90
2
 70
0
 10
124.30657086862607
 20
64.46065413581162
 10
124.30657086862607
 20
66.46065409110814
  0
LWPOLYLINE
  5
AC
330
17
100
AcDbEntity
  8
MAT-CONCRETE
  6
Continuous
370
5
100
AcDbPolyline
 90
2
 70
0
 10
134.30656232906873
 20
66.46065409110814
 10
124.30657086862607
 20
66.46065409110814
  0
LWPOLYLINE
  5
AD
330
17
100
AcDbEntity
  8
MAT-CONCRETE
  6
Continuous
370
5
100
AcDbPolyline
 90
2
 70
0
 10
134.30656232906873
 20
66.46065409110814
 10
134.30656232906873
 20
64.46065413581162
  0
LWPOLYLINE
  5
AE
330
17
100
AcDbEntity
  8
MAT-CONCRETE
  6
Continuous
370
5
100
AcDbPolyline
 90
2
 70
0
 10
134.30656232906873
 20
64.46065413581162
 10
124.30657086862607
 20
64.46065413581162
  0
LWPOLYLINE
  5
AF
330
17
100
AcDbEntity
  8
MAT-CONCRETE
  6
Continuous
370
5
100
AcDbPolyline
 90
2
 70
0
 10
104.30657253636397
 20
64.46065413581162
 10
124.30657086862607
 20
64.46065413581162
  0
LWPOLYLINE
  5
B0
330
17
100
AcDbEntity
  8
MAT-CONCRETE
  6
Continuous
370
5
100
AcDbPolyline
 90
2
 70
0
 10
104.30657253636397
 20
66.46065409110814
 10
124.30657086862607
 20
66.46065409110814
  0
LWPOLYLINE
  5
B1
330
17
100
AcDbEntity
  8
MAT-CONCRETE
  6
Continuous
370
5
100
AcDbPolyline
 90
2
 70
0
 10
104.30657253636397
 20
66.46065409110814
 10
104.30657253636397
 20
64.46065413581162
  0
LWPOLYLINE
  5
B2
330
17
100
AcDbEntity
  8
MAT-CONCRETE
  6
Continuous
370
5
100
AcDbPolyline
 90
2
 70
0
 10
104.30657253636397
 20
64.46065413581162
 10
94.30657392336407
 20
64.46065413581162
  0
LWPOLYLINE
  5
B3
330
17
100
AcDbEntity
  8
MAT-CONCRETE
  6
Continuous
370
5
100
AcDbPolyline
 90
2
 70
0
 10
94.30657392336407
 20
64.46065413581162
 10
94.30657392336407
 20
66.46065409110814
  0
LWPOLYLINE
  5
B4
330
17
100
AcDbEntity
  8
MAT-CONCRETE
  6
Continuous
370
5
100
AcDbPolyline
 90
2
 70
0
 10
104.30657253636397
 20
66.46065409110814
 10
94.30657392336407
 20
66.46065409110814
  0
LWPOLYLINE
  5
B5
330
17
100
AcDbEntity
  8
MAT-CONCRETE
  6
Continuous
370
5
100
AcDbPolyline
 90
2
 70
0
 10
74.30657559110197
 20
64.46065413581162
 10
94.30657392336407
 20
64.46065413581162
  0
LWPOLYLINE
  5
B6
330
17
100
AcDbEntity
  8
MAT-CONCRETE
  6
Continuous
370
5
100
AcDbPolyline
 90
2
 70
0
 10
74.30657559110197
 20
66.46065409110814
 10
94.30657392336407
 20
66.46065409110814
  0
LWPOLYLINE
  5
B7
330
17
100
AcDbEntity
  8
MAT-CONCRETE
  6
Continuous
370
5
100
AcDbPolyline
 90
2
 70
0
 10
71.30655944569416
 20
64.46065413581162
 10
71.30655944569416
 20
66.46065409110814
  0
LWPOLYLINE
  5
B8
330
17
100
AcDbEntity
  8
MAT-CONCRETE
  6
Continuous
370
5
100
AcDbPolyline
 90
2
 70
0
 10
74.30657559110197
 20
66.46065409110814
 10
71.30655944569416
 20
66.46065409110814
  0
LWPOLYLINE
  5
B9
330
17
100
AcDbEntity
  8
MAT-CONCRETE
  6
Continuous
370
5
100
AcDbPolyline
 90
2
 70
0
 10
74.30657559110197
 20
66.46065409110814
 10
74.30657559110197
 20
64.46065413581162
  0
LWPOLYLINE
  5
BA
330
17
100
AcDbEntity
  8
MAT-CONCRETE
  6
Continuous
370
5
100
AcDbPolyline
 90
2
 70
0
 10
74.30657559110197
 20
64.46065413581162
 10
71.30655944569416
 20
64.46065413581162
  0
LWPOLYLINE
  5
BB
330
17
100
AcDbEntity
  8
MAT-CONCRETE
  6
Continuous
370
5
100
AcDbPolyline
 90
2
 70
0
 10
156.30656652155372
 20
64.46065413581162
 10
154.30656066133082
 20
64.46065413581162
  0
LWPOLYLINE
  5
BC
330
17
100
AcDbEntity
  8
MAT-CONCRETE
  6
Continuous
370
5
100
AcDbPolyline
 90
2
 70
0
 10
154.30656066133082
 20
64.46065413581162
 10
154.30656066133082
 20
66.46065409110814
  0
LWPOLYLINE
  5
BD
330
17
100
AcDbEntity
  8
MAT-CONCRETE
  6
Continuous
370
5
100
AcDbPolyline
 90
2
 70
0
 10
156.30656652155372
 20
66.46065409110814
 10
154.30656066133082
 20
66.46065409110814
  0
LWPOLYLINE
  5
BE
330
17
100
AcDbEntity
  8
MAT-CONCRETE
  6
Continuous
370
5
100
AcDbPolyline
 90
2
 70
0
 10
156.30656652155372
 20
64.46065413581162
 10
156.30656652155372
 20
66.46065409110814
  0
LWPOLYLINE
  5
BF
330
17
100
AcDbEntity
  8
MAT-CONCRETE
  6
Continuous
370
5
100
AcDbPolyline
 90
2
 70
0
 10
223.3065701427268
 20
66.46065431119246
 10
223.3065660618092
 20
79.46066524462721
  0
LWPOLYLINE
  5
C0
330
17
100
AcDbEntity
  8
MAT-CONCRETE
  6
Continuous
370
5
100
AcDbPolyline
 90
2
 70
0
 10
221.30657018743037
 20
66.4606536833595
 10
223.3065701427268
 20
66.46065431119246
  0
LWPOLYLINE
  5
C1
330
17
100
AcDbEntity
  8
MAT-CONCRETE
  6
Continuous
370
5
100
AcDbPolyline
 90
2
 70
0
 10
221.3065661065128
 20
79.46066461679429
 10
221.30657018743037
 20
66.4606536833595
  0
LWPOLYLINE
  5
C2
330
17
100
AcDbEntity
  8
MAT-CONCRETE
  6
Continuous
370
5
100
AcDbPolyline
 90
2
 70
0
 10
223.3065660618092
 20
79.46066524462721
 10
221.3065661065128
 20
79.46066461679429
  0
LWPOLYLINE
  5
C3
330
17
100
AcDbEntity
  8
MAT-CONCRETE
  6
Continuous
370
5
100
AcDbPolyline
 90
2
 70
0
 10
145.24159206817237
 20
136.4606525264862
 10
145.24159206817237
 20
134.46065257118968
  0
LWPOLYLINE
  5
C4
330
17
100
AcDbEntity
  8
MAT-CONCRETE
  6
Continuous
370
5
100
AcDbPolyline
 90
2
 70
0
 10
145.24159206817237
 20
134.46065257118968
 10
68.3065456844721
 20
134.46065257118968
  0
LWPOLYLINE
  5
C5
330
17
100
AcDbEntity
  8
MAT-CONCRETE
  6
Continuous
370
5
100
AcDbPolyline
 90
2
 70
0
 10
68.3065456844721
 20
134.46065257118968
 10
68.3065456844721
 20
136.4606525264862
  0
LWPOLYLINE
  5
C6
330
17
100
AcDbEntity
  8
MAT-CONCRETE
  6
Continuous
370
5
100
AcDbPolyline
 90
2
 70
0
 10
145.24159206817237
 20
136.4606525264862
 10
68.3065456844721
 20
136.4606525264862
  0
LWPOLYLINE
  5
C7
330
17
100
AcDbEntity
  8
MAT-CONCRETE
  6
Continuous
370
5
100
AcDbPolyline
 90
2
 70
0
 10
154.2415918670067
 20
134.46065257118968
 10
154.2415918670067
 20
136.4606525264862
  0
LWPOLYLINE
  5
C8
330
17
100
AcDbEntity
  8
MAT-CONCRETE
  6
Continuous
370
5
100
AcDbPolyline
 90
2
 70
0
 10
238.306541884676
 20
136.4606525264862
 10
154.2415918670067
 20
136.4606525264862
  0
LWPOLYLINE
  5
C9
330
17
100
AcDbEntity
  8
MAT-CONCRETE
  6
Continuous
370
5
100
AcDbPolyline
 90
2
 70
0
 10
238.306541884676
 20
134.46065257118968
 10
238.306541884676
 20
136.4606525264862
  0
LWPOLYLINE
  5
CA
330
17
100
AcDbEntity
  8
MAT-CONCRETE
  6
Continuous
370
5
100
AcDbPolyline
 90
2
 70
0
 10
238.306541884676
 20
134.46065257118968
 10
154.2415918670067
 20
134.46065257118968
  0
LWPOLYLINE
  5
CB
330
17
100
AcDbEntity
  8
MAT-NULL
  6
Continuous
370
20
100
AcDbPolyline
 90
2
 70
0
 10
64.80648130823016
 20
125.96064856501167
 10
64.80648393478127
 20
120.96065226258632
  0
LWPOLYLINE
  5
CC
330
17
100
AcDbEntity
  8
MAT-NULL
  6
Continuous
370
20
100
AcDbPolyline
 90
2
 70
0
 10
66.30650228970168
 20
120.96065273346677
 10
64.80648393478127
 20
120.96065226258632
  0
LWPOLYLINE
  5
CD
330
17
100
AcDbEntity
  8
MAT-NULL
  6
Continuous
370
20
100
AcDbPolyline
 90
2
 70
0
 10
66.30649965200527
 20
125.96064903589215
 10
66.30650228970168
 20
120.96065273346677
  0
LWPOLYLINE
  5
CE
330
17
100
AcDbEntity
  8
MAT-NULL
  6
Continuous
370
20
100
AcDbPolyline
 90
2
 70
0
 10
66.30649965200527
 20
125.96064903589215
 10
64.80648130823016
 20
125.96064856501167
  0
LWPOLYLINE
  5
CF
330
17
100
AcDbEntity
  8
MAT-NULL
  6
Continuous
370
20
100
AcDbPolyline
 90
2
 70
0
 10
64.80648130822941
 20
125.9606509682709
 10
64.80648115126986
 20
126.46065513418797
  0
LWPOLYLINE
  5
D0
330
17
100
AcDbEntity
  8
MAT-NULL
  6
Continuous
370
20
100
AcDbPolyline
 90
2
 70
0
 10
64.80648130822941
 20
125.9606509682709
 10
64.80648115126986
 20
126.46065513418797
  0
LWPOLYLINE
  5
D1
330
17
100
AcDbEntity
  8
MAT-NULL
  6
Continuous
370
20
100
AcDbPolyline
 90
2
 70
0
 10
66.30649965200452
 20
125.96065143915136
 10
64.80648130822941
 20
125.9606509682709
  0
LWPOLYLINE
  5
D2
330
17
100
AcDbEntity
  8
MAT-NULL
  6
Continuous
370
20
100
AcDbPolyline
 90
2
 70
0
 10
66.30649949504497
 20
126.46065560506845
 10
66.30649965200452
 20
125.96065143915136
  0
LWPOLYLINE
  5
D3
330
17
100
AcDbEntity
  8
MAT-NULL
  6
Continuous
370
20
100
AcDbPolyline
 90
2
 70
0
 10
66.30649949504497
 20
126.46065560506845
 10
66.30649965200452
 20
125.96065143915136
  0
LWPOLYLINE
  5
D4
330
17
100
AcDbEntity
  8
MAT-NULL
  6
Continuous
370
20
100
AcDbPolyline
 90
2
 70
0
 10
66.30649949504497
 20
126.46065560506845
 10
64.80648115126986
 20
126.46065513418797
  0
LWPOLYLINE
  5
D5
330
17
100
AcDbEntity
  8
MAT-NULL
  6
Continuous
370
20
100
AcDbPolyline
 90
2
 70
0
 10
65.30653887710208
 20
126.46065529116434
 10
64.80648115126986
 20
126.46065513418797
  0
LWPOLYLINE
  5
D6
330
17
100
AcDbEntity
  8
MAT-NULL
  6
Continuous
370
20
100
AcDbPolyline
 90
2
 70
0
 10
64.80648409174007
 20
120.46065044270756
 10
64.80648393478089
 20
120.9606534832894
  0
LWPOLYLINE
  5
D7
330
17
100
AcDbEntity
  8
MAT-NULL
  6
Continuous
370
20
100
AcDbPolyline
 90
2
 70
0
 10
64.80648409174007
 20
120.46065044270756
 10
64.80648393478089
 20
120.9606534832894
  0
LWPOLYLINE
  5
D8
330
17
100
AcDbEntity
  8
MAT-NULL
  6
Continuous
370
20
100
AcDbPolyline
 90
2
 70
0
 10
65.30654076060328
 20
120.46065059968359
 10
64.80648409174007
 20
120.46065044270756
  0
LWPOLYLINE
  5
D9
330
17
100
AcDbEntity
  8
MAT-NULL
  6
Continuous
370
20
100
AcDbPolyline
 90
2
 70
0
 10
66.30650244666049
 20
120.46065091358804
 10
64.80648409174007
 20
120.46065044270756
  0
LWPOLYLINE
  5
DA
330
17
100
AcDbEntity
  8
MAT-NULL
  6
Continuous
370
20
100
AcDbPolyline
 90
2
 70
0
 10
66.3065022897013
 20
120.96065395416989
 10
66.30650244666049
 20
120.46065091358804
  0
LWPOLYLINE
  5
DB
330
17
100
AcDbEntity
  8
MAT-NULL
  6
Continuous
370
20
100
AcDbPolyline
 90
2
 70
0
 10
66.3065022897013
 20
120.96065395416989
 10
66.30650244666049
 20
120.46065091358804
  0
LWPOLYLINE
  5
DC
330
17
100
AcDbEntity
  8
MAT-NULL
  6
Continuous
370
20
100
AcDbPolyline
 90
2
 70
0
 10
66.3065022897013
 20
120.96065395416989
 10
64.80648393478089
 20
120.9606534832894
  0
LWPOLYLINE
  5
DD
330
17
100
AcDbEntity
  8
MAT-NULL
  6
Continuous
370
20
100
AcDbPolyline
 90
2
 70
0
 10
65.65649455483896
 20
125.96065123510407
 10
65.45647571470523
 20
125.96065117231485
  0
LWPOLYLINE
  5
DE
330
17
100
AcDbEntity
  8
MAT-NULL
  6
Continuous
370
20
100
AcDbPolyline
 90
2
 70
0
 10
65.45647571470523
 20
125.96065117231485
 10
65.65649455483896
 20
125.96065123510407
  0
LWPOLYLINE
  5
DF
330
17
100
AcDbEntity
  8
MAT-NULL
  6
Continuous
370
20
100
AcDbPolyline
 90
2
 70
0
 10
65.65649719253612
 20
120.96065252941948
 10
65.65649455483896
 20
125.96065123510407
  0
LWPOLYLINE
  5
E0
330
17
100
AcDbEntity
  8
MAT-NULL
  6
Continuous
370
20
100
AcDbPolyline
 90
2
 70
0
 10
65.65649455483896
 20
125.96065123510407
 10
65.65649719253612
 20
120.96065252941948
  0
LWPOLYLINE
  5
E1
330
17
100
AcDbEntity
  8
MAT-NULL
  6
Continuous
370
20
100
AcDbPolyline
 90
2
 70
0
 10
65.45647842869636
 20
120.9606524666303
 10
65.65649719253612
 20
120.96065252941948
  0
LWPOLYLINE
  5
E2
330
17
100
AcDbEntity
  8
MAT-NULL
  6
Continuous
370
20
100
AcDbPolyline
 90
2
 70
0
 10
65.65649719253612
 20
120.96065252941948
 10
65.45647842869636
 20
120.9606524666303
  0
LWPOLYLINE
  5
E3
330
17
100
AcDbEntity
  8
MAT-NULL
  6
Continuous
370
20
100
AcDbPolyline
 90
2
 70
0
 10
65.45647571470523
 20
125.96065117231485
 10
65.45647842869636
 20
120.9606524666303
  0
LWPOLYLINE
  5
E4
330
17
100
AcDbEntity
  8
MAT-NULL
  6
Continuous
370
20
100
AcDbPolyline
 90
2
 70
0
 10
65.45647571470523
 20
125.96065117231485
 10
65.45647842869636
 20
120.9606524666303
  0
LWPOLYLINE
  5
E5
330
17
100
AcDbEntity
  8
MAT-CONCRETE
  6
Continuous
370
5
100
AcDbPolyline
 90
2
 70
0
 10
238.3065598375417
 20
69.46064566804814
 10
238.30654665304752
 20
111.46065308527973
  0
LWPOLYLINE
  5
E6
330
17
100
AcDbEntity
  8
MAT-CONCRETE
  6
Continuous
370
5
100
AcDbPolyline
 90
2
 70
0
 10
236.3065598822453
 20
69.46064504021523
 10
238.3065598375417
 20
69.46064566804814
  0
LWPOLYLINE
  5
E7
330
17
100
AcDbEntity
  8
MAT-CONCRETE
  6
Continuous
370
5
100
AcDbPolyline
 90
2
 70
0
 10
236.3065466977511
 20
111.4606524574468
 10
236.3065598822453
 20
69.46064504021523
  0
LWPOLYLINE
  5
E8
330
17
100
AcDbEntity
  8
MAT-CONCRETE
  6
Continuous
370
5
100
AcDbPolyline
 90
2
 70
0
 10
238.30654665304752
 20
111.46065308527973
 10
236.3065466977511
 20
111.4606524574468
  0
LWPOLYLINE
  5
E9
330
17
100
AcDbEntity
  8
MAT-CONCRETE
  6
Continuous
370
5
100
AcDbPolyline
 90
2
 70
0
 10
208.30658209290866
 20
66.46065409110696
 10
208.30656639708533
 20
116.46065297352102
  0
LWPOLYLINE
  5
EA
330
17
100
AcDbEntity
  8
MAT-CONCRETE
  6
Continuous
370
5
100
AcDbPolyline
 90
2
 70
0
 10
206.30658213761225
 20
66.46065346327404
 10
208.30658209290866
 20
66.46065409110696
  0
LWPOLYLINE
  5
EB
330
17
100
AcDbEntity
  8
MAT-CONCRETE
  6
Continuous
370
5
100
AcDbPolyline
 90
2
 70
0
 10
206.30656644178893
 20
116.46065234568809
 10
206.30658213761225
 20
66.46065346327404
  0
LWPOLYLINE
  5
EC
330
17
100
AcDbEntity
  8
MAT-CONCRETE
  6
Continuous
370
5
100
AcDbPolyline
 90
2
 70
0
 10
208.30656639708533
 20
116.46065297352102
 10
206.30656644178893
 20
116.46065234568809
  0
LWPOLYLINE
  5
ED
330
17
100
AcDbEntity
  8
MAT-CONCRETE
  6
Continuous
370
5
100
AcDbPolyline
 90
2
 70
0
 10
236.30653879586498
 20
81.46065375583201
 10
208.30656639708533
 20
81.46065375583201
  0
LWPOLYLINE
  5
EE
330
17
100
AcDbEntity
  8
MAT-CONCRETE
  6
Continuous
370
5
100
AcDbPolyline
 90
2
 70
0
 10
236.30653879586498
 20
79.4606538005355
 10
236.30653879586498
 20
81.46065375583201
  0
LWPOLYLINE
  5
EF
330
17
100
AcDbEntity
  8
MAT-CONCRETE
  6
Continuous
370
5
100
AcDbPolyline
 90
2
 70
0
 10
208.30656639708533
 20
79.4606538005355
 10
236.30653879586498
 20
79.4606538005355
  0
LWPOLYLINE
  5
F0
330
17
100
AcDbEntity
  8
MAT-CONCRETE
  6
Continuous
370
5
100
AcDbPolyline
 90
2
 70
0
 10
208.30656639708533
 20
81.46065375583201
 10
208.30656639708533
 20
79.4606538005355
  0
LWPOLYLINE
  5
F1
330
17
100
AcDbEntity
  8
MAT-NULL
  6
Continuous
370
5
100
AcDbPolyline
 90
2
 70
0
 10
206.30655901273295
 20
90.89493821292841
 10
193.8065605128328
 20
90.89493806386741
  0
LWPOLYLINE
  5
F2
330
17
100
AcDbEntity
  8
MAT-NULL
  6
Continuous
370
5
100
AcDbPolyline
 90
2
 70
0
 10
206.30655887917428
 20
102.09493735223737
 10
193.80656037927412
 20
102.09493720317637
  0
LWPOLYLINE
  5
F3
330
17
100
AcDbEntity
  8
MAT-NULL
  6
Continuous
370
5
100
AcDbPolyline
 90
2
 70
0
 10
206.30655897934327
 20
93.6949381503435
 10
193.8065604794431
 20
93.69493800128254
  0
LWPOLYLINE
  5
F4
330
17
100
AcDbEntity
  8
MAT-NULL
  6
Continuous
370
5
100
AcDbPolyline
 90
2
 70
0
 10
206.3065588457846
 20
104.89493698447671
 10
193.80656034588446
 20
104.89493683541572
  0
LWPOLYLINE
  5
F5
330
17
100
AcDbEntity
  8
MAT-NULL
  6
Continuous
370
5
100
AcDbPolyline
 90
2
 70
0
 10
193.80656063659754
 20
80.51623813740049
 10
206.3065591364977
 20
80.51623828646152
  0
LWPOLYLINE
  5
F6
330
17
100
AcDbEntity
  8
MAT-NULL
  6
Continuous
370
5
100
AcDbPolyline
 90
2
 70
0
 10
206.30655907951228
 20
85.29493955880122
 10
193.8065605796121
 20
85.29493940974022
  0
LWPOLYLINE
  5
F7
330
17
100
AcDbEntity
  8
MAT-NULL
  6
Continuous
370
5
100
AcDbPolyline
 90
2
 70
0
 10
206.3065589459536
 20
96.49493808775864
 10
193.80656044605345
 20
96.49493793869765
  0
LWPOLYLINE
  5
F8
330
17
100
AcDbEntity
  8
MAT-NULL
  6
Continuous
370
5
100
AcDbPolyline
 90
2
 70
0
 10
206.3065590461226
 20
88.09493949621636
 10
193.8065605462224
 20
88.09493934715536
  0
LWPOLYLINE
  5
F9
330
17
100
AcDbEntity
  8
MAT-NULL
  6
Continuous
370
5
100
AcDbPolyline
 90
2
 70
0
 10
206.30655907951228
 20
85.29493955880122
 10
193.8065605796121
 20
85.29493940974022
  0
LWPOLYLINE
  5
FA
330
17
100
AcDbEntity
  8
MAT-NULL
  6
Continuous
370
5
100
AcDbPolyline
 90
2
 70
0
 10
206.30655881239497
 20
107.69493661671605
 10
193.8065603124948
 20
107.69493646765507
  0
LWPOLYLINE
  5
FB
330
17
100
AcDbEntity
  8
MAT-NULL
  6
Continuous
370
5
100
AcDbPolyline
 90
2
 70
0
 10
206.30655891256396
 20
99.2949368044707
 10
193.8065604126638
 20
99.2949366554097
  0
LWPOLYLINE
  5
FC
330
17
100
AcDbEntity
  8
MAT-NULL
  6
Continuous
370
5
100
AcDbPolyline
 90
2
 70
0
 10
193.8065603124948
 20
107.69493646765507
 10
193.80656034588446
 20
104.89493683541572
  0
LWPOLYLINE
  5
FD
330
17
100
AcDbEntity
  8
MAT-NULL
  6
Continuous
370
5
100
AcDbPolyline
 90
2
 70
0
 10
193.80656034588446
 20
104.89493683541572
 10
193.80656037927412
 20
102.09493720317637
  0
LWPOLYLINE
  5
FE
330
17
100
AcDbEntity
  8
MAT-NULL
  6
Continuous
370
5
100
AcDbPolyline
 90
2
 70
0
 10
193.80656037927412
 20
102.09493720317637
 10
193.8065604126638
 20
99.2949366554097
  0
LWPOLYLINE
  5
FF
330
17
100
AcDbEntity
  8
MAT-NULL
  6
Continuous
370
5
100
AcDbPolyline
 90
2
 70
0
 10
193.8065604126638
 20
99.2949366554097
 10
193.80656044605345
 20
96.49493793869765
  0
LWPOLYLINE
  5
100
330
17
100
AcDbEntity
  8
MAT-NULL
  6
Continuous
370
5
100
AcDbPolyline
 90
2
 70
0
 10
193.80656044605345
 20
96.49493793869765
 10
193.8065604794431
 20
93.69493800128254
  0
LWPOLYLINE
  5
101
330
17
100
AcDbEntity
  8
MAT-NULL
  6
Continuous
370
5
100
AcDbPolyline
 90
2
 70
0
 10
193.8065604794431
 20
93.69493800128254
 10
193.8065605128328
 20
90.89493806386741
  0
LWPOLYLINE
  5
102
330
17
100
AcDbEntity
  8
MAT-NULL
  6
Continuous
370
5
100
AcDbPolyline
 90
2
 70
0
 10
193.8065605128328
 20
90.89493806386741
 10
193.8065605462224
 20
88.09493934715536
  0
LWPOLYLINE
  5
103
330
17
100
AcDbEntity
  8
MAT-NULL
  6
Continuous
370
5
100
AcDbPolyline
 90
2
 70
0
 10
193.8065605462224
 20
88.09493934715536
 10
193.8065605796121
 20
85.29493940974022
  0
LWPOLYLINE
  5
104
330
17
100
AcDbEntity
  8
MAT-NULL
  6
Continuous
370
5
100
AcDbPolyline
 90
2
 70
0
 10
193.8065605796121
 20
85.29493940974022
 10
193.80656063659754
 20
80.51623813740049
  0
LWPOLYLINE
  5
105
330
17
100
AcDbEntity
  8
MAT-NULL
  6
Continuous
370
5
100
AcDbPolyline
 90
2
 70
0
 10
193.80656063659754
 20
80.51623813740049
 10
193.80656034588446
 20
104.89493683541572
  0
LWPOLYLINE
  5
106
330
17
100
AcDbEntity
  8
MAT-NULL
  6
Continuous
370
5
100
AcDbPolyline
 90
2
 70
0
 10
206.3065588457846
 20
104.89493698447673
 10
206.3065591364977
 20
80.51623828646152
  0
LWPOLYLINE
  5
107
330
17
100
AcDbEntity
  8
MAT-NULL
  6
Continuous
370
5
100
AcDbPolyline
 90
2
 70
0
 10
206.3065591364977
 20
80.51623828646152
 10
206.30655907951228
 20
85.29493955880122
  0
LWPOLYLINE
  5
108
330
17
100
AcDbEntity
  8
MAT-NULL
  6
Continuous
370
5
100
AcDbPolyline
 90
2
 70
0
 10
206.30655907951228
 20
85.29493955880122
 10
206.3065590461226
 20
88.09493949621636
  0
LWPOLYLINE
  5
109
330
17
100
AcDbEntity
  8
MAT-NULL
  6
Continuous
370
5
100
AcDbPolyline
 90
2
 70
0
 10
206.3065590461226
 20
88.09493949621636
 10
206.30655901273295
 20
90.89493821292841
  0
LWPOLYLINE
  5
10A
330
17
100
AcDbEntity
  8
MAT-NULL
  6
Continuous
370
5
100
AcDbPolyline
 90
2
 70
0
 10
206.30655901273295
 20
90.89493821292841
 10
206.30655897934327
 20
93.6949381503435
  0
LWPOLYLINE
  5
10B
330
17
100
AcDbEntity
  8
MAT-NULL
  6
Continuous
370
5
100
AcDbPolyline
 90
2
 70
0
 10
206.30655897934327
 20
93.6949381503435
 10
206.3065589459536
 20
96.49493808775864
  0
LWPOLYLINE
  5
10C
330
17
100
AcDbEntity
  8
MAT-NULL
  6
Continuous
370
5
100
AcDbPolyline
 90
2
 70
0
 10
206.3065589459536
 20
96.49493808775864
 10
206.30655891256396
 20
99.2949368044707
  0
LWPOLYLINE
  5
10D
330
17
100
AcDbEntity
  8
MAT-NULL
  6
Continuous
370
5
100
AcDbPolyline
 90
2
 70
0
 10
206.30655891256396
 20
99.2949368044707
 10
206.30655887917428
 20
102.09493735223737
  0
LWPOLYLINE
  5
10E
330
17
100
AcDbEntity
  8
MAT-NULL
  6
Continuous
370
5
100
AcDbPolyline
 90
2
 70
0
 10
206.30655887917428
 20
102.09493735223737
 10
206.3065588457846
 20
104.89493698447671
  0
LWPOLYLINE
  5
10F
330
17
100
AcDbEntity
  8
MAT-NULL
  6
Continuous
370
5
100
AcDbPolyline
 90
2
 70
0
 10
206.30655881239497
 20
107.69493661671605
 10
206.3065588457846
 20
104.89493698447671
  0
LWPOLYLINE
  5
110
330
17
100
AcDbEntity
  8
MAT-NULL
  6
Continuous
370
5
100
AcDbPolyline
 90
2
 70
0
 10
193.35655916646093
 20
79.41067347833878
 10
192.45655731767886
 20
79.41067343899842
  0
LWPOLYLINE
  5
111
330
17
100
AcDbEntity
  8
MAT-NULL
  6
Continuous
370
5
100
AcDbPolyline
 90
2
 70
0
 10
193.3565589677308
 20
97.27271224830886
 10
193.35655912412014
 20
93.69494088977342
  0
LWPOLYLINE
  5
112
330
17
100
AcDbEntity
  8
MAT-NULL
  6
Continuous
370
5
100
AcDbPolyline
 90
2
 70
0
 10
193.35655912412014
 20
93.69494088977342
 10
193.356559613688
 20
82.4949336633065
  0
LWPOLYLINE
  5
113
330
17
100
AcDbEntity
  8
MAT-NULL
  6
Continuous
370
5
100
AcDbPolyline
 90
2
 70
0
 10
193.6565593018067
 20
82.49493367641989
 10
193.6565594225904
 20
93.69494090288687
  0
LWPOLYLINE
  5
114
330
17
100
AcDbEntity
  8
MAT-NULL
  6
Continuous
370
5
100
AcDbPolyline
 90
2
 70
0
 10
192.45655733079226
 20
79.11067344570397
 10
193.50655945309018
 20
79.110673491601
  0
LWPOLYLINE
  5
115
330
17
100
AcDbEntity
  8
MAT-NULL
  6
Continuous
370
5
100
AcDbPolyline
 90
2
 70
0
 10
193.6565594225904
 20
93.69494090288687
 10
193.65655926620104
 20
97.2727122614223
  0
LWPOLYLINE
  5
116
330
17
100
AcDbEntity
  8
MAT-NULL
  6
Continuous
370
5
100
AcDbPolyline
 90
2
 70
0
 10
193.50655945309018
 20
79.110673491601
 10
193.50655944653346
 20
79.26067348824817
  0
LWPOLYLINE
  5
117
330
17
100
AcDbEntity
  8
MAT-NULL
  6
Continuous
370
5
100
AcDbPolyline
 90
2
 70
0
 10
193.35655912412014
 20
93.69494088977342
 10
193.6565594225904
 20
93.69494090288687
  0
LWPOLYLINE
  5
118
330
17
100
AcDbEntity
  8
MAT-NULL
  6
Continuous
370
5
100
AcDbPolyline
 90
2
 70
0
 10
193.6565593018067
 20
82.49493367641989
 10
193.65655944318073
 20
79.26067349480496
  0
LWPOLYLINE
  5
119
330
17
100
AcDbEntity
  8
MAT-NULL
  6
Continuous
370
5
100
AcDbPolyline
 90
2
 70
0
 10
193.6565593018067
 20
82.49493367641989
 10
193.356559613688
 20
82.4949336633065
  0
LWPOLYLINE
  5
11A
330
17
100
AcDbEntity
  8
MAT-NULL
  6
Continuous
370
5
100
AcDbPolyline
 90
2
 70
0
 10
193.356559613688
 20
82.4949336633065
 10
193.35655914471045
 20
79.2606734816915
  0
LWPOLYLINE
  5
11B
330
17
100
AcDbEntity
  8
MAT-NULL
  6
Continuous
370
5
100
AcDbPolyline
 90
2
 70
0
 10
193.65655944318073
 20
79.26067349480496
 10
193.35655914471045
 20
79.2606734816915
  0
LWPOLYLINE
  5
11C
330
17
100
AcDbEntity
  8
MAT-NULL
  6
Continuous
370
5
100
AcDbPolyline
 90
2
 70
0
 10
192.45655731767886
 20
79.41067343899842
 10
193.3565591664609
 20
79.41067347833878
  0
LWPOLYLINE
  5
11D
330
17
100
AcDbEntity
  8
MAT-NULL
  6
Continuous
370
5
100
AcDbPolyline
 90
2
 70
0
 10
193.50655944653346
 20
79.26067348824824
 10
193.50655945309018
 20
79.110673491601
  0
LWPOLYLINE
  5
11E
330
17
100
AcDbEntity
  8
MAT-NULL
  6
Continuous
370
5
100
AcDbPolyline
 90
2
 70
0
 10
193.50655945309018
 20
79.110673491601
 10
192.45655733079226
 20
79.11067344570397
  0
LWPOLYLINE
  5
11F
330
17
100
AcDbEntity
  8
MAT-NULL
  6
Continuous
370
5
100
AcDbPolyline
 90
2
 70
0
 10
192.45655733079226
 20
79.11067344570397
 10
192.45655731767886
 20
79.41067343899842
  0
LWPOLYLINE
  5
120
330
17
100
AcDbEntity
  8
MAT-NULL
  6
Continuous
370
5
100
AcDbPolyline
 90
2
 70
0
 10
193.35655912412014
 20
93.69494088977342
 10
193.356559613688
 20
82.4949336633065
  0
LWPOLYLINE
  5
121
330
17
100
AcDbEntity
  8
MAT-NULL
  6
Continuous
370
5
100
AcDbPolyline
 90
2
 70
0
 10
193.6565594225904
 20
93.69494090288687
 10
193.6565593018067
 20
82.49493367641989
  0
LWPOLYLINE
  5
122
330
17
100
AcDbEntity
  8
MAT-NULL
  6
Continuous
370
5
100
AcDbPolyline
 90
2
 70
0
 10
193.3565589677308
 20
97.2727122483088
 10
193.35655912412014
 20
93.69494088977342
  0
LWPOLYLINE
  5
123
330
17
100
AcDbEntity
  8
MAT-NULL
  6
Continuous
370
5
100
AcDbPolyline
 90
2
 70
0
 10
193.6565594225904
 20
93.69494090288687
 10
193.65655926620104
 20
97.2727122614223
  0
LWPOLYLINE
  5
124
330
17
100
AcDbEntity
  8
MAT-NULL
  6
Continuous
370
5
100
AcDbPolyline
 90
2
 70
0
 10
193.65655926620104
 20
97.2727122614223
 10
193.3565589677308
 20
97.27271224830886
  0
LWPOLYLINE
  5
125
330
17
100
AcDbEntity
  8
MAT-NULL
  6
Continuous
370
5
100
AcDbPolyline
 90
2
 70
0
 10
193.3565589677308
 20
97.27271224830886
 10
193.35655851216094
 20
107.69493554144871
  0
LWPOLYLINE
  5
126
330
17
100
AcDbEntity
  8
MAT-NULL
  6
Continuous
370
5
100
AcDbPolyline
 90
2
 70
0
 10
193.35655851216094
 20
107.69493554144871
 10
193.6565588106312
 20
107.69493555456216
  0
LWPOLYLINE
  5
127
330
17
100
AcDbEntity
  8
MAT-NULL
  6
Continuous
370
5
100
AcDbPolyline
 90
2
 70
0
 10
193.65655926620104
 20
97.2727122614223
 10
193.6565588106312
 20
107.69493555456216
  0
LWPOLYLINE
  5
128
330
17
100
AcDbEntity
  8
MAT-CONCRETE
  6
Continuous
370
5
100
AcDbPolyline
 90
2
 70
0
 10
68.3065684057093
 20
69.46064566805006
 10
68.30655522121509
 20
111.46065308527973
  0
LWPOLYLINE
  5
129
330
17
100
AcDbEntity
  8
MAT-CONCRETE
  6
Continuous
370
5
100
AcDbPolyline
 90
2
 70
0
 10
66.30656845041287
 20
69.46064504021712
 10
68.3065684057093
 20
69.46064566805006
  0
LWPOLYLINE
  5
12A
330
17
100
AcDbEntity
  8
MAT-CONCRETE
  6
Continuous
370
5
100
AcDbPolyline
 90
2
 70
0
 10
66.30655526591867
 20
111.4606524574468
 10
66.30656845041287
 20
69.46064504021712
  0
LWPOLYLINE
  5
12B
330
17
100
AcDbEntity
  8
MAT-CONCRETE
  6
Continuous
370
5
100
AcDbPolyline
 90
2
 70
0
 10
68.30655522121509
 20
111.46065308527973
 10
66.30655526591867
 20
111.4606524574468
  0
LWPOLYLINE
  5
12C
330
17
100
AcDbEntity
  8
MAT-CONCRETE
  6
Continuous
370
5
100
AcDbPolyline
 90
2
 70
0
 10
66.30649591280158
 20
126.460652397525
 10
66.3064964260683
 20
125.96064903589114
  0
LWPOLYLINE
  5
12D
330
17
100
AcDbEntity
  8
MAT-CONCRETE
  6
Continuous
370
5
100
AcDbPolyline
 90
2
 70
0
 10
66.30650155869719
 20
120.96065273346655
 10
66.30650207196442
 20
120.46064886952931
  0
LWPOLYLINE
  5
12E
330
17
100
AcDbEntity
  8
MAT-CONCRETE
  6
Continuous
370
5
100
AcDbPolyline
 90
2
 70
0
 10
238.30654680005543
 20
136.46048864709584
 10
238.306541884676
 20
136.46048864709584
  0
LWPOLYLINE
  5
12F
330
17
100
AcDbEntity
  8
MAT-CONCRETE
  6
Continuous
370
5
100
AcDbPolyline
 90
2
 70
0
 10
154.2415918670067
 20
136.46048864709584
 10
145.84158833272787
 20
136.46048864709584
  0
LWPOLYLINE
  5
130
330
17
100
AcDbEntity
  8
MAT-CONCRETE
  6
Continuous
370
5
100
AcDbPolyline
 90
2
 70
0
 10
145.49158833906083
 20
136.46048864709584
 10
145.24159206817237
 20
136.46048864709584
  0
LWPOLYLINE
  5
131
330
17
100
AcDbEntity
  8
MAT-CONCRETE
  6
Continuous
370
5
100
AcDbPolyline
 90
2
 70
0
 10
66.30654572918799
 20
136.46048864709584
 10
66.306535715638
 20
136.46048864709584
  0
LWPOLYLINE
  5
132
330
17
100
AcDbEntity
  8
MAT-CONCRETE
  6
Continuous
370
5
100
AcDbPolyline
 90
2
 70
0
 10
238.30655571295327
 20
82.59977270991236
 10
238.30655571295327
 20
111.46065308527973
  0
LWPOLYLINE
  5
133
330
17
100
AcDbEntity
  8
MAT-CONCRETE
  6
Continuous
370
5
100
AcDbPolyline
 90
2
 70
0
 10
238.30655571295327
 20
116.46065297352102
 10
238.30655571295327
 20
119.33836279442428
  0
LWPOLYLINE
  5
134
330
17
100
AcDbEntity
  8
MAT-CONCRETE
  6
Continuous
370
5
100
AcDbPolyline
 90
2
 70
0
 10
104.3065732264886
 20
64.46064650641775
 10
129.306567505547
 20
64.46064650641775
  0
LWPOLYLINE
  5
135
330
17
100
AcDbEntity
  8
MAT-CONCRETE
  6
Continuous
370
5
100
AcDbPolyline
 90
2
 70
0
 10
134.30656301919348
 20
64.46064650641775
 10
156.30656946672462
 20
64.46064650641775
  0
LWPOLYLINE
  5
136
330
17
100
AcDbEntity
  8
MAT-NULL
  6
Continuous
370
5
100
AcDbPolyline
 90
2
 70
0
 10
150.30656860901422
 20
175.46065020518347
 10
167.30657036526506
 20
175.46065020518347
  0
LWPOLYLINE
  5
137
330
17
100
AcDbEntity
  8
MAT-NULL
  6
Continuous
370
5
100
AcDbPolyline
 90
2
 70
0
 10
150.30656921936577
 20
192.46065047370237
 10
150.30656860901422
 20
175.46065020518347
  0
LWPOLYLINE
  5
138
330
17
100
AcDbEntity
  8
MAT-NULL
  6
Continuous
370
5
100
AcDbPolyline
 90
2
 70
0
 10
167.30657036526506
 20
192.46065047370237
 10
150.30656921936577
 20
192.46065047370237
  0
LWPOLYLINE
  5
139
330
17
100
AcDbEntity
  8
MAT-NULL
  6
Continuous
370
5
100
AcDbPolyline
 90
2
 70
0
 10
167.30657036526506
 20
175.46065020518347
 10
167.30657036526506
 20
192.46065047370237
  0
LWPOLYLINE
  5
13A
330
17
100
AcDbEntity
  8
MAT-NULL
  6
Continuous
370
5
100
AcDbPolyline
 90
2
 70
0
 10
227.30655544383836
 20
175.46065020518347
 10
244.30655720008917
 20
175.46065020518347
  0
LWPOLYLINE
  5
13B
330
17
100
AcDbEntity
  8
MAT-NULL
  6
Continuous
370
5
100
AcDbPolyline
 90
2
 70
0
 10
227.30655605418988
 20
192.46065047370237
 10
227.30655544383836
 20
175.46065020518347
  0
LWPOLYLINE
  5
13C
330
17
100
AcDbEntity
  8
MAT-NULL
  6
Continuous
370
5
100
AcDbPolyline
 90
2
 70
0
 10
244.30655720008917
 20
192.46065047370237
 10
227.30655605418988
 20
192.46065047370237
  0
LWPOLYLINE
  5
13D
330
17
100
AcDbEntity
  8
MAT-NULL
  6
Continuous
370
5
100
AcDbPolyline
 90
2
 70
0
 10
244.30655720008917
 20
175.46065020518347
 10
244.30655720008917
 20
192.46065047370237
  0
LWPOLYLINE
  5
13E
330
17
100
AcDbEntity
  8
MAT-CONCRETE
  6
Continuous
370
5
100
AcDbPolyline
 90
2
 70
0
 10
233.3065658382918
 20
186.4606514088992
 10
238.30656572653308
 20
186.4606514088992
  0
LWPOLYLINE
  5
13F
330
17
100
AcDbEntity
  8
MAT-CONCRETE
  6
Continuous
370
5
100
AcDbPolyline
 90
2
 70
0
 10
238.30656572653308
 20
186.4606514088992
 10
238.30656572653308
 20
181.4606515206579
  0
LWPOLYLINE
  5
140
330
17
100
AcDbEntity
  8
MAT-CONCRETE
  6
Continuous
370
5
100
AcDbPolyline
 90
2
 70
0
 10
238.30656572653308
 20
181.4606515206579
 10
233.3065658382918
 20
181.4606515206579
  0
LWPOLYLINE
  5
141
330
17
100
AcDbEntity
  8
MAT-CONCRETE
  6
Continuous
370
5
100
AcDbPolyline
 90
2
 70
0
 10
233.3065658382918
 20
181.4606515206579
 10
233.3065658382918
 20
186.4606514088992
  0
LWPOLYLINE
  5
142
330
17
100
AcDbEntity
  8
MAT-CONCRETE
  6
Continuous
370
5
100
AcDbPolyline
 90
2
 70
0
 10
156.30656946672485
 20
186.4606514088992
 10
161.30656935496614
 20
186.4606514088992
  0
LWPOLYLINE
  5
143
330
17
100
AcDbEntity
  8
MAT-CONCRETE
  6
Continuous
370
5
100
AcDbPolyline
 90
2
 70
0
 10
161.30656935496614
 20
186.4606514088992
 10
161.30656935496614
 20
181.4606515206579
  0
LWPOLYLINE
  5
144
330
17
100
AcDbEntity
  8
MAT-CONCRETE
  6
Continuous
370
5
100
AcDbPolyline
 90
2
 70
0
 10
161.30656935496614
 20
181.4606515206579
 10
156.30656946672485
 20
181.4606515206579
  0
LWPOLYLINE
  5
145
330
17
100
AcDbEntity
  8
MAT-CONCRETE
  6
Continuous
370
5
100
AcDbPolyline
 90
2
 70
0
 10
156.30656946672485
 20
181.4606515206579
 10
156.30656946672485
 20
186.4606514088992
  0
LWPOLYLINE
  5
146
330
17
100
AcDbEntity
  8
MAT-CONCRETE
  6
Continuous
370
5
100
AcDbPolyline
 90
2
 70
0
 10
233.3065658382918
 20
116.46065297352102
 10
238.30656572653308
 20
116.46065297352102
  0
LWPOLYLINE
  5
147
330
17
100
AcDbEntity
  8
MAT-CONCRETE
  6
Continuous
370
5
100
AcDbPolyline
 90
2
 70
0
 10
238.30656572653308
 20
116.46065297352102
 10
238.30656572653308
 20
111.46065308527973
  0
LWPOLYLINE
  5
148
330
17
100
AcDbEntity
  8
MAT-CONCRETE
  6
Continuous
370
5
100
AcDbPolyline
 90
2
 70
0
 10
238.30656572653308
 20
111.46065308527973
 10
233.3065658382918
 20
111.46065308527973
  0
LWPOLYLINE
  5
149
330
17
100
AcDbEntity
  8
MAT-CONCRETE
  6
Continuous
370
5
100
AcDbPolyline
 90
2
 70
0
 10
233.3065658382918
 20
111.46065308527973
 10
233.3065658382918
 20
116.46065297352102
  0
LWPOLYLINE
  5
14A
330
17
100
AcDbEntity
  8
MAT-CONCRETE
  6
Continuous
370
5
100
AcDbPolyline
 90
2
 70
0
 10
156.30656946672485
 20
116.46065297352102
 10
161.30656935496614
 20
116.46065297352102
  0
LWPOLYLINE
  5
14B
330
17
100
AcDbEntity
  8
MAT-CONCRETE
  6
Continuous
370
5
100
AcDbPolyline
 90
2
 70
0
 10
161.30656935496614
 20
116.46065297352102
 10
161.30656935496614
 20
111.46065308527973
  0
LWPOLYLINE
  5
14C
330
17
100
AcDbEntity
  8
MAT-CONCRETE
  6
Continuous
370
5
100
AcDbPolyline
 90
2
 70
0
 10
161.30656935496614
 20
111.46065308527973
 10
156.30656946672485
 20
111.46065308527973
  0
LWPOLYLINE
  5
14D
330
17
100
AcDbEntity
  8
MAT-CONCRETE
  6
Continuous
370
5
100
AcDbPolyline
 90
2
 70
0
 10
156.30656946672485
 20
111.46065308527973
 10
156.30656946672485
 20
116.46065297352102
  0
LWPOLYLINE
  5
14E
330
17
100
AcDbEntity
  8
MAT-CONCRETE
  6
Continuous
370
5
100
AcDbPolyline
 90
2
 70
0
 10
233.3065658382918
 20
69.46064639465904
 10
238.30656572653308
 20
69.46064639465904
  0
LWPOLYLINE
  5
14F
330
17
100
AcDbEntity
  8
MAT-CONCRETE
  6
Continuous
370
5
100
AcDbPolyline
 90
2
 70
0
 10
238.30656572653308
 20
69.46064639465904
 10
238.30656572653308
 20
64.46064650641775
  0
LWPOLYLINE
  5
150
330
17
100
AcDbEntity
  8
MAT-CONCRETE
  6
Continuous
370
5
100
AcDbPolyline
 90
2
 70
0
 10
238.30656572653308
 20
64.46064650641775
 10
233.3065658382918
 20
64.46064650641775
  0
LWPOLYLINE
  5
151
330
17
100
AcDbEntity
  8
MAT-CONCRETE
  6
Continuous
370
5
100
AcDbPolyline
 90
2
 70
0
 10
233.3065658382918
 20
64.46064650641775
 10
233.3065658382918
 20
69.46064639465904
  0
LWPOLYLINE
  5
152
330
17
100
AcDbEntity
  8
MAT-CONCRETE
  6
Continuous
370
5
100
AcDbPolyline
 90
2
 70
0
 10
156.30656946672485
 20
69.46064639465904
 10
161.30656935496614
 20
69.46064639465904
  0
LWPOLYLINE
  5
153
330
17
100
AcDbEntity
  8
MAT-CONCRETE
  6
Continuous
370
5
100
AcDbPolyline
 90
2
 70
0
 10
161.30656935496614
 20
69.46064639465904
 10
161.30656935496614
 20
64.46064650641775
  0
LWPOLYLINE
  5
154
330
17
100
AcDbEntity
  8
MAT-CONCRETE
  6
Continuous
370
5
100
AcDbPolyline
 90
2
 70
0
 10
161.30656935496614
 20
64.46064650641775
 10
156.30656946672485
 20
64.46064650641775
  0
LWPOLYLINE
  5
155
330
17
100
AcDbEntity
  8
MAT-CONCRETE
  6
Continuous
370
5
100
AcDbPolyline
 90
2
 70
0
 10
156.30656946672485
 20
64.46064650641775
 10
156.30656946672485
 20
69.46064639465904
  0
LWPOLYLINE
  5
156
330
17
100
AcDbEntity
  8
MAT-CONCRETE
  6
Continuous
370
5
100
AcDbPolyline
 90
2
 70
0
 10
66.30655955745287
 20
116.46065297352102
 10
71.30655944569416
 20
116.46065297352102
  0
LWPOLYLINE
  5
157
330
17
100
AcDbEntity
  8
MAT-CONCRETE
  6
Continuous
370
5
100
AcDbPolyline
 90
2
 70
0
 10
71.30655944569416
 20
116.46065297352102
 10
71.30655944569416
 20
111.46065308527973
  0
LWPOLYLINE
  5
158
330
17
100
AcDbEntity
  8
MAT-CONCRETE
  6
Continuous
370
5
100
AcDbPolyline
 90
2
 70
0
 10
71.30655944569416
 20
111.46065308527973
 10
66.30655955745287
 20
111.46065308527973
  0
LWPOLYLINE
  5
159
330
17
100
AcDbEntity
  8
MAT-CONCRETE
  6
Continuous
370
5
100
AcDbPolyline
 90
2
 70
0
 10
66.30655955745287
 20
111.46065308527973
 10
66.30655955745287
 20
116.46065297352102
  0
LWPOLYLINE
  5
15A
330
17
100
AcDbEntity
  8
MAT-CONCRETE
  6
Continuous
370
5
100
AcDbPolyline
 90
2
 70
0
 10
66.30655955745287
 20
69.46064639465904
 10
71.30655944569416
 20
69.46064639465904
  0
LWPOLYLINE
  5
15B
330
17
100
AcDbEntity
  8
MAT-CONCRETE
  6
Continuous
370
5
100
AcDbPolyline
 90
2
 70
0
 10
71.30655944569416
 20
69.46064639465904
 10
71.30655944569416
 20
64.46064650641775
  0
LWPOLYLINE
  5
15C
330
17
100
AcDbEntity
  8
MAT-CONCRETE
  6
Continuous
370
5
100
AcDbPolyline
 90
2
 70
0
 10
71.30655944569416
 20
64.46064650641775
 10
66.30655955745287
 20
64.46064650641775
  0
LWPOLYLINE
  5
15D
330
17
100
AcDbEntity
  8
MAT-CONCRETE
  6
Continuous
370
5
100
AcDbPolyline
 90
2
 70
0
 10
66.30655955745287
 20
64.46064650641775
 10
66.30655955745287
 20
69.46064639465904
  0
LWPOLYLINE
  5
15E
330
17
100
AcDbEntity
  8
MAT-NULL
  6
Continuous
370
20
100
AcDbPolyline
 90
2
 70
0
 10
153.80655945180368
 20
64.21064796159023
 10
134.80656422524152
 20
64.21064796159023
  0
LWPOLYLINE
  5
15F
330
17
100
AcDbEntity
  8
MAT-NULL
  6
Continuous
370
20
100
AcDbPolyline
 90
2
 70
0
 10
153.80655945180368
 20
64.01064811864846
 10
134.80656422524152
 20
64.01064811864846
  0
LWPOLYLINE
  5
160
330
17
100
AcDbEntity
  8
MAT-NULL
  6
Continuous
370
20
100
AcDbPolyline
 90
2
 70
0
 10
134.30656232906878
 20
63.36064042748879
 10
134.80656422524152
 20
63.36064042748879
  0
LWPOLYLINE
  5
161
330
17
100
AcDbEntity
  8
MAT-NULL
  6
Continuous
370
20
100
AcDbPolyline
 90
2
 70
0
 10
134.30656232906878
 20
64.46065413581167
 10
134.30656232906878
 20
64.46064694353156
  0
LWPOLYLINE
  5
162
330
17
100
AcDbEntity
  8
MAT-NULL
  6
Continuous
370
20
100
AcDbPolyline
 90
2
 70
0
 10
134.30656232906878
 20
63.46064696588332
 10
134.30656232906878
 20
63.36064042748879
  0
LWPOLYLINE
  5
163
330
17
100
AcDbEntity
  8
MAT-NULL
  6
Continuous
370
20
100
AcDbPolyline
 90
2
 70
0
 10
134.80656422524152
 20
64.8606556527499
 10
134.30656232906878
 20
64.8606556527499
  0
LWPOLYLINE
  5
164
330
17
100
AcDbEntity
  8
MAT-NULL
  6
Continuous
370
20
100
AcDbPolyline
 90
2
 70
0
 10
154.30656188203395
 20
64.8606556527499
 10
153.80655945180368
 20
64.8606556527499
  0
LWPOLYLINE
  5
165
330
17
100
AcDbEntity
  8
MAT-NULL
  6
Continuous
370
20
100
AcDbPolyline
 90
2
 70
0
 10
154.30656188203395
 20
63.36064042748879
 10
154.30656188203395
 20
63.46064609165578
  0
LWPOLYLINE
  5
166
330
17
100
AcDbEntity
  8
MAT-NULL
  6
Continuous
370
20
100
AcDbPolyline
 90
2
 70
0
 10
154.30656188203395
 20
64.46064606930399
 10
154.30656188203395
 20
64.46065413581162
  0
LWPOLYLINE
  5
167
330
17
100
AcDbEntity
  8
MAT-NULL
  6
Continuous
370
20
100
AcDbPolyline
 90
2
 70
0
 10
153.80655945180368
 20
63.36064042748879
 10
154.30656188203395
 20
63.36064042748879
  0
LWPOLYLINE
  5
168
330
17
100
AcDbEntity
  8
MAT-NULL
  6
Continuous
370
20
100
AcDbPolyline
 90
2
 70
0
 10
153.80655945180368
 20
64.8606556527499
 10
153.80655945180368
 20
63.36064042748879
  0
LWPOLYLINE
  5
169
330
17
100
AcDbEntity
  8
MAT-NULL
  6
Continuous
370
20
100
AcDbPolyline
 90
2
 70
0
 10
134.80656422524152
 20
64.8606556527499
 10
153.80655945180368
 20
64.8606556527499
  0
LWPOLYLINE
  5
16A
330
17
100
AcDbEntity
  8
MAT-NULL
  6
Continuous
370
20
100
AcDbPolyline
 90
2
 70
0
 10
134.80656422524152
 20
63.36064042748879
 10
134.80656422524152
 20
64.8606556527499
  0
LWPOLYLINE
  5
16B
330
17
100
AcDbEntity
  8
MAT-NULL
  6
Continuous
370
20
100
AcDbPolyline
 90
2
 70
0
 10
153.80655945180368
 20
63.36064042748879
 10
134.80656422524152
 20
63.36064042748879
  0
LWPOLYLINE
  5
16C
330
17
100
AcDbEntity
  8
MAT-NULL
  6
Continuous
370
20
100
AcDbPolyline
 90
2
 70
0
 10
123.80656965909888
 20
64.21064796159023
 10
104.8065744325367
 20
64.21064796159023
  0
LWPOLYLINE
  5
16D
330
17
100
AcDbEntity
  8
MAT-NULL
  6
Continuous
370
20
100
AcDbPolyline
 90
2
 70
0
 10
123.80656965909888
 20
64.01064811864846
 10
104.8065744325367
 20
64.01064811864846
  0
LWPOLYLINE
  5
16E
330
17
100
AcDbEntity
  8
MAT-NULL
  6
Continuous
370
20
100
AcDbPolyline
 90
2
 70
0
 10
104.30657253636399
 20
63.36064042748879
 10
104.8065744325367
 20
63.36064042748879
  0
LWPOLYLINE
  5
16F
330
17
100
AcDbEntity
  8
MAT-NULL
  6
Continuous
370
20
100
AcDbPolyline
 90
2
 70
0
 10
104.30657253636399
 20
64.46065413581162
 10
104.30657253636399
 20
64.46064694353156
  0
LWPOLYLINE
  5
170
330
17
100
AcDbEntity
  8
MAT-NULL
  6
Continuous
370
20
100
AcDbPolyline
 90
2
 70
0
 10
104.30657253636399
 20
63.46064696588332
 10
104.30657253636399
 20
63.36064042748879
  0
LWPOLYLINE
  5
171
330
17
100
AcDbEntity
  8
MAT-NULL
  6
Continuous
370
20
100
AcDbPolyline
 90
2
 70
0
 10
104.8065744325367
 20
64.8606556527499
 10
104.30657253636399
 20
64.8606556527499
  0
LWPOLYLINE
  5
172
330
17
100
AcDbEntity
  8
MAT-NULL
  6
Continuous
370
20
100
AcDbPolyline
 90
2
 70
0
 10
124.30657208932915
 20
64.8606556527499
 10
123.80656965909888
 20
64.8606556527499
  0
LWPOLYLINE
  5
173
330
17
100
AcDbEntity
  8
MAT-NULL
  6
Continuous
370
20
100
AcDbPolyline
 90
2
 70
0
 10
124.30657208932915
 20
63.36064042748879
 10
124.30657208932915
 20
63.46064609165571
  0
LWPOLYLINE
  5
174
330
17
100
AcDbEntity
  8
MAT-NULL
  6
Continuous
370
20
100
AcDbPolyline
 90
2
 70
0
 10
124.30657208932915
 20
64.46064606930395
 10
124.30657208932915
 20
64.46065413581162
  0
LWPOLYLINE
  5
175
330
17
100
AcDbEntity
  8
MAT-NULL
  6
Continuous
370
20
100
AcDbPolyline
 90
2
 70
0
 10
123.80656965909888
 20
63.36064042748879
 10
124.30657208932915
 20
63.36064042748879
  0
LWPOLYLINE
  5
176
330
17
100
AcDbEntity
  8
MAT-NULL
  6
Continuous
370
20
100
AcDbPolyline
 90
2
 70
0
 10
123.80656965909888
 20
64.8606556527499
 10
123.80656965909888
 20
63.36064042748879
  0
LWPOLYLINE
  5
177
330
17
100
AcDbEntity
  8
MAT-NULL
  6
Continuous
370
20
100
AcDbPolyline
 90
2
 70
0
 10
104.8065744325367
 20
64.8606556527499
 10
123.80656965909888
 20
64.8606556527499
  0
LWPOLYLINE
  5
178
330
17
100
AcDbEntity
  8
MAT-NULL
  6
Continuous
370
20
100
AcDbPolyline
 90
2
 70
0
 10
104.8065744325367
 20
63.36064042748879
 10
104.8065744325367
 20
64.8606556527499
  0
LWPOLYLINE
  5
179
330
17
100
AcDbEntity
  8
MAT-NULL
  6
Continuous
370
20
100
AcDbPolyline
 90
2
 70
0
 10
123.80656965909888
 20
63.36064042748879
 10
104.8065744325367
 20
63.36064042748879
  0
LWPOLYLINE
  5
17A
330
17
100
AcDbEntity
  8
MAT-NULL
  6
Continuous
370
20
100
AcDbPolyline
 90
2
 70
0
 10
93.80657271383687
 20
64.21064796159023
 10
74.8065774872747
 20
64.21064796159023
  0
LWPOLYLINE
  5
17B
330
17
100
AcDbEntity
  8
MAT-NULL
  6
Continuous
370
20
100
AcDbPolyline
 90
2
 70
0
 10
93.80657271383687
 20
64.01064811864846
 10
74.8065774872747
 20
64.01064811864846
  0
LWPOLYLINE
  5
17C
330
17
100
AcDbEntity
  8
MAT-NULL
  6
Continuous
370
20
100
AcDbPolyline
 90
2
 70
0
 10
74.30657559110197
 20
63.36064042748879
 10
74.8065774872747
 20
63.36064042748879
  0
LWPOLYLINE
  5
17D
330
17
100
AcDbEntity
  8
MAT-NULL
  6
Continuous
370
20
100
AcDbPolyline
 90
2
 70
0
 10
74.30657559110197
 20
64.46065413581162
 10
74.30657559110197
 20
63.36064042748879
  0
LWPOLYLINE
  5
17E
330
17
100
AcDbEntity
  8
MAT-NULL
  6
Continuous
370
20
100
AcDbPolyline
 90
2
 70
0
 10
74.8065774872747
 20
64.8606556527499
 10
74.30657559110197
 20
64.8606556527499
  0
LWPOLYLINE
  5
17F
330
17
100
AcDbEntity
  8
MAT-NULL
  6
Continuous
370
20
100
AcDbPolyline
 90
2
 70
0
 10
94.30657514406714
 20
64.8606556527499
 10
93.80657271383687
 20
64.8606556527499
  0
LWPOLYLINE
  5
180
330
17
100
AcDbEntity
  8
MAT-NULL
  6
Continuous
370
20
100
AcDbPolyline
 90
2
 70
0
 10
94.30657514406714
 20
63.36064042748879
 10
94.30657514406714
 20
63.4606460916561
  0
LWPOLYLINE
  5
181
330
17
100
AcDbEntity
  8
MAT-NULL
  6
Continuous
370
20
100
AcDbPolyline
 90
2
 70
0
 10
94.30657514406714
 20
64.46064606930435
 10
94.30657514406714
 20
64.46065413581162
  0
LWPOLYLINE
  5
182
330
17
100
AcDbEntity
  8
MAT-NULL
  6
Continuous
370
20
100
AcDbPolyline
 90
2
 70
0
 10
93.80657271383687
 20
63.36064042748879
 10
94.30657514406714
 20
63.36064042748879
  0
LWPOLYLINE
  5
183
330
17
100
AcDbEntity
  8
MAT-NULL
  6
Continuous
370
20
100
AcDbPolyline
 90
2
 70
0
 10
93.80657271383687
 20
64.8606556527499
 10
93.80657271383687
 20
63.36064042748879
  0
LWPOLYLINE
  5
184
330
17
100
AcDbEntity
  8
MAT-NULL
  6
Continuous
370
20
100
AcDbPolyline
 90
2
 70
0
 10
74.8065774872747
 20
64.8606556527499
 10
93.80657271383687
 20
64.8606556527499
  0
LWPOLYLINE
  5
185
330
17
100
AcDbEntity
  8
MAT-NULL
  6
Continuous
370
20
100
AcDbPolyline
 90
2
 70
0
 10
74.8065774872747
 20
63.36064042748879
 10
74.8065774872747
 20
64.8606556527499
  0
LWPOLYLINE
  5
186
330
17
100
AcDbEntity
  8
MAT-NULL
  6
Continuous
370
20
100
AcDbPolyline
 90
2
 70
0
 10
93.80657271383687
 20
63.36064042748879
 10
74.8065774872747
 20
63.36064042748879
  0
LWPOLYLINE
  5
188
330
17
100
AcDbEntity
  8
MAT-MATERIAL
  6
Continuous
370
20
100
AcDbPolyline
 90
2
 70
0
 10
145.49158713106908
 20
144.46065651008627
 10
145.49158841453334
 20
135.96065694594532
  0
LWPOLYLINE
  5
189
330
17
100
AcDbEntity
  8
MAT-MATERIAL
  6
Continuous
370
20
100
AcDbPolyline
 90
2
 70
0
 10
145.8415871247361
 20
144.4606565629348
 10
145.49158713106908
 20
144.46065651008627
  0
LWPOLYLINE
  5
18A
330
17
100
AcDbEntity
  8
MAT-MATERIAL
  6
Continuous
370
20
100
AcDbPolyline
 90
2
 70
0
 10
145.84158840820035
 20
135.96065699879387
 10
145.8415871247361
 20
144.4606565629348
  0
LWPOLYLINE
  5
18B
330
17
100
AcDbEntity
  8
MAT-MATERIAL
  6
Continuous
370
20
100
AcDbPolyline
 90
2
 70
0
 10
145.49158841453334
 20
135.96065694594532
 10
145.84158840820035
 20
135.96065699879387
  0
LWPOLYLINE
  5
18C
330
17
100
AcDbEntity
  8
MAT-MATERIAL
  6
Continuous
370
20
100
AcDbPolyline
 90
2
 70
0
 10
145.49158841453334
 20
135.96065694594532
 10
145.24158841639598
 20
135.96065690819637
  0
LWPOLYLINE
  5
18D
330
17
100
AcDbEntity
  8
MAT-MATERIAL
  6
Continuous
370
20
100
AcDbPolyline
 90
2
 70
0
 10
145.49158849003123
 20
135.4606569496706
 10
145.49158841453334
 20
135.96065694594532
  0
LWPOLYLINE
  5
18E
330
17
100
AcDbEntity
  8
MAT-MATERIAL
  6
Continuous
370
20
100
AcDbPolyline
 90
2
 70
0
 10
145.24158849189388
 20
135.46065691192166
 10
145.49158849003123
 20
135.4606569496706
  0
LWPOLYLINE
  5
18F
330
17
100
AcDbEntity
  8
MAT-MATERIAL
  6
Continuous
370
20
100
AcDbPolyline
 90
2
 70
0
 10
154.24158797681162
 20
135.96065826715852
 10
154.2415880523095
 20
135.4606582708838
  0
LWPOLYLINE
  5
190
330
17
100
AcDbEntity
  8
MAT-MATERIAL
  6
Continuous
370
20
100
AcDbPolyline
 90
2
 70
0
 10
153.99158797867426
 20
135.96065822940957
 10
154.24158797681162
 20
135.96065826715852
  0
LWPOLYLINE
  5
191
330
17
100
AcDbEntity
  8
MAT-MATERIAL
  6
Continuous
370
20
100
AcDbPolyline
 90
2
 70
0
 10
153.99158805417215
 20
135.46065823313486
 10
153.99158797867426
 20
135.96065822940957
  0
LWPOLYLINE
  5
192
330
17
100
AcDbEntity
  8
MAT-MATERIAL
  6
Continuous
370
20
100
AcDbPolyline
 90
2
 70
0
 10
154.2415880523095
 20
135.4606582708838
 10
153.99158805417215
 20
135.46065823313486
  0
LWPOLYLINE
  5
193
330
17
100
AcDbEntity
  8
MAT-MATERIAL
  6
Continuous
370
20
100
AcDbPolyline
 90
2
 70
0
 10
147.62456418666136
 20
127.66655763326706
 10
145.84158969166458
 20
127.46065743465292
  0
LWPOLYLINE
  5
194
330
17
100
AcDbEntity
  8
MAT-MATERIAL
  6
Continuous
370
20
100
AcDbPolyline
 90
2
 70
0
 10
149.32115877443027
 20
128.27428243454133
 10
147.62456418666136
 20
127.66655763326706
  0
LWPOLYLINE
  5
195
330
17
100
AcDbEntity
  8
MAT-MATERIAL
  6
Continuous
370
20
100
AcDbPolyline
 90
2
 70
0
 10
150.8779786537089
 20
129.27788973259288
 10
149.32115877443027
 20
128.27428243454133
  0
LWPOLYLINE
  5
196
330
17
100
AcDbEntity
  8
MAT-MATERIAL
  6
Continuous
370
20
100
AcDbPolyline
 90
2
 70
0
 10
152.18081420250323
 20
130.6185078830903
 10
150.8779786537089
 20
129.27788973259288
  0
LWPOLYLINE
  5
197
330
17
100
AcDbEntity
  8
MAT-MATERIAL
  6
Continuous
370
20
100
AcDbPolyline
 90
2
 70
0
 10
153.1639636386912
 20
132.22852973353125
 10
152.18081420250323
 20
130.6185078830903
  0
LWPOLYLINE
  5
198
330
17
100
AcDbEntity
  8
MAT-MATERIAL
  6
Continuous
370
20
100
AcDbPolyline
 90
2
 70
0
 10
153.77784689815073
 20
134.02676214720157
 10
153.1639636386912
 20
132.22852973353125
  0
LWPOLYLINE
  5
199
330
17
100
AcDbEntity
  8
MAT-MATERIAL
  6
Continuous
370
20
100
AcDbPolyline
 90
2
 70
0
 10
153.99150594922642
 20
135.92252055968558
 10
153.77784689815073
 20
134.02676214720157
  0
LWPOLYLINE
  5
19A
330
17
100
AcDbEntity
  8
MAT-MATERIAL
  6
Continuous
370
20
100
AcDbPolyline
 90
2
 70
0
 10
153.79416600116656
 20
137.82020218651198
 10
153.99150594922642
 20
135.92252055968558
  0
LWPOLYLINE
  5
19B
330
17
100
AcDbEntity
  8
MAT-MATERIAL
  6
Continuous
370
20
100
AcDbPolyline
 90
2
 70
0
 10
153.19577887504585
 20
139.6241072558269
 10
153.79416600116656
 20
137.82020218651198
  0
LWPOLYLINE
  5
19C
330
17
100
AcDbEntity
  8
MAT-MATERIAL
  6
Continuous
370
20
100
AcDbPolyline
 90
2
 70
0
 10
152.22652113506797
 20
141.243265132125
 10
153.19577887504585
 20
139.6241072558269
  0
LWPOLYLINE
  5
19D
330
17
100
AcDbEntity
  8
MAT-MATERIAL
  6
Continuous
370
20
100
AcDbPolyline
 90
2
 70
0
 10
150.93527228940337
 20
142.596021950413
 10
152.22652113506797
 20
141.243265132125
  0
LWPOLYLINE
  5
19E
330
17
100
AcDbEntity
  8
MAT-MATERIAL
  6
Continuous
370
20
100
AcDbPolyline
 90
2
 70
0
 10
149.3871498046438
 20
143.61415840717137
 10
150.93527228940337
 20
142.596021950413
  0
LWPOLYLINE
  5
19F
330
17
100
AcDbEntity
  8
MAT-MATERIAL
  6
Continuous
370
20
100
AcDbPolyline
 90
2
 70
0
 10
147.66022524268817
 20
144.24633004859373
 10
149.3871498046438
 20
143.61415840717137
  0
LWPOLYLINE
  5
1A0
330
17
100
AcDbEntity
  8
MAT-MATERIAL
  6
Continuous
370
20
100
AcDbPolyline
 90
2
 70
0
 10
145.8415871247361
 20
144.4606565629348
 10
147.66022524268817
 20
144.24633004859373
  0
LWPOLYLINE
  5
1A1
330
17
100
AcDbEntity
  8
MAT-MATERIAL
  6
Continuous
370
20
100
AcDbPolyline
 90
2
 70
0
 10
145.49158969799757
 20
127.46065738180438
 10
145.84158969166458
 20
127.46065743465292
  0
LWPOLYLINE
  5
1A2
330
17
100
AcDbEntity
  8
MAT-MATERIAL
  6
Continuous
370
20
100
AcDbPolyline
 90
2
 70
0
 10
145.49158841453334
 20
135.96065694594532
 10
145.49158969799757
 20
127.46065738180438
  0
LWPOLYLINE
  5
1A3
330
17
100
AcDbEntity
  8
MAT-MATERIAL
  6
Continuous
370
20
100
AcDbPolyline
 90
2
 70
0
 10
210.21916401431105
 20
105.86065497474706
 10
210.21916401431105
 20
114.3606545388881
  0
LWPOLYLINE
  5
1A4
330
17
100
AcDbEntity
  8
MAT-MATERIAL
  6
Continuous
370
20
100
AcDbPolyline
 90
2
 70
0
 10
210.56916400797806
 20
105.86065497474706
 10
210.21916401431105
 20
105.86065497474706
  0
LWPOLYLINE
  5
1A5
330
17
100
AcDbEntity
  8
MAT-MATERIAL
  6
Continuous
370
20
100
AcDbPolyline
 90
2
 70
0
 10
210.56916400797806
 20
114.3606545388881
 10
210.56916400797806
 20
105.86065497474706
  0
LWPOLYLINE
  5
1A6
330
17
100
AcDbEntity
  8
MAT-MATERIAL
  6
Continuous
370
20
100
AcDbPolyline
 90
2
 70
0
 10
210.21916401431105
 20
114.3606545388881
 10
210.56916400797806
 20
114.3606545388881
  0
LWPOLYLINE
  5
1A7
330
17
100
AcDbEntity
  8
MAT-MATERIAL
  6
Continuous
370
20
100
AcDbPolyline
 90
2
 70
0
 10
218.46916358031476
 20
114.86065453516281
 10
218.96916357658947
 20
114.86065453516281
  0
LWPOLYLINE
  5
1A8
330
17
100
AcDbEntity
  8
MAT-MATERIAL
  6
Continuous
370
20
100
AcDbPolyline
 90
2
 70
0
 10
218.46916358031476
 20
114.61065453702545
 10
218.46916358031476
 20
114.86065453516281
  0
LWPOLYLINE
  5
1A9
330
17
100
AcDbEntity
  8
MAT-MATERIAL
  6
Continuous
370
20
100
AcDbPolyline
 90
2
 70
0
 10
218.7191635784521
 20
114.61065453702545
 10
218.46916358031476
 20
114.61065453702545
  0
LWPOLYLINE
  5
1AA
330
17
100
AcDbEntity
  8
MAT-MATERIAL
  6
Continuous
370
20
100
AcDbPolyline
 90
2
 70
0
 10
218.7191635784521
 20
114.3606545388881
 10
218.7191635784521
 20
114.61065453702545
  0
LWPOLYLINE
  5
1AB
330
17
100
AcDbEntity
  8
MAT-MATERIAL
  6
Continuous
370
20
100
AcDbPolyline
 90
2
 70
0
 10
218.96916357658947
 20
114.3606545388881
 10
218.7191635784521
 20
114.3606545388881
  0
LWPOLYLINE
  5
1AC
330
17
100
AcDbEntity
  8
MAT-MATERIAL
  6
Continuous
370
20
100
AcDbPolyline
 90
2
 70
0
 10
218.96916357658947
 20
114.46065301822452
 10
218.96916357658947
 20
114.3606545388881
  0
LWPOLYLINE
  5
1AD
330
17
100
AcDbEntity
  8
MAT-MATERIAL
  6
Continuous
370
20
100
AcDbPolyline
 90
2
 70
0
 10
210.4691640124484
 20
114.86065453516281
 10
209.9691640161737
 20
114.86065453516281
  0
LWPOLYLINE
  5
1AE
330
17
100
AcDbEntity
  8
MAT-MATERIAL
  6
Continuous
370
20
100
AcDbPolyline
 90
2
 70
0
 10
210.4691640124484
 20
114.61065453702545
 10
210.4691640124484
 20
114.86065453516281
  0
LWPOLYLINE
  5
1AF
330
17
100
AcDbEntity
  8
MAT-MATERIAL
  6
Continuous
370
20
100
AcDbPolyline
 90
2
 70
0
 10
210.21916401431105
 20
114.61065453702545
 10
210.4691640124484
 20
114.61065453702545
  0
LWPOLYLINE
  5
1B0
330
17
100
AcDbEntity
  8
MAT-MATERIAL
  6
Continuous
370
20
100
AcDbPolyline
 90
2
 70
0
 10
210.21916401431105
 20
114.3606545388881
 10
210.21916401431105
 20
114.61065453702545
  0
LWPOLYLINE
  5
1B1
330
17
100
AcDbEntity
  8
MAT-MATERIAL
  6
Continuous
370
20
100
AcDbPolyline
 90
2
 70
0
 10
209.9691640161737
 20
114.3606545388881
 10
210.21916401431105
 20
114.3606545388881
  0
LWPOLYLINE
  5
1B2
330
17
100
AcDbEntity
  8
MAT-MATERIAL
  6
Continuous
370
20
100
AcDbPolyline
 90
2
 70
0
 10
209.9691640161737
 20
114.46065301822453
 10
209.9691640161737
 20
114.3606545388881
  0
LWPOLYLINE
  5
1B3
330
17
100
AcDbEntity
  8
MAT-MATERIAL
  6
Continuous
370
20
100
AcDbPolyline
 90
2
 70
0
 10
212.15915004861316
 20
106.0239800829447
 10
210.56916400797806
 20
105.86065497474706
  0
LWPOLYLINE
  5
1B4
330
17
100
AcDbEntity
  8
MAT-MATERIAL
  6
Continuous
370
20
100
AcDbPolyline
 90
2
 70
0
 10
213.6880338173811
 20
106.50767891522334
 10
212.15915004861316
 20
106.0239800829447
  0
LWPOLYLINE
  5
1B5
330
17
100
AcDbEntity
  8
MAT-MATERIAL
  6
Continuous
370
20
100
AcDbPolyline
 90
2
 70
0
 10
215.3596135616927
 20
107.48401043931837
 10
213.6880338173811
 20
106.50767891522334
  0
LWPOLYLINE
  5
1B6
330
17
100
AcDbEntity
  8
MAT-MATERIAL
  6
Continuous
370
20
100
AcDbPolyline
 90
2
 70
0
 10
216.7664723010042
 20
108.8403464111493
 10
215.3596135616927
 20
107.48401043931837
  0
LWPOLYLINE
  5
1B7
330
17
100
AcDbEntity
  8
MAT-MATERIAL
  6
Continuous
370
20
100
AcDbPolyline
 90
2
 70
0
 10
217.83086679740282
 20
110.50173548897779
 10
216.7664723010042
 20
108.8403464111493
  0
LWPOLYLINE
  5
1B8
330
17
100
AcDbEntity
  8
MAT-MATERIAL
  6
Continuous
370
20
100
AcDbPolyline
 90
2
 70
0
 10
218.493978441561
 20
112.37636904786216
 10
217.83086679740282
 20
110.50173548897779
  0
LWPOLYLINE
  5
1B9
330
17
100
AcDbEntity
  8
MAT-MATERIAL
  6
Continuous
370
20
100
AcDbPolyline
 90
2
 70
0
 10
218.7191635784521
 20
114.3606545388881
 10
218.493978441561
 20
112.37636904786216
  0
LWPOLYLINE
  5
1BA
330
17
100
AcDbEntity
  8
MAT-MATERIAL
  6
Continuous
370
20
100
AcDbPolyline
 90
2
 70
0
 10
145.49159206630964
 20
107.46065341310528
 10
145.49159206630964
 20
115.96065297724631
  0
LWPOLYLINE
  5
1BB
330
17
100
AcDbEntity
  8
MAT-MATERIAL
  6
Continuous
370
20
100
AcDbPolyline
 90
2
 70
0
 10
145.84159205997662
 20
107.46065341310528
 10
145.49159206630964
 20
107.46065341310528
  0
LWPOLYLINE
  5
1BC
330
17
100
AcDbEntity
  8
MAT-MATERIAL
  6
Continuous
370
20
100
AcDbPolyline
 90
2
 70
0
 10
145.84159205997662
 20
115.96065297724631
 10
145.84159205997662
 20
107.46065341310528
  0
LWPOLYLINE
  5
1BD
330
17
100
AcDbEntity
  8
MAT-MATERIAL
  6
Continuous
370
20
100
AcDbPolyline
 90
2
 70
0
 10
145.49159206630964
 20
115.96065297724631
 10
145.84159205997662
 20
115.96065297724631
  0
LWPOLYLINE
  5
1BE
330
17
100
AcDbEntity
  8
MAT-MATERIAL
  6
Continuous
370
20
100
AcDbPolyline
 90
2
 70
0
 10
153.74159163231332
 20
116.46065297352102
 10
154.24159162858803
 20
116.46065297352102
  0
LWPOLYLINE
  5
1BF
330
17
100
AcDbEntity
  8
MAT-MATERIAL
  6
Continuous
370
20
100
AcDbPolyline
 90
2
 70
0
 10
153.74159163231332
 20
116.21065297538367
 10
153.74159163231332
 20
116.46065297352102
  0
LWPOLYLINE
  5
1C0
330
17
100
AcDbEntity
  8
MAT-MATERIAL
  6
Continuous
370
20
100
AcDbPolyline
 90
2
 70
0
 10
153.99159163045067
 20
116.21065297538367
 10
153.74159163231332
 20
116.21065297538367
  0
LWPOLYLINE
  5
1C1
330
17
100
AcDbEntity
  8
MAT-MATERIAL
  6
Continuous
370
20
100
AcDbPolyline
 90
2
 70
0
 10
153.99159163045067
 20
115.96065297724631
 10
153.99159163045067
 20
116.21065297538367
  0
LWPOLYLINE
  5
1C2
330
17
100
AcDbEntity
  8
MAT-MATERIAL
  6
Continuous
370
20
100
AcDbPolyline
 90
2
 70
0
 10
154.24159162858803
 20
115.96065297724631
 10
153.99159163045067
 20
115.96065297724631
  0
LWPOLYLINE
  5
1C3
330
17
100
AcDbEntity
  8
MAT-MATERIAL
  6
Continuous
370
20
100
AcDbPolyline
 90
2
 70
0
 10
145.741592064447
 20
116.46065297352102
 10
145.24159206817228
 20
116.46065297352102
  0
LWPOLYLINE
  5
1C4
330
17
100
AcDbEntity
  8
MAT-MATERIAL
  6
Continuous
370
20
100
AcDbPolyline
 90
2
 70
0
 10
145.741592064447
 20
116.21065297538367
 10
145.741592064447
 20
116.46065297352102
  0
LWPOLYLINE
  5
1C5
330
17
100
AcDbEntity
  8
MAT-MATERIAL
  6
Continuous
370
20
100
AcDbPolyline
 90
2
 70
0
 10
145.49159206630964
 20
116.21065297538367
 10
145.741592064447
 20
116.21065297538367
  0
LWPOLYLINE
  5
1C6
330
17
100
AcDbEntity
  8
MAT-MATERIAL
  6
Continuous
370
20
100
AcDbPolyline
 90
2
 70
0
 10
145.49159206630964
 20
115.96065297724631
 10
145.49159206630964
 20
116.21065297538367
  0
LWPOLYLINE
  5
1C7
330
17
100
AcDbEntity
  8
MAT-MATERIAL
  6
Continuous
370
20
100
AcDbPolyline
 90
2
 70
0
 10
145.24159206817228
 20
115.96065297724631
 10
145.49159206630964
 20
115.96065297724631
  0
LWPOLYLINE
  5
1C8
330
17
100
AcDbEntity
  8
MAT-MATERIAL
  6
Continuous
370
20
100
AcDbPolyline
 90
2
 70
0
 10
147.43157810061172
 20
107.6239785213029
 10
145.84159205997662
 20
107.46065341310528
  0
LWPOLYLINE
  5
1C9
330
17
100
AcDbEntity
  8
MAT-MATERIAL
  6
Continuous
370
20
100
AcDbPolyline
 90
2
 70
0
 10
148.96046186937966
 20
108.10767735358155
 10
147.43157810061172
 20
107.6239785213029
  0
LWPOLYLINE
  5
1CA
330
17
100
AcDbEntity
  8
MAT-MATERIAL
  6
Continuous
370
20
100
AcDbPolyline
 90
2
 70
0
 10
150.63204161369129
 20
109.08400887767658
 10
148.96046186937966
 20
108.10767735358155
  0
LWPOLYLINE
  5
1CB
330
17
100
AcDbEntity
  8
MAT-MATERIAL
  6
Continuous
370
20
100
AcDbPolyline
 90
2
 70
0
 10
152.0389003530028
 20
110.44034484950751
 10
150.63204161369129
 20
109.08400887767658
  0
LWPOLYLINE
  5
1CC
330
17
100
AcDbEntity
  8
MAT-MATERIAL
  6
Continuous
370
20
100
AcDbPolyline
 90
2
 70
0
 10
153.10329484940138
 20
112.10173392733601
 10
152.0389003530028
 20
110.44034484950751
  0
LWPOLYLINE
  5
1CD
330
17
100
AcDbEntity
  8
MAT-MATERIAL
  6
Continuous
370
20
100
AcDbPolyline
 90
2
 70
0
 10
153.76640649355957
 20
113.97636748622037
 10
153.10329484940138
 20
112.10173392733601
  0
LWPOLYLINE
  5
1CE
330
17
100
AcDbEntity
  8
MAT-MATERIAL
  6
Continuous
370
20
100
AcDbPolyline
 90
2
 70
0
 10
153.99159163045067
 20
115.96065297724631
 10
153.76640649355957
 20
113.97636748622037
  0
LWPOLYLINE
  5
1CF
330
17
100
AcDbEntity
  8
MAT-MATERIAL
  6
Continuous
370
20
100
AcDbPolyline
 90
2
 70
0
 10
115.45655951163172
 20
107.46065341310528
 10
115.45655951163172
 20
115.96065297724631
  0
LWPOLYLINE
  5
1D0
330
17
100
AcDbEntity
  8
MAT-MATERIAL
  6
Continuous
370
20
100
AcDbPolyline
 90
2
 70
0
 10
115.80655950529874
 20
107.46065341310528
 10
115.45655951163172
 20
107.46065341310528
  0
LWPOLYLINE
  5
1D1
330
17
100
AcDbEntity
  8
MAT-MATERIAL
  6
Continuous
370
20
100
AcDbPolyline
 90
2
 70
0
 10
115.80655950529874
 20
115.96065297724631
 10
115.80655950529874
 20
107.46065341310528
  0
LWPOLYLINE
  5
1D2
330
17
100
AcDbEntity
  8
MAT-MATERIAL
  6
Continuous
370
20
100
AcDbPolyline
 90
2
 70
0
 10
115.45655951163172
 20
115.96065297724631
 10
115.80655950529874
 20
115.96065297724631
  0
LWPOLYLINE
  5
1D3
330
17
100
AcDbEntity
  8
MAT-MATERIAL
  6
Continuous
370
20
100
AcDbPolyline
 90
2
 70
0
 10
123.70655907763542
 20
116.46065297352102
 10
124.20655907391013
 20
116.46065297352102
  0
LWPOLYLINE
  5
1D4
330
17
100
AcDbEntity
  8
MAT-MATERIAL
  6
Continuous
370
20
100
AcDbPolyline
 90
2
 70
0
 10
123.70655907763542
 20
116.21065297538367
 10
123.70655907763542
 20
116.46065297352102
  0
LWPOLYLINE
  5
1D5
330
17
100
AcDbEntity
  8
MAT-MATERIAL
  6
Continuous
370
20
100
AcDbPolyline
 90
2
 70
0
 10
123.95655907577277
 20
116.21065297538367
 10
123.70655907763542
 20
116.21065297538367
  0
LWPOLYLINE
  5
1D6
330
17
100
AcDbEntity
  8
MAT-MATERIAL
  6
Continuous
370
20
100
AcDbPolyline
 90
2
 70
0
 10
123.95655907577277
 20
115.96065297724631
 10
123.95655907577277
 20
116.21065297538367
  0
LWPOLYLINE
  5
1D7
330
17
100
AcDbEntity
  8
MAT-MATERIAL
  6
Continuous
370
20
100
AcDbPolyline
 90
2
 70
0
 10
124.20655907391013
 20
115.96065297724631
 10
123.95655907577277
 20
115.96065297724631
  0
LWPOLYLINE
  5
1D8
330
17
100
AcDbEntity
  8
MAT-MATERIAL
  6
Continuous
370
20
100
AcDbPolyline
 90
2
 70
0
 10
115.70655950976908
 20
116.46065297352102
 10
115.20655951349438
 20
116.46065297352102
  0
LWPOLYLINE
  5
1D9
330
17
100
AcDbEntity
  8
MAT-MATERIAL
  6
Continuous
370
20
100
AcDbPolyline
 90
2
 70
0
 10
115.70655950976908
 20
116.21065297538367
 10
115.70655950976908
 20
116.46065297352102
  0
LWPOLYLINE
  5
1DA
330
17
100
AcDbEntity
  8
MAT-MATERIAL
  6
Continuous
370
20
100
AcDbPolyline
 90
2
 70
0
 10
115.45655951163172
 20
116.21065297538367
 10
115.70655950976908
 20
116.21065297538367
  0
LWPOLYLINE
  5
1DB
330
17
100
AcDbEntity
  8
MAT-MATERIAL
  6
Continuous
370
20
100
AcDbPolyline
 90
2
 70
0
 10
115.45655951163172
 20
115.96065297724631
 10
115.45655951163172
 20
116.21065297538367
  0
LWPOLYLINE
  5
1DC
330
17
100
AcDbEntity
  8
MAT-MATERIAL
  6
Continuous
370
20
100
AcDbPolyline
 90
2
 70
0
 10
115.20655951349438
 20
115.96065297724631
 10
115.45655951163172
 20
115.96065297724631
  0
LWPOLYLINE
  5
1DD
330
17
100
AcDbEntity
  8
MAT-MATERIAL
  6
Continuous
370
20
100
AcDbPolyline
 90
2
 70
0
 10
117.39654554593383
 20
107.6239785213029
 10
115.80655950529874
 20
107.46065341310528
  0
LWPOLYLINE
  5
1DE
330
17
100
AcDbEntity
  8
MAT-MATERIAL
  6
Continuous
370
20
100
AcDbPolyline
 90
2
 70
0
 10
118.92542931470177
 20
108.10767735358155
 10
117.39654554593383
 20
107.6239785213029
  0
LWPOLYLINE
  5
1DF
330
17
100
AcDbEntity
  8
MAT-MATERIAL
  6
Continuous
370
20
100
AcDbPolyline
 90
2
 70
0
 10
120.59700905901339
 20
109.08400887767658
 10
118.92542931470177
 20
108.10767735358155
  0
LWPOLYLINE
  5
1E0
330
17
100
AcDbEntity
  8
MAT-MATERIAL
  6
Continuous
370
20
100
AcDbPolyline
 90
2
 70
0
 10
122.00386779832489
 20
110.44034484950751
 10
120.59700905901339
 20
109.08400887767658
  0
LWPOLYLINE
  5
1E1
330
17
100
AcDbEntity
  8
MAT-MATERIAL
  6
Continuous
370
20
100
AcDbPolyline
 90
2
 70
0
 10
123.0682622947235
 20
112.10173392733601
 10
122.00386779832489
 20
110.44034484950751
  0
LWPOLYLINE
  5
1E2
330
17
100
AcDbEntity
  8
MAT-MATERIAL
  6
Continuous
370
20
100
AcDbPolyline
 90
2
 70
0
 10
123.73137393888167
 20
113.97636748622037
 10
123.0682622947235
 20
112.10173392733601
  0
LWPOLYLINE
  5
1E3
330
17
100
AcDbEntity
  8
MAT-MATERIAL
  6
Continuous
370
20
100
AcDbPolyline
 90
2
 70
0
 10
123.95655907577277
 20
115.96065297724631
 10
123.73137393888167
 20
113.97636748622037
  0
LWPOLYLINE
  5
1E4
330
17
100
AcDbEntity
  8
MAT-MATERIAL
  6
Continuous
370
20
100
AcDbPolyline
 90
2
 70
0
 10
85.45656018218398
 20
107.46065341310528
 10
85.45656018218398
 20
115.96065297724631
  0
LWPOLYLINE
  5
1E5
330
17
100
AcDbEntity
  8
MAT-MATERIAL
  6
Continuous
370
20
100
AcDbPolyline
 90
2
 70
0
 10
85.80656017585099
 20
107.46065341310528
 10
85.45656018218398
 20
107.46065341310528
  0
LWPOLYLINE
  5
1E6
330
17
100
AcDbEntity
  8
MAT-MATERIAL
  6
Continuous
370
20
100
AcDbPolyline
 90
2
 70
0
 10
85.80656017585099
 20
115.96065297724631
 10
85.80656017585099
 20
107.46065341310528
  0
LWPOLYLINE
  5
1E7
330
17
100
AcDbEntity
  8
MAT-MATERIAL
  6
Continuous
370
20
100
AcDbPolyline
 90
2
 70
0
 10
85.45656018218398
 20
115.96065297724631
 10
85.80656017585099
 20
115.96065297724631
  0
LWPOLYLINE
  5
1E8
330
17
100
AcDbEntity
  8
MAT-MATERIAL
  6
Continuous
370
20
100
AcDbPolyline
 90
2
 70
0
 10
93.70655974818767
 20
116.46065297352102
 10
94.20655974446238
 20
116.46065297352102
  0
LWPOLYLINE
  5
1E9
330
17
100
AcDbEntity
  8
MAT-MATERIAL
  6
Continuous
370
20
100
AcDbPolyline
 90
2
 70
0
 10
93.70655974818767
 20
116.21065297538367
 10
93.70655974818767
 20
116.46065297352102
  0
LWPOLYLINE
  5
1EA
330
17
100
AcDbEntity
  8
MAT-MATERIAL
  6
Continuous
370
20
100
AcDbPolyline
 90
2
 70
0
 10
93.95655974632503
 20
116.21065297538367
 10
93.70655974818767
 20
116.21065297538367
  0
LWPOLYLINE
  5
1EB
330
17
100
AcDbEntity
  8
MAT-MATERIAL
  6
Continuous
370
20
100
AcDbPolyline
 90
2
 70
0
 10
93.95655974632503
 20
115.96065297724631
 10
93.95655974632503
 20
116.21065297538367
  0
LWPOLYLINE
  5
1EC
330
17
100
AcDbEntity
  8
MAT-MATERIAL
  6
Continuous
370
20
100
AcDbPolyline
 90
2
 70
0
 10
94.20655974446238
 20
115.96065297724631
 10
93.95655974632503
 20
115.96065297724631
  0
LWPOLYLINE
  5
1ED
330
17
100
AcDbEntity
  8
MAT-MATERIAL
  6
Continuous
370
20
100
AcDbPolyline
 90
2
 70
0
 10
85.70656018032133
 20
116.46065297352102
 10
85.20656018404664
 20
116.46065297352102
  0
LWPOLYLINE
  5
1EE
330
17
100
AcDbEntity
  8
MAT-MATERIAL
  6
Continuous
370
20
100
AcDbPolyline
 90
2
 70
0
 10
85.70656018032133
 20
116.21065297538367
 10
85.70656018032133
 20
116.46065297352102
  0
LWPOLYLINE
  5
1EF
330
17
100
AcDbEntity
  8
MAT-MATERIAL
  6
Continuous
370
20
100
AcDbPolyline
 90
2
 70
0
 10
85.45656018218398
 20
116.21065297538367
 10
85.70656018032133
 20
116.21065297538367
  0
LWPOLYLINE
  5
1F0
330
17
100
AcDbEntity
  8
MAT-MATERIAL
  6
Continuous
370
20
100
AcDbPolyline
 90
2
 70
0
 10
85.45656018218398
 20
115.96065297724631
 10
85.45656018218398
 20
116.21065297538367
  0
LWPOLYLINE
  5
1F1
330
17
100
AcDbEntity
  8
MAT-MATERIAL
  6
Continuous
370
20
100
AcDbPolyline
 90
2
 70
0
 10
85.20656018404664
 20
115.96065297724631
 10
85.45656018218398
 20
115.96065297724631
  0
LWPOLYLINE
  5
1F2
330
17
100
AcDbEntity
  8
MAT-MATERIAL
  6
Continuous
370
20
100
AcDbPolyline
 90
2
 70
0
 10
87.39654621648609
 20
107.6239785213029
 10
85.80656017585099
 20
107.46065341310528
  0
LWPOLYLINE
  5
1F3
330
17
100
AcDbEntity
  8
MAT-MATERIAL
  6
Continuous
370
20
100
AcDbPolyline
 90
2
 70
0
 10
88.92542998525401
 20
108.10767735358155
 10
87.39654621648609
 20
107.6239785213029
  0
LWPOLYLINE
  5
1F4
330
17
100
AcDbEntity
  8
MAT-MATERIAL
  6
Continuous
370
20
100
AcDbPolyline
 90
2
 70
0
 10
90.59700972956563
 20
109.08400887767658
 10
88.92542998525401
 20
108.10767735358155
  0
LWPOLYLINE
  5
1F5
330
17
100
AcDbEntity
  8
MAT-MATERIAL
  6
Continuous
370
20
100
AcDbPolyline
 90
2
 70
0
 10
92.00386846887714
 20
110.44034484950751
 10
90.59700972956563
 20
109.08400887767658
  0
LWPOLYLINE
  5
1F6
330
17
100
AcDbEntity
  8
MAT-MATERIAL
  6
Continuous
370
20
100
AcDbPolyline
 90
2
 70
0
 10
93.06826296527575
 20
112.10173392733601
 10
92.00386846887714
 20
110.44034484950751
  0
LWPOLYLINE
  5
1F7
330
17
100
AcDbEntity
  8
MAT-MATERIAL
  6
Continuous
370
20
100
AcDbPolyline
 90
2
 70
0
 10
93.73137460943393
 20
113.97636748622037
 10
93.06826296527575
 20
112.10173392733601
  0
LWPOLYLINE
  5
1F8
330
17
100
AcDbEntity
  8
MAT-MATERIAL
  6
Continuous
370
20
100
AcDbPolyline
 90
2
 70
0
 10
93.95655974632503
 20
115.96065297724631
 10
93.73137460943393
 20
113.97636748622037
  0
LWPOLYLINE
  5
1F9
330
17
100
AcDbEntity
  8
MAT-CONCRETE
  6
Continuous
370
35
100
AcDbPolyline
 90
4
 70
1
 10
66.30655955745287
 20
69.46064639465904
 10
71.30655944569416
 20
69.46064639465904
 10
71.30655944569416
 20
64.46064650641775
 10
66.30655955745287
 20
64.46064650641775
  0
LWPOLYLINE
  5
1FA
330
17
100
AcDbEntity
  8
MAT-CONCRETE
  6
Continuous
370
35
100
AcDbPolyline
 90
4
 70
1
 10
66.30655955745287
 20
116.46065297352102
 10
71.30655944569416
 20
116.46065297352102
 10
71.30655944569416
 20
111.46065308527973
 10
66.30655955745287
 20
111.46065308527973
  0
LWPOLYLINE
  5
1FB
330
17
100
AcDbEntity
  8
MAT-CONCRETE
  6
Continuous
370
35
100
AcDbPolyline
 90
4
 70
1
 10
156.30656946672485
 20
69.46064639465904
 10
161.30656935496614
 20
69.46064639465904
 10
161.30656935496614
 20
64.46064650641775
 10
156.30656946672485
 20
64.46064650641775
  0
LWPOLYLINE
  5
1FC
330
17
100
AcDbEntity
  8
MAT-CONCRETE
  6
Continuous
370
35
100
AcDbPolyline
 90
4
 70
1
 10
233.3065658382918
 20
69.46064639465904
 10
238.30656572653308
 20
69.46064639465904
 10
238.30656572653308
 20
64.46064650641775
 10
233.3065658382918
 20
64.46064650641775
  0
LWPOLYLINE
  5
1FD
330
17
100
AcDbEntity
  8
MAT-CONCRETE
  6
Continuous
370
35
100
AcDbPolyline
 90
4
 70
1
 10
156.30656946672485
 20
116.46065297352102
 10
161.30656935496614
 20
116.46065297352102
 10
161.30656935496614
 20
111.46065308527973
 10
156.30656946672485
 20
111.46065308527973
  0
LWPOLYLINE
  5
1FE
330
17
100
AcDbEntity
  8
MAT-CONCRETE
  6
Continuous
370
35
100
AcDbPolyline
 90
4
 70
1
 10
233.3065658382918
 20
116.46065297352102
 10
238.30656572653308
 20
116.46065297352102
 10
238.30656572653308
 20
111.46065308527973
 10
233.3065658382918
 20
111.46065308527973
  0
LWPOLYLINE
  5
1FF
330
17
100
AcDbEntity
  8
MAT-CONCRETE
  6
Continuous
370
35
100
AcDbPolyline
 90
4
 70
1
 10
156.30656946672485
 20
186.4606514088992
 10
161.30656935496614
 20
186.4606514088992
 10
161.30656935496614
 20
181.4606515206579
 10
156.30656946672485
 20
181.4606515206579
  0
LWPOLYLINE
  5
200
330
17
100
AcDbEntity
  8
MAT-CONCRETE
  6
Continuous
370
35
100
AcDbPolyline
 90
4
 70
1
 10
233.3065658382918
 20
186.4606514088992
 10
238.30656572653308
 20
186.4606514088992
 10
238.30656572653308
 20
181.4606515206579
 10
233.3065658382918
 20
181.4606515206579
  0
LWPOLYLINE
  5
201
330
17
100
AcDbEntity
  8
MAT-NULL
  6
Continuous
370
35
100
AcDbPolyline
 90
11
 70
0
 10
193.65655926620107
 20
97.27271226142223
 10
193.3565589677308
 20
97.27271224830879
 10
193.3565591664609
 20
79.41067347833878
 10
192.4565573176789
 20
79.41067343899842
 10
192.4565573307923
 20
79.11067344570392
 10
193.5065594530902
 20
79.110673491601
 10
193.50655943997677
 20
79.4106734848955
 10
193.35655916646095
 20
79.41067347833875
 10
193.35655914471045
 20
79.2606734816915
 10
193.65655944318073
 20
79.26067349480489
 10
193.65655926620104
 20
97.27271226142228
  0
LWPOLYLINE
  5
202
330
17
100
AcDbEntity
  8
MAT-NULL
  6
Continuous
370
35
100
AcDbPolyline
 90
2
 70
0
 10
193.35655912412014
 20
93.69494088977342
 10
193.65655942259042
 20
93.69494090288687
  0
LWPOLYLINE
  5
203
330
17
100
AcDbEntity
  8
MAT-NULL
  6
Continuous
370
35
100
AcDbPolyline
 90
2
 70
0
 10
193.65655930180674
 20
82.49493367641985
 10
193.35655961368803
 20
82.49493366330643
  0
LWPOLYLINE
  5
204
330
17
100
AcDbEntity
  8
MAT-NULL
  6
Continuous
370
35
100
AcDbPolyline
 90
5
 70
0
 10
206.3065591364977
 20
80.51623828646152
 10
206.30655907951228
 20
85.29493955880122
 10
193.8065605796121
 20
85.2949394097402
 10
193.80656063659757
 20
80.51623813740049
 10
206.30655913649773
 20
80.51623828646149
  0
LWPOLYLINE
  5
205
330
17
100
AcDbEntity
  8
MAT-NULL
  6
Continuous
370
20
100
AcDbPolyline
 90
5
 70
0
 10
65.45647571470525
 20
125.96065117231484
 10
65.45647842869636
 20
120.96065246663028
 10
65.65649719253614
 20
120.96065252941948
 10
65.65649455483896
 20
125.96065123510404
 10
65.45647571470525
 20
125.96065117231485
  0
LWPOLYLINE
  5
206
330
17
100
AcDbEntity
  8
MAT-NULL
  6
Continuous
370
20
100
AcDbPolyline
 90
5
 70
0
 10
66.3065022897013
 20
120.96065395416989
 10
64.80648393478089
 20
120.9606534832894
 10
64.80648409174007
 20
120.46065044270753
 10
66.30650244666049
 20
120.46065091358801
 10
66.3065022897013
 20
120.96065395416987
  0
LWPOLYLINE
  5
207
330
17
100
AcDbEntity
  8
MAT-NULL
  6
Continuous
370
20
100
AcDbPolyline
 90
5
 70
0
 10
66.30649949504497
 20
126.46065560506844
 10
64.80648115126986
 20
126.46065513418797
 10
64.80648130822941
 20
125.9606509682709
 10
66.30649965200452
 20
125.96065143915135
 10
66.30649949504497
 20
126.46065560506845
  0
LWPOLYLINE
  5
208
330
17
100
AcDbEntity
  8
MAT-FIN
  6
Continuous
370
5
100
AcDbPolyline
 90
4
 70
1
 10
156.30656946672485
 20
64.46064650641775
 10
156.30656946672485
 20
63.46064652876948
 10
238.30658493957964
 20
63.46064652876948
 10
238.30658493957964
 20
64.46064650641775
  0
LWPOLYLINE
  5
209
330
17
100
AcDbEntity
  8
MAT-FIN
  6
Continuous
370
5
100
AcDbPolyline
 90
2
 70
1
 10
238.30658480001964
 20
63.460642714071604
 10
238.30658480001966
 20
63.460642714071604
  0
LWPOLYLINE
  5
20A
330
17
100
AcDbEntity
  8
MAT-FIN
  6
Continuous
370
5
100
AcDbPolyline
 90
4
 70
1
 10
238.30658480001966
 20
63.460642714071604
 10
238.30654680003968
 20
136.4605189074703
 10
239.3065467776878
 20
136.46051942801884
 10
239.30658477766775
 20
63.460643234620136
  0
LWPOLYLINE
  5
20B
330
17
100
AcDbEntity
  8
MAT-NULL
  6
Continuous
370
13
100
AcDbPolyline
 90
2
 70
1
 10
124.30657155875066
 20
63.46064609165564
 10
124.30657155875066
 20
63.46064652876948
  0
LWPOLYLINE
  5
20C
330
17
100
AcDbEntity
  8
MAT-NULL
  6
Continuous
370
13
100
AcDbPolyline
 90
5
 70
1
 10
94.3065710085998
 20
63.46064609165571
 10
94.3065710085998
 20
64.46064606930395
 10
104.3065732264886
 20
64.46064650641775
 10
104.3065732264886
 20
63.46064696588332
 10
94.30657100859982
 20
63.46064652876948
  0
LWPOLYLINE
  5
20D
330
17
100
AcDbEntity
  8
MAT-NULL
  6
Continuous
370
13
100
AcDbPolyline
 90
4
 70
1
 10
156.30657635436998
 20
63.46064652876948
 10
154.30656135145554
 20
63.46064609165564
 10
154.30656135145554
 20
64.46064650641775
 10
156.30657635436998
 20
64.46064650641775
  0
LWPOLYLINE
  5
20E
330
17
100
AcDbEntity
  8
MAT-NULL
  6
Continuous
370
13
100
AcDbPolyline
 90
4
 70
1
 10
66.30655717326712
 20
63.46064652876948
 10
66.30655717326712
 20
64.46064650641775
 10
74.30657511774395
 20
64.46064650641775
 10
74.30657511774396
 20
63.460646965883285
  0
LWPOLYLINE
  5
20F
330
17
100
AcDbEntity
  8
MAT-NULL
  6
Continuous
370
13
100
AcDbPolyline
 90
4
 70
1
 10
124.30657155875066
 20
63.46064652876948
 10
124.30657155875066
 20
64.46064606930392
 10
134.30656301919348
 20
64.46064650641775
 10
134.30656301919345
 20
63.46064696588332
  0
LWPOLYLINE
  5
210
330
17
100
AcDbEntity
  8
MAT-NULL
  6
Continuous
370
13
100
AcDbPolyline
 90
4
 70
1
 10
156.30655039323926
 20
136.46066206322897
 10
156.30655000382492
 20
137.46066204087714
 10
154.49158232830717
 20
137.46066133410267
 10
154.49158232830715
 20
136.46066135645432
  0
LWPOLYLINE
  5
211
330
17
100
AcDbEntity
  8
MAT-NULL
  6
Continuous
370
13
100
AcDbPolyline
 90
4
 70
1
 10
65.30653700078032
 20
136.4606266265163
 10
144.9915855924064
 20
136.4606576570191
 10
144.99158559240638
 20
137.46065763466746
 10
65.30653661136597
 20
137.4606266041645
  0
LWPOLYLINE
  5
212
330
17
100
AcDbEntity
  8
MAT-NULL
  6
Continuous
370
13
100
AcDbPolyline
 90
2
 70
1
 10
239.30655029439686
 20
137.4605189897334
 10
239.30655029439689
 20
137.4605189897334
  0
LWPOLYLINE
  5
213
330
17
100
AcDbEntity
  8
MAT-NULL
  6
Continuous
370
13
100
AcDbPolyline
 90
4
 70
1
 10
239.30655029439686
 20
137.4605189897334
 10
239.30655044539267
 20
136.46051901168323
 10
156.27713875156203
 20
136.4605064749925
 10
156.27713860056622
 20
137.46050645264074
  0
LWPOLYLINE
  5
214
330
17
100
AcDbEntity
  8
MAT-NULL
  6
Continuous
370
13
100
AcDbPolyline
 90
4
 70
1
 10
66.30653571559552
 20
136.46062391625782
 10
65.3065357379473
 20
136.46062360234134
 10
65.30653887710335
 20
126.46065129290159
 10
66.30654025351576
 20
126.46065239757398
  0
LWPOLYLINE
  5
215
330
17
100
AcDbEntity
  8
MAT-NULL
  6
Continuous
370
13
100
AcDbPolyline
 90
4
 70
1
 10
66.30655863149201
 20
63.460643210507264
 10
66.30654073825126
 20
120.46064886957357
 10
65.30654006122107
 20
120.46064776490115
 10
65.3065586538438
 20
63.46064289659077
  0
LWPOLYLINE
  5
216
330
17
100
AcDbEntity
  8
MAT-FIN
  6
Continuous
370
5
100
AcDbPolyline
 90
5
 70
1
 10
220.81324577331543
 20
64.46064694722493
 10
238.3065891265869
 20
64.46064694722493
 10
238.3065891265869
 20
63.460643132527665
 10
156.30657196044922
 20
63.460643132527665
 10
156.30657196044922
 20
64.46064694722493
  0
LWPOLYLINE
  5
217
330
17
100
AcDbEntity
  8
MAT-FIN
  6
Continuous
370
5
100
AcDbPolyline
 90
5
 70
1
 10
238.30655097961426
 20
120.88721021016438
 10
238.30655097961426
 20
136.46052106221515
 10
239.30655479431152
 20
136.46052106221515
 10
239.30659294128418
 20
63.460643132527665
 10
238.3065891265869
 20
63.460643132527665
  0
LWPOLYLINE
  5
218
330
17
100
AcDbEntity
  8
MAT-NULL
  6
Continuous
370
13
100
AcDbPolyline
 90
5
 70
1
 10
154.66553688049316
 20
63.460643132527665
 10
154.30655479431152
 20
63.460643132527665
 10
154.30655479431152
 20
64.46064694722493
 10
156.30658149719238
 20
64.46064694722493
 10
156.30658149719238
 20
63.460643132527665
  0
LWPOLYLINE
  5
219
330
17
100
AcDbEntity
  8
MAT-NULL
  6
Continuous
370
13
100
AcDbPolyline
 90
4
 70
1
 10
134.3065643310547
 20
63.460643132527665
 10
124.30657386779785
 20
63.460643132527665
 10
124.30657386779785
 20
64.46064694722493
 10
134.3065643310547
 20
64.46064694722493
  0
LWPOLYLINE
  5
21A
330
17
100
AcDbEntity
  8
MAT-NULL
  6
Continuous
370
13
100
AcDbPolyline
 90
4
 70
1
 10
104.30657386779785
 20
63.460643132527665
 10
94.30657386779785
 20
63.460643132527665
 10
94.30657386779785
 20
64.46064694722493
 10
104.30657386779785
 20
64.46064694722493
  0
LWPOLYLINE
  5
21B
330
17
100
AcDbEntity
  8
MAT-NULL
  6
Continuous
370
13
100
AcDbPolyline
 90
4
 70
1
 10
74.30657386779785
 20
63.460643132527665
 10
66.30656242370605
 20
63.460643132527665
 10
66.30656242370605
 20
64.46064694722493
 10
74.30657386779785
 20
64.46064694722493
  0
LWPOLYLINE
  5
21C
330
17
100
AcDbEntity
  8
MAT-NULL
  6
Continuous
370
13
100
AcDbPolyline
 90
5
 70
1
 10
65.30653953552246
 20
136.79396375020343
 10
65.30653953552246
 20
137.46062978108722
 10
144.9915885925293
 20
137.4606583913167
 10
144.9915885925293
 20
136.4606641133626
 10
65.30653953552246
 20
136.46062596638996
  0
LWPOLYLINE
  5
21D
330
17
100
AcDbEntity
  8
MAT-NULL
  6
Continuous
370
13
100
AcDbPolyline
 90
4
 70
1
 10
154.49158668518066
 20
137.46066792805988
 10
156.3065528869629
 20
137.46066792805988
 10
156.3065528869629
 20
136.4606641133626
 10
154.49158668518066
 20
136.4606641133626
  0
LWPOLYLINE
  5
21E
330
17
100
AcDbEntity
  8
MAT-NULL
  6
Continuous
370
13
100
AcDbPolyline
 90
5
 70
1
 10
219.74621772766113
 20
137.46051534016925
 10
239.30655479431152
 20
137.46052487691242
 10
239.30655479431152
 20
136.46052106221515
 10
156.27714157104492
 20
136.460511525472
 10
156.27714157104492
 20
137.4605058034261
  0
LWPOLYLINE
  5
21F
330
17
100
AcDbEntity
  8
MAT-NULL
  6
Continuous
370
13
100
AcDbPolyline
 90
4
 70
1
 10
65.30655860900879
 20
63.460643132527665
 10
65.30653953552246
 20
120.4606507619222
 10
66.30654335021973
 20
120.4606507619222
 10
66.30656242370605
 20
63.460643132527665
  0
LWPOLYLINE
  5
220
330
17
100
AcDbEntity
  8
MAT-NULL
  6
Continuous
370
13
100
AcDbPolyline
 90
5
 70
1
 10
65.97320556640625
 20
126.46065457661946
 10
65.30653953552246
 20
126.46065457661946
 10
65.30653953552246
 20
136.46062596638996
 10
66.30653381347656
 20
136.46062596638996
 10
66.30654335021973
 20
126.46065457661946
  0
LWPOLYLINE
  5
221
330
17
100
AcDbEntity
  8
MAT-CONCRETE
  6
Continuous
370
35
100
AcDbPolyline
 90
4
 70
1
 10
71.307
 20
64.461
 10
71.307
 20
66.461
 10
74.307
 20
66.461
 10
74.307
 20
64.461
  0
LWPOLYLINE
  5
222
330
17
100
AcDbEntity
  8
MAT-CONCRETE
  6
Continuous
370
35
100
AcDbPolyline
 90
12
 70
1
 10
96.307
 20
114.461
 10
94.207
 20
114.461
 10
94.207
 20
116.461
 10
115.207
 20
116.461
 10
115.207
 20
114.461
 10
98.307
 20
114.461
 10
98.307
 20
66.461
 10
104.307
 20
66.461
 10
104.307
 20
64.461
 10
94.307
 20
64.461
 10
94.307
 20
66.461
 10
96.307
 20
66.461
  0
LWPOLYLINE
  5
223
330
17
100
AcDbEntity
  8
MAT-CONCRETE
  6
Continuous
370
35
100
AcDbPolyline
 90
12
 70
1
 10
124.307
 20
66.461
 10
126.307
 20
66.461
 10
126.307
 20
114.461
 10
124.207
 20
114.461
 10
124.207
 20
116.461
 10
145.242
 20
116.461
 10
145.242
 20
114.461
 10
128.307
 20
114.461
 10
128.307
 20
66.461
 10
134.307
 20
66.461
 10
134.307
 20
64.461
 10
124.307
 20
64.461
  0
LWPOLYLINE
  5
224
330
17
100
AcDbEntity
  8
MAT-CONCRETE
  6
Continuous
370
35
100
AcDbPolyline
 90
4
 70
1
 10
68.307
 20
69.461
 10
66.307
 20
69.461
 10
66.307
 20
111.461
 10
68.307
 20
111.461
  0
LWPOLYLINE
  5
225
330
17
100
AcDbEntity
  8
MAT-CONCRETE
  6
Continuous
370
35
100
AcDbPolyline
 90
4
 70
1
 10
85.207
 20
116.461
 10
85.207
 20
114.461
 10
71.307
 20
114.461
 10
71.307
 20
116.461
  0
LWPOLYLINE
  5
226
330
17
100
AcDbEntity
  8
MAT-CONCRETE
  6
Continuous
370
35
100
AcDbPolyline
 90
4
 70
1
 10
154.242
 20
116.461
 10
156.307
 20
116.461
 10
156.307
 20
114.461
 10
154.242
 20
114.461
  0
LWPOLYLINE
  5
227
330
17
100
AcDbEntity
  8
MAT-CONCRETE
  6
Continuous
370
35
100
AcDbPolyline
 90
4
 70
1
 10
66.307
 20
116.461
 10
66.307
 20
120.461
 10
68.307
 20
120.461
 10
68.307
 20
116.461
  0
LWPOLYLINE
  5
228
330
17
100
AcDbEntity
  8
MAT-CONCRETE
  6
Continuous
370
35
100
AcDbPolyline
 90
6
 70
1
 10
68.307
 20
126.461
 10
66.307
 20
126.461
 10
66.307
 20
136.461
 10
145.242
 20
136.461
 10
145.242
 20
134.461
 10
68.307
 20
134.461
  0
LWPOLYLINE
  5
229
330
17
100
AcDbEntity
  8
MAT-CONCRETE
  6
Continuous
370
35
100
AcDbPolyline
 90
4
 70
1
 10
154.307
 20
64.461
 10
154.307
 20
66.461
 10
156.307
 20
66.461
 10
156.307
 20
64.461
  0
LWPOLYLINE
  5
22A
330
17
100
AcDbEntity
  8
MAT-CONCRETE
  6
Continuous
370
35
100
AcDbPolyline
 90
18
 70
1
 10
206.307
 20
66.461
 10
206.307
 20
116.461
 10
209.969
 20
116.461
 10
209.969
 20
114.461
 10
208.307
 20
114.461
 10
208.307
 20
81.461
 10
236.307
 20
81.461
 10
236.307
 20
111.461
 10
238.307
 20
111.461
 10
238.307
 20
69.461
 10
236.307
 20
69.461
 10
236.307
 20
79.461
 10
223.307
 20
79.461
 10
223.307
 20
66.461
 10
233.307
 20
66.461
 10
233.307
 20
64.461
 10
161.307
 20
64.461
 10
161.307
 20
66.461
  0
LWPOLYLINE
  5
22B
330
17
100
AcDbEntity
  8
MAT-CONCRETE
  6
Continuous
370
35
100
AcDbPolyline
 90
4
 70
1
 10
221.307
 20
79.461
 10
208.307
 20
79.461
 10
208.307
 20
66.461
 10
221.307
 20
66.461
  0
LWPOLYLINE
  5
22C
330
17
100
AcDbEntity
  8
MAT-CONCRETE
  6
Continuous
370
35
100
AcDbPolyline
 90
4
 70
1
 10
158.307
 20
69.461
 10
156.307
 20
69.461
 10
156.307
 20
111.461
 10
158.307
 20
111.461
  0
LWPOLYLINE
  5
22D
330
17
100
AcDbEntity
  8
MAT-CONCRETE
  6
Continuous
370
35
100
AcDbPolyline
 90
4
 70
1
 10
218.969
 20
116.461
 10
233.307
 20
116.461
 10
233.307
 20
114.461
 10
218.969
 20
114.461
  0
LWPOLYLINE
  5
22E
330
17
100
AcDbEntity
  8
MAT-CONCRETE
  6
Continuous
370
35
100
AcDbPolyline
 90
6
 70
1
 10
154.242
 20
136.461
 10
238.307
 20
136.461
 10
238.307
 20
116.461
 10
236.307
 20
116.461
 10
236.307
 20
134.461
 10
154.242
 20
134.461
  0
LWPOLYLINE
  5
22F
330
17
100
AcDbEntity
  8
MAT-CONCRETE
  6
Continuous
370
35
100
AcDbPolyline
 90
4
 70
1
 10
71.307
 20
66.461
 10
74.307
 20
66.461
 10
74.307
 20
64.461
 10
71.307
 20
64.461
  0
LWPOLYLINE
  5
230
330
17
100
AcDbEntity
  8
MAT-CONCRETE
  6
Continuous
370
35
100
AcDbPolyline
 90
12
 70
1
 10
96.307
 20
66.461
 10
96.307
 20
114.461
 10
94.207
 20
114.461
 10
94.207
 20
116.461
 10
115.207
 20
116.461
 10
115.207
 20
114.461
 10
98.307
 20
114.461
 10
98.307
 20
66.461
 10
104.307
 20
66.461
 10
104.307
 20
64.461
 10
94.307
 20
64.461
 10
94.307
 20
66.461
  0
LWPOLYLINE
  5
231
330
17
100
AcDbEntity
  8
MAT-CONCRETE
  6
Continuous
370
35
100
AcDbPolyline
 90
13
 70
1
 10
126.307
 20
88.722
 10
126.307
 20
114.461
 10
124.207
 20
114.461
 10
124.207
 20
116.461
 10
145.242
 20
116.461
 10
145.242
 20
114.461
 10
128.307
 20
114.461
 10
128.307
 20
66.461
 10
134.307
 20
66.461
 10
134.307
 20
64.461
 10
124.307
 20
64.461
 10
124.307
 20
66.461
 10
126.307
 20
66.461
  0
LWPOLYLINE
  5
232
330
17
100
AcDbEntity
  8
MAT-CONCRETE
  6
Continuous
370
35
100
AcDbPolyline
 90
5
 70
1
 10
66.307
 20
89.061
 10
66.307
 20
111.461
 10
68.307
 20
111.461
 10
68.307
 20
69.461
 10
66.307
 20
69.461
  0
LWPOLYLINE
  5
233
330
17
100
AcDbEntity
  8
MAT-CONCRETE
  6
Continuous
370
35
100
AcDbPolyline
 90
5
 70
1
 10
82.427
 20
116.461
 10
85.207
 20
116.461
 10
85.207
 20
114.461
 10
71.307
 20
114.461
 10
71.307
 20
116.461
  0
LWPOLYLINE
  5
234
330
17
100
AcDbEntity
  8
MAT-CONCRETE
  6
Continuous
370
35
100
AcDbPolyline
 90
4
 70
1
 10
68.307
 20
120.461
 10
68.307
 20
116.461
 10
66.307
 20
116.461
 10
66.307
 20
120.461
  0
LWPOLYLINE
  5
235
330
17
100
AcDbEntity
  8
MAT-CONCRETE
  6
Continuous
370
35
100
AcDbPolyline
 90
7
 70
1
 10
68.307
 20
136.461
 10
145.242
 20
136.461
 10
145.242
 20
134.461
 10
68.307
 20
134.461
 10
68.307
 20
126.461
 10
66.307
 20
126.461
 10
66.307
 20
136.461
  0
LWPOLYLINE
  5
236
330
17
100
AcDbEntity
  8
MAT-CONCRETE
  6
Continuous
370
35
100
AcDbPolyline
 90
5
 70
1
 10
154.973
 20
66.461
 10
156.307
 20
66.461
 10
156.307
 20
64.461
 10
154.307
 20
64.461
 10
154.307
 20
66.461
  0
LWPOLYLINE
  5
237
330
17
100
AcDbEntity
  8
MAT-CONCRETE
  6
Continuous
370
35
100
AcDbPolyline
 90
18
 70
1
 10
236.307
 20
81.461
 10
236.307
 20
111.461
 10
238.307
 20
111.461
 10
238.307
 20
69.461
 10
236.307
 20
69.461
 10
236.307
 20
79.461
 10
223.307
 20
79.461
 10
223.307
 20
66.461
 10
233.307
 20
66.461
 10
233.307
 20
64.461
 10
161.307
 20
64.461
 10
161.307
 20
66.461
 10
206.307
 20
66.461
 10
206.307
 20
116.461
 10
209.969
 20
116.461
 10
209.969
 20
114.461
 10
208.307
 20
114.461
 10
208.307
 20
81.461
  0
LWPOLYLINE
  5
238
330
17
100
AcDbEntity
  8
MAT-CONCRETE
  6
Continuous
370
35
100
AcDbPolyline
 90
4
 70
1
 10
208.307
 20
66.461
 10
221.307
 20
66.461
 10
221.307
 20
79.461
 10
208.307
 20
79.461
  0
LWPOLYLINE
  5
239
330
17
100
AcDbEntity
  8
MAT-CONCRETE
  6
Continuous
370
35
100
AcDbPolyline
 90
4
 70
1
 10
156.307
 20
111.461
 10
158.307
 20
111.461
 10
158.307
 20
69.461
 10
156.307
 20
69.461
  0
LWPOLYLINE
  5
23A
330
17
100
AcDbEntity
  8
MAT-CONCRETE
  6
Continuous
370
35
100
AcDbPolyline
 90
5
 70
1
 10
154.655
 20
116.461
 10
156.307
 20
116.461
 10
156.307
 20
114.461
 10
154.242
 20
114.461
 10
154.242
 20
116.461
  0
LWPOLYLINE
  5
23B
330
17
100
AcDbEntity
  8
MAT-CONCRETE
  6
Continuous
370
35
100
AcDbPolyline
 90
4
 70
1
 10
218.969
 20
116.461
 10
233.307
 20
116.461
 10
233.307
 20
114.461
 10
218.969
 20
114.461
  0
LWPOLYLINE
  5
23C
330
17
100
AcDbEntity
  8
MAT-CONCRETE
  6
Continuous
370
35
100
AcDbPolyline
 90
6
 70
1
 10
236.307
 20
134.461
 10
154.242
 20
134.461
 10
154.242
 20
136.461
 10
238.307
 20
136.461
 10
238.307
 20
116.461
 10
236.307
 20
116.461
  0
LWPOLYLINE
  5
23D
330
17
100
AcDbEntity
  8
MAT-NULL
  6
Continuous
100
AcDbPolyline
 90
5
 70
1
 10
141.37324333190918
 20
66.46065457661946
 10
128.30657958984375
 20
66.46065457661946
 10
128.30656051635742
 20
114.4606564839681
 10
156.30657196044922
 20
114.4606564839681
 10
156.30657196044922
 20
66.46065457661946
  0
LWPOLYLINE
  5
23E
330
17
100
AcDbEntity
  8
MAT-NULL
  6
Continuous
100
AcDbPolyline
 90
4
 70
1
 10
208.3065891265869
 20
66.46065457661946
 10
208.3065891265869
 20
79.46064694722493
 10
221.30656242370605
 20
79.46064694722493
 10
221.30658149719238
 20
66.46065457661946
  0
LWPOLYLINE
  5
23F
330
17
100
AcDbEntity
  8
MAT-NULL
  6
Continuous
100
AcDbPolyline
 90
6
 70
1
 10
233.3065700531006
 20
69.46064694722493
 10
233.3065700531006
 20
66.46065457661946
 10
223.3065700531006
 20
66.46065457661946
 10
223.3065700531006
 20
79.46064694722493
 10
236.30656242370605
 20
79.46064694722493
 10
236.30656242370605
 20
69.46064694722493
  0
LWPOLYLINE
  5
240
330
17
100
AcDbEntity
  8
MAT-NULL
  6
Continuous
100
AcDbPolyline
 90
5
 70
1
 10
111.3732385635376
 20
66.46065457661946
 10
98.30657005310059
 20
66.46065457661946
 10
98.30655574798584
 20
114.4606564839681
 10
126.30656242370605
 20
114.4606564839681
 10
126.30657196044922
 20
66.46065457661946
  0
LWPOLYLINE
  5
241
330
17
100
AcDbEntity
  8
MAT-NULL
  6
Continuous
100
AcDbPolyline
 90
8
 70
1
 10
96.30656242370605
 20
114.4606564839681
 10
96.3065767288208
 20
66.46065457661946
 10
71.30655765533447
 20
66.46065457661946
 10
71.30655765533447
 20
69.46064694722493
 10
68.30657005310059
 20
69.46064694722493
 10
68.30655097961426
 20
111.46065457661946
 10
71.30655765533447
 20
111.46065457661946
 10
71.30655765533447
 20
114.4606564839681
  0
LWPOLYLINE
  5
242
330
17
100
AcDbEntity
  8
MAT-NULL
  6
Continuous
100
AcDbPolyline
 90
12
 70
1
 10
158.30656051635742
 20
69.46064694722493
 10
158.30655097961426
 20
111.46065457661946
 10
161.30657196044922
 20
111.46065457661946
 10
161.30657196044922
 20
116.46065457661946
 10
68.30656051635742
 20
116.46065457661946
 10
68.30655097961426
 20
134.46065648396808
 10
236.3065242767334
 20
134.46065648396808
 10
236.30656242370605
 20
116.46065457661946
 10
206.30656242370605
 20
116.46065457661946
 10
206.30658149719238
 20
66.46065457661946
 10
161.30657196044922
 20
66.46065457661946
 10
161.30657196044922
 20
69.46064694722493
  0
LWPOLYLINE
  5
243
330
17
100
AcDbEntity
  8
MAT-NULL
  6
Continuous
100
AcDbPolyline
 90
7
 70
1
 10
221.6399097442627
 20
114.4606564839681
 10
233.3065700531006
 20
114.4606564839681
 10
233.3065700531006
 20
111.46065457661946
 10
236.30654335021973
 20
111.46065457661946
 10
236.30656242370605
 20
81.46065457661946
 10
208.3065891265869
 20
81.46065457661946
 10
208.3065700531006
 20
114.4606564839681
  0
LINE
  5
245
330
17
100
AcDbEntity
  8
A-ANNO
  6
Continuous
370
18
420
0
100
AcDbLine
 10
20.20716667175293
 20
115.46067810058594
 30
0.0
 11
280.68585205078125
 21
115.46067810058594
 31
0.0
  0
TEXT
  5
247
330
17
100
AcDbEntity
  8
A-GRID
  6
Continuous
370
18
420
0
100
AcDbText
 10
20.20716667175293
 20
115.46067810058594
 30
0.0
 40
1.0927291666666668
  1
Y02
100
AcDbText
  0
TEXT
  5
248
330
17
100
AcDbEntity
  8
A-GRID
  6
Continuous
370
18
420
0
100
AcDbText
 10
280.68585205078125
 20
115.46067810058594
 30
0.0
 40
1.0927291666666668
  1
Y02
100
AcDbText
  0
LINE
  5
249
330
17
100
AcDbEntity
  8
A-ANNO
  6
Continuous
370
18
420
0
100
AcDbLine
 10
67.30656433105469
 20
212.82102966308594
 30
0.0
 11
67.30656433105469
 21
24.452884674072266
 31
0.0
  0
TEXT
  5
24A
330
17
100
AcDbEntity
  8
A-GRID
  6
Continuous
370
18
420
0
100
AcDbText
 10
67.30656433105469
 20
212.82102966308594
 30
0.0
 40
1.0927291666666668
  1
X01
100
AcDbText
  0
TEXT
  5
24B
330
17
100
AcDbEntity
  8
A-GRID
  6
Continuous
370
18
420
0
100
AcDbText
 10
67.30656433105469
 20
24.452884674072266
 30
0.0
 40
1.0927291666666668
  1
X01
100
AcDbText
  0
LINE
  5
24D
330
17
100
AcDbEntity
  8
A-DIMS
  6
Continuous
370
18
420
0
100
AcDbLine
 10
67.30656433105469
 20
48.452842712402344
 30
0.0
 11
97.30657958984375
 21
48.452842712402344
 31
0.0
  0
TEXT
  5
24F
330
17
100
AcDbEntity
  8
A-TEXT
  6
Continuous
370
18
420
0
100
AcDbText
 10
82.30657196044922
 20
47.452842712402344
 30
0.0
 40
2.5
  1
3000
100
AcDbText
  0
LINE
  5
250
330
17
100
AcDbEntity
  8
A-DIMS
  6
Continuous
370
18
420
0
100
AcDbLine
 10
97.30657958984375
 20
48.452842712402344
 30
0.0
 11
127.30656433105469
 21
48.452842712402344
 31
0.0
  0
TEXT
  5
251
330
17
100
AcDbEntity
  8
A-TEXT
  6
Continuous
370
18
420
0
100
AcDbText
 10
112.30657196044922
 20
47.452842712402344
 30
0.0
 40
2.5
  1
3000
100
AcDbText
  0
LINE
  5
252
330
17
100
AcDbEntity
  8
A-DIMS
  6
Continuous
370
18
420
0
100
AcDbLine
 10
127.30656433105469
 20
48.452842712402344
 30
0.0
 11
157.3065643310547
 21
48.452842712402344
 31
0.0
  0
TEXT
  5
253
330
17
100
AcDbEntity
  8
A-TEXT
  6
Continuous
370
18
420
0
100
AcDbText
 10
142.3065643310547
 20
47.452842712402344
 30
0.0
 40
2.5
  1
3000
100
AcDbText
  0
LINE
  5
254
330
17
100
AcDbEntity
  8
A-DIMS
  6
Continuous
370
18
420
0
100
AcDbLine
 10
157.3065643310547
 20
48.452842712402344
 30
0.0
 11
207.3065948486328
 21
48.452842712402344
 31
0.0
  0
TEXT
  5
255
330
17
100
AcDbEntity
  8
A-TEXT
  6
Continuous
370
18
420
0
100
AcDbText
 10
182.30657958984375
 20
47.452842712402344
 30
0.0
 40
2.5
  1
5000
100
AcDbText
  0
LINE
  5
256
330
17
100
AcDbEntity
  8
A-DIMS
  6
Continuous
370
18
420
0
100
AcDbLine
 10
207.3065948486328
 20
48.452842712402344
 30
0.0
 11
222.3065948486328
 21
48.452842712402344
 31
0.0
  0
TEXT
  5
257
330
17
100
AcDbEntity
  8
A-TEXT
  6
Continuous
370
18
420
0
100
AcDbText
 10
214.8065948486328
 20
47.452842712402344
 30
0.0
 40
2.5
  1
1500
100
AcDbText
  0
LINE
  5
258
330
17
100
AcDbEntity
  8
A-DIMS
  6
Continuous
370
18
420
0
100
AcDbLine
 10
222.3065948486328
 20
48.452842712402344
 30
0.0
 11
237.3065185546875
 21
48.452842712402344
 31
0.0
  0
TEXT
  5
259
330
17
100
AcDbEntity
  8
A-TEXT
  6
Continuous
370
18
420
0
100
AcDbText
 10
229.80654907226562
 20
47.452842712402344
 30
0.0
 40
2.5
  1
1500
100
AcDbText
  0
LINE
  5
25A
330
17
100
AcDbEntity
  8
A-ANNO
  6
Continuous
370
18
420
0
100
AcDbLine
 10
237.30654907226562
 20
212.82102966308594
 30
0.0
 11
237.30654907226562
 21
24.452865600585938
 31
0.0
  0
TEXT
  5
25B
330
17
100
AcDbEntity
  8
A-GRID
  6
Continuous
370
18
420
0
100
AcDbText
 10
237.30654907226562
 20
212.82102966308594
 30
0.0
 40
1.0927291666666668
  1
X03
100
AcDbText
  0
TEXT
  5
25C
330
17
100
AcDbEntity
  8
A-GRID
  6
Continuous
370
18
420
0
100
AcDbText
 10
237.30654907226562
 20
24.452865600585938
 30
0.0
 40
1.0927291666666668
  1
X03
100
AcDbText
  0
TEXT
  5
25D
330
17
100
AcDbEntity
  8
A-TEXT
  6
Continuous
370
18
420
0
100
AcDbText
 10
147.3798065185547
 20
249.8717498779297
 30
0.0
 40
1.0927291666666668
  1
1
100
AcDbText
  0
TEXT
  5
25E
330
17
100
AcDbEntity
  8
A-TEXT
  6
Continuous
370
18
420
0
100
AcDbText
 10
147.3798065185547
 20
254.8717498779297
 30
0.0
 40
1.0927291666666668
  1
A301
100
AcDbText
  0
LINE
  5
25F
330
17
100
AcDbEntity
  8
A-ANNO
  6
Continuous
370
18
420
0
100
AcDbLine
 10
43.30963134765625
 20
94.81835174560547
 30
0.0
 11
293.306640625
 21
94.81835174560547
 31
0.0
  0
TEXT
  5
260
330
17
100
AcDbEntity
  8
A-TEXT
  6
Continuous
370
18
420
0
100
AcDbText
 10
43.30963134765625
 20
92.31835174560547
 30
0.0
 40
1.0927291666666668
  1
1
100
AcDbText
  0
TEXT
  5
261
330
17
100
AcDbEntity
  8
A-TEXT
  6
Continuous
370
18
420
0
100
AcDbText
 10
43.30963134765625
 20
97.31835174560547
 30
0.0
 40
1.0927291666666668
  1
A201
100
AcDbText
  0
TEXT
  5
262
330
17
100
AcDbEntity
  8
A-TEXT
  6
Continuous
370
18
420
0
100
AcDbText
 10
293.306640625
 20
92.31835174560547
 30
0.0
 40
1.0927291666666668
  1
1
100
AcDbText
  0
TEXT
  5
263
330
17
100
AcDbEntity
  8
A-TEXT
  6
Continuous
370
18
420
0
100
AcDbText
 10
293.306640625
 20
97.31835174560547
 30
0.0
 40
1.0927291666666668
  1
A201
100
AcDbText
  0
LINE
  5
264
330
17
100
AcDbEntity
  8
A-DIMS
  6
Continuous
370
18
420
0
100
AcDbLine
 10
67.30656433105469
 20
36.45283508300781
 30
0.0
 11
237.30654907226562
 21
36.45283508300781
 31
0.0
  0
TEXT
  5
265
330
17
100
AcDbEntity
  8
A-TEXT
  6
Continuous
370
18
420
0
100
AcDbText
 10
152.30654907226562
 20
35.45283508300781
 30
0.0
 40
2.5
  1
17000
100
AcDbText
  0
LINE
  5
266
330
17
100
AcDbEntity
  8
A-ANNO
  6
Continuous
370
18
420
0
100
AcDbLine
 10
20.20716667175293
 20
185.46066284179688
 30
0.0
 11
280.68585205078125
 21
185.46066284179688
 31
0.0
  0
TEXT
  5
267
330
17
100
AcDbEntity
  8
A-GRID
  6
Continuous
370
18
420
0
100
AcDbText
 10
20.20716667175293
 20
185.46066284179688
 30
0.0
 40
1.0927291666666668
  1
Y01
100
AcDbText
  0
TEXT
  5
268
330
17
100
AcDbEntity
  8
A-GRID
  6
Continuous
370
18
420
0
100
AcDbText
 10
280.68585205078125
 20
185.46066284179688
 30
0.0
 40
1.0927291666666668
  1
Y01
100
AcDbText
  0
LINE
  5
269
330
17
100
AcDbEntity
  8
A-DIMS
  6
Continuous
370
18
420
0
100
AcDbLine
 10
67.30656433105469
 20
42.452842712402344
 30
0.0
 11
157.3065643310547
 21
42.452842712402344
 31
0.0
  0
TEXT
  5
26A
330
17
100
AcDbEntity
  8
A-TEXT
  6
Continuous
370
18
420
0
100
AcDbText
 10
112.30656433105469
 20
41.452842712402344
 30
0.0
 40
2.5
  1
9000
100
AcDbText
  0
LINE
  5
26B
330
17
100
AcDbEntity
  8
A-DIMS
  6
Continuous
370
18
420
0
100
AcDbLine
 10
157.3065643310547
 20
42.452842712402344
 30
0.0
 11
237.3065185546875
 21
42.452842712402344
 31
0.0
  0
TEXT
  5
26C
330
17
100
AcDbEntity
  8
A-TEXT
  6
Continuous
370
18
420
0
100
AcDbText
 10
197.30654907226562
 20
41.452842712402344
 30
0.0
 40
2.5
  1
8000
100
AcDbText
  0
LINE
  5
26D
330
17
100
AcDbEntity
  8
A-DIMS
  6
Continuous
370
18
420
0
100
AcDbLine
 10
37.207176208496094
 20
135.4605255126953
 30
0.0
 11
37.207176208496094
 21
115.46067810058594
 31
0.0
  0
TEXT
  5
26E
330
17
100
AcDbEntity
  8
A-TEXT
  6
Continuous
370
18
420
0
100
AcDbText
 10
36.207176208496094
 20
125.46060180664062
 30
0.0
 40
2.5
  1
2000
100
AcDbText
  0
LINE
  5
26F
330
17
100
AcDbEntity
  8
A-DIMS
  6
Continuous
370
18
420
0
100
AcDbLine
 10
37.207176208496094
 20
115.46067810058594
 30
0.0
 11
37.207176208496094
 21
65.4606704711914
 31
0.0
  0
TEXT
  5
270
330
17
100
AcDbEntity
  8
A-TEXT
  6
Continuous
370
18
420
0
100
AcDbText
 10
36.207176208496094
 20
90.46067810058594
 30
0.0
 40
2.5
  1
5000
100
AcDbText
  0
LWPOLYLINE
  5
271
330
17
100
AcDbEntity
  8
A-ANNO
  6
Continuous
370
18
420
0
100
AcDbPolyline
 90
3
 70
0
 10
110.30736446380615
 20
57.8663895924886
 10
99.55395698547363
 20
57.8663895924886
 10
99.50404167175293
 20
63.360640843709305
  0
TEXT
  5
272
330
17
100
AcDbEntity
  8
A-TEXT
  6
Continuous
370
18
420
0
100
AcDbText
 10
110.307373046875
 20
57.86638641357422
 30
0.0
 40
2.5
  1
T200 
100
AcDbText
  0
LINE
  5
273
330
17
100
AcDbEntity
  8
A-ANNO
  6
Continuous
370
18
420
0
100
AcDbLine
 10
20.20716667175293
 20
65.46064758300781
 30
0.0
 11
280.68585205078125
 21
65.46064758300781
 31
0.0
  0
TEXT
  5
274
330
17
100
AcDbEntity
  8
A-GRID
  6
Continuous
370
18
420
0
100
AcDbText
 10
20.20716667175293
 20
65.46064758300781
 30
0.0
 40
1.0927291666666668
  1
Y03
100
AcDbText
  0
TEXT
  5
275
330
17
100
AcDbEntity
  8
A-GRID
  6
Continuous
370
18
420
0
100
AcDbText
 10
280.68585205078125
 20
65.46064758300781
 30
0.0
 40
1.0927291666666668
  1
Y03
100
AcDbText
  0
LINE
  5
276
330
17
100
AcDbEntity
  8
A-DIMS
  6
Continuous
370
18
420
0
100
AcDbLine
 10
32.207176208496094
 20
135.4605255126953
 30
0.0
 11
32.207176208496094
 21
65.46065521240234
 31
0.0
  0
TEXT
  5
277
330
17
100
AcDbEntity
  8
A-TEXT
  6
Continuous
370
18
420
0
100
AcDbText
 10
31.207176208496094
 20
100.46058654785156
 30
0.0
 40
2.5
  1
7000
100
AcDbText
  0
LWPOLYLINE
  5
278
330
17
100
AcDbEntity
  8
A-ANNO
  6
Continuous
370
18
420
0
100
AcDbPolyline
 90
3
 70
0
 10
114.54893589019775
 20
142.37164243062335
 10
103.79552841186523
 20
142.37164243062335
 10
103.74561309814453
 20
137.46063931783038
  0
TEXT
  5
279
330
17
100
AcDbEntity
  8
A-TEXT
  6
Continuous
370
18
420
0
100
AcDbText
 10
114.54893493652344
 20
142.37164306640625
 30
0.0
 40
2.5
  1
T200 
100
AcDbText
  0
LINE
  5
27A
330
17
100
AcDbEntity
  8
A-ANNO
  6
Continuous
370
18
420
0
100
AcDbLine
 10
127.30656433105469
 20
115.4606704711914
 30
0.0
 11
127.30656433105469
 21
51.826576232910156
 31
0.0
  0
LINE
  5
27B
330
17
100
AcDbEntity
  8
A-ANNO
  6
Continuous
370
18
420
0
100
AcDbLine
 10
97.30656433105469
 20
115.4606704711914
 30
0.0
 11
97.30657958984375
 21
51.826576232910156
 31
0.0
  0
LINE
  5
27C
330
17
100
AcDbEntity
  8
A-ANNO
  6
Continuous
370
18
420
0
100
AcDbLine
 10
49.88043975830078
 20
135.4605255126953
 30
0.0
 11
238.80653381347656
 21
135.4605255126953
 31
0.0
  0
LINE
  5
27D
330
17
100
AcDbEntity
  8
A-ANNO
  6
Continuous
370
18
420
0
100
AcDbLine
 10
238.80653381347656
 20
135.4605255126953
 30
0.0
 11
251.58424377441406
 21
135.4605255126953
 31
0.0
  0
LINE
  5
27E
330
17
100
AcDbEntity
  8
A-ANNO
  6
Continuous
370
18
420
0
100
AcDbLine
 10
222.30654907226562
 20
80.4606704711914
 30
0.0
 11
222.30654907226562
 21
51.826576232910156
 31
0.0
  0
LINE
  5
27F
330
17
100
AcDbEntity
  8
A-ANNO
  6
Continuous
370
18
420
0
100
AcDbLine
 10
207.30654907226562
 20
115.4606704711914
 30
0.0
 11
207.3065948486328
 21
51.826576232910156
 31
0.0
  0
LINE
  5
280
330
17
100
AcDbEntity
  8
A-ANNO
  6
Continuous
370
18
420
0
100
AcDbLine
 10
202.33657836914062
 20
80.4606704711914
 30
0.0
 11
251.58424377441406
 21
80.4606704711914
 31
0.0
  0
LINE
  5
281
330
17
100
AcDbEntity
  8
A-ANNO
  6
Continuous
370
18
420
0
100
AcDbLine
 10
202.33657836914062
 20
80.4606704711914
 30
0.0
 11
251.58424377441406
 21
80.4606704711914
 31
0.0
  0
LINE
  5
282
330
17
100
AcDbEntity
  8
A-ANNO
  6
Continuous
370
18
420
0
100
AcDbLine
 10
157.3065643310547
 20
212.82102966308594
 30
0.0
 11
157.3065643310547
 21
24.452884674072266
 31
0.0
  0
TEXT
  5
283
330
17
100
AcDbEntity
  8
A-GRID
  6
Continuous
370
18
420
0
100
AcDbText
 10
157.3065643310547
 20
212.82102966308594
 30
0.0
 40
1.0927291666666668
  1
X02
100
AcDbText
  0
TEXT
  5
284
330
17
100
AcDbEntity
  8
A-GRID
  6
Continuous
370
18
420
0
100
AcDbText
 10
157.3065643310547
 20
24.452884674072266
 30
0.0
 40
1.0927291666666668
  1
X02
100
AcDbText
  0
TEXT
  5
285
330
17
100
AcDbEntity
  8
A-ANNO
  6
Continuous
370
18
420
0
100
AcDbText
 10
214.8065948486328
 20
67.96064758300781
 30
0.0
 40
1.0927291666666668
  1
PS
100
AcDbText
  0
LWPOLYLINE
  5
286
330
17
100
AcDbEntity
  8
0
  6
Continuous
370
25
100
AcDbPolyline
 90
4
 70
1
 10
208.8065948486328
 20
70.46064758300781
 10
220.8065948486328
 20
70.46064758300781
 10
220.8065948486328
 20
75.46064758300781
 10
208.8065948486328
 20
75.46064758300781
  0
TEXT
  5
287
330
17
100
AcDbEntity
  8
A-ANNO
  6
Continuous
370
18
420
0
100
AcDbText
 10
214.8065948486328
 20
72.96064758300781
 30
0.0
 40
1.0927291666666668
  1
1.69
100
AcDbText
  0
TEXT
  5
288
330
17
100
AcDbEntity
  8
A-ANNO
  6
Continuous
370
18
420
0
100
AcDbText
 10
177.30929565429688
 20
98.10761260986328
 30
0.0
 40
1.0927291666666668
  1
  
100
AcDbText
  0
LWPOLYLINE
  5
289
330
17
100
AcDbEntity
  8
0
  6
Continuous
370
25
100
AcDbPolyline
 90
4
 70
1
 10
171.30929565429688
 20
100.60761260986328
 10
183.30929565429688
 20
100.60761260986328
 10
183.30929565429688
 20
105.60761260986328
 10
171.30929565429688
 20
105.60761260986328
  0
TEXT
  5
28A
330
17
100
AcDbEntity
  8
A-ANNO
  6
Continuous
370
18
420
0
100
AcDbText
 10
177.30929565429688
 20
103.10761260986328
 30
0.0
 40
1.0927291666666668
  1
54.00
100
AcDbText
  0
TEXT
  5
28B
330
17
100
AcDbEntity
  8
A-ANNO
  6
Continuous
370
18
420
0
100
AcDbText
 10
229.80654907226562
 20
67.96064758300781
 30
0.0
 40
1.0927291666666668
  1
EPS
100
AcDbText
  0
LWPOLYLINE
  5
28C
330
17
100
AcDbEntity
  8
0
  6
Continuous
370
25
100
AcDbPolyline
 90
4
 70
1
 10
223.80654907226562
 20
70.46064758300781
 10
235.80654907226562
 20
70.46064758300781
 10
235.80654907226562
 20
75.46064758300781
 10
223.80654907226562
 20
75.46064758300781
  0
TEXT
  5
28D
330
17
100
AcDbEntity
  8
A-ANNO
  6
Continuous
370
18
420
0
100
AcDbText
 10
229.80654907226562
 20
72.96064758300781
 30
0.0
 40
1.0927291666666668
  1
1.60
100
AcDbText
  0
TEXT
  5
28E
330
17
100
AcDbEntity
  8
A-ANNO
  6
Continuous
370
18
420
0
100
AcDbText
 10
111.43156433105469
 20
83.96065521240234
 30
0.0
 40
1.0927291666666668
  1
2
100
AcDbText
  0
LWPOLYLINE
  5
28F
330
17
100
AcDbEntity
  8
0
  6
Continuous
370
25
100
AcDbPolyline
 90
4
 70
1
 10
105.43156433105469
 20
86.46065521240234
 10
117.43156433105469
 20
86.46065521240234
 10
117.43156433105469
 20
91.46065521240234
 10
105.43156433105469
 20
91.46065521240234
  0
TEXT
  5
290
330
17
100
AcDbEntity
  8
A-ANNO
  6
Continuous
370
18
420
0
100
AcDbText
 10
111.43156433105469
 20
88.96065521240234
 30
0.0
 40
1.0927291666666668
  1
13.44
100
AcDbText
  0
TEXT
  5
291
330
17
100
AcDbEntity
  8
A-ANNO
  6
Continuous
370
18
420
0
100
AcDbText
 10
220.80657958984375
 20
91.46065521240234
 30
0.0
 40
1.0927291666666668
  1

100
AcDbText
  0
LWPOLYLINE
  5
292
330
17
100
AcDbEntity
  8
0
  6
Continuous
370
25
100
AcDbPolyline
 90
4
 70
1
 10
214.80657958984375
 20
93.96065521240234
 10
226.80657958984375
 20
93.96065521240234
 10
226.80657958984375
 20
98.96065521240234
 10
214.80657958984375
 20
98.96065521240234
  0
TEXT
  5
293
330
17
100
AcDbEntity
  8
A-ANNO
  6
Continuous
370
18
420
0
100
AcDbText
 10
220.80657958984375
 20
96.46065521240234
 30
0.0
 40
1.0927291666666668
  1
9.15
100
AcDbText
  0
TEXT
  5
294
330
17
100
AcDbEntity
  8
A-ANNO
  6
Continuous
370
18
420
0
100
AcDbText
 10
83.80657196044922
 20
83.96065521240234
 30
0.0
 40
1.0927291666666668
  1
1
100
AcDbText
  0
LWPOLYLINE
  5
295
330
17
100
AcDbEntity
  8
0
  6
Continuous
370
25
100
AcDbPolyline
 90
4
 70
1
 10
77.80657196044922
 20
86.46065521240234
 10
89.80657196044922
 20
86.46065521240234
 10
89.80657196044922
 20
91.46065521240234
 10
77.80657196044922
 20
91.46065521240234
  0
TEXT
  5
296
330
17
100
AcDbEntity
  8
A-ANNO
  6
Continuous
370
18
420
0
100
AcDbText
 10
83.80657196044922
 20
88.96065521240234
 30
0.0
 40
1.0927291666666668
  1
13.26
100
AcDbText
  0
TEXT
  5
297
330
17
100
AcDbEntity
  8
A-ANNO
  6
Continuous
370
18
420
0
100
AcDbText
 10
142.30657958984375
 20
83.96065521240234
 30
0.0
 40
1.0927291666666668
  1
3
100
AcDbText
  0
LWPOLYLINE
  5
298
330
17
100
AcDbEntity
  8
0
  6
Continuous
370
25
100
AcDbPolyline
 90
4
 70
1
 10
136.30657958984375
 20
86.46065521240234
 10
148.30657958984375
 20
86.46065521240234
 10
148.30657958984375
 20
91.46065521240234
 10
136.30657958984375
 20
91.46065521240234
  0
TEXT
  5
299
330
17
100
AcDbEntity
  8
A-ANNO
  6
Continuous
370
18
420
0
100
AcDbText
 10
142.30657958984375
 20
88.96065521240234
 30
0.0
 40
1.0927291666666668
  1
13.44
100
AcDbText
  0
ENDSEC
  0
SECTION
  2
OBJECTS
  0
DICTIONARY
  5
A
330
0
100
AcDbDictionary
281
1
  3
ACAD_COLOR
350
B
  3
ACAD_GROUP
350
C
  3
ACAD_LAYOUT
350
D
  3
ACAD_MATERIAL
350
E
  3
ACAD_MLEADERSTYLE
350
F
  3
ACAD_MLINESTYLE
350
10
  3
ACAD_PLOTSETTINGS
350
11
  3
ACAD_PLOTSTYLENAME
350
12
  3
ACAD_SCALELIST
350
14
  3
ACAD_TABLESTYLE
350
15
  3
ACAD_VISUALSTYLE
350
16
  3
EZDXF_META
350
2D
  0
DICTIONARY
  5
B
330
A
100
AcDbDictionary
281
1
  0
DICTIONARY
  5
C
330
A
100
AcDbDictionary
281
1
  0
DICTIONARY
  5
D
330
A
100
AcDbDictionary
281
1
  3
Model
350
1A
  3
Layout1
350
1E
  0
DICTIONARY
  5
E
330
A
100
AcDbDictionary
281
1
  3
ByBlock
350
1F
  3
ByLayer
350
20
  3
Global
350
21
  0
DICTIONARY
  5
F
330
A
100
AcDbDictionary
281
1
  3
Standard
350
2C
  0
DICTIONARY
  5
10
330
A
100
AcDbDictionary
281
1
  3
Standard
350
22
  0
DICTIONARY
  5
11
330
A
100
AcDbDictionary
281
1
  0
ACDBDICTIONARYWDFLT
  5
12
330
A
100
AcDbDictionary
281
1
  3
Normal
350
13
100
AcDbDictionaryWithDefault
340
13
  0
ACDBPLACEHOLDER
  5
13
330
12
  0
DICTIONARY
  5
14
330
A
100
AcDbDictionary
281
1
  0
DICTIONARY
  5
15
330
A
100
AcDbDictionary
281
1
  0
DICTIONARY
  5
16
330
A
100
AcDbDictionary
281
1
  0
LAYOUT
  5
1A
330
D
100
AcDbPlotSettings
  1

  4
A3
  6

 40
7.5
 41
20.0
 42
7.5
 43
20.0
 44
420.0
 45
297.0
 46
0.0
 47
0.0
 48
0.0
 49
0.0
140
0.0
141
0.0
142
1.0
143
1.0
 70
1024
 72
1
 73
0
 74
5
  7

 75
16
 76
0
 77
2
 78
300
147
1.0
148
0.0
149
0.0
100
AcDbLayout
  1
Model
 70
1
 71
0
 10
0.0
 20
0.0
 11
420.0
 21
297.0
 12
0.0
 22
0.0
 32
0.0
 14
1e+20
 24
1e+20
 34
1e+20
 15
-1e+20
 25
-1e+20
 35
-1e+20
146
0.0
 13
0.0
 23
0.0
 33
0.0
 16
1.0
 26
0.0
 36
0.0
 17
0.0
 27
1.0
 37
0.0
 76
1
330
17
  0
LAYOUT
  5
1E
330
D
100
AcDbPlotSettings
  1

  4
A3
  6

 40
7.5
 41
20.0
 42
7.5
 43
20.0
 44
420.0
 45
297.0
 46
0.0
 47
0.0
 48
0.0
 49
0.0
140
0.0
141
0.0
142
1.0
143
1.0
 70
0
 72
1
 73
0
 74
5
  7

 75
16
 76
0
 77
2
 78
300
147
1.0
148
0.0
149
0.0
100
AcDbLayout
  1
Layout1
 70
1
 71
1
 10
0.0
 20
0.0
 11
420.0
 21
297.0
 12
0.0
 22
0.0
 32
0.0
 14
1e+20
 24
1e+20
 34
1e+20
 15
-1e+20
 25
-1e+20
 35
-1e+20
146
0.0
 13
0.0
 23
0.0
 33
0.0
 16
1.0
 26
0.0
 36
0.0
 17
0.0
 27
1.0
 37
0.0
 76
1
330
1B
  0
MATERIAL
  5
1F
102
{ACAD_REACTORS
330
E
102
}
330
E
100
AcDbMaterial
  1
ByBlock
  2

 70
0
 40
1.0
 71
1
 41
1.0
 91
-1023410177
 42
1.0
 72
1
  3

 73
1
 74
1
 75
1
 44
0.5
 73
0
 45
1.0
 46
1.0
 77
1
  4

 78
1
 79
1
170
1
 48
1.0
171
1
  6

172
1
173
1
174
1
140
1.0
141
1.0
175
1
  7

176
1
177
1
178
1
143
1.0
179
1
  8

270
1
271
1
272
1
145
1.0
146
1.0
273
1
  9

274
1
275
1
276
1
 42
1.0
 72
1
  3

 73
1
 74
1
 75
1
 94
63
  0
MATERIAL
  5
20
102
{ACAD_REACTORS
330
E
102
}
330
E
100
AcDbMaterial
  1
ByLayer
  2

 70
0
 40
1.0
 71
1
 41
1.0
 91
-1023410177
 42
1.0
 72
1
  3

 73
1
 74
1
 75
1
 44
0.5
 73
0
 45
1.0
 46
1.0
 77
1
  4

 78
1
 79
1
170
1
 48
1.0
171
1
  6

172
1
173
1
174
1
140
1.0
141
1.0
175
1
  7

176
1
177
1
178
1
143
1.0
179
1
  8

270
1
271
1
272
1
145
1.0
146
1.0
273
1
  9

274
1
275
1
276
1
 42
1.0
 72
1
  3

 73
1
 74
1
 75
1
 94
63
  0
MATERIAL
  5
21
102
{ACAD_REACTORS
330
E
102
}
330
E
100
AcDbMaterial
  1
Global
  2

 70
0
 40
1.0
 71
1
 41
1.0
 91
-1023410177
 42
1.0
 72
1
  3

 73
1
 74
1
 75
1
 44
0.5
 73
0
 45
1.0
 46
1.0
 77
1
  4

 78
1
 79
1
170
1
 48
1.0
171
1
  6

172
1
173
1
174
1
140
1.0
141
1.0
175
1
  7

176
1
177
1
178
1
143
1.0
179
1
  8

270
1
271
1
272
1
145
1.0
146
1.0
273
1
  9

274
1
275
1
276
1
 42
1.0
 72
1
  3

 73
1
 74
1
 75
1
 94
63
  0
MLINESTYLE
  5
22
102
{ACAD_REACTORS
330
10
102
}
330
10
100
AcDbMlineStyle
  2
Standard
 70
0
  3

 62
256
 51
90.0
 52
90.0
 71
2
 49
0.5
 62
256
  6
BYLAYER
 49
-0.5
 62
256
  6
BYLAYER
  0
MLEADERSTYLE
  5
2C
102
{ACAD_REACTORS
330
F
102
}
330
F
100
AcDbMLeaderStyle
179
2
170
2
171
1
172
0
 90
2
 40
0.0
 41
0.0
173
1
 91
-1056964608
 92
-2
290
1
 42
2.0
291
1
 43
8.0
  3
Standard
 44
4.0
300

342
29
174
1
175
1
176
0
178
1
 93
-1056964608
 45
4.0
292
0
297
0
 46
4.0
 94
-1056964608
 47
1.0
 49
1.0
140
1.0
294
1
141
0.0
177
0
142
1.0
295
0
296
0
143
3.75
271
0
272
9
273
9
  0
DICTIONARY
  5
2D
330
A
100
AcDbDictionary
280
1
281
1
  3
CREATED_BY_EZDXF
350
2E
  3
WRITTEN_BY_EZDXF
350
29C
  0
DICTIONARYVAR
  5
2E
330
2D
100
DictionaryVariables
280
0
  1
1.4.3 @ 2025-10-21T12:39:21.818845+00:00
  0
DICTIONARYVAR
  5
29C
330
2D
100
DictionaryVariables
280
0
  1
1.4.3 @ 2025-10-21T12:39:21.839343+00:00
  0
ENDSEC
  0
EOF
