  0
SECTION
  2
HEADER
  9
$ACADVER
  1
AC1027
  9
$ACADMAINTVER
 70
105
  9
$DWGCODEPAGE
  3
ANSI_1252
  9
$LASTSAVEDBY
  1
ezdxf
  9
$REQUIREDVERSIONS
160
0
  9
$INSBASE
 10
0.0
 20
0.0
 30
0.0
  9
$EXTMIN
 10
1e+20
 20
1e+20
 30
1e+20
  9
$EXTMAX
 10
-1e+20
 20
-1e+20
 30
-1e+20
  9
$LIMMIN
 10
0.0
 20
0.0
  9
$LIMMAX
 10
420.0
 20
297.0
  9
$ORTHOMODE
 70
0
  9
$REGENMODE
 70
1
  9
$FILLMODE
 70
1
  9
$QTEXTMODE
 70
0
  9
$MIRRTEXT
 70
1
  9
$LTSCALE
 40
1.0
  9
$ATTMODE
 70
1
  9
$TEXTSIZE
 40
2.5
  9
$TRACEWID
 40
1.0
  9
$TEXTSTYLE
  7
Standard
  9
$CLAYER
  8
0
  9
$CELTYPE
  6
ByLayer
  9
$CECOLOR
 62
256
  9
$CELTSCALE
 40
1.0
  9
$DISPSILH
 70
0
  9
$DIMSCALE
 40
1.0
  9
$DIMASZ
 40
2.5
  9
$DIMEXO
 40
0.625
  9
$DIMDLI
 40
3.75
  9
$DIMRND
 40
0.0
  9
$DIMDLE
 40
0.0
  9
$DIMEXE
 40
1.25
  9
$DIMTP
 40
0.0
  9
$DIMTM
 40
0.0
  9
$DIMTXT
 40
2.5
  9
$DIMCEN
 40
2.5
  9
$DIMTSZ
 40
0.0
  9
$DIMTOL
 70
0
  9
$DIMLIM
 70
0
  9
$DIMTIH
 70
0
  9
$DIMTOH
 70
0
  9
$DIMSE1
 70
0
  9
$DIMSE2
 70
0
  9
$DIMTAD
 70
1
  9
$DIMZIN
 70
8
  9
$DIMBLK
  1

  9
$DIMASO
 70
1
  9
$DIMSHO
 70
1
  9
$DIMPOST
  1

  9
$DIMAPOST
  1

  9
$DIMALT
 70
0
  9
$DIMALTD
 70
3
  9
$DIMALTF
 40
0.03937007874
  9
$DIMLFAC
 40
1.0
  9
$DIMTOFL
 70
1
  9
$DIMTVP
 40
0.0
  9
$DIMTIX
 70
0
  9
$DIMSOXD
 70
0
  9
$DIMSAH
 70
0
  9
$DIMBLK1
  1

  9
$DIMBLK2
  1

  9
$DIMSTYLE
  2
ISO-25
  9
$DIMCLRD
 70
0
  9
$DIMCLRE
 70
0
  9
$DIMCLRT
 70
0
  9
$DIMTFAC
 40
1.0
  9
$DIMGAP
 40
0.625
  9
$DIMJUST
 70
0
  9
$DIMSD1
 70
0
  9
$DIMSD2
 70
0
  9
$DIMTOLJ
 70
0
  9
$DIMTZIN
 70
8
  9
$DIMALTZ
 70
0
  9
$DIMALTTZ
 70
0
  9
$DIMUPT
 70
0
  9
$DIMDEC
 70
2
  9
$DIMTDEC
 70
2
  9
$DIMALTU
 70
2
  9
$DIMALTTD
 70
3
  9
$DIMTXSTY
  7
Standard
  9
$DIMAUNIT
 70
0
  9
$DIMADEC
 70
0
  9
$DIMALTRND
 40
0.0
  9
$DIMAZIN
 70
0
  9
$DIMDSEP
 70
44
  9
$DIMATFIT
 70
3
  9
$DIMFRAC
 70
0
  9
$DIMLDRBLK
  1

  9
$DIMLUNIT
 70
2
  9
$DIMLWD
 70
-2
  9
$DIMLWE
 70
-2
  9
$DIMTMOVE
 70
0
  9
$DIMFXL
 40
1.0
  9
$DIMFXLON
 70
0
  9
$DIMJOGANG
 40
0.785398163397
  9
$DIMTFILL
 70
0
  9
$DIMTFILLCLR
 70
0
  9
$DIMARCSYM
 70
0
  9
$DIMLTYPE
  6

  9
$DIMLTEX1
  6

  9
$DIMLTEX2
  6

  9
$DIMTXTDIRECTION
 70
0
  9
$LUNITS
 70
2
  9
$LUPREC
 70
4
  9
$SKETCHINC
 40
1.0
  9
$FILLETRAD
 40
10.0
  9
$AUNITS
 70
0
  9
$AUPREC
 70
2
  9
$MENU
  1
.
  9
$ELEVATION
 40
0.0
  9
$PELEVATION
 40
0.0
  9
$THICKNESS
 40
0.0
  9
$LIMCHECK
 70
0
  9
$CHAMFERA
 40
0.0
  9
$CHAMFERB
 40
0.0
  9
$CHAMFERC
 40
0.0
  9
$CHAMFERD
 40
0.0
  9
$SKPOLY
 70
0
  9
$TDCREATE
 40
2460970.914837963
  9
$TDUCREATE
 40
2458532.153996898
  9
$TDUPDATE
 40
2460970.914837963
  9
$TDUUPDATE
 40
2458532.1544311
  9
$TDINDWG
 40
0.0
  9
$TDUSRTIMER
 40
0.0
  9
$USRTIMER
 70
1
  9
$ANGBASE
 50
0.0
  9
$ANGDIR
 70
0
  9
$PDMODE
 70
0
  9
$PDSIZE
 40
0.0
  9
$PLINEWID
 40
0.0
  9
$SPLFRAME
 70
0
  9
$SPLINETYPE
 70
6
  9
$SPLINESEGS
 70
8
  9
$HANDSEED
  5
2C8
  9
$SURFTAB1
 70
6
  9
$SURFTAB2
 70
6
  9
$SURFTYPE
 70
6
  9
$SURFU
 70
6
  9
$SURFV
 70
6
  9
$UCSBASE
  2

  9
$UCSNAME
  2

  9
$UCSORG
 10
0.0
 20
0.0
 30
0.0
  9
$UCSXDIR
 10
1.0
 20
0.0
 30
0.0
  9
$UCSYDIR
 10
0.0
 20
1.0
 30
0.0
  9
$UCSORTHOREF
  2

  9
$UCSORTHOVIEW
 70
0
  9
$UCSORGTOP
 10
0.0
 20
0.0
 30
0.0
  9
$UCSORGBOTTOM
 10
0.0
 20
0.0
 30
0.0
  9
$UCSORGLEFT
 10
0.0
 20
0.0
 30
0.0
  9
$UCSORGRIGHT
 10
0.0
 20
0.0
 30
0.0
  9
$UCSORGFRONT
 10
0.0
 20
0.0
 30
0.0
  9
$UCSORGBACK
 10
0.0
 20
0.0
 30
0.0
  9
$PUCSBASE
  2

  9
$PUCSNAME
  2

  9
$PUCSORG
 10
0.0
 20
0.0
 30
0.0
  9
$PUCSXDIR
 10
1.0
 20
0.0
 30
0.0
  9
$PUCSYDIR
 10
0.0
 20
1.0
 30
0.0
  9
$PUCSORTHOREF
  2

  9
$PUCSORTHOVIEW
 70
0
  9
$PUCSORGTOP
 10
0.0
 20
0.0
 30
0.0
  9
$PUCSORGBOTTOM
 10
0.0
 20
0.0
 30
0.0
  9
$PUCSORGLEFT
 10
0.0
 20
0.0
 30
0.0
  9
$PUCSORGRIGHT
 10
0.0
 20
0.0
 30
0.0
  9
$PUCSORGFRONT
 10
0.0
 20
0.0
 30
0.0
  9
$PUCSORGBACK
 10
0.0
 20
0.0
 30
0.0
  9
$USERI1
 70
0
  9
$USERI2
 70
0
  9
$USERI3
 70
0
  9
$USERI4
 70
0
  9
$USERI5
 70
0
  9
$USERR1
 40
0.0
  9
$USERR2
 40
0.0
  9
$USERR3
 40
0.0
  9
$USERR4
 40
0.0
  9
$USERR5
 40
0.0
  9
$WORLDVIEW
 70
1
  9
$SHADEDGE
 70
3
  9
$SHADEDIF
 70
70
  9
$TILEMODE
 70
1
  9
$MAXACTVP
 70
64
  9
$PINSBASE
 10
0.0
 20
0.0
 30
0.0
  9
$PLIMCHECK
 70
0
  9
$PEXTMIN
 10
1e+20
 20
1e+20
 30
1e+20
  9
$PEXTMAX
 10
-1e+20
 20
-1e+20
 30
-1e+20
  9
$PLIMMIN
 10
0.0
 20
0.0
  9
$PLIMMAX
 10
420.0
 20
297.0
  9
$UNITMODE
 70
0
  9
$VISRETAIN
 70
1
  9
$PLINEGEN
 70
0
  9
$PSLTSCALE
 70
1
  9
$TREEDEPTH
 70
3020
  9
$CMLSTYLE
  2
Standard
  9
$CMLJUST
 70
0
  9
$CMLSCALE
 40
20.0
  9
$PROXYGRAPHICS
 70
1
  9
$MEASUREMENT
 70
1
  9
$CELWEIGHT
370
-1
  9
$ENDCAPS
280
0
  9
$JOINSTYLE
280
0
  9
$LWDISPLAY
290
0
  9
$INSUNITS
 70
6
  9
$HYPERLINKBASE
  1

  9
$STYLESHEET
  1

  9
$XEDIT
290
1
  9
$CEPSNTYPE
380
0
  9
$PSTYLEMODE
290
1
  9
$FINGERPRINTGUID
  2
{7F3E10C8-B51D-463B-AE73-719B8CE1FB90}
  9
$VERSIONGUID
  2
{0EE90CBE-F53E-470C-B85A-3AA38C273161}
  9
$EXTNAMES
290
1
  9
$PSVPSCALE
 40
0.0
  9
$OLESTARTUP
290
0
  9
$SORTENTS
280
127
  9
$INDEXCTL
280
0
  9
$HIDETEXT
280
1
  9
$XCLIPFRAME
280
1
  9
$HALOGAP
280
0
  9
$OBSCOLOR
 70
257
  9
$OBSLTYPE
280
0
  9
$INTERSECTIONDISPLAY
280
0
  9
$INTERSECTIONCOLOR
 70
257
  9
$DIMASSOC
280
2
  9
$PROJECTNAME
  1

  9
$CAMERADISPLAY
290
0
  9
$LENSLENGTH
 40
50.0
  9
$CAMERAHEIGHT
 40
0.0
  9
$STEPSPERSEC
 40
24.0
  9
$STEPSIZE
 40
100.0
  9
$3DDWFPREC
 40
2.0
  9
$PSOLWIDTH
 40
0.005
  9
$PSOLHEIGHT
 40
0.08
  9
$LOFTANG1
 40
1.570796326795
  9
$LOFTANG2
 40
1.570796326795
  9
$LOFTMAG1
 40
0.0
  9
$LOFTMAG2
 40
0.0
  9
$LOFTPARAM
 70
7
  9
$LOFTNORMALS
280
1
  9
$LATITUDE
 40
37.795
  9
$LONGITUDE
 40
-122.394
  9
$NORTHDIRECTION
 40
0.0
  9
$TIMEZONE
 70
-8000
  9
$LIGHTGLYPHDISPLAY
280
1
  9
$TILEMODELIGHTSYNCH
280
1
  9
$CMATERIAL
347
20
  9
$SOLIDHIST
280
0
  9
$SHOWHIST
280
1
  9
$DWFFRAME
280
2
  9
$DGNFRAME
280
2
  9
$REALWORLDSCALE
290
1
  9
$INTERFERECOLOR
 62
256
  9
$CSHADOW
280
0
  9
$SHADOWPLANELOCATION
 40
0.0
  0
ENDSEC
  0
SECTION
  2
CLASSES
  0
CLASS
  1
ACDBDICTIONARYWDFLT
  2
AcDbDictionaryWithDefault
  3
ObjectDBX Classes
 90
0
 91
0
280
0
281
0
  0
CLASS
  1
SUN
  2
AcDbSun
  3
SCENEOE
 90
1153
 91
0
280
0
281
0
  0
CLASS
  1
VISUALSTYLE
  2
AcDbVisualStyle
  3
ObjectDBX Classes
 90
4095
 91
0
280
0
281
0
  0
CLASS
  1
MATERIAL
  2
AcDbMaterial
  3
ObjectDBX Classes
 90
1153
 91
0
280
0
281
0
  0
CLASS
  1
SCALE
  2
AcDbScale
  3
ObjectDBX Classes
 90
1153
 91
0
280
0
281
0
  0
CLASS
  1
TABLESTYLE
  2
AcDbTableStyle
  3
ObjectDBX Classes
 90
4095
 91
0
280
0
281
0
  0
CLASS
  1
MLEADERSTYLE
  2
AcDbMLeaderStyle
  3
ACDB_MLEADERSTYLE_CLASS
 90
4095
 91
0
280
0
281
0
  0
CLASS
  1
DICTIONARYVAR
  2
AcDbDictionaryVar
  3
ObjectDBX Classes
 90
0
 91
0
280
0
281
0
  0
CLASS
  1
CELLSTYLEMAP
  2
AcDbCellStyleMap
  3
ObjectDBX Classes
 90
1152
 91
0
280
0
281
0
  0
CLASS
  1
MENTALRAYRENDERSETTINGS
  2
AcDbMentalRayRenderSettings
  3
SCENEOE
 90
1024
 91
0
280
0
281
0
  0
CLASS
  1
ACDBDETAILVIEWSTYLE
  2
AcDbDetailViewStyle
  3
ObjectDBX Classes
 90
1025
 91
0
280
0
281
0
  0
CLASS
  1
ACDBSECTIONVIEWSTYLE
  2
AcDbSectionViewStyle
  3
ObjectDBX Classes
 90
1025
 91
0
280
0
281
0
  0
CLASS
  1
RASTERVARIABLES
  2
AcDbRasterVariables
  3
ISM
 90
0
 91
0
280
0
281
0
  0
CLASS
  1
LAYOUT
  2
AcDbLayout
  3
ObjectDBX Classes
 90
0
 91
0
280
0
281
0
  0
CLASS
  1
ACDBPLACEHOLDER
  2
AcDbPlaceHolder
  3
ObjectDBX Classes
 90
0
 91
0
280
0
281
0
  0
ENDSEC
  0
SECTION
  2
TABLES
  0
TABLE
  2
VPORT
  5
8
330
0
100
AcDbSymbolTable
 70
1
  0
VPORT
  5
23
330
8
100
AcDbSymbolTableRecord
100
AcDbViewportTableRecord
  2
*Active
 70
0
 10
0.0
 20
0.0
 11
1.0
 21
1.0
 12
0.0
 22
0.0
 13
0.0
 23
0.0
 14
0.5
 24
0.5
 15
0.5
 25
0.5
 16
0.0
 26
0.0
 36
1.0
 17
0.0
 27
0.0
 37
0.0
 40
1000.0
 41
1.34
 42
50.0
 43
0.0
 44
0.0
 50
0.0
 51
0.0
 71
0
 72
1000
 73
1
 74
3
 75
0
 76
0
 77
0
 78
0
281
0
 65
0
146
0.0
  0
ENDTAB
  0
TABLE
  2
LTYPE
  5
2
330
0
100
AcDbSymbolTable
 70
3
  0
LTYPE
  5
24
330
2
100
AcDbSymbolTableRecord
100
AcDbLinetypeTableRecord
  2
ByBlock
 70
0
  3

 72
65
 73
0
 40
0.0
  0
LTYPE
  5
25
330
2
100
AcDbSymbolTableRecord
100
AcDbLinetypeTableRecord
  2
ByLayer
 70
0
  3

 72
65
 73
0
 40
0.0
  0
LTYPE
  5
26
330
2
100
AcDbSymbolTableRecord
100
AcDbLinetypeTableRecord
  2
Continuous
 70
0
  3

 72
65
 73
0
 40
0.0
  0
ENDTAB
  0
TABLE
  2
LAYER
  5
1
330
0
100
AcDbSymbolTable
 70
11
  0
LAYER
  5
27
330
1
100
AcDbSymbolTableRecord
100
AcDbLayerTableRecord
  2
0
 70
0
 62
7
  6
Continuous
370
-3
390
13
347
21
  0
LAYER
  5
28
330
1
100
AcDbSymbolTableRecord
100
AcDbLayerTableRecord
  2
Defpoints
 70
0
 62
7
  6
Continuous
290
0
370
-3
390
13
347
21
  0
LAYER
  5
2F
330
1
100
AcDbSymbolTableRecord
100
AcDbLayerTableRecord
  2
MAT-NULL
 70
0
 62
7
  6
Continuous
370
-3
390
13
347
21
  0
LAYER
  5
3C
330
1
100
AcDbSymbolTableRecord
100
AcDbLayerTableRecord
  2
MAT-SAND
 70
0
 62
7
  6
Continuous
370
-3
390
13
347
21
  0
LAYER
  5
6B
330
1
100
AcDbSymbolTableRecord
100
AcDbLayerTableRecord
  2
MAT-CONCRETE
 70
0
 62
7
  6
Continuous
370
-3
390
13
347
21
  0
LAYER
  5
74
330
1
100
AcDbSymbolTableRecord
100
AcDbLayerTableRecord
  2
MAT-FIN
 70
0
 62
7
  6
Continuous
370
-3
390
13
347
21
  0
LAYER
  5
187
330
1
100
AcDbSymbolTableRecord
100
AcDbLayerTableRecord
  2
MAT-MATERIAL
 70
0
 62
7
  6
Continuous
370
-3
390
13
347
21
  0
LAYER
  5
268
330
1
100
AcDbSymbolTableRecord
100
AcDbLayerTableRecord
  2
A-ANNO
 70
0
 62
7
  6
Continuous
370
-3
390
13
347
21
  0
LAYER
  5
26A
330
1
100
AcDbSymbolTableRecord
100
AcDbLayerTableRecord
  2
A-GRID
 70
0
 62
7
  6
Continuous
370
-3
390
13
347
21
  0
LAYER
  5
270
330
1
100
AcDbSymbolTableRecord
100
AcDbLayerTableRecord
  2
A-DIMS
 70
0
 62
7
  6
Continuous
370
-3
390
13
347
21
  0
LAYER
  5
272
330
1
100
AcDbSymbolTableRecord
100
AcDbLayerTableRecord
  2
A-TEXT
 70
0
 62
7
  6
Continuous
370
-3
390
13
347
21
  0
ENDTAB
  0
TABLE
  2
STYLE
  5
5
330
0
100
AcDbSymbolTable
 70
1
  0
STYLE
  5
29
330
5
100
AcDbSymbolTableRecord
100
AcDbTextStyleTableRecord
  2
Standard
 70
0
 40
0.0
 41
1.0
 50
0.0
 71
0
 42
2.5
  3
txt
  4

  0
ENDTAB
  0
TABLE
  2
VIEW
  5
7
330
0
100
AcDbSymbolTable
 70
0
  0
ENDTAB
  0
TABLE
  2
UCS
  5
6
330
0
100
AcDbSymbolTable
 70
0
  0
ENDTAB
  0
TABLE
  2
APPID
  5
3
330
0
100
AcDbSymbolTable
 70
3
  0
APPID
  5
2A
330
3
100
AcDbSymbolTableRecord
100
AcDbRegAppTableRecord
  2
ACAD
 70
0
  0
APPID
  5
2C5
330
3
100
AcDbSymbolTableRecord
100
AcDbRegAppTableRecord
  2
HATCHBACKGROUNDCOLOR
 70
0
  0
APPID
  5
2C6
330
3
100
AcDbSymbolTableRecord
100
AcDbRegAppTableRecord
  2
EZDXF
 70
0
  0
ENDTAB
  0
TABLE
  2
DIMSTYLE
  5
4
330
0
100
AcDbSymbolTable
 70
1
100
AcDbDimStyleTable
  0
DIMSTYLE
105
2B
330
4
100
AcDbSymbolTableRecord
100
AcDbDimStyleTableRecord
  2
Standard
 70
0
 40
1.0
 41
2.5
 42
0.625
 43
3.75
 44
1.25
 45
0.0
 46
0.0
 47
0.0
 48
0.0
 49
2.5
140
2.5
141
2.5
142
0.0
143
0.03937007874
144
1.0
145
0.0
146
1.0
147
0.625
148
0.0
 69
0
 70
0
 71
0
 72
0
 73
0
 74
0
 75
0
 76
0
 77
1
 78
8
 79
3
170
0
171
3
172
1
173
0
174
0
175
0
176
0
177
0
178
0
179
2
271
2
272
2
273
2
274
3
275
0
276
0
277
2
278
44
279
0
280
0
281
0
282
0
283
0
284
8
285
0
286
0
288
0
289
3
290
0
371
-2
372
-2
  0
ENDTAB
  0
TABLE
  2
BLOCK_RECORD
  5
9
330
0
100
AcDbSymbolTable
 70
2
  0
BLOCK_RECORD
  5
17
330
9
100
AcDbSymbolTableRecord
100
AcDbBlockTableRecord
  2
*Model_Space
340
1A
 70
0
280
1
281
0
  0
BLOCK_RECORD
  5
1B
330
9
100
AcDbSymbolTableRecord
100
AcDbBlockTableRecord
  2
*Paper_Space
340
1E
 70
0
280
1
281
0
  0
ENDTAB
  0
ENDSEC
  0
SECTION
  2
BLOCKS
  0
BLOCK
  5
18
330
17
100
AcDbEntity
  8
0
100
AcDbBlockBegin
  2
*Model_Space
 70
0
 10
0.0
 20
0.0
 30
0.0
  3
*Model_Space
  1

  0
ENDBLK
  5
19
330
17
100
AcDbEntity
  8
0
100
AcDbBlockEnd
  0
BLOCK
  5
1C
330
1B
100
AcDbEntity
  8
0
100
AcDbBlockBegin
  2
*Paper_Space
 70
0
 10
0.0
 20
0.0
 30
0.0
  3
*Paper_Space
  1

  0
ENDBLK
  5
1D
330
1B
100
AcDbEntity
  8
0
100
AcDbBlockEnd
  0
ENDSEC
  0
SECTION
  2
ENTITIES
  0
LWPOLYLINE
  5
30
330
17
100
AcDbEntity
  8
MAT-NULL
  6
Continuous
370
13
100
AcDbPolyline
 90
2
 70
0
 10
65.3065586538438
 20
156.5393710906325
 10
66.306558631492
 20
156.53937077671603
  0
LWPOLYLINE
  5
31
330
17
100
AcDbEntity
  8
MAT-NULL
  6
Continuous
370
13
100
AcDbPolyline
 90
2
 70
0
 10
65.30654076060328
 20
99.53936622232136
 10
65.3065586538438
 20
156.5393710906325
  0
LWPOLYLINE
  5
32
330
17
100
AcDbEntity
  8
MAT-NULL
  6
Continuous
370
13
100
AcDbPolyline
 90
2
 70
0
 10
65.30654076060328
 20
99.53936622232136
 10
66.30654073825124
 20
99.53936511765127
  0
LWPOLYLINE
  5
33
330
17
100
AcDbEntity
  8
MAT-NULL
  6
Continuous
370
13
100
AcDbPolyline
 90
2
 70
0
 10
66.306558631492
 20
156.53937077671603
 10
66.30654073825124
 20
99.53936511765127
  0
LWPOLYLINE
  5
34
330
17
100
AcDbEntity
  8
MAT-NULL
  6
Continuous
370
13
100
AcDbPolyline
 90
2
 70
0
 10
66.30653885475131
 20
93.53936158965085
 10
66.30653571559552
 20
83.53939007096548
  0
LWPOLYLINE
  5
35
330
17
100
AcDbEntity
  8
MAT-NULL
  6
Continuous
370
13
100
AcDbPolyline
 90
2
 70
0
 10
66.30653885475131
 20
93.53936158965085
 10
65.30653887710335
 20
93.53936269432093
  0
LWPOLYLINE
  5
36
330
17
100
AcDbEntity
  8
MAT-NULL
  6
Continuous
370
13
100
AcDbPolyline
 90
2
 70
0
 10
65.3065357379473
 20
83.53939038488195
 10
65.30653887710335
 20
93.53936269432093
  0
LWPOLYLINE
  5
37
330
17
100
AcDbEntity
  8
MAT-NULL
  6
Continuous
370
13
100
AcDbPolyline
 90
2
 70
0
 10
66.30653571559552
 20
83.53939007096548
 10
65.3065357379473
 20
83.53939038488195
  0
LWPOLYLINE
  5
38
330
17
100
AcDbEntity
  8
MAT-NULL
  6
Continuous
370
13
100
AcDbPolyline
 90
2
 70
0
 10
239.30655029439686
 20
82.5394949974899
 10
239.30655044539267
 20
83.53949497513813
  0
LWPOLYLINE
  5
39
330
17
100
AcDbEntity
  8
MAT-NULL
  6
Continuous
370
13
100
AcDbPolyline
 90
2
 70
0
 10
156.27713875156203
 20
83.53950751223078
 10
239.30655044539267
 20
83.53949497513813
  0
LWPOLYLINE
  5
3A
330
17
100
AcDbEntity
  8
MAT-NULL
  6
Continuous
370
13
100
AcDbPolyline
 90
2
 70
0
 10
156.27713860056622
 20
82.53950753458253
 10
156.27713875156203
 20
83.53950751223078
  0
LWPOLYLINE
  5
3B
330
17
100
AcDbEntity
  8
MAT-NULL
  6
Continuous
370
13
100
AcDbPolyline
 90
2
 70
0
 10
156.27713860056622
 20
82.53950753458253
 10
239.30655029439686
 20
82.5394949974899
  0
LWPOLYLINE
  5
3D
330
17
100
AcDbEntity
  8
MAT-SAND
  6
Continuous
370
5
100
AcDbPolyline
 90
2
 70
0
 10
145.24159206817237
 20
83.53952151814258
 10
145.49158833906029
 20
83.53952153999793
  0
LWPOLYLINE
  5
3E
330
17
100
AcDbEntity
  8
MAT-SAND
  6
Continuous
370
5
100
AcDbPolyline
 90
2
 70
0
 10
145.8415883327273
 20
83.5395215705959
 10
154.2415918670067
 20
83.53952230494752
  0
LWPOLYLINE
  5
3F
330
17
100
AcDbEntity
  8
MAT-SAND
  6
Continuous
370
5
100
AcDbPolyline
 90
2
 70
0
 10
238.30656243351075
 20
113.57218071488896
 10
238.3065592017377
 20
150.539354967376
  0
LWPOLYLINE
  5
40
330
17
100
AcDbEntity
  8
MAT-SAND
  6
Continuous
370
5
100
AcDbPolyline
 90
2
 70
0
 10
244.30655720008917
 20
27.539362845175305
 10
244.30656023200152
 20
27.53936284517556
  0
LWPOLYLINE
  5
41
330
17
100
AcDbEntity
  8
MAT-SAND
  6
Continuous
370
5
100
AcDbPolyline
 90
2
 70
0
 10
244.30655874581421
 20
44.53936368589899
 10
244.30655720008917
 20
44.53936368589885
  0
LWPOLYLINE
  5
42
330
17
100
AcDbEntity
  8
MAT-SAND
  6
Continuous
370
5
100
AcDbPolyline
 90
2
 70
0
 10
244.30656023200152
 20
27.53936284517556
 10
244.30656023200143
 20
27.539363513520925
  0
LWPOLYLINE
  5
43
330
17
100
AcDbEntity
  8
MAT-SAND
  6
Continuous
370
5
100
AcDbPolyline
 90
2
 70
0
 10
150.30656729217102
 20
27.539361358988685
 10
150.30656921936577
 20
27.539361358988856
  0
LWPOLYLINE
  5
44
330
17
100
AcDbEntity
  8
MAT-SAND
  6
Continuous
370
5
100
AcDbPolyline
 90
2
 70
0
 10
167.30657036526506
 20
27.53936284517613
 10
167.30657301570682
 20
27.539362845176356
  0
LWPOLYLINE
  5
45
330
17
100
AcDbEntity
  8
MAT-SAND
  6
Continuous
370
5
100
AcDbPolyline
 90
2
 70
0
 10
150.30656729217083
 20
27.539363513520925
 10
150.30656729217102
 20
27.539361358988685
  0
LWPOLYLINE
  5
46
330
17
100
AcDbEntity
  8
MAT-SAND
  6
Continuous
370
5
100
AcDbPolyline
 90
2
 70
0
 10
167.30657152951957
 20
44.53936368589979
 10
167.30657036526506
 20
44.53936368589967
  0
LWPOLYLINE
  5
47
330
17
100
AcDbEntity
  8
MAT-SAND
  6
Continuous
370
5
100
AcDbPolyline
 90
2
 70
0
 10
150.30656860901422
 20
44.53936219971234
 10
150.30656580598375
 20
44.53936219971209
  0
LWPOLYLINE
  5
48
330
17
100
AcDbEntity
  8
MAT-SAND
  6
Continuous
370
5
100
AcDbPolyline
 90
2
 70
0
 10
167.30657301570682
 20
27.539362845176356
 10
167.30657301570676
 20
27.539363513520925
  0
LWPOLYLINE
  5
49
330
17
100
AcDbEntity
  8
MAT-SAND
  6
Continuous
370
5
100
AcDbPolyline
 90
2
 70
0
 10
-14.546478853694053
 20
-99.48826906894308
 10
-14.546478853694053
 20
281.98961302936164
  0
LWPOLYLINE
  5
4A
330
17
100
AcDbEntity
  8
MAT-SAND
  6
Continuous
370
5
100
AcDbPolyline
 90
2
 70
0
 10
373.4760124733273
 20
281.98961302936164
 10
-14.546478853694026
 20
281.98961302936164
  0
LWPOLYLINE
  5
4B
330
17
100
AcDbEntity
  8
MAT-SAND
  6
Continuous
370
5
100
AcDbPolyline
 90
2
 70
0
 10
373.4760124733273
 20
-99.48826906894308
 10
-14.546478853694026
 20
-99.48826906894308
  0
LWPOLYLINE
  5
4C
330
17
100
AcDbEntity
  8
MAT-SAND
  6
Continuous
370
5
100
AcDbPolyline
 90
2
 70
0
 10
373.4760124733273
 20
-99.48826906894308
 10
373.4760124733273
 20
281.98961302936164
  0
LWPOLYLINE
  5
4D
330
17
100
AcDbEntity
  8
MAT-NULL
  6
Continuous
370
13
100
AcDbPolyline
 90
2
 70
0
 10
65.30653661136597
 20
82.5393873830588
 10
65.30653700078032
 20
83.539387360707
  0
LWPOLYLINE
  5
4E
330
17
100
AcDbEntity
  8
MAT-NULL
  6
Continuous
370
13
100
AcDbPolyline
 90
2
 70
0
 10
144.9915855924064
 20
82.53935635255587
 10
65.30653661136597
 20
82.5393873830588
  0
LWPOLYLINE
  5
4F
330
17
100
AcDbEntity
  8
MAT-NULL
  6
Continuous
370
13
100
AcDbPolyline
 90
2
 70
0
 10
144.9915855924064
 20
82.53935635255587
 10
144.9915855924064
 20
83.53935633020419
  0
LWPOLYLINE
  5
50
330
17
100
AcDbEntity
  8
MAT-NULL
  6
Continuous
370
13
100
AcDbPolyline
 90
2
 70
0
 10
65.30653700078032
 20
83.539387360707
 10
144.9915855924064
 20
83.53935633020419
  0
LWPOLYLINE
  5
51
330
17
100
AcDbEntity
  8
MAT-NULL
  6
Continuous
370
13
100
AcDbPolyline
 90
2
 70
0
 10
154.49158232830717
 20
83.53935263076897
 10
156.30655039323926
 20
83.53935192399433
  0
LWPOLYLINE
  5
52
330
17
100
AcDbEntity
  8
MAT-NULL
  6
Continuous
370
13
100
AcDbPolyline
 90
2
 70
0
 10
154.49158232830717
 20
83.53935263076897
 10
154.49158232830717
 20
82.53935265312066
  0
LWPOLYLINE
  5
53
330
17
100
AcDbEntity
  8
MAT-NULL
  6
Continuous
370
13
100
AcDbPolyline
 90
2
 70
0
 10
156.30655000382492
 20
82.53935194634616
 10
154.49158232830717
 20
82.53935265312066
  0
LWPOLYLINE
  5
54
330
17
100
AcDbEntity
  8
MAT-NULL
  6
Continuous
370
13
100
AcDbPolyline
 90
2
 70
0
 10
156.30655039323926
 20
83.53935192399433
 10
156.30655000382492
 20
82.53935194634616
  0
LWPOLYLINE
  5
55
330
17
100
AcDbEntity
  8
MAT-NULL
  6
Continuous
370
13
100
AcDbPolyline
 90
2
 70
0
 10
154.30656165743522
 20
156.53936789556766
 10
134.3065633251732
 20
156.53936702133996
  0
LWPOLYLINE
  5
56
330
17
100
AcDbEntity
  8
MAT-NULL
  6
Continuous
370
13
100
AcDbPolyline
 90
2
 70
0
 10
154.30656165743522
 20
155.53936791791938
 10
134.3065633251732
 20
155.5393670436917
  0
LWPOLYLINE
  5
57
330
17
100
AcDbEntity
  8
MAT-NULL
  6
Continuous
370
13
100
AcDbPolyline
 90
2
 70
0
 10
124.30657155875066
 20
156.53936789556766
 10
124.30657155875066
 20
155.53936791791944
  0
LWPOLYLINE
  5
58
330
17
100
AcDbEntity
  8
MAT-NULL
  6
Continuous
370
13
100
AcDbPolyline
 90
2
 70
0
 10
134.30656301919348
 20
155.5393670436917
 10
124.30657155875066
 20
155.53936791791944
  0
LWPOLYLINE
  5
59
330
17
100
AcDbEntity
  8
MAT-NULL
  6
Continuous
370
13
100
AcDbPolyline
 90
2
 70
0
 10
134.30656301919348
 20
156.53936702133996
 10
134.30656301919348
 20
155.5393670436917
  0
LWPOLYLINE
  5
5A
330
17
100
AcDbEntity
  8
MAT-NULL
  6
Continuous
370
13
100
AcDbPolyline
 90
2
 70
0
 10
134.30656301919348
 20
156.53936702133996
 10
124.30657155875066
 20
156.53936789556766
  0
LWPOLYLINE
  5
5B
330
17
100
AcDbEntity
  8
MAT-NULL
  6
Continuous
370
13
100
AcDbPolyline
 90
2
 70
0
 10
124.30657186473034
 20
156.53936789556766
 10
104.30657353246832
 20
156.53936702133996
  0
LWPOLYLINE
  5
5C
330
17
100
AcDbEntity
  8
MAT-NULL
  6
Continuous
370
13
100
AcDbPolyline
 90
2
 70
0
 10
124.30657186473034
 20
155.53936791791938
 10
104.30657353246832
 20
155.5393670436917
  0
LWPOLYLINE
  5
5D
330
17
100
AcDbEntity
  8
MAT-NULL
  6
Continuous
370
13
100
AcDbPolyline
 90
2
 70
0
 10
94.30657100859982
 20
156.53936789556758
 10
94.30657100859982
 20
155.53936791791935
  0
LWPOLYLINE
  5
5E
330
17
100
AcDbEntity
  8
MAT-NULL
  6
Continuous
370
13
100
AcDbPolyline
 90
2
 70
0
 10
104.3065732264886
 20
155.5393670436917
 10
94.30657100859982
 20
155.53936791791935
  0
LWPOLYLINE
  5
5F
330
17
100
AcDbEntity
  8
MAT-NULL
  6
Continuous
370
13
100
AcDbPolyline
 90
2
 70
0
 10
104.3065732264886
 20
156.53936702133996
 10
104.3065732264886
 20
155.5393670436917
  0
LWPOLYLINE
  5
60
330
17
100
AcDbEntity
  8
MAT-NULL
  6
Continuous
370
13
100
AcDbPolyline
 90
2
 70
0
 10
104.3065732264886
 20
156.53936702133996
 10
94.30657100859982
 20
156.53936789556758
  0
LWPOLYLINE
  5
61
330
17
100
AcDbEntity
  8
MAT-NULL
  6
Continuous
370
13
100
AcDbPolyline
 90
2
 70
0
 10
94.3065713145795
 20
156.53936789556758
 10
74.30657542372367
 20
156.53936702134
  0
LWPOLYLINE
  5
62
330
17
100
AcDbEntity
  8
MAT-NULL
  6
Continuous
370
13
100
AcDbPolyline
 90
2
 70
0
 10
94.3065713145795
 20
155.53936791791935
 10
74.30657542372367
 20
155.53936704369175
  0
LWPOLYLINE
  5
63
330
17
100
AcDbEntity
  8
MAT-NULL
  6
Continuous
370
13
100
AcDbPolyline
 90
2
 70
0
 10
66.30655717326712
 20
156.53936745845382
 10
66.30655717326712
 20
155.53936748080554
  0
LWPOLYLINE
  5
64
330
17
100
AcDbEntity
  8
MAT-NULL
  6
Continuous
370
13
100
AcDbPolyline
 90
2
 70
0
 10
74.30657511774395
 20
155.53936704369178
 10
66.30655717326712
 20
155.53936748080554
  0
LWPOLYLINE
  5
65
330
17
100
AcDbEntity
  8
MAT-NULL
  6
Continuous
370
13
100
AcDbPolyline
 90
2
 70
0
 10
74.30657511774395
 20
156.53936702134
 10
74.30657511774395
 20
155.53936704369178
  0
LWPOLYLINE
  5
66
330
17
100
AcDbEntity
  8
MAT-NULL
  6
Continuous
370
13
100
AcDbPolyline
 90
2
 70
0
 10
74.30657511774395
 20
156.53936702134
 10
66.30655717326712
 20
156.53936745845382
  0
LWPOLYLINE
  5
67
330
17
100
AcDbEntity
  8
MAT-NULL
  6
Continuous
370
13
100
AcDbPolyline
 90
2
 70
0
 10
156.30657635436998
 20
156.53936745845382
 10
154.30656135145554
 20
156.53936789556766
  0
LWPOLYLINE
  5
68
330
17
100
AcDbEntity
  8
MAT-NULL
  6
Continuous
370
13
100
AcDbPolyline
 90
2
 70
0
 10
154.30656135145554
 20
156.53936789556766
 10
154.30656135145554
 20
155.53936791791944
  0
LWPOLYLINE
  5
69
330
17
100
AcDbEntity
  8
MAT-NULL
  6
Continuous
370
13
100
AcDbPolyline
 90
2
 70
0
 10
156.30657635436998
 20
155.53936748080554
 10
154.30656135145554
 20
155.53936791791944
  0
LWPOLYLINE
  5
6A
330
17
100
AcDbEntity
  8
MAT-NULL
  6
Continuous
370
13
100
AcDbPolyline
 90
2
 70
0
 10
156.30657635436998
 20
156.53936745845382
 10
156.30657635436998
 20
155.53936748080554
  0
LWPOLYLINE
  5
6C
330
17
100
AcDbEntity
  8
MAT-CONCRETE
  6
Continuous
370
5
100
AcDbPolyline
 90
2
 70
0
 10
66.30654723913358
 20
103.53936116469862
 10
68.3065471944301
 20
103.53936101370282
  0
LWPOLYLINE
  5
6D
330
17
100
AcDbEntity
  8
MAT-CONCRETE
  6
Continuous
370
5
100
AcDbPolyline
 90
2
 70
0
 10
66.30654693714239
 20
99.53936661137087
 10
66.30654723913358
 20
103.53936116469862
  0
LWPOLYLINE
  5
6E
330
17
100
AcDbEntity
  8
MAT-CONCRETE
  6
Continuous
370
5
100
AcDbPolyline
 90
2
 70
0
 10
66.30654693714239
 20
99.53936661137087
 10
68.30654689243886
 20
99.53936598353793
  0
LWPOLYLINE
  5
6F
330
17
100
AcDbEntity
  8
MAT-CONCRETE
  6
Continuous
370
5
100
AcDbPolyline
 90
2
 70
0
 10
68.3065471944301
 20
103.53936101370282
 10
68.30654689243886
 20
99.53936598353793
  0
LWPOLYLINE
  5
70
330
17
100
AcDbEntity
  8
MAT-CONCRETE
  6
Continuous
370
5
100
AcDbPolyline
 90
2
 70
0
 10
68.3065464394511
 20
93.53936123483585
 10
68.3065456844721
 20
83.5393614607371
  0
LWPOLYLINE
  5
71
330
17
100
AcDbEntity
  8
MAT-CONCRETE
  6
Continuous
370
5
100
AcDbPolyline
 90
2
 70
0
 10
68.3065464394511
 20
93.53936123483585
 10
66.30654648415462
 20
93.53936186266877
  0
LWPOLYLINE
  5
72
330
17
100
AcDbEntity
  8
MAT-CONCRETE
  6
Continuous
370
5
100
AcDbPolyline
 90
2
 70
0
 10
66.3065457291756
 20
83.53936161173291
 10
66.30654648415462
 20
93.53936186266877
  0
LWPOLYLINE
  5
73
330
17
100
AcDbEntity
  8
MAT-CONCRETE
  6
Continuous
370
5
100
AcDbPolyline
 90
2
 70
0
 10
68.3065456844721
 20
83.5393614607371
 10
66.3065457291756
 20
83.53936161173291
  0
LWPOLYLINE
  5
75
330
17
100
AcDbEntity
  8
MAT-FIN
  6
Continuous
370
5
100
AcDbPolyline
 90
2
 70
0
 10
238.30654680003968
 20
83.53949507975298
 10
238.30658480001964
 20
156.5393712731517
  0
LWPOLYLINE
  5
76
330
17
100
AcDbEntity
  8
MAT-FIN
  6
Continuous
370
5
100
AcDbPolyline
 90
2
 70
0
 10
239.30654677768777
 20
83.53949455920446
 10
238.30654680003968
 20
83.53949507975298
  0
LWPOLYLINE
  5
77
330
17
100
AcDbEntity
  8
MAT-FIN
  6
Continuous
370
5
100
AcDbPolyline
 90
2
 70
0
 10
239.30658477766775
 20
156.53937075260316
 10
239.30654677768777
 20
83.53949455920446
  0
LWPOLYLINE
  5
78
330
17
100
AcDbEntity
  8
MAT-FIN
  6
Continuous
370
5
100
AcDbPolyline
 90
2
 70
0
 10
238.30658480001964
 20
156.5393712731517
 10
239.30658477766775
 20
156.53937075260316
  0
LWPOLYLINE
  5
79
330
17
100
AcDbEntity
  8
MAT-CONCRETE
  6
Continuous
370
5
100
AcDbPolyline
 90
2
 70
0
 10
98.30657438702501
 20
153.53935894244026
 10
98.30655931903432
 20
105.53935906164985
  0
LWPOLYLINE
  5
7A
330
17
100
AcDbEntity
  8
MAT-CONCRETE
  6
Continuous
370
5
100
AcDbPolyline
 90
2
 70
0
 10
96.30657443172858
 20
153.53935957027318
 10
98.30657438702501
 20
153.53935894244026
  0
LWPOLYLINE
  5
7B
330
17
100
AcDbEntity
  8
MAT-CONCRETE
  6
Continuous
370
5
100
AcDbPolyline
 90
2
 70
0
 10
96.3065593637379
 20
105.53935968948278
 10
96.30657443172858
 20
153.53935957027318
  0
LWPOLYLINE
  5
7C
330
17
100
AcDbEntity
  8
MAT-CONCRETE
  6
Continuous
370
5
100
AcDbPolyline
 90
2
 70
0
 10
98.30655931903432
 20
105.53935906164985
 10
96.3065593637379
 20
105.53935968948278
  0
LWPOLYLINE
  5
7D
330
17
100
AcDbEntity
  8
MAT-CONCRETE
  6
Continuous
370
5
100
AcDbPolyline
 90
2
 70
0
 10
128.30657371647274
 20
153.53935894244194
 10
128.30655864848208
 20
105.53935906164985
  0
LWPOLYLINE
  5
7E
330
17
100
AcDbEntity
  8
MAT-CONCRETE
  6
Continuous
370
5
100
AcDbPolyline
 90
2
 70
0
 10
126.30657376117632
 20
153.53935957027488
 10
128.30657371647274
 20
153.53935894244194
  0
LWPOLYLINE
  5
7F
330
17
100
AcDbEntity
  8
MAT-CONCRETE
  6
Continuous
370
5
100
AcDbPolyline
 90
2
 70
0
 10
126.30655869318565
 20
105.53935968948278
 10
126.30657376117632
 20
153.53935957027488
  0
LWPOLYLINE
  5
80
330
17
100
AcDbEntity
  8
MAT-CONCRETE
  6
Continuous
370
5
100
AcDbPolyline
 90
2
 70
0
 10
128.30655864848208
 20
105.53935906164985
 10
126.30655869318565
 20
105.53935968948278
  0
LWPOLYLINE
  5
81
330
17
100
AcDbEntity
  8
MAT-FIN
  6
Continuous
370
5
100
AcDbPolyline
 90
2
 70
0
 10
238.30658493957964
 20
155.53936748080554
 10
156.30656946672485
 20
155.53936748080554
  0
LWPOLYLINE
  5
82
330
17
100
AcDbEntity
  8
MAT-FIN
  6
Continuous
370
5
100
AcDbPolyline
 90
2
 70
0
 10
238.30658493957964
 20
156.53936745845382
 10
238.30658493957964
 20
155.53936748080554
  0
LWPOLYLINE
  5
83
330
17
100
AcDbEntity
  8
MAT-FIN
  6
Continuous
370
5
100
AcDbPolyline
 90
2
 70
0
 10
156.30656946672485
 20
156.53936745845382
 10
238.30658493957964
 20
156.53936745845382
  0
LWPOLYLINE
  5
84
330
17
100
AcDbEntity
  8
MAT-FIN
  6
Continuous
370
5
100
AcDbPolyline
 90
2
 70
0
 10
156.30656946672485
 20
155.53936748080554
 10
156.30656946672485
 20
156.53936745845382
  0
LWPOLYLINE
  5
85
330
17
100
AcDbEntity
  8
MAT-CONCRETE
  6
Continuous
370
5
100
AcDbPolyline
 90
2
 70
0
 10
209.9691640161737
 20
103.53936101370228
 10
209.9691640161737
 20
105.53936096899878
  0
LWPOLYLINE
  5
86
330
17
100
AcDbEntity
  8
MAT-CONCRETE
  6
Continuous
370
5
100
AcDbPolyline
 90
2
 70
0
 10
209.9691640161737
 20
105.53936096899878
 10
208.30656639708533
 20
105.53936096899878
  0
LWPOLYLINE
  5
87
330
17
100
AcDbEntity
  8
MAT-CONCRETE
  6
Continuous
370
5
100
AcDbPolyline
 90
2
 70
0
 10
208.30656639708533
 20
105.53936096899878
 10
208.30656639708533
 20
103.53936101370228
  0
LWPOLYLINE
  5
88
330
17
100
AcDbEntity
  8
MAT-CONCRETE
  6
Continuous
370
5
100
AcDbPolyline
 90
2
 70
0
 10
209.9691640161737
 20
103.53936101370228
 10
208.30656639708533
 20
103.53936101370228
  0
LWPOLYLINE
  5
89
330
17
100
AcDbEntity
  8
MAT-CONCRETE
  6
Continuous
370
5
100
AcDbPolyline
 90
2
 70
0
 10
218.96916381500802
 20
105.53936096899878
 10
218.96916381500802
 20
103.53936101370228
  0
LWPOLYLINE
  5
8A
330
17
100
AcDbEntity
  8
MAT-CONCRETE
  6
Continuous
370
5
100
AcDbPolyline
 90
2
 70
0
 10
233.3065658382918
 20
103.53936101370228
 10
218.96916381500802
 20
103.53936101370228
  0
LWPOLYLINE
  5
8B
330
17
100
AcDbEntity
  8
MAT-CONCRETE
  6
Continuous
370
5
100
AcDbPolyline
 90
2
 70
0
 10
233.3065658382918
 20
105.53936096899878
 10
233.3065658382918
 20
103.53936101370228
  0
LWPOLYLINE
  5
8C
330
17
100
AcDbEntity
  8
MAT-CONCRETE
  6
Continuous
370
5
100
AcDbPolyline
 90
2
 70
0
 10
233.3065658382918
 20
105.53936096899878
 10
218.96916381500802
 20
105.53936096899878
  0
LWPOLYLINE
  5
8D
330
17
100
AcDbEntity
  8
MAT-CONCRETE
  6
Continuous
370
5
100
AcDbPolyline
 90
2
 70
0
 10
158.3065711624238
 20
150.53936831917196
 10
158.30655797792963
 20
108.53936090194357
  0
LWPOLYLINE
  5
8E
330
17
100
AcDbEntity
  8
MAT-CONCRETE
  6
Continuous
370
5
100
AcDbPolyline
 90
2
 70
0
 10
156.3065712071274
 20
150.53936894700487
 10
158.3065711624238
 20
150.53936831917196
  0
LWPOLYLINE
  5
8F
330
17
100
AcDbEntity
  8
MAT-CONCRETE
  6
Continuous
370
5
100
AcDbPolyline
 90
2
 70
0
 10
156.3065580226332
 20
108.5393615297765
 10
156.3065712071274
 20
150.53936894700487
  0
LWPOLYLINE
  5
90
330
17
100
AcDbEntity
  8
MAT-CONCRETE
  6
Continuous
370
5
100
AcDbPolyline
 90
2
 70
0
 10
158.30655797792963
 20
108.53936090194357
 10
156.3065580226332
 20
108.5393615297765
  0
LWPOLYLINE
  5
91
330
17
100
AcDbEntity
  8
MAT-CONCRETE
  6
Continuous
370
5
100
AcDbPolyline
 90
2
 70
0
 10
238.30655230354452
 20
103.53936111966469
 10
238.30654665304752
 20
85.53935950868467
  0
LWPOLYLINE
  5
92
330
17
100
AcDbEntity
  8
MAT-CONCRETE
  6
Continuous
370
5
100
AcDbPolyline
 90
2
 70
0
 10
236.30655234824812
 20
103.53936174749762
 10
238.30655230354452
 20
103.53936111966469
  0
LWPOLYLINE
  5
93
330
17
100
AcDbEntity
  8
MAT-CONCRETE
  6
Continuous
370
5
100
AcDbPolyline
 90
2
 70
0
 10
236.3065466977511
 20
85.53936013651762
 10
236.30655234824812
 20
103.53936174749762
  0
LWPOLYLINE
  5
94
330
17
100
AcDbEntity
  8
MAT-CONCRETE
  6
Continuous
370
5
100
AcDbPolyline
 90
2
 70
0
 10
238.30654665304752
 20
85.53935950868467
 10
236.3065466977511
 20
85.53936013651762
  0
LWPOLYLINE
  5
95
330
17
100
AcDbEntity
  8
MAT-CONCRETE
  6
Continuous
370
5
100
AcDbPolyline
 90
2
 70
0
 10
233.3065652025093
 20
153.53935989611517
 10
161.30656935496614
 20
153.53935989611517
  0
LWPOLYLINE
  5
96
330
17
100
AcDbEntity
  8
MAT-CONCRETE
  6
Continuous
370
5
100
AcDbPolyline
 90
2
 70
0
 10
233.3065652025093
 20
155.5393598514117
 10
233.3065652025093
 20
153.53935989611517
  0
LWPOLYLINE
  5
97
330
17
100
AcDbEntity
  8
MAT-CONCRETE
  6
Continuous
370
5
100
AcDbPolyline
 90
2
 70
0
 10
161.30656935496614
 20
155.5393598514117
 10
233.3065652025093
 20
155.5393598514117
  0
LWPOLYLINE
  5
98
330
17
100
AcDbEntity
  8
MAT-CONCRETE
  6
Continuous
370
5
100
AcDbPolyline
 90
2
 70
0
 10
161.30656935496614
 20
153.53935989611517
 10
161.30656935496614
 20
155.5393598514117
  0
LWPOLYLINE
  5
99
330
17
100
AcDbEntity
  8
MAT-CONCRETE
  6
Continuous
370
5
100
AcDbPolyline
 90
2
 70
0
 10
85.20656018404664
 20
103.53936101370228
 10
85.20656018404664
 20
105.53936096899878
  0
LWPOLYLINE
  5
9A
330
17
100
AcDbEntity
  8
MAT-CONCRETE
  6
Continuous
370
5
100
AcDbPolyline
 90
2
 70
0
 10
85.20656018404664
 20
105.53936096899878
 10
71.30655944569416
 20
105.53936096899878
  0
LWPOLYLINE
  5
9B
330
17
100
AcDbEntity
  8
MAT-CONCRETE
  6
Continuous
370
5
100
AcDbPolyline
 90
2
 70
0
 10
71.30655944569416
 20
105.53936096899878
 10
71.30655944569416
 20
103.53936101370228
  0
LWPOLYLINE
  5
9C
330
17
100
AcDbEntity
  8
MAT-CONCRETE
  6
Continuous
370
5
100
AcDbPolyline
 90
2
 70
0
 10
85.20656018404664
 20
103.53936101370228
 10
71.30655944569416
 20
103.53936101370228
  0
LWPOLYLINE
  5
9D
330
17
100
AcDbEntity
  8
MAT-CONCRETE
  6
Continuous
370
5
100
AcDbPolyline
 90
2
 70
0
 10
115.20655951349438
 20
103.53936101370228
 10
115.20655951349438
 20
105.53936096899878
  0
LWPOLYLINE
  5
9E
330
17
100
AcDbEntity
  8
MAT-CONCRETE
  6
Continuous
370
5
100
AcDbPolyline
 90
2
 70
0
 10
115.20655951349438
 20
105.53936096899878
 10
94.20655998288096
 20
105.53936096899878
  0
LWPOLYLINE
  5
9F
330
17
100
AcDbEntity
  8
MAT-CONCRETE
  6
Continuous
370
5
100
AcDbPolyline
 90
2
 70
0
 10
94.20655998288096
 20
105.53936096899878
 10
94.20655998288096
 20
103.53936101370228
  0
LWPOLYLINE
  5
A0
330
17
100
AcDbEntity
  8
MAT-CONCRETE
  6
Continuous
370
5
100
AcDbPolyline
 90
2
 70
0
 10
115.20655951349438
 20
103.53936101370228
 10
94.20655998288096
 20
103.53936101370228
  0
LWPOLYLINE
  5
A1
330
17
100
AcDbEntity
  8
MAT-CONCRETE
  6
Continuous
370
5
100
AcDbPolyline
 90
2
 70
0
 10
145.24159206817228
 20
103.53936101370228
 10
145.24159206817228
 20
105.53936096899878
  0
LWPOLYLINE
  5
A2
330
17
100
AcDbEntity
  8
MAT-CONCRETE
  6
Continuous
370
5
100
AcDbPolyline
 90
2
 70
0
 10
145.24159206817228
 20
105.53936096899878
 10
124.2065593123287
 20
105.53936096899878
  0
LWPOLYLINE
  5
A3
330
17
100
AcDbEntity
  8
MAT-CONCRETE
  6
Continuous
370
5
100
AcDbPolyline
 90
2
 70
0
 10
124.2065593123287
 20
105.53936096899878
 10
124.2065593123287
 20
103.53936101370228
  0
LWPOLYLINE
  5
A4
330
17
100
AcDbEntity
  8
MAT-CONCRETE
  6
Continuous
370
5
100
AcDbPolyline
 90
2
 70
0
 10
145.24159206817228
 20
103.53936101370228
 10
124.2065593123287
 20
103.53936101370228
  0
LWPOLYLINE
  5
A5
330
17
100
AcDbEntity
  8
MAT-CONCRETE
  6
Continuous
370
5
100
AcDbPolyline
 90
2
 70
0
 10
154.2415918670066
 20
105.53936096899878
 10
154.2415918670066
 20
103.53936101370228
  0
LWPOLYLINE
  5
A6
330
17
100
AcDbEntity
  8
MAT-CONCRETE
  6
Continuous
370
5
100
AcDbPolyline
 90
2
 70
0
 10
156.30655754579612
 20
103.53936101370228
 10
154.2415918670066
 20
103.53936101370228
  0
LWPOLYLINE
  5
A7
330
17
100
AcDbEntity
  8
MAT-CONCRETE
  6
Continuous
370
5
100
AcDbPolyline
 90
2
 70
0
 10
156.30655754579612
 20
105.53936096899878
 10
156.30655754579612
 20
103.53936101370228
  0
LWPOLYLINE
  5
A8
330
17
100
AcDbEntity
  8
MAT-CONCRETE
  6
Continuous
370
5
100
AcDbPolyline
 90
2
 70
0
 10
156.30655754579612
 20
105.53936096899878
 10
154.2415918670066
 20
105.53936096899878
  0
LWPOLYLINE
  5
A9
330
17
100
AcDbEntity
  8
MAT-CONCRETE
  6
Continuous
370
5
100
AcDbPolyline
 90
2
 70
0
 10
134.30656232906873
 20
155.5393598514117
 10
154.30656066133082
 20
155.5393598514117
  0
LWPOLYLINE
  5
AA
330
17
100
AcDbEntity
  8
MAT-CONCRETE
  6
Continuous
370
5
100
AcDbPolyline
 90
2
 70
0
 10
134.30656232906873
 20
153.53935989611517
 10
154.30656066133082
 20
153.53935989611517
  0
LWPOLYLINE
  5
AB
330
17
100
AcDbEntity
  8
MAT-CONCRETE
  6
Continuous
370
5
100
AcDbPolyline
 90
2
 70
0
 10
124.30657086862607
 20
155.5393598514117
 10
124.30657086862607
 20
153.53935989611517
  0
LWPOLYLINE
  5
AC
330
17
100
AcDbEntity
  8
MAT-CONCRETE
  6
Continuous
370
5
100
AcDbPolyline
 90
2
 70
0
 10
134.30656232906873
 20
153.53935989611517
 10
124.30657086862607
 20
153.53935989611517
  0
LWPOLYLINE
  5
AD
330
17
100
AcDbEntity
  8
MAT-CONCRETE
  6
Continuous
370
5
100
AcDbPolyline
 90
2
 70
0
 10
134.30656232906873
 20
153.53935989611517
 10
134.30656232906873
 20
155.5393598514117
  0
LWPOLYLINE
  5
AE
330
17
100
AcDbEntity
  8
MAT-CONCRETE
  6
Continuous
370
5
100
AcDbPolyline
 90
2
 70
0
 10
134.30656232906873
 20
155.5393598514117
 10
124.30657086862607
 20
155.5393598514117
  0
LWPOLYLINE
  5
AF
330
17
100
AcDbEntity
  8
MAT-CONCRETE
  6
Continuous
370
5
100
AcDbPolyline
 90
2
 70
0
 10
104.30657253636397
 20
155.5393598514117
 10
124.30657086862607
 20
155.5393598514117
  0
LWPOLYLINE
  5
B0
330
17
100
AcDbEntity
  8
MAT-CONCRETE
  6
Continuous
370
5
100
AcDbPolyline
 90
2
 70
0
 10
104.30657253636397
 20
153.53935989611517
 10
124.30657086862607
 20
153.53935989611517
  0
LWPOLYLINE
  5
B1
330
17
100
AcDbEntity
  8
MAT-CONCRETE
  6
Continuous
370
5
100
AcDbPolyline
 90
2
 70
0
 10
104.30657253636397
 20
153.53935989611517
 10
104.30657253636397
 20
155.5393598514117
  0
LWPOLYLINE
  5
B2
330
17
100
AcDbEntity
  8
MAT-CONCRETE
  6
Continuous
370
5
100
AcDbPolyline
 90
2
 70
0
 10
104.30657253636397
 20
155.5393598514117
 10
94.30657392336407
 20
155.5393598514117
  0
LWPOLYLINE
  5
B3
330
17
100
AcDbEntity
  8
MAT-CONCRETE
  6
Continuous
370
5
100
AcDbPolyline
 90
2
 70
0
 10
94.30657392336407
 20
155.5393598514117
 10
94.30657392336407
 20
153.53935989611517
  0
LWPOLYLINE
  5
B4
330
17
100
AcDbEntity
  8
MAT-CONCRETE
  6
Continuous
370
5
100
AcDbPolyline
 90
2
 70
0
 10
104.30657253636397
 20
153.53935989611517
 10
94.30657392336407
 20
153.53935989611517
  0
LWPOLYLINE
  5
B5
330
17
100
AcDbEntity
  8
MAT-CONCRETE
  6
Continuous
370
5
100
AcDbPolyline
 90
2
 70
0
 10
74.30657559110197
 20
155.5393598514117
 10
94.30657392336407
 20
155.5393598514117
  0
LWPOLYLINE
  5
B6
330
17
100
AcDbEntity
  8
MAT-CONCRETE
  6
Continuous
370
5
100
AcDbPolyline
 90
2
 70
0
 10
74.30657559110197
 20
153.53935989611517
 10
94.30657392336407
 20
153.53935989611517
  0
LWPOLYLINE
  5
B7
330
17
100
AcDbEntity
  8
MAT-CONCRETE
  6
Continuous
370
5
100
AcDbPolyline
 90
2
 70
0
 10
71.30655944569416
 20
155.5393598514117
 10
71.30655944569416
 20
153.53935989611517
  0
LWPOLYLINE
  5
B8
330
17
100
AcDbEntity
  8
MAT-CONCRETE
  6
Continuous
370
5
100
AcDbPolyline
 90
2
 70
0
 10
74.30657559110197
 20
153.53935989611517
 10
71.30655944569416
 20
153.53935989611517
  0
LWPOLYLINE
  5
B9
330
17
100
AcDbEntity
  8
MAT-CONCRETE
  6
Continuous
370
5
100
AcDbPolyline
 90
2
 70
0
 10
74.30657559110197
 20
153.53935989611517
 10
74.30657559110197
 20
155.5393598514117
  0
LWPOLYLINE
  5
BA
330
17
100
AcDbEntity
  8
MAT-CONCRETE
  6
Continuous
370
5
100
AcDbPolyline
 90
2
 70
0
 10
74.30657559110197
 20
155.5393598514117
 10
71.30655944569416
 20
155.5393598514117
  0
LWPOLYLINE
  5
BB
330
17
100
AcDbEntity
  8
MAT-CONCRETE
  6
Continuous
370
5
100
AcDbPolyline
 90
2
 70
0
 10
156.30656652155372
 20
155.5393598514117
 10
154.30656066133082
 20
155.5393598514117
  0
LWPOLYLINE
  5
BC
330
17
100
AcDbEntity
  8
MAT-CONCRETE
  6
Continuous
370
5
100
AcDbPolyline
 90
2
 70
0
 10
154.30656066133082
 20
155.5393598514117
 10
154.30656066133082
 20
153.53935989611517
  0
LWPOLYLINE
  5
BD
330
17
100
AcDbEntity
  8
MAT-CONCRETE
  6
Continuous
370
5
100
AcDbPolyline
 90
2
 70
0
 10
156.30656652155372
 20
153.53935989611517
 10
154.30656066133082
 20
153.53935989611517
  0
LWPOLYLINE
  5
BE
330
17
100
AcDbEntity
  8
MAT-CONCRETE
  6
Continuous
370
5
100
AcDbPolyline
 90
2
 70
0
 10
156.30656652155372
 20
155.5393598514117
 10
156.30656652155372
 20
153.53935989611517
  0
LWPOLYLINE
  5
BF
330
17
100
AcDbEntity
  8
MAT-CONCRETE
  6
Continuous
370
5
100
AcDbPolyline
 90
2
 70
0
 10
223.3065701427268
 20
153.53935967603084
 10
223.3065660618092
 20
140.53934874259608
  0
LWPOLYLINE
  5
C0
330
17
100
AcDbEntity
  8
MAT-CONCRETE
  6
Continuous
370
5
100
AcDbPolyline
 90
2
 70
0
 10
221.30657018743037
 20
153.53936030386382
 10
223.3065701427268
 20
153.53935967603084
  0
LWPOLYLINE
  5
C1
330
17
100
AcDbEntity
  8
MAT-CONCRETE
  6
Continuous
370
5
100
AcDbPolyline
 90
2
 70
0
 10
221.3065661065128
 20
140.53934937042902
 10
221.30657018743037
 20
153.53936030386382
  0
LWPOLYLINE
  5
C2
330
17
100
AcDbEntity
  8
MAT-CONCRETE
  6
Continuous
370
5
100
AcDbPolyline
 90
2
 70
0
 10
223.3065660618092
 20
140.53934874259608
 10
221.3065661065128
 20
140.53934937042902
  0
LWPOLYLINE
  5
C3
330
17
100
AcDbEntity
  8
MAT-CONCRETE
  6
Continuous
370
5
100
AcDbPolyline
 90
2
 70
0
 10
145.24159206817237
 20
83.5393614607371
 10
145.24159206817237
 20
85.53936141603361
  0
LWPOLYLINE
  5
C4
330
17
100
AcDbEntity
  8
MAT-CONCRETE
  6
Continuous
370
5
100
AcDbPolyline
 90
2
 70
0
 10
145.24159206817237
 20
85.53936141603361
 10
68.3065456844721
 20
85.53936141603361
  0
LWPOLYLINE
  5
C5
330
17
100
AcDbEntity
  8
MAT-CONCRETE
  6
Continuous
370
5
100
AcDbPolyline
 90
2
 70
0
 10
68.3065456844721
 20
85.53936141603361
 10
68.3065456844721
 20
83.5393614607371
  0
LWPOLYLINE
  5
C6
330
17
100
AcDbEntity
  8
MAT-CONCRETE
  6
Continuous
370
5
100
AcDbPolyline
 90
2
 70
0
 10
145.24159206817237
 20
83.5393614607371
 10
68.3065456844721
 20
83.5393614607371
  0
LWPOLYLINE
  5
C7
330
17
100
AcDbEntity
  8
MAT-CONCRETE
  6
Continuous
370
5
100
AcDbPolyline
 90
2
 70
0
 10
154.2415918670067
 20
85.53936141603361
 10
154.2415918670067
 20
83.5393614607371
  0
LWPOLYLINE
  5
C8
330
17
100
AcDbEntity
  8
MAT-CONCRETE
  6
Continuous
370
5
100
AcDbPolyline
 90
2
 70
0
 10
238.306541884676
 20
83.5393614607371
 10
154.2415918670067
 20
83.5393614607371
  0
LWPOLYLINE
  5
C9
330
17
100
AcDbEntity
  8
MAT-CONCRETE
  6
Continuous
370
5
100
AcDbPolyline
 90
2
 70
0
 10
238.306541884676
 20
85.53936141603361
 10
238.306541884676
 20
83.5393614607371
  0
LWPOLYLINE
  5
CA
330
17
100
AcDbEntity
  8
MAT-CONCRETE
  6
Continuous
370
5
100
AcDbPolyline
 90
2
 70
0
 10
238.306541884676
 20
85.53936141603361
 10
154.2415918670067
 20
85.53936141603361
  0
LWPOLYLINE
  5
CB
330
17
100
AcDbEntity
  8
MAT-NULL
  6
Continuous
370
20
100
AcDbPolyline
 90
2
 70
0
 10
64.80648130823016
 20
94.03936542221163
 10
64.80648393478127
 20
99.03936172463698
  0
LWPOLYLINE
  5
CC
330
17
100
AcDbEntity
  8
MAT-NULL
  6
Continuous
370
20
100
AcDbPolyline
 90
2
 70
0
 10
66.30650228970168
 20
99.03936125375652
 10
64.80648393478127
 20
99.03936172463698
  0
LWPOLYLINE
  5
CD
330
17
100
AcDbEntity
  8
MAT-NULL
  6
Continuous
370
20
100
AcDbPolyline
 90
2
 70
0
 10
66.30649965200527
 20
94.03936495133115
 10
66.30650228970168
 20
99.03936125375652
  0
LWPOLYLINE
  5
CE
330
17
100
AcDbEntity
  8
MAT-NULL
  6
Continuous
370
20
100
AcDbPolyline
 90
2
 70
0
 10
66.30649965200527
 20
94.03936495133115
 10
64.80648130823016
 20
94.03936542221163
  0
LWPOLYLINE
  5
CF
330
17
100
AcDbEntity
  8
MAT-NULL
  6
Continuous
370
20
100
AcDbPolyline
 90
2
 70
0
 10
64.80648130822941
 20
94.0393630189524
 10
64.80648115126986
 20
93.53935885303532
  0
LWPOLYLINE
  5
D0
330
17
100
AcDbEntity
  8
MAT-NULL
  6
Continuous
370
20
100
AcDbPolyline
 90
2
 70
0
 10
64.80648130822941
 20
94.0393630189524
 10
64.80648115126986
 20
93.53935885303532
  0
LWPOLYLINE
  5
D1
330
17
100
AcDbEntity
  8
MAT-NULL
  6
Continuous
370
20
100
AcDbPolyline
 90
2
 70
0
 10
66.30649965200452
 20
94.03936254807194
 10
64.80648130822941
 20
94.0393630189524
  0
LWPOLYLINE
  5
D2
330
17
100
AcDbEntity
  8
MAT-NULL
  6
Continuous
370
20
100
AcDbPolyline
 90
2
 70
0
 10
66.30649949504497
 20
93.53935838215484
 10
66.30649965200452
 20
94.03936254807194
  0
LWPOLYLINE
  5
D3
330
17
100
AcDbEntity
  8
MAT-NULL
  6
Continuous
370
20
100
AcDbPolyline
 90
2
 70
0
 10
66.30649949504497
 20
93.53935838215484
 10
66.30649965200452
 20
94.03936254807194
  0
LWPOLYLINE
  5
D4
330
17
100
AcDbEntity
  8
MAT-NULL
  6
Continuous
370
20
100
AcDbPolyline
 90
2
 70
0
 10
66.30649949504497
 20
93.53935838215484
 10
64.80648115126986
 20
93.53935885303532
  0
LWPOLYLINE
  5
D5
330
17
100
AcDbEntity
  8
MAT-NULL
  6
Continuous
370
20
100
AcDbPolyline
 90
2
 70
0
 10
65.30653887710208
 20
93.53935869605895
 10
64.80648115126986
 20
93.53935885303532
  0
LWPOLYLINE
  5
D6
330
17
100
AcDbEntity
  8
MAT-NULL
  6
Continuous
370
20
100
AcDbPolyline
 90
2
 70
0
 10
64.80648409174007
 20
99.53936354451574
 10
64.80648393478089
 20
99.03936050393389
  0
LWPOLYLINE
  5
D7
330
17
100
AcDbEntity
  8
MAT-NULL
  6
Continuous
370
20
100
AcDbPolyline
 90
2
 70
0
 10
64.80648409174007
 20
99.53936354451574
 10
64.80648393478089
 20
99.03936050393389
  0
LWPOLYLINE
  5
D8
330
17
100
AcDbEntity
  8
MAT-NULL
  6
Continuous
370
20
100
AcDbPolyline
 90
2
 70
0
 10
65.30654076060328
 20
99.53936338753971
 10
64.80648409174007
 20
99.53936354451574
  0
LWPOLYLINE
  5
D9
330
17
100
AcDbEntity
  8
MAT-NULL
  6
Continuous
370
20
100
AcDbPolyline
 90
2
 70
0
 10
66.30650244666049
 20
99.53936307363526
 10
64.80648409174007
 20
99.53936354451574
  0
LWPOLYLINE
  5
DA
330
17
100
AcDbEntity
  8
MAT-NULL
  6
Continuous
370
20
100
AcDbPolyline
 90
2
 70
0
 10
66.3065022897013
 20
99.03936003305341
 10
66.30650244666049
 20
99.53936307363526
  0
LWPOLYLINE
  5
DB
330
17
100
AcDbEntity
  8
MAT-NULL
  6
Continuous
370
20
100
AcDbPolyline
 90
2
 70
0
 10
66.3065022897013
 20
99.03936003305341
 10
66.30650244666049
 20
99.53936307363526
  0
LWPOLYLINE
  5
DC
330
17
100
AcDbEntity
  8
MAT-NULL
  6
Continuous
370
20
100
AcDbPolyline
 90
2
 70
0
 10
66.3065022897013
 20
99.03936003305341
 10
64.80648393478089
 20
99.03936050393389
  0
LWPOLYLINE
  5
DD
330
17
100
AcDbEntity
  8
MAT-NULL
  6
Continuous
370
20
100
AcDbPolyline
 90
2
 70
0
 10
65.65649455483896
 20
94.03936275211923
 10
65.45647571470523
 20
94.03936281490844
  0
LWPOLYLINE
  5
DE
330
17
100
AcDbEntity
  8
MAT-NULL
  6
Continuous
370
20
100
AcDbPolyline
 90
2
 70
0
 10
65.45647571470523
 20
94.03936281490844
 10
65.65649455483896
 20
94.03936275211923
  0
LWPOLYLINE
  5
DF
330
17
100
AcDbEntity
  8
MAT-NULL
  6
Continuous
370
20
100
AcDbPolyline
 90
2
 70
0
 10
65.65649719253612
 20
99.03936145780382
 10
65.65649455483896
 20
94.03936275211923
  0
LWPOLYLINE
  5
E0
330
17
100
AcDbEntity
  8
MAT-NULL
  6
Continuous
370
20
100
AcDbPolyline
 90
2
 70
0
 10
65.65649455483896
 20
94.03936275211923
 10
65.65649719253612
 20
99.03936145780382
  0
LWPOLYLINE
  5
E1
330
17
100
AcDbEntity
  8
MAT-NULL
  6
Continuous
370
20
100
AcDbPolyline
 90
2
 70
0
 10
65.45647842869636
 20
99.039361520593
 10
65.65649719253612
 20
99.03936145780382
  0
LWPOLYLINE
  5
E2
330
17
100
AcDbEntity
  8
MAT-NULL
  6
Continuous
370
20
100
AcDbPolyline
 90
2
 70
0
 10
65.65649719253612
 20
99.03936145780382
 10
65.45647842869636
 20
99.039361520593
  0
LWPOLYLINE
  5
E3
330
17
100
AcDbEntity
  8
MAT-NULL
  6
Continuous
370
20
100
AcDbPolyline
 90
2
 70
0
 10
65.45647571470523
 20
94.03936281490844
 10
65.45647842869636
 20
99.039361520593
  0
LWPOLYLINE
  5
E4
330
17
100
AcDbEntity
  8
MAT-NULL
  6
Continuous
370
20
100
AcDbPolyline
 90
2
 70
0
 10
65.45647571470523
 20
94.03936281490844
 10
65.45647842869636
 20
99.039361520593
  0
LWPOLYLINE
  5
E5
330
17
100
AcDbEntity
  8
MAT-CONCRETE
  6
Continuous
370
5
100
AcDbPolyline
 90
2
 70
0
 10
238.3065598375417
 20
150.53936831917514
 10
238.30654665304752
 20
108.53936090194357
  0
LWPOLYLINE
  5
E6
330
17
100
AcDbEntity
  8
MAT-CONCRETE
  6
Continuous
370
5
100
AcDbPolyline
 90
2
 70
0
 10
236.3065598822453
 20
150.5393689470081
 10
238.3065598375417
 20
150.53936831917514
  0
LWPOLYLINE
  5
E7
330
17
100
AcDbEntity
  8
MAT-CONCRETE
  6
Continuous
370
5
100
AcDbPolyline
 90
2
 70
0
 10
236.3065466977511
 20
108.5393615297765
 10
236.3065598822453
 20
150.5393689470081
  0
LWPOLYLINE
  5
E8
330
17
100
AcDbEntity
  8
MAT-CONCRETE
  6
Continuous
370
5
100
AcDbPolyline
 90
2
 70
0
 10
238.30654665304752
 20
108.53936090194357
 10
236.3065466977511
 20
108.5393615297765
  0
LWPOLYLINE
  5
E9
330
17
100
AcDbEntity
  8
MAT-CONCRETE
  6
Continuous
370
5
100
AcDbPolyline
 90
2
 70
0
 10
208.30658209290866
 20
153.53935989611634
 10
208.30656639708533
 20
103.53936101370228
  0
LWPOLYLINE
  5
EA
330
17
100
AcDbEntity
  8
MAT-CONCRETE
  6
Continuous
370
5
100
AcDbPolyline
 90
2
 70
0
 10
206.30658213761225
 20
153.53936052394926
 10
208.30658209290866
 20
153.53935989611634
  0
LWPOLYLINE
  5
EB
330
17
100
AcDbEntity
  8
MAT-CONCRETE
  6
Continuous
370
5
100
AcDbPolyline
 90
2
 70
0
 10
206.30656644178893
 20
103.53936164153521
 10
206.30658213761225
 20
153.53936052394926
  0
LWPOLYLINE
  5
EC
330
17
100
AcDbEntity
  8
MAT-CONCRETE
  6
Continuous
370
5
100
AcDbPolyline
 90
2
 70
0
 10
208.30656639708533
 20
103.53936101370228
 10
206.30656644178893
 20
103.53936164153521
  0
LWPOLYLINE
  5
ED
330
17
100
AcDbEntity
  8
MAT-CONCRETE
  6
Continuous
370
5
100
AcDbPolyline
 90
2
 70
0
 10
236.30653879586498
 20
138.5393602313913
 10
208.30656639708533
 20
138.5393602313913
  0
LWPOLYLINE
  5
EE
330
17
100
AcDbEntity
  8
MAT-CONCRETE
  6
Continuous
370
5
100
AcDbPolyline
 90
2
 70
0
 10
236.30653879586498
 20
140.53936018668782
 10
236.30653879586498
 20
138.5393602313913
  0
LWPOLYLINE
  5
EF
330
17
100
AcDbEntity
  8
MAT-CONCRETE
  6
Continuous
370
5
100
AcDbPolyline
 90
2
 70
0
 10
208.30656639708533
 20
140.53936018668782
 10
236.30653879586498
 20
140.53936018668782
  0
LWPOLYLINE
  5
F0
330
17
100
AcDbEntity
  8
MAT-CONCRETE
  6
Continuous
370
5
100
AcDbPolyline
 90
2
 70
0
 10
208.30656639708533
 20
138.5393602313913
 10
208.30656639708533
 20
140.53936018668782
  0
LWPOLYLINE
  5
F1
330
17
100
AcDbEntity
  8
MAT-NULL
  6
Continuous
370
5
100
AcDbPolyline
 90
2
 70
0
 10
206.30655901273295
 20
129.1050757742949
 10
193.8065605128328
 20
129.10507592335588
  0
LWPOLYLINE
  5
F2
330
17
100
AcDbEntity
  8
MAT-NULL
  6
Continuous
370
5
100
AcDbPolyline
 90
2
 70
0
 10
206.30655887917428
 20
117.90507663498593
 10
193.80656037927412
 20
117.90507678404693
  0
LWPOLYLINE
  5
F3
330
17
100
AcDbEntity
  8
MAT-NULL
  6
Continuous
370
5
100
AcDbPolyline
 90
2
 70
0
 10
206.30655897934327
 20
126.3050758368798
 10
193.8065604794431
 20
126.30507598594076
  0
LWPOLYLINE
  5
F4
330
17
100
AcDbEntity
  8
MAT-NULL
  6
Continuous
370
5
100
AcDbPolyline
 90
2
 70
0
 10
206.3065588457846
 20
115.10507700274658
 10
193.80656034588446
 20
115.10507715180758
  0
LWPOLYLINE
  5
F5
330
17
100
AcDbEntity
  8
MAT-NULL
  6
Continuous
370
5
100
AcDbPolyline
 90
2
 70
0
 10
193.80656063659754
 20
139.4837758498228
 10
206.3065591364977
 20
139.48377570076178
  0
LWPOLYLINE
  5
F6
330
17
100
AcDbEntity
  8
MAT-NULL
  6
Continuous
370
5
100
AcDbPolyline
 90
2
 70
0
 10
206.30655907951228
 20
134.70507442842208
 10
193.8065605796121
 20
134.70507457748306
  0
LWPOLYLINE
  5
F7
330
17
100
AcDbEntity
  8
MAT-NULL
  6
Continuous
370
5
100
AcDbPolyline
 90
2
 70
0
 10
206.3065589459536
 20
123.50507589946466
 10
193.80656044605345
 20
123.50507604852565
  0
LWPOLYLINE
  5
F8
330
17
100
AcDbEntity
  8
MAT-NULL
  6
Continuous
370
5
100
AcDbPolyline
 90
2
 70
0
 10
206.3065590461226
 20
131.90507449100693
 10
193.8065605462224
 20
131.90507464006794
  0
LWPOLYLINE
  5
F9
330
17
100
AcDbEntity
  8
MAT-NULL
  6
Continuous
370
5
100
AcDbPolyline
 90
2
 70
0
 10
206.30655907951228
 20
134.70507442842208
 10
193.8065605796121
 20
134.70507457748306
  0
LWPOLYLINE
  5
FA
330
17
100
AcDbEntity
  8
MAT-NULL
  6
Continuous
370
5
100
AcDbPolyline
 90
2
 70
0
 10
206.30655881239497
 20
112.30507737050725
 10
193.8065603124948
 20
112.30507751956823
  0
LWPOLYLINE
  5
FB
330
17
100
AcDbEntity
  8
MAT-NULL
  6
Continuous
370
5
100
AcDbPolyline
 90
2
 70
0
 10
206.30655891256396
 20
120.7050771827526
 10
193.8065604126638
 20
120.7050773318136
  0
LWPOLYLINE
  5
FC
330
17
100
AcDbEntity
  8
MAT-NULL
  6
Continuous
370
5
100
AcDbPolyline
 90
2
 70
0
 10
193.8065603124948
 20
112.30507751956823
 10
193.80656034588446
 20
115.10507715180758
  0
LWPOLYLINE
  5
FD
330
17
100
AcDbEntity
  8
MAT-NULL
  6
Continuous
370
5
100
AcDbPolyline
 90
2
 70
0
 10
193.80656034588446
 20
115.10507715180758
 10
193.80656037927412
 20
117.90507678404693
  0
LWPOLYLINE
  5
FE
330
17
100
AcDbEntity
  8
MAT-NULL
  6
Continuous
370
5
100
AcDbPolyline
 90
2
 70
0
 10
193.80656037927412
 20
117.90507678404693
 10
193.8065604126638
 20
120.7050773318136
  0
LWPOLYLINE
  5
FF
330
17
100
AcDbEntity
  8
MAT-NULL
  6
Continuous
370
5
100
AcDbPolyline
 90
2
 70
0
 10
193.8065604126638
 20
120.7050773318136
 10
193.80656044605345
 20
123.50507604852565
  0
LWPOLYLINE
  5
100
330
17
100
AcDbEntity
  8
MAT-NULL
  6
Continuous
370
5
100
AcDbPolyline
 90
2
 70
0
 10
193.80656044605345
 20
123.50507604852565
 10
193.8065604794431
 20
126.30507598594076
  0
LWPOLYLINE
  5
101
330
17
100
AcDbEntity
  8
MAT-NULL
  6
Continuous
370
5
100
AcDbPolyline
 90
2
 70
0
 10
193.8065604794431
 20
126.30507598594076
 10
193.8065605128328
 20
129.10507592335588
  0
LWPOLYLINE
  5
102
330
17
100
AcDbEntity
  8
MAT-NULL
  6
Continuous
370
5
100
AcDbPolyline
 90
2
 70
0
 10
193.8065605128328
 20
129.10507592335588
 10
193.8065605462224
 20
131.90507464006794
  0
LWPOLYLINE
  5
103
330
17
100
AcDbEntity
  8
MAT-NULL
  6
Continuous
370
5
100
AcDbPolyline
 90
2
 70
0
 10
193.8065605462224
 20
131.90507464006794
 10
193.8065605796121
 20
134.70507457748306
  0
LWPOLYLINE
  5
104
330
17
100
AcDbEntity
  8
MAT-NULL
  6
Continuous
370
5
100
AcDbPolyline
 90
2
 70
0
 10
193.8065605796121
 20
134.70507457748306
 10
193.80656063659754
 20
139.4837758498228
  0
LWPOLYLINE
  5
105
330
17
100
AcDbEntity
  8
MAT-NULL
  6
Continuous
370
5
100
AcDbPolyline
 90
2
 70
0
 10
193.80656063659754
 20
139.4837758498228
 10
193.80656034588446
 20
115.10507715180758
  0
LWPOLYLINE
  5
106
330
17
100
AcDbEntity
  8
MAT-NULL
  6
Continuous
370
5
100
AcDbPolyline
 90
2
 70
0
 10
206.3065588457846
 20
115.10507700274657
 10
206.3065591364977
 20
139.48377570076178
  0
LWPOLYLINE
  5
107
330
17
100
AcDbEntity
  8
MAT-NULL
  6
Continuous
370
5
100
AcDbPolyline
 90
2
 70
0
 10
206.3065591364977
 20
139.48377570076178
 10
206.30655907951228
 20
134.70507442842208
  0
LWPOLYLINE
  5
108
330
17
100
AcDbEntity
  8
MAT-NULL
  6
Continuous
370
5
100
AcDbPolyline
 90
2
 70
0
 10
206.30655907951228
 20
134.70507442842208
 10
206.3065590461226
 20
131.90507449100693
  0
LWPOLYLINE
  5
109
330
17
100
AcDbEntity
  8
MAT-NULL
  6
Continuous
370
5
100
AcDbPolyline
 90
2
 70
0
 10
206.3065590461226
 20
131.90507449100693
 10
206.30655901273295
 20
129.1050757742949
  0
LWPOLYLINE
  5
10A
330
17
100
AcDbEntity
  8
MAT-NULL
  6
Continuous
370
5
100
AcDbPolyline
 90
2
 70
0
 10
206.30655901273295
 20
129.1050757742949
 10
206.30655897934327
 20
126.3050758368798
  0
LWPOLYLINE
  5
10B
330
17
100
AcDbEntity
  8
MAT-NULL
  6
Continuous
370
5
100
AcDbPolyline
 90
2
 70
0
 10
206.30655897934327
 20
126.3050758368798
 10
206.3065589459536
 20
123.50507589946466
  0
LWPOLYLINE
  5
10C
330
17
100
AcDbEntity
  8
MAT-NULL
  6
Continuous
370
5
100
AcDbPolyline
 90
2
 70
0
 10
206.3065589459536
 20
123.50507589946466
 10
206.30655891256396
 20
120.7050771827526
  0
LWPOLYLINE
  5
10D
330
17
100
AcDbEntity
  8
MAT-NULL
  6
Continuous
370
5
100
AcDbPolyline
 90
2
 70
0
 10
206.30655891256396
 20
120.7050771827526
 10
206.30655887917428
 20
117.90507663498593
  0
LWPOLYLINE
  5
10E
330
17
100
AcDbEntity
  8
MAT-NULL
  6
Continuous
370
5
100
AcDbPolyline
 90
2
 70
0
 10
206.30655887917428
 20
117.90507663498593
 10
206.3065588457846
 20
115.10507700274658
  0
LWPOLYLINE
  5
10F
330
17
100
AcDbEntity
  8
MAT-NULL
  6
Continuous
370
5
100
AcDbPolyline
 90
2
 70
0
 10
206.30655881239497
 20
112.30507737050725
 10
206.3065588457846
 20
115.10507700274658
  0
LWPOLYLINE
  5
110
330
17
100
AcDbEntity
  8
MAT-NULL
  6
Continuous
370
5
100
AcDbPolyline
 90
2
 70
0
 10
193.35655916646093
 20
140.5893405088845
 10
192.45655731767886
 20
140.58934054822487
  0
LWPOLYLINE
  5
111
330
17
100
AcDbEntity
  8
MAT-NULL
  6
Continuous
370
5
100
AcDbPolyline
 90
2
 70
0
 10
193.3565589677308
 20
122.72730173891443
 10
193.35655912412014
 20
126.30507309744988
  0
LWPOLYLINE
  5
112
330
17
100
AcDbEntity
  8
MAT-NULL
  6
Continuous
370
5
100
AcDbPolyline
 90
2
 70
0
 10
193.35655912412014
 20
126.30507309744988
 10
193.356559613688
 20
137.5050803239168
  0
LWPOLYLINE
  5
113
330
17
100
AcDbEntity
  8
MAT-NULL
  6
Continuous
370
5
100
AcDbPolyline
 90
2
 70
0
 10
193.6565593018067
 20
137.5050803108034
 10
193.6565594225904
 20
126.30507308433643
  0
LWPOLYLINE
  5
114
330
17
100
AcDbEntity
  8
MAT-NULL
  6
Continuous
370
5
100
AcDbPolyline
 90
2
 70
0
 10
192.45655733079226
 20
140.88934054151935
 10
193.50655945309018
 20
140.8893404956223
  0
LWPOLYLINE
  5
115
330
17
100
AcDbEntity
  8
MAT-NULL
  6
Continuous
370
5
100
AcDbPolyline
 90
2
 70
0
 10
193.6565594225904
 20
126.30507308433643
 10
193.65655926620104
 20
122.727301725801
  0
LWPOLYLINE
  5
116
330
17
100
AcDbEntity
  8
MAT-NULL
  6
Continuous
370
5
100
AcDbPolyline
 90
2
 70
0
 10
193.50655945309018
 20
140.8893404956223
 10
193.50655944653346
 20
140.73934049897514
  0
LWPOLYLINE
  5
117
330
17
100
AcDbEntity
  8
MAT-NULL
  6
Continuous
370
5
100
AcDbPolyline
 90
2
 70
0
 10
193.35655912412014
 20
126.30507309744988
 10
193.6565594225904
 20
126.30507308433643
  0
LWPOLYLINE
  5
118
330
17
100
AcDbEntity
  8
MAT-NULL
  6
Continuous
370
5
100
AcDbPolyline
 90
2
 70
0
 10
193.6565593018067
 20
137.5050803108034
 10
193.65655944318073
 20
140.73934049241834
  0
LWPOLYLINE
  5
119
330
17
100
AcDbEntity
  8
MAT-NULL
  6
Continuous
370
5
100
AcDbPolyline
 90
2
 70
0
 10
193.6565593018067
 20
137.5050803108034
 10
193.356559613688
 20
137.5050803239168
  0
LWPOLYLINE
  5
11A
330
17
100
AcDbEntity
  8
MAT-NULL
  6
Continuous
370
5
100
AcDbPolyline
 90
2
 70
0
 10
193.356559613688
 20
137.5050803239168
 10
193.35655914471045
 20
140.7393405055318
  0
LWPOLYLINE
  5
11B
330
17
100
AcDbEntity
  8
MAT-NULL
  6
Continuous
370
5
100
AcDbPolyline
 90
2
 70
0
 10
193.65655944318073
 20
140.73934049241834
 10
193.35655914471045
 20
140.7393405055318
  0
LWPOLYLINE
  5
11C
330
17
100
AcDbEntity
  8
MAT-NULL
  6
Continuous
370
5
100
AcDbPolyline
 90
2
 70
0
 10
192.45655731767886
 20
140.58934054822487
 10
193.3565591664609
 20
140.5893405088845
  0
LWPOLYLINE
  5
11D
330
17
100
AcDbEntity
  8
MAT-NULL
  6
Continuous
370
5
100
AcDbPolyline
 90
2
 70
0
 10
193.50655944653346
 20
140.73934049897505
 10
193.50655945309018
 20
140.8893404956223
  0
LWPOLYLINE
  5
11E
330
17
100
AcDbEntity
  8
MAT-NULL
  6
Continuous
370
5
100
AcDbPolyline
 90
2
 70
0
 10
193.50655945309018
 20
140.8893404956223
 10
192.45655733079226
 20
140.88934054151935
  0
LWPOLYLINE
  5
11F
330
17
100
AcDbEntity
  8
MAT-NULL
  6
Continuous
370
5
100
AcDbPolyline
 90
2
 70
0
 10
192.45655733079226
 20
140.88934054151935
 10
192.45655731767886
 20
140.58934054822487
  0
LWPOLYLINE
  5
120
330
17
100
AcDbEntity
  8
MAT-NULL
  6
Continuous
370
5
100
AcDbPolyline
 90
2
 70
0
 10
193.35655912412014
 20
126.30507309744988
 10
193.356559613688
 20
137.5050803239168
  0
LWPOLYLINE
  5
121
330
17
100
AcDbEntity
  8
MAT-NULL
  6
Continuous
370
5
100
AcDbPolyline
 90
2
 70
0
 10
193.6565594225904
 20
126.30507308433643
 10
193.6565593018067
 20
137.5050803108034
  0
LWPOLYLINE
  5
122
330
17
100
AcDbEntity
  8
MAT-NULL
  6
Continuous
370
5
100
AcDbPolyline
 90
2
 70
0
 10
193.3565589677308
 20
122.72730173891449
 10
193.35655912412014
 20
126.30507309744988
  0
LWPOLYLINE
  5
123
330
17
100
AcDbEntity
  8
MAT-NULL
  6
Continuous
370
5
100
AcDbPolyline
 90
2
 70
0
 10
193.6565594225904
 20
126.30507308433643
 10
193.65655926620104
 20
122.727301725801
  0
LWPOLYLINE
  5
124
330
17
100
AcDbEntity
  8
MAT-NULL
  6
Continuous
370
5
100
AcDbPolyline
 90
2
 70
0
 10
193.65655926620104
 20
122.727301725801
 10
193.3565589677308
 20
122.72730173891443
  0
LWPOLYLINE
  5
125
330
17
100
AcDbEntity
  8
MAT-NULL
  6
Continuous
370
5
100
AcDbPolyline
 90
2
 70
0
 10
193.3565589677308
 20
122.72730173891443
 10
193.35655851216094
 20
112.30507844577458
  0
LWPOLYLINE
  5
126
330
17
100
AcDbEntity
  8
MAT-NULL
  6
Continuous
370
5
100
AcDbPolyline
 90
2
 70
0
 10
193.35655851216094
 20
112.30507844577458
 10
193.6565588106312
 20
112.30507843266113
  0
LWPOLYLINE
  5
127
330
17
100
AcDbEntity
  8
MAT-NULL
  6
Continuous
370
5
100
AcDbPolyline
 90
2
 70
0
 10
193.65655926620104
 20
122.727301725801
 10
193.6565588106312
 20
112.30507843266113
  0
LWPOLYLINE
  5
128
330
17
100
AcDbEntity
  8
MAT-CONCRETE
  6
Continuous
370
5
100
AcDbPolyline
 90
2
 70
0
 10
68.3065684057093
 20
150.53936831917324
 10
68.30655522121509
 20
108.53936090194357
  0
LWPOLYLINE
  5
129
330
17
100
AcDbEntity
  8
MAT-CONCRETE
  6
Continuous
370
5
100
AcDbPolyline
 90
2
 70
0
 10
66.30656845041287
 20
150.53936894700618
 10
68.3065684057093
 20
150.53936831917324
  0
LWPOLYLINE
  5
12A
330
17
100
AcDbEntity
  8
MAT-CONCRETE
  6
Continuous
370
5
100
AcDbPolyline
 90
2
 70
0
 10
66.30655526591867
 20
108.5393615297765
 10
66.30656845041287
 20
150.53936894700618
  0
LWPOLYLINE
  5
12B
330
17
100
AcDbEntity
  8
MAT-CONCRETE
  6
Continuous
370
5
100
AcDbPolyline
 90
2
 70
0
 10
68.30655522121509
 20
108.53936090194357
 10
66.30655526591867
 20
108.5393615297765
  0
LWPOLYLINE
  5
12C
330
17
100
AcDbEntity
  8
MAT-CONCRETE
  6
Continuous
370
5
100
AcDbPolyline
 90
2
 70
0
 10
66.30649591280158
 20
93.5393615896983
 10
66.3064964260683
 20
94.03936495133216
  0
LWPOLYLINE
  5
12D
330
17
100
AcDbEntity
  8
MAT-CONCRETE
  6
Continuous
370
5
100
AcDbPolyline
 90
2
 70
0
 10
66.30650155869719
 20
99.03936125375675
 10
66.30650207196442
 20
99.53936511769399
  0
LWPOLYLINE
  5
12E
330
17
100
AcDbEntity
  8
MAT-CONCRETE
  6
Continuous
370
5
100
AcDbPolyline
 90
2
 70
0
 10
238.30654680005543
 20
83.53952534012745
 10
238.306541884676
 20
83.53952534012745
  0
LWPOLYLINE
  5
12F
330
17
100
AcDbEntity
  8
MAT-CONCRETE
  6
Continuous
370
5
100
AcDbPolyline
 90
2
 70
0
 10
154.2415918670067
 20
83.53952534012745
 10
145.84158833272787
 20
83.53952534012745
  0
LWPOLYLINE
  5
130
330
17
100
AcDbEntity
  8
MAT-CONCRETE
  6
Continuous
370
5
100
AcDbPolyline
 90
2
 70
0
 10
145.49158833906083
 20
83.53952534012745
 10
145.24159206817237
 20
83.53952534012745
  0
LWPOLYLINE
  5
131
330
17
100
AcDbEntity
  8
MAT-CONCRETE
  6
Continuous
370
5
100
AcDbPolyline
 90
2
 70
0
 10
66.30654572918799
 20
83.53952534012745
 10
66.306535715638
 20
83.53952534012745
  0
LWPOLYLINE
  5
132
330
17
100
AcDbEntity
  8
MAT-CONCRETE
  6
Continuous
370
5
100
AcDbPolyline
 90
2
 70
0
 10
238.30655571295327
 20
137.40024127731095
 10
238.30655571295327
 20
108.53936090194357
  0
LWPOLYLINE
  5
133
330
17
100
AcDbEntity
  8
MAT-CONCRETE
  6
Continuous
370
5
100
AcDbPolyline
 90
2
 70
0
 10
238.30655571295327
 20
103.53936101370228
 10
238.30655571295327
 20
100.66165119279901
  0
LWPOLYLINE
  5
134
330
17
100
AcDbEntity
  8
MAT-CONCRETE
  6
Continuous
370
5
100
AcDbPolyline
 90
2
 70
0
 10
104.3065732264886
 20
155.53936748080554
 10
129.306567505547
 20
155.53936748080554
  0
LWPOLYLINE
  5
135
330
17
100
AcDbEntity
  8
MAT-CONCRETE
  6
Continuous
370
5
100
AcDbPolyline
 90
2
 70
0
 10
134.30656301919348
 20
155.53936748080554
 10
156.30656946672462
 20
155.53936748080554
  0
LWPOLYLINE
  5
136
330
17
100
AcDbEntity
  8
MAT-NULL
  6
Continuous
370
5
100
AcDbPolyline
 90
2
 70
0
 10
150.30656860901422
 20
44.53936378203983
 10
167.30657036526506
 20
44.53936378203983
  0
LWPOLYLINE
  5
137
330
17
100
AcDbEntity
  8
MAT-NULL
  6
Continuous
370
5
100
AcDbPolyline
 90
2
 70
0
 10
150.30656921936577
 20
27.539363513520925
 10
150.30656860901422
 20
44.53936378203983
  0
LWPOLYLINE
  5
138
330
17
100
AcDbEntity
  8
MAT-NULL
  6
Continuous
370
5
100
AcDbPolyline
 90
2
 70
0
 10
167.30657036526506
 20
27.539363513520925
 10
150.30656921936577
 20
27.539363513520925
  0
LWPOLYLINE
  5
139
330
17
100
AcDbEntity
  8
MAT-NULL
  6
Continuous
370
5
100
AcDbPolyline
 90
2
 70
0
 10
167.30657036526506
 20
44.53936378203983
 10
167.30657036526506
 20
27.539363513520925
  0
LWPOLYLINE
  5
13A
330
17
100
AcDbEntity
  8
MAT-NULL
  6
Continuous
370
5
100
AcDbPolyline
 90
2
 70
0
 10
227.30655544383836
 20
44.53936378203983
 10
244.30655720008917
 20
44.53936378203983
  0
LWPOLYLINE
  5
13B
330
17
100
AcDbEntity
  8
MAT-NULL
  6
Continuous
370
5
100
AcDbPolyline
 90
2
 70
0
 10
227.30655605418988
 20
27.539363513520925
 10
227.30655544383836
 20
44.53936378203983
  0
LWPOLYLINE
  5
13C
330
17
100
AcDbEntity
  8
MAT-NULL
  6
Continuous
370
5
100
AcDbPolyline
 90
2
 70
0
 10
244.30655720008917
 20
27.539363513520925
 10
227.30655605418988
 20
27.539363513520925
  0
LWPOLYLINE
  5
13D
330
17
100
AcDbEntity
  8
MAT-NULL
  6
Continuous
370
5
100
AcDbPolyline
 90
2
 70
0
 10
244.30655720008917
 20
44.53936378203983
 10
244.30655720008917
 20
27.539363513520925
  0
LWPOLYLINE
  5
13E
330
17
100
AcDbEntity
  8
MAT-CONCRETE
  6
Continuous
370
5
100
AcDbPolyline
 90
2
 70
0
 10
233.3065658382918
 20
33.5393625783241
 10
238.30656572653308
 20
33.5393625783241
  0
LWPOLYLINE
  5
13F
330
17
100
AcDbEntity
  8
MAT-CONCRETE
  6
Continuous
370
5
100
AcDbPolyline
 90
2
 70
0
 10
238.30656572653308
 20
33.5393625783241
 10
238.30656572653308
 20
38.53936246656539
  0
LWPOLYLINE
  5
140
330
17
100
AcDbEntity
  8
MAT-CONCRETE
  6
Continuous
370
5
100
AcDbPolyline
 90
2
 70
0
 10
238.30656572653308
 20
38.53936246656539
 10
233.3065658382918
 20
38.53936246656539
  0
LWPOLYLINE
  5
141
330
17
100
AcDbEntity
  8
MAT-CONCRETE
  6
Continuous
370
5
100
AcDbPolyline
 90
2
 70
0
 10
233.3065658382918
 20
38.53936246656539
 10
233.3065658382918
 20
33.5393625783241
  0
LWPOLYLINE
  5
142
330
17
100
AcDbEntity
  8
MAT-CONCRETE
  6
Continuous
370
5
100
AcDbPolyline
 90
2
 70
0
 10
156.30656946672485
 20
33.5393625783241
 10
161.30656935496614
 20
33.5393625783241
  0
LWPOLYLINE
  5
143
330
17
100
AcDbEntity
  8
MAT-CONCRETE
  6
Continuous
370
5
100
AcDbPolyline
 90
2
 70
0
 10
161.30656935496614
 20
33.5393625783241
 10
161.30656935496614
 20
38.53936246656539
  0
LWPOLYLINE
  5
144
330
17
100
AcDbEntity
  8
MAT-CONCRETE
  6
Continuous
370
5
100
AcDbPolyline
 90
2
 70
0
 10
161.30656935496614
 20
38.53936246656539
 10
156.30656946672485
 20
38.53936246656539
  0
LWPOLYLINE
  5
145
330
17
100
AcDbEntity
  8
MAT-CONCRETE
  6
Continuous
370
5
100
AcDbPolyline
 90
2
 70
0
 10
156.30656946672485
 20
38.53936246656539
 10
156.30656946672485
 20
33.5393625783241
  0
LWPOLYLINE
  5
146
330
17
100
AcDbEntity
  8
MAT-CONCRETE
  6
Continuous
370
5
100
AcDbPolyline
 90
2
 70
0
 10
233.3065658382918
 20
103.53936101370228
 10
238.30656572653308
 20
103.53936101370228
  0
LWPOLYLINE
  5
147
330
17
100
AcDbEntity
  8
MAT-CONCRETE
  6
Continuous
370
5
100
AcDbPolyline
 90
2
 70
0
 10
238.30656572653308
 20
103.53936101370228
 10
238.30656572653308
 20
108.53936090194357
  0
LWPOLYLINE
  5
148
330
17
100
AcDbEntity
  8
MAT-CONCRETE
  6
Continuous
370
5
100
AcDbPolyline
 90
2
 70
0
 10
238.30656572653308
 20
108.53936090194357
 10
233.3065658382918
 20
108.53936090194357
  0
LWPOLYLINE
  5
149
330
17
100
AcDbEntity
  8
MAT-CONCRETE
  6
Continuous
370
5
100
AcDbPolyline
 90
2
 70
0
 10
233.3065658382918
 20
108.53936090194357
 10
233.3065658382918
 20
103.53936101370228
  0
LWPOLYLINE
  5
14A
330
17
100
AcDbEntity
  8
MAT-CONCRETE
  6
Continuous
370
5
100
AcDbPolyline
 90
2
 70
0
 10
156.30656946672485
 20
103.53936101370228
 10
161.30656935496614
 20
103.53936101370228
  0
LWPOLYLINE
  5
14B
330
17
100
AcDbEntity
  8
MAT-CONCRETE
  6
Continuous
370
5
100
AcDbPolyline
 90
2
 70
0
 10
161.30656935496614
 20
103.53936101370228
 10
161.30656935496614
 20
108.53936090194357
  0
LWPOLYLINE
  5
14C
330
17
100
AcDbEntity
  8
MAT-CONCRETE
  6
Continuous
370
5
100
AcDbPolyline
 90
2
 70
0
 10
161.30656935496614
 20
108.53936090194357
 10
156.30656946672485
 20
108.53936090194357
  0
LWPOLYLINE
  5
14D
330
17
100
AcDbEntity
  8
MAT-CONCRETE
  6
Continuous
370
5
100
AcDbPolyline
 90
2
 70
0
 10
156.30656946672485
 20
108.53936090194357
 10
156.30656946672485
 20
103.53936101370228
  0
LWPOLYLINE
  5
14E
330
17
100
AcDbEntity
  8
MAT-CONCRETE
  6
Continuous
370
5
100
AcDbPolyline
 90
2
 70
0
 10
233.3065658382918
 20
150.53936759256425
 10
238.30656572653308
 20
150.53936759256425
  0
LWPOLYLINE
  5
14F
330
17
100
AcDbEntity
  8
MAT-CONCRETE
  6
Continuous
370
5
100
AcDbPolyline
 90
2
 70
0
 10
238.30656572653308
 20
150.53936759256425
 10
238.30656572653308
 20
155.53936748080554
  0
LWPOLYLINE
  5
150
330
17
100
AcDbEntity
  8
MAT-CONCRETE
  6
Continuous
370
5
100
AcDbPolyline
 90
2
 70
0
 10
238.30656572653308
 20
155.53936748080554
 10
233.3065658382918
 20
155.53936748080554
  0
LWPOLYLINE
  5
151
330
17
100
AcDbEntity
  8
MAT-CONCRETE
  6
Continuous
370
5
100
AcDbPolyline
 90
2
 70
0
 10
233.3065658382918
 20
155.53936748080554
 10
233.3065658382918
 20
150.53936759256425
  0
LWPOLYLINE
  5
152
330
17
100
AcDbEntity
  8
MAT-CONCRETE
  6
Continuous
370
5
100
AcDbPolyline
 90
2
 70
0
 10
156.30656946672485
 20
150.53936759256425
 10
161.30656935496614
 20
150.53936759256425
  0
LWPOLYLINE
  5
153
330
17
100
AcDbEntity
  8
MAT-CONCRETE
  6
Continuous
370
5
100
AcDbPolyline
 90
2
 70
0
 10
161.30656935496614
 20
150.53936759256425
 10
161.30656935496614
 20
155.53936748080554
  0
LWPOLYLINE
  5
154
330
17
100
AcDbEntity
  8
MAT-CONCRETE
  6
Continuous
370
5
100
AcDbPolyline
 90
2
 70
0
 10
161.30656935496614
 20
155.53936748080554
 10
156.30656946672485
 20
155.53936748080554
  0
LWPOLYLINE
  5
155
330
17
100
AcDbEntity
  8
MAT-CONCRETE
  6
Continuous
370
5
100
AcDbPolyline
 90
2
 70
0
 10
156.30656946672485
 20
155.53936748080554
 10
156.30656946672485
 20
150.53936759256425
  0
LWPOLYLINE
  5
156
330
17
100
AcDbEntity
  8
MAT-CONCRETE
  6
Continuous
370
5
100
AcDbPolyline
 90
2
 70
0
 10
66.30655955745287
 20
103.53936101370228
 10
71.30655944569416
 20
103.53936101370228
  0
LWPOLYLINE
  5
157
330
17
100
AcDbEntity
  8
MAT-CONCRETE
  6
Continuous
370
5
100
AcDbPolyline
 90
2
 70
0
 10
71.30655944569416
 20
103.53936101370228
 10
71.30655944569416
 20
108.53936090194357
  0
LWPOLYLINE
  5
158
330
17
100
AcDbEntity
  8
MAT-CONCRETE
  6
Continuous
370
5
100
AcDbPolyline
 90
2
 70
0
 10
71.30655944569416
 20
108.53936090194357
 10
66.30655955745287
 20
108.53936090194357
  0
LWPOLYLINE
  5
159
330
17
100
AcDbEntity
  8
MAT-CONCRETE
  6
Continuous
370
5
100
AcDbPolyline
 90
2
 70
0
 10
66.30655955745287
 20
108.53936090194357
 10
66.30655955745287
 20
103.53936101370228
  0
LWPOLYLINE
  5
15A
330
17
100
AcDbEntity
  8
MAT-CONCRETE
  6
Continuous
370
5
100
AcDbPolyline
 90
2
 70
0
 10
66.30655955745287
 20
150.53936759256425
 10
71.30655944569416
 20
150.53936759256425
  0
LWPOLYLINE
  5
15B
330
17
100
AcDbEntity
  8
MAT-CONCRETE
  6
Continuous
370
5
100
AcDbPolyline
 90
2
 70
0
 10
71.30655944569416
 20
150.53936759256425
 10
71.30655944569416
 20
155.53936748080554
  0
LWPOLYLINE
  5
15C
330
17
100
AcDbEntity
  8
MAT-CONCRETE
  6
Continuous
370
5
100
AcDbPolyline
 90
2
 70
0
 10
71.30655944569416
 20
155.53936748080554
 10
66.30655955745287
 20
155.53936748080554
  0
LWPOLYLINE
  5
15D
330
17
100
AcDbEntity
  8
MAT-CONCRETE
  6
Continuous
370
5
100
AcDbPolyline
 90
2
 70
0
 10
66.30655955745287
 20
155.53936748080554
 10
66.30655955745287
 20
150.53936759256425
  0
LWPOLYLINE
  5
15E
330
17
100
AcDbEntity
  8
MAT-NULL
  6
Continuous
370
20
100
AcDbPolyline
 90
2
 70
0
 10
153.80655945180368
 20
155.78936602563306
 10
134.80656422524152
 20
155.78936602563306
  0
LWPOLYLINE
  5
15F
330
17
100
AcDbEntity
  8
MAT-NULL
  6
Continuous
370
20
100
AcDbPolyline
 90
2
 70
0
 10
153.80655945180368
 20
155.98936586857485
 10
134.80656422524152
 20
155.98936586857485
  0
LWPOLYLINE
  5
160
330
17
100
AcDbEntity
  8
MAT-NULL
  6
Continuous
370
20
100
AcDbPolyline
 90
2
 70
0
 10
134.30656232906878
 20
156.6393735597345
 10
134.80656422524152
 20
156.6393735597345
  0
LWPOLYLINE
  5
161
330
17
100
AcDbEntity
  8
MAT-NULL
  6
Continuous
370
20
100
AcDbPolyline
 90
2
 70
0
 10
134.30656232906878
 20
155.53935985141163
 10
134.30656232906878
 20
155.53936704369175
  0
LWPOLYLINE
  5
162
330
17
100
AcDbEntity
  8
MAT-NULL
  6
Continuous
370
20
100
AcDbPolyline
 90
2
 70
0
 10
134.30656232906878
 20
156.53936702133998
 10
134.30656232906878
 20
156.6393735597345
  0
LWPOLYLINE
  5
163
330
17
100
AcDbEntity
  8
MAT-NULL
  6
Continuous
370
20
100
AcDbPolyline
 90
2
 70
0
 10
134.80656422524152
 20
155.1393583344734
 10
134.30656232906878
 20
155.1393583344734
  0
LWPOLYLINE
  5
164
330
17
100
AcDbEntity
  8
MAT-NULL
  6
Continuous
370
20
100
AcDbPolyline
 90
2
 70
0
 10
154.30656188203395
 20
155.1393583344734
 10
153.80655945180368
 20
155.1393583344734
  0
LWPOLYLINE
  5
165
330
17
100
AcDbEntity
  8
MAT-NULL
  6
Continuous
370
20
100
AcDbPolyline
 90
2
 70
0
 10
154.30656188203395
 20
156.6393735597345
 10
154.30656188203395
 20
156.53936789556752
  0
LWPOLYLINE
  5
166
330
17
100
AcDbEntity
  8
MAT-NULL
  6
Continuous
370
20
100
AcDbPolyline
 90
2
 70
0
 10
154.30656188203395
 20
155.53936791791932
 10
154.30656188203395
 20
155.5393598514117
  0
LWPOLYLINE
  5
167
330
17
100
AcDbEntity
  8
MAT-NULL
  6
Continuous
370
20
100
AcDbPolyline
 90
2
 70
0
 10
153.80655945180368
 20
156.6393735597345
 10
154.30656188203395
 20
156.6393735597345
  0
LWPOLYLINE
  5
168
330
17
100
AcDbEntity
  8
MAT-NULL
  6
Continuous
370
20
100
AcDbPolyline
 90
2
 70
0
 10
153.80655945180368
 20
155.1393583344734
 10
153.80655945180368
 20
156.6393735597345
  0
LWPOLYLINE
  5
169
330
17
100
AcDbEntity
  8
MAT-NULL
  6
Continuous
370
20
100
AcDbPolyline
 90
2
 70
0
 10
134.80656422524152
 20
155.1393583344734
 10
153.80655945180368
 20
155.1393583344734
  0
LWPOLYLINE
  5
16A
330
17
100
AcDbEntity
  8
MAT-NULL
  6
Continuous
370
20
100
AcDbPolyline
 90
2
 70
0
 10
134.80656422524152
 20
156.6393735597345
 10
134.80656422524152
 20
155.1393583344734
  0
LWPOLYLINE
  5
16B
330
17
100
AcDbEntity
  8
MAT-NULL
  6
Continuous
370
20
100
AcDbPolyline
 90
2
 70
0
 10
153.80655945180368
 20
156.6393735597345
 10
134.80656422524152
 20
156.6393735597345
  0
LWPOLYLINE
  5
16C
330
17
100
AcDbEntity
  8
MAT-NULL
  6
Continuous
370
20
100
AcDbPolyline
 90
2
 70
0
 10
123.80656965909888
 20
155.78936602563306
 10
104.8065744325367
 20
155.78936602563306
  0
LWPOLYLINE
  5
16D
330
17
100
AcDbEntity
  8
MAT-NULL
  6
Continuous
370
20
100
AcDbPolyline
 90
2
 70
0
 10
123.80656965909888
 20
155.98936586857485
 10
104.8065744325367
 20
155.98936586857485
  0
LWPOLYLINE
  5
16E
330
17
100
AcDbEntity
  8
MAT-NULL
  6
Continuous
370
20
100
AcDbPolyline
 90
2
 70
0
 10
104.30657253636399
 20
156.6393735597345
 10
104.8065744325367
 20
156.6393735597345
  0
LWPOLYLINE
  5
16F
330
17
100
AcDbEntity
  8
MAT-NULL
  6
Continuous
370
20
100
AcDbPolyline
 90
2
 70
0
 10
104.30657253636399
 20
155.5393598514117
 10
104.30657253636399
 20
155.53936704369175
  0
LWPOLYLINE
  5
170
330
17
100
AcDbEntity
  8
MAT-NULL
  6
Continuous
370
20
100
AcDbPolyline
 90
2
 70
0
 10
104.30657253636399
 20
156.53936702133998
 10
104.30657253636399
 20
156.6393735597345
  0
LWPOLYLINE
  5
171
330
17
100
AcDbEntity
  8
MAT-NULL
  6
Continuous
370
20
100
AcDbPolyline
 90
2
 70
0
 10
104.8065744325367
 20
155.1393583344734
 10
104.30657253636399
 20
155.1393583344734
  0
LWPOLYLINE
  5
172
330
17
100
AcDbEntity
  8
MAT-NULL
  6
Continuous
370
20
100
AcDbPolyline
 90
2
 70
0
 10
124.30657208932915
 20
155.1393583344734
 10
123.80656965909888
 20
155.1393583344734
  0
LWPOLYLINE
  5
173
330
17
100
AcDbEntity
  8
MAT-NULL
  6
Continuous
370
20
100
AcDbPolyline
 90
2
 70
0
 10
124.30657208932915
 20
156.6393735597345
 10
124.30657208932915
 20
156.53936789556758
  0
LWPOLYLINE
  5
174
330
17
100
AcDbEntity
  8
MAT-NULL
  6
Continuous
370
20
100
AcDbPolyline
 90
2
 70
0
 10
124.30657208932915
 20
155.53936791791935
 10
124.30657208932915
 20
155.5393598514117
  0
LWPOLYLINE
  5
175
330
17
100
AcDbEntity
  8
MAT-NULL
  6
Continuous
370
20
100
AcDbPolyline
 90
2
 70
0
 10
123.80656965909888
 20
156.6393735597345
 10
124.30657208932915
 20
156.6393735597345
  0
LWPOLYLINE
  5
176
330
17
100
AcDbEntity
  8
MAT-NULL
  6
Continuous
370
20
100
AcDbPolyline
 90
2
 70
0
 10
123.80656965909888
 20
155.1393583344734
 10
123.80656965909888
 20
156.6393735597345
  0
LWPOLYLINE
  5
177
330
17
100
AcDbEntity
  8
MAT-NULL
  6
Continuous
370
20
100
AcDbPolyline
 90
2
 70
0
 10
104.8065744325367
 20
155.1393583344734
 10
123.80656965909888
 20
155.1393583344734
  0
LWPOLYLINE
  5
178
330
17
100
AcDbEntity
  8
MAT-NULL
  6
Continuous
370
20
100
AcDbPolyline
 90
2
 70
0
 10
104.8065744325367
 20
156.6393735597345
 10
104.8065744325367
 20
155.1393583344734
  0
LWPOLYLINE
  5
179
330
17
100
AcDbEntity
  8
MAT-NULL
  6
Continuous
370
20
100
AcDbPolyline
 90
2
 70
0
 10
123.80656965909888
 20
156.6393735597345
 10
104.8065744325367
 20
156.6393735597345
  0
LWPOLYLINE
  5
17A
330
17
100
AcDbEntity
  8
MAT-NULL
  6
Continuous
370
20
100
AcDbPolyline
 90
2
 70
0
 10
93.80657271383687
 20
155.78936602563306
 10
74.8065774872747
 20
155.78936602563306
  0
LWPOLYLINE
  5
17B
330
17
100
AcDbEntity
  8
MAT-NULL
  6
Continuous
370
20
100
AcDbPolyline
 90
2
 70
0
 10
93.80657271383687
 20
155.98936586857485
 10
74.8065774872747
 20
155.98936586857485
  0
LWPOLYLINE
  5
17C
330
17
100
AcDbEntity
  8
MAT-NULL
  6
Continuous
370
20
100
AcDbPolyline
 90
2
 70
0
 10
74.30657559110197
 20
156.6393735597345
 10
74.8065774872747
 20
156.6393735597345
  0
LWPOLYLINE
  5
17D
330
17
100
AcDbEntity
  8
MAT-NULL
  6
Continuous
370
20
100
AcDbPolyline
 90
2
 70
0
 10
74.30657559110197
 20
155.5393598514117
 10
74.30657559110197
 20
156.6393735597345
  0
LWPOLYLINE
  5
17E
330
17
100
AcDbEntity
  8
MAT-NULL
  6
Continuous
370
20
100
AcDbPolyline
 90
2
 70
0
 10
74.8065774872747
 20
155.1393583344734
 10
74.30657559110197
 20
155.1393583344734
  0
LWPOLYLINE
  5
17F
330
17
100
AcDbEntity
  8
MAT-NULL
  6
Continuous
370
20
100
AcDbPolyline
 90
2
 70
0
 10
94.30657514406714
 20
155.1393583344734
 10
93.80657271383687
 20
155.1393583344734
  0
LWPOLYLINE
  5
180
330
17
100
AcDbEntity
  8
MAT-NULL
  6
Continuous
370
20
100
AcDbPolyline
 90
2
 70
0
 10
94.30657514406714
 20
156.6393735597345
 10
94.30657514406714
 20
156.53936789556718
  0
LWPOLYLINE
  5
181
330
17
100
AcDbEntity
  8
MAT-NULL
  6
Continuous
370
20
100
AcDbPolyline
 90
2
 70
0
 10
94.30657514406714
 20
155.53936791791895
 10
94.30657514406714
 20
155.5393598514117
  0
LWPOLYLINE
  5
182
330
17
100
AcDbEntity
  8
MAT-NULL
  6
Continuous
370
20
100
AcDbPolyline
 90
2
 70
0
 10
93.80657271383687
 20
156.6393735597345
 10
94.30657514406714
 20
156.6393735597345
  0
LWPOLYLINE
  5
183
330
17
100
AcDbEntity
  8
MAT-NULL
  6
Continuous
370
20
100
AcDbPolyline
 90
2
 70
0
 10
93.80657271383687
 20
155.1393583344734
 10
93.80657271383687
 20
156.6393735597345
  0
LWPOLYLINE
  5
184
330
17
100
AcDbEntity
  8
MAT-NULL
  6
Continuous
370
20
100
AcDbPolyline
 90
2
 70
0
 10
74.8065774872747
 20
155.1393583344734
 10
93.80657271383687
 20
155.1393583344734
  0
LWPOLYLINE
  5
185
330
17
100
AcDbEntity
  8
MAT-NULL
  6
Continuous
370
20
100
AcDbPolyline
 90
2
 70
0
 10
74.8065774872747
 20
156.6393735597345
 10
74.8065774872747
 20
155.1393583344734
  0
LWPOLYLINE
  5
186
330
17
100
AcDbEntity
  8
MAT-NULL
  6
Continuous
370
20
100
AcDbPolyline
 90
2
 70
0
 10
93.80657271383687
 20
156.6393735597345
 10
74.8065774872747
 20
156.6393735597345
  0
LWPOLYLINE
  5
188
330
17
100
AcDbEntity
  8
MAT-MATERIAL
  6
Continuous
370
20
100
AcDbPolyline
 90
2
 70
0
 10
145.49158713106908
 20
75.53935747713703
 10
145.49158841453334
 20
84.03935704127798
  0
LWPOLYLINE
  5
189
330
17
100
AcDbEntity
  8
MAT-MATERIAL
  6
Continuous
370
20
100
AcDbPolyline
 90
2
 70
0
 10
145.8415871247361
 20
75.53935742428851
 10
145.49158713106908
 20
75.53935747713703
  0
LWPOLYLINE
  5
18A
330
17
100
AcDbEntity
  8
MAT-MATERIAL
  6
Continuous
370
20
100
AcDbPolyline
 90
2
 70
0
 10
145.84158840820035
 20
84.03935698842943
 10
145.8415871247361
 20
75.53935742428851
  0
LWPOLYLINE
  5
18B
330
17
100
AcDbEntity
  8
MAT-MATERIAL
  6
Continuous
370
20
100
AcDbPolyline
 90
2
 70
0
 10
145.49158841453334
 20
84.03935704127798
 10
145.84158840820035
 20
84.03935698842943
  0
LWPOLYLINE
  5
18C
330
17
100
AcDbEntity
  8
MAT-MATERIAL
  6
Continuous
370
20
100
AcDbPolyline
 90
2
 70
0
 10
145.49158841453334
 20
84.03935704127798
 10
145.24158841639598
 20
84.03935707902693
  0
LWPOLYLINE
  5
18D
330
17
100
AcDbEntity
  8
MAT-MATERIAL
  6
Continuous
370
20
100
AcDbPolyline
 90
2
 70
0
 10
145.49158849003123
 20
84.53935703755269
 10
145.49158841453334
 20
84.03935704127798
  0
LWPOLYLINE
  5
18E
330
17
100
AcDbEntity
  8
MAT-MATERIAL
  6
Continuous
370
20
100
AcDbPolyline
 90
2
 70
0
 10
145.24158849189388
 20
84.53935707530164
 10
145.49158849003123
 20
84.53935703755269
  0
LWPOLYLINE
  5
18F
330
17
100
AcDbEntity
  8
MAT-MATERIAL
  6
Continuous
370
20
100
AcDbPolyline
 90
2
 70
0
 10
154.24158797681162
 20
84.03935572006478
 10
154.2415880523095
 20
84.53935571633949
  0
LWPOLYLINE
  5
190
330
17
100
AcDbEntity
  8
MAT-MATERIAL
  6
Continuous
370
20
100
AcDbPolyline
 90
2
 70
0
 10
153.99158797867426
 20
84.03935575781372
 10
154.24158797681162
 20
84.03935572006478
  0
LWPOLYLINE
  5
191
330
17
100
AcDbEntity
  8
MAT-MATERIAL
  6
Continuous
370
20
100
AcDbPolyline
 90
2
 70
0
 10
153.99158805417215
 20
84.53935575408843
 10
153.99158797867426
 20
84.03935575781372
  0
LWPOLYLINE
  5
192
330
17
100
AcDbEntity
  8
MAT-MATERIAL
  6
Continuous
370
20
100
AcDbPolyline
 90
2
 70
0
 10
154.2415880523095
 20
84.53935571633949
 10
153.99158805417215
 20
84.53935575408843
  0
LWPOLYLINE
  5
193
330
17
100
AcDbEntity
  8
MAT-MATERIAL
  6
Continuous
370
20
100
AcDbPolyline
 90
2
 70
0
 10
147.62456418666136
 20
92.33345635395624
 10
145.84158969166458
 20
92.53935655257038
  0
LWPOLYLINE
  5
194
330
17
100
AcDbEntity
  8
MAT-MATERIAL
  6
Continuous
370
20
100
AcDbPolyline
 90
2
 70
0
 10
149.32115877443027
 20
91.72573155268196
 10
147.62456418666136
 20
92.33345635395624
  0
LWPOLYLINE
  5
195
330
17
100
AcDbEntity
  8
MAT-MATERIAL
  6
Continuous
370
20
100
AcDbPolyline
 90
2
 70
0
 10
150.8779786537089
 20
90.72212425463042
 10
149.32115877443027
 20
91.72573155268196
  0
LWPOLYLINE
  5
196
330
17
100
AcDbEntity
  8
MAT-MATERIAL
  6
Continuous
370
20
100
AcDbPolyline
 90
2
 70
0
 10
152.18081420250323
 20
89.381506104133
 10
150.8779786537089
 20
90.72212425463042
  0
LWPOLYLINE
  5
197
330
17
100
AcDbEntity
  8
MAT-MATERIAL
  6
Continuous
370
20
100
AcDbPolyline
 90
2
 70
0
 10
153.1639636386912
 20
87.77148425369205
 10
152.18081420250323
 20
89.381506104133
  0
LWPOLYLINE
  5
198
330
17
100
AcDbEntity
  8
MAT-MATERIAL
  6
Continuous
370
20
100
AcDbPolyline
 90
2
 70
0
 10
153.77784689815073
 20
85.97325184002173
 10
153.1639636386912
 20
87.77148425369205
  0
LWPOLYLINE
  5
199
330
17
100
AcDbEntity
  8
MAT-MATERIAL
  6
Continuous
370
20
100
AcDbPolyline
 90
2
 70
0
 10
153.99150594922642
 20
84.07749342753772
 10
153.77784689815073
 20
85.97325184002173
  0
LWPOLYLINE
  5
19A
330
17
100
AcDbEntity
  8
MAT-MATERIAL
  6
Continuous
370
20
100
AcDbPolyline
 90
2
 70
0
 10
153.79416600116656
 20
82.17981180071132
 10
153.99150594922642
 20
84.07749342753772
  0
LWPOLYLINE
  5
19B
330
17
100
AcDbEntity
  8
MAT-MATERIAL
  6
Continuous
370
20
100
AcDbPolyline
 90
2
 70
0
 10
153.19577887504585
 20
80.37590673139638
 10
153.79416600116656
 20
82.17981180071132
  0
LWPOLYLINE
  5
19C
330
17
100
AcDbEntity
  8
MAT-MATERIAL
  6
Continuous
370
20
100
AcDbPolyline
 90
2
 70
0
 10
152.22652113506797
 20
78.7567488550983
 10
153.19577887504585
 20
80.37590673139638
  0
LWPOLYLINE
  5
19D
330
17
100
AcDbEntity
  8
MAT-MATERIAL
  6
Continuous
370
20
100
AcDbPolyline
 90
2
 70
0
 10
150.93527228940337
 20
77.40399203681031
 10
152.22652113506797
 20
78.7567488550983
  0
LWPOLYLINE
  5
19E
330
17
100
AcDbEntity
  8
MAT-MATERIAL
  6
Continuous
370
20
100
AcDbPolyline
 90
2
 70
0
 10
149.3871498046438
 20
76.38585558005192
 10
150.93527228940337
 20
77.40399203681031
  0
LWPOLYLINE
  5
19F
330
17
100
AcDbEntity
  8
MAT-MATERIAL
  6
Continuous
370
20
100
AcDbPolyline
 90
2
 70
0
 10
147.66022524268817
 20
75.75368393862956
 10
149.3871498046438
 20
76.38585558005192
  0
LWPOLYLINE
  5
1A0
330
17
100
AcDbEntity
  8
MAT-MATERIAL
  6
Continuous
370
20
100
AcDbPolyline
 90
2
 70
0
 10
145.8415871247361
 20
75.53935742428851
 10
147.66022524268817
 20
75.75368393862956
  0
LWPOLYLINE
  5
1A1
330
17
100
AcDbEntity
  8
MAT-MATERIAL
  6
Continuous
370
20
100
AcDbPolyline
 90
2
 70
0
 10
145.49158969799757
 20
92.53935660541892
 10
145.84158969166458
 20
92.53935655257038
  0
LWPOLYLINE
  5
1A2
330
17
100
AcDbEntity
  8
MAT-MATERIAL
  6
Continuous
370
20
100
AcDbPolyline
 90
2
 70
0
 10
145.49158841453334
 20
84.03935704127798
 10
145.49158969799757
 20
92.53935660541892
  0
LWPOLYLINE
  5
1A3
330
17
100
AcDbEntity
  8
MAT-MATERIAL
  6
Continuous
370
20
100
AcDbPolyline
 90
2
 70
0
 10
210.21916401431105
 20
114.13935901247623
 10
210.21916401431105
 20
105.6393594483352
  0
LWPOLYLINE
  5
1A4
330
17
100
AcDbEntity
  8
MAT-MATERIAL
  6
Continuous
370
20
100
AcDbPolyline
 90
2
 70
0
 10
210.56916400797806
 20
114.13935901247623
 10
210.21916401431105
 20
114.13935901247623
  0
LWPOLYLINE
  5
1A5
330
17
100
AcDbEntity
  8
MAT-MATERIAL
  6
Continuous
370
20
100
AcDbPolyline
 90
2
 70
0
 10
210.56916400797806
 20
105.6393594483352
 10
210.56916400797806
 20
114.13935901247623
  0
LWPOLYLINE
  5
1A6
330
17
100
AcDbEntity
  8
MAT-MATERIAL
  6
Continuous
370
20
100
AcDbPolyline
 90
2
 70
0
 10
210.21916401431105
 20
105.6393594483352
 10
210.56916400797806
 20
105.6393594483352
  0
LWPOLYLINE
  5
1A7
330
17
100
AcDbEntity
  8
MAT-MATERIAL
  6
Continuous
370
20
100
AcDbPolyline
 90
2
 70
0
 10
218.46916358031476
 20
105.13935945206049
 10
218.96916357658947
 20
105.13935945206049
  0
LWPOLYLINE
  5
1A8
330
17
100
AcDbEntity
  8
MAT-MATERIAL
  6
Continuous
370
20
100
AcDbPolyline
 90
2
 70
0
 10
218.46916358031476
 20
105.38935945019784
 10
218.46916358031476
 20
105.13935945206049
  0
LWPOLYLINE
  5
1A9
330
17
100
AcDbEntity
  8
MAT-MATERIAL
  6
Continuous
370
20
100
AcDbPolyline
 90
2
 70
0
 10
218.7191635784521
 20
105.38935945019784
 10
218.46916358031476
 20
105.38935945019784
  0
LWPOLYLINE
  5
1AA
330
17
100
AcDbEntity
  8
MAT-MATERIAL
  6
Continuous
370
20
100
AcDbPolyline
 90
2
 70
0
 10
218.7191635784521
 20
105.6393594483352
 10
218.7191635784521
 20
105.38935945019784
  0
LWPOLYLINE
  5
1AB
330
17
100
AcDbEntity
  8
MAT-MATERIAL
  6
Continuous
370
20
100
AcDbPolyline
 90
2
 70
0
 10
218.96916357658947
 20
105.6393594483352
 10
218.7191635784521
 20
105.6393594483352
  0
LWPOLYLINE
  5
1AC
330
17
100
AcDbEntity
  8
MAT-MATERIAL
  6
Continuous
370
20
100
AcDbPolyline
 90
2
 70
0
 10
218.96916357658947
 20
105.53936096899878
 10
218.96916357658947
 20
105.6393594483352
  0
LWPOLYLINE
  5
1AD
330
17
100
AcDbEntity
  8
MAT-MATERIAL
  6
Continuous
370
20
100
AcDbPolyline
 90
2
 70
0
 10
210.4691640124484
 20
105.13935945206049
 10
209.9691640161737
 20
105.13935945206049
  0
LWPOLYLINE
  5
1AE
330
17
100
AcDbEntity
  8
MAT-MATERIAL
  6
Continuous
370
20
100
AcDbPolyline
 90
2
 70
0
 10
210.4691640124484
 20
105.38935945019784
 10
210.4691640124484
 20
105.13935945206049
  0
LWPOLYLINE
  5
1AF
330
17
100
AcDbEntity
  8
MAT-MATERIAL
  6
Continuous
370
20
100
AcDbPolyline
 90
2
 70
0
 10
210.21916401431105
 20
105.38935945019784
 10
210.4691640124484
 20
105.38935945019784
  0
LWPOLYLINE
  5
1B0
330
17
100
AcDbEntity
  8
MAT-MATERIAL
  6
Continuous
370
20
100
AcDbPolyline
 90
2
 70
0
 10
210.21916401431105
 20
105.6393594483352
 10
210.21916401431105
 20
105.38935945019784
  0
LWPOLYLINE
  5
1B1
330
17
100
AcDbEntity
  8
MAT-MATERIAL
  6
Continuous
370
20
100
AcDbPolyline
 90
2
 70
0
 10
209.9691640161737
 20
105.6393594483352
 10
210.21916401431105
 20
105.6393594483352
  0
LWPOLYLINE
  5
1B2
330
17
100
AcDbEntity
  8
MAT-MATERIAL
  6
Continuous
370
20
100
AcDbPolyline
 90
2
 70
0
 10
209.9691640161737
 20
105.53936096899876
 10
209.9691640161737
 20
105.6393594483352
  0
LWPOLYLINE
  5
1B3
330
17
100
AcDbEntity
  8
MAT-MATERIAL
  6
Continuous
370
20
100
AcDbPolyline
 90
2
 70
0
 10
212.15915004861316
 20
113.9760339042786
 10
210.56916400797806
 20
114.13935901247623
  0
LWPOLYLINE
  5
1B4
330
17
100
AcDbEntity
  8
MAT-MATERIAL
  6
Continuous
370
20
100
AcDbPolyline
 90
2
 70
0
 10
213.6880338173811
 20
113.49233507199996
 10
212.15915004861316
 20
113.9760339042786
  0
LWPOLYLINE
  5
1B5
330
17
100
AcDbEntity
  8
MAT-MATERIAL
  6
Continuous
370
20
100
AcDbPolyline
 90
2
 70
0
 10
215.3596135616927
 20
112.51600354790493
 10
213.6880338173811
 20
113.49233507199996
  0
LWPOLYLINE
  5
1B6
330
17
100
AcDbEntity
  8
MAT-MATERIAL
  6
Continuous
370
20
100
AcDbPolyline
 90
2
 70
0
 10
216.7664723010042
 20
111.159667576074
 10
215.3596135616927
 20
112.51600354790493
  0
LWPOLYLINE
  5
1B7
330
17
100
AcDbEntity
  8
MAT-MATERIAL
  6
Continuous
370
20
100
AcDbPolyline
 90
2
 70
0
 10
217.83086679740282
 20
109.49827849824551
 10
216.7664723010042
 20
111.159667576074
  0
LWPOLYLINE
  5
1B8
330
17
100
AcDbEntity
  8
MAT-MATERIAL
  6
Continuous
370
20
100
AcDbPolyline
 90
2
 70
0
 10
218.493978441561
 20
107.62364493936114
 10
217.83086679740282
 20
109.49827849824551
  0
LWPOLYLINE
  5
1B9
330
17
100
AcDbEntity
  8
MAT-MATERIAL
  6
Continuous
370
20
100
AcDbPolyline
 90
2
 70
0
 10
218.7191635784521
 20
105.6393594483352
 10
218.493978441561
 20
107.62364493936114
  0
LWPOLYLINE
  5
1BA
330
17
100
AcDbEntity
  8
MAT-MATERIAL
  6
Continuous
370
20
100
AcDbPolyline
 90
2
 70
0
 10
145.49159206630964
 20
112.53936057411802
 10
145.49159206630964
 20
104.03936100997699
  0
LWPOLYLINE
  5
1BB
330
17
100
AcDbEntity
  8
MAT-MATERIAL
  6
Continuous
370
20
100
AcDbPolyline
 90
2
 70
0
 10
145.84159205997662
 20
112.53936057411802
 10
145.49159206630964
 20
112.53936057411802
  0
LWPOLYLINE
  5
1BC
330
17
100
AcDbEntity
  8
MAT-MATERIAL
  6
Continuous
370
20
100
AcDbPolyline
 90
2
 70
0
 10
145.84159205997662
 20
104.03936100997699
 10
145.84159205997662
 20
112.53936057411802
  0
LWPOLYLINE
  5
1BD
330
17
100
AcDbEntity
  8
MAT-MATERIAL
  6
Continuous
370
20
100
AcDbPolyline
 90
2
 70
0
 10
145.49159206630964
 20
104.03936100997699
 10
145.84159205997662
 20
104.03936100997699
  0
LWPOLYLINE
  5
1BE
330
17
100
AcDbEntity
  8
MAT-MATERIAL
  6
Continuous
370
20
100
AcDbPolyline
 90
2
 70
0
 10
153.74159163231332
 20
103.53936101370228
 10
154.24159162858803
 20
103.53936101370228
  0
LWPOLYLINE
  5
1BF
330
17
100
AcDbEntity
  8
MAT-MATERIAL
  6
Continuous
370
20
100
AcDbPolyline
 90
2
 70
0
 10
153.74159163231332
 20
103.78936101183963
 10
153.74159163231332
 20
103.53936101370228
  0
LWPOLYLINE
  5
1C0
330
17
100
AcDbEntity
  8
MAT-MATERIAL
  6
Continuous
370
20
100
AcDbPolyline
 90
2
 70
0
 10
153.99159163045067
 20
103.78936101183963
 10
153.74159163231332
 20
103.78936101183963
  0
LWPOLYLINE
  5
1C1
330
17
100
AcDbEntity
  8
MAT-MATERIAL
  6
Continuous
370
20
100
AcDbPolyline
 90
2
 70
0
 10
153.99159163045067
 20
104.03936100997699
 10
153.99159163045067
 20
103.78936101183963
  0
LWPOLYLINE
  5
1C2
330
17
100
AcDbEntity
  8
MAT-MATERIAL
  6
Continuous
370
20
100
AcDbPolyline
 90
2
 70
0
 10
154.24159162858803
 20
104.03936100997699
 10
153.99159163045067
 20
104.03936100997699
  0
LWPOLYLINE
  5
1C3
330
17
100
AcDbEntity
  8
MAT-MATERIAL
  6
Continuous
370
20
100
AcDbPolyline
 90
2
 70
0
 10
145.741592064447
 20
103.53936101370228
 10
145.24159206817228
 20
103.53936101370228
  0
LWPOLYLINE
  5
1C4
330
17
100
AcDbEntity
  8
MAT-MATERIAL
  6
Continuous
370
20
100
AcDbPolyline
 90
2
 70
0
 10
145.741592064447
 20
103.78936101183963
 10
145.741592064447
 20
103.53936101370228
  0
LWPOLYLINE
  5
1C5
330
17
100
AcDbEntity
  8
MAT-MATERIAL
  6
Continuous
370
20
100
AcDbPolyline
 90
2
 70
0
 10
145.49159206630964
 20
103.78936101183963
 10
145.741592064447
 20
103.78936101183963
  0
LWPOLYLINE
  5
1C6
330
17
100
AcDbEntity
  8
MAT-MATERIAL
  6
Continuous
370
20
100
AcDbPolyline
 90
2
 70
0
 10
145.49159206630964
 20
104.03936100997699
 10
145.49159206630964
 20
103.78936101183963
  0
LWPOLYLINE
  5
1C7
330
17
100
AcDbEntity
  8
MAT-MATERIAL
  6
Continuous
370
20
100
AcDbPolyline
 90
2
 70
0
 10
145.24159206817228
 20
104.03936100997699
 10
145.49159206630964
 20
104.03936100997699
  0
LWPOLYLINE
  5
1C8
330
17
100
AcDbEntity
  8
MAT-MATERIAL
  6
Continuous
370
20
100
AcDbPolyline
 90
2
 70
0
 10
147.43157810061172
 20
112.3760354659204
 10
145.84159205997662
 20
112.53936057411802
  0
LWPOLYLINE
  5
1C9
330
17
100
AcDbEntity
  8
MAT-MATERIAL
  6
Continuous
370
20
100
AcDbPolyline
 90
2
 70
0
 10
148.96046186937966
 20
111.89233663364175
 10
147.43157810061172
 20
112.3760354659204
  0
LWPOLYLINE
  5
1CA
330
17
100
AcDbEntity
  8
MAT-MATERIAL
  6
Continuous
370
20
100
AcDbPolyline
 90
2
 70
0
 10
150.63204161369129
 20
110.91600510954672
 10
148.96046186937966
 20
111.89233663364175
  0
LWPOLYLINE
  5
1CB
330
17
100
AcDbEntity
  8
MAT-MATERIAL
  6
Continuous
370
20
100
AcDbPolyline
 90
2
 70
0
 10
152.0389003530028
 20
109.55966913771579
 10
150.63204161369129
 20
110.91600510954672
  0
LWPOLYLINE
  5
1CC
330
17
100
AcDbEntity
  8
MAT-MATERIAL
  6
Continuous
370
20
100
AcDbPolyline
 90
2
 70
0
 10
153.10329484940138
 20
107.89828005988728
 10
152.0389003530028
 20
109.55966913771579
  0
LWPOLYLINE
  5
1CD
330
17
100
AcDbEntity
  8
MAT-MATERIAL
  6
Continuous
370
20
100
AcDbPolyline
 90
2
 70
0
 10
153.76640649355957
 20
106.02364650100293
 10
153.10329484940138
 20
107.89828005988728
  0
LWPOLYLINE
  5
1CE
330
17
100
AcDbEntity
  8
MAT-MATERIAL
  6
Continuous
370
20
100
AcDbPolyline
 90
2
 70
0
 10
153.99159163045067
 20
104.03936100997699
 10
153.76640649355957
 20
106.02364650100293
  0
LWPOLYLINE
  5
1CF
330
17
100
AcDbEntity
  8
MAT-MATERIAL
  6
Continuous
370
20
100
AcDbPolyline
 90
2
 70
0
 10
115.45655951163172
 20
112.53936057411802
 10
115.45655951163172
 20
104.03936100997699
  0
LWPOLYLINE
  5
1D0
330
17
100
AcDbEntity
  8
MAT-MATERIAL
  6
Continuous
370
20
100
AcDbPolyline
 90
2
 70
0
 10
115.80655950529874
 20
112.53936057411802
 10
115.45655951163172
 20
112.53936057411802
  0
LWPOLYLINE
  5
1D1
330
17
100
AcDbEntity
  8
MAT-MATERIAL
  6
Continuous
370
20
100
AcDbPolyline
 90
2
 70
0
 10
115.80655950529874
 20
104.03936100997699
 10
115.80655950529874
 20
112.53936057411802
  0
LWPOLYLINE
  5
1D2
330
17
100
AcDbEntity
  8
MAT-MATERIAL
  6
Continuous
370
20
100
AcDbPolyline
 90
2
 70
0
 10
115.45655951163172
 20
104.03936100997699
 10
115.80655950529874
 20
104.03936100997699
  0
LWPOLYLINE
  5
1D3
330
17
100
AcDbEntity
  8
MAT-MATERIAL
  6
Continuous
370
20
100
AcDbPolyline
 90
2
 70
0
 10
123.70655907763542
 20
103.53936101370228
 10
124.20655907391013
 20
103.53936101370228
  0
LWPOLYLINE
  5
1D4
330
17
100
AcDbEntity
  8
MAT-MATERIAL
  6
Continuous
370
20
100
AcDbPolyline
 90
2
 70
0
 10
123.70655907763542
 20
103.78936101183963
 10
123.70655907763542
 20
103.53936101370228
  0
LWPOLYLINE
  5
1D5
330
17
100
AcDbEntity
  8
MAT-MATERIAL
  6
Continuous
370
20
100
AcDbPolyline
 90
2
 70
0
 10
123.95655907577277
 20
103.78936101183963
 10
123.70655907763542
 20
103.78936101183963
  0
LWPOLYLINE
  5
1D6
330
17
100
AcDbEntity
  8
MAT-MATERIAL
  6
Continuous
370
20
100
AcDbPolyline
 90
2
 70
0
 10
123.95655907577277
 20
104.03936100997699
 10
123.95655907577277
 20
103.78936101183963
  0
LWPOLYLINE
  5
1D7
330
17
100
AcDbEntity
  8
MAT-MATERIAL
  6
Continuous
370
20
100
AcDbPolyline
 90
2
 70
0
 10
124.20655907391013
 20
104.03936100997699
 10
123.95655907577277
 20
104.03936100997699
  0
LWPOLYLINE
  5
1D8
330
17
100
AcDbEntity
  8
MAT-MATERIAL
  6
Continuous
370
20
100
AcDbPolyline
 90
2
 70
0
 10
115.70655950976908
 20
103.53936101370228
 10
115.20655951349438
 20
103.53936101370228
  0
LWPOLYLINE
  5
1D9
330
17
100
AcDbEntity
  8
MAT-MATERIAL
  6
Continuous
370
20
100
AcDbPolyline
 90
2
 70
0
 10
115.70655950976908
 20
103.78936101183963
 10
115.70655950976908
 20
103.53936101370228
  0
LWPOLYLINE
  5
1DA
330
17
100
AcDbEntity
  8
MAT-MATERIAL
  6
Continuous
370
20
100
AcDbPolyline
 90
2
 70
0
 10
115.45655951163172
 20
103.78936101183963
 10
115.70655950976908
 20
103.78936101183963
  0
LWPOLYLINE
  5
1DB
330
17
100
AcDbEntity
  8
MAT-MATERIAL
  6
Continuous
370
20
100
AcDbPolyline
 90
2
 70
0
 10
115.45655951163172
 20
104.03936100997699
 10
115.45655951163172
 20
103.78936101183963
  0
LWPOLYLINE
  5
1DC
330
17
100
AcDbEntity
  8
MAT-MATERIAL
  6
Continuous
370
20
100
AcDbPolyline
 90
2
 70
0
 10
115.20655951349438
 20
104.03936100997699
 10
115.45655951163172
 20
104.03936100997699
  0
LWPOLYLINE
  5
1DD
330
17
100
AcDbEntity
  8
MAT-MATERIAL
  6
Continuous
370
20
100
AcDbPolyline
 90
2
 70
0
 10
117.39654554593383
 20
112.3760354659204
 10
115.80655950529874
 20
112.53936057411802
  0
LWPOLYLINE
  5
1DE
330
17
100
AcDbEntity
  8
MAT-MATERIAL
  6
Continuous
370
20
100
AcDbPolyline
 90
2
 70
0
 10
118.92542931470177
 20
111.89233663364175
 10
117.39654554593383
 20
112.3760354659204
  0
LWPOLYLINE
  5
1DF
330
17
100
AcDbEntity
  8
MAT-MATERIAL
  6
Continuous
370
20
100
AcDbPolyline
 90
2
 70
0
 10
120.59700905901339
 20
110.91600510954672
 10
118.92542931470177
 20
111.89233663364175
  0
LWPOLYLINE
  5
1E0
330
17
100
AcDbEntity
  8
MAT-MATERIAL
  6
Continuous
370
20
100
AcDbPolyline
 90
2
 70
0
 10
122.00386779832489
 20
109.55966913771579
 10
120.59700905901339
 20
110.91600510954672
  0
LWPOLYLINE
  5
1E1
330
17
100
AcDbEntity
  8
MAT-MATERIAL
  6
Continuous
370
20
100
AcDbPolyline
 90
2
 70
0
 10
123.0682622947235
 20
107.89828005988728
 10
122.00386779832489
 20
109.55966913771579
  0
LWPOLYLINE
  5
1E2
330
17
100
AcDbEntity
  8
MAT-MATERIAL
  6
Continuous
370
20
100
AcDbPolyline
 90
2
 70
0
 10
123.73137393888167
 20
106.02364650100293
 10
123.0682622947235
 20
107.89828005988728
  0
LWPOLYLINE
  5
1E3
330
17
100
AcDbEntity
  8
MAT-MATERIAL
  6
Continuous
370
20
100
AcDbPolyline
 90
2
 70
0
 10
123.95655907577277
 20
104.03936100997699
 10
123.73137393888167
 20
106.02364650100293
  0
LWPOLYLINE
  5
1E4
330
17
100
AcDbEntity
  8
MAT-MATERIAL
  6
Continuous
370
20
100
AcDbPolyline
 90
2
 70
0
 10
85.45656018218398
 20
112.53936057411802
 10
85.45656018218398
 20
104.03936100997699
  0
LWPOLYLINE
  5
1E5
330
17
100
AcDbEntity
  8
MAT-MATERIAL
  6
Continuous
370
20
100
AcDbPolyline
 90
2
 70
0
 10
85.80656017585099
 20
112.53936057411802
 10
85.45656018218398
 20
112.53936057411802
  0
LWPOLYLINE
  5
1E6
330
17
100
AcDbEntity
  8
MAT-MATERIAL
  6
Continuous
370
20
100
AcDbPolyline
 90
2
 70
0
 10
85.80656017585099
 20
104.03936100997699
 10
85.80656017585099
 20
112.53936057411802
  0
LWPOLYLINE
  5
1E7
330
17
100
AcDbEntity
  8
MAT-MATERIAL
  6
Continuous
370
20
100
AcDbPolyline
 90
2
 70
0
 10
85.45656018218398
 20
104.03936100997699
 10
85.80656017585099
 20
104.03936100997699
  0
LWPOLYLINE
  5
1E8
330
17
100
AcDbEntity
  8
MAT-MATERIAL
  6
Continuous
370
20
100
AcDbPolyline
 90
2
 70
0
 10
93.70655974818767
 20
103.53936101370228
 10
94.20655974446238
 20
103.53936101370228
  0
LWPOLYLINE
  5
1E9
330
17
100
AcDbEntity
  8
MAT-MATERIAL
  6
Continuous
370
20
100
AcDbPolyline
 90
2
 70
0
 10
93.70655974818767
 20
103.78936101183963
 10
93.70655974818767
 20
103.53936101370228
  0
LWPOLYLINE
  5
1EA
330
17
100
AcDbEntity
  8
MAT-MATERIAL
  6
Continuous
370
20
100
AcDbPolyline
 90
2
 70
0
 10
93.95655974632503
 20
103.78936101183963
 10
93.70655974818767
 20
103.78936101183963
  0
LWPOLYLINE
  5
1EB
330
17
100
AcDbEntity
  8
MAT-MATERIAL
  6
Continuous
370
20
100
AcDbPolyline
 90
2
 70
0
 10
93.95655974632503
 20
104.03936100997699
 10
93.95655974632503
 20
103.78936101183963
  0
LWPOLYLINE
  5
1EC
330
17
100
AcDbEntity
  8
MAT-MATERIAL
  6
Continuous
370
20
100
AcDbPolyline
 90
2
 70
0
 10
94.20655974446238
 20
104.03936100997699
 10
93.95655974632503
 20
104.03936100997699
  0
LWPOLYLINE
  5
1ED
330
17
100
AcDbEntity
  8
MAT-MATERIAL
  6
Continuous
370
20
100
AcDbPolyline
 90
2
 70
0
 10
85.70656018032133
 20
103.53936101370228
 10
85.20656018404664
 20
103.53936101370228
  0
LWPOLYLINE
  5
1EE
330
17
100
AcDbEntity
  8
MAT-MATERIAL
  6
Continuous
370
20
100
AcDbPolyline
 90
2
 70
0
 10
85.70656018032133
 20
103.78936101183963
 10
85.70656018032133
 20
103.53936101370228
  0
LWPOLYLINE
  5
1EF
330
17
100
AcDbEntity
  8
MAT-MATERIAL
  6
Continuous
370
20
100
AcDbPolyline
 90
2
 70
0
 10
85.45656018218398
 20
103.78936101183963
 10
85.70656018032133
 20
103.78936101183963
  0
LWPOLYLINE
  5
1F0
330
17
100
AcDbEntity
  8
MAT-MATERIAL
  6
Continuous
370
20
100
AcDbPolyline
 90
2
 70
0
 10
85.45656018218398
 20
104.03936100997699
 10
85.45656018218398
 20
103.78936101183963
  0
LWPOLYLINE
  5
1F1
330
17
100
AcDbEntity
  8
MAT-MATERIAL
  6
Continuous
370
20
100
AcDbPolyline
 90
2
 70
0
 10
85.20656018404664
 20
104.03936100997699
 10
85.45656018218398
 20
104.03936100997699
  0
LWPOLYLINE
  5
1F2
330
17
100
AcDbEntity
  8
MAT-MATERIAL
  6
Continuous
370
20
100
AcDbPolyline
 90
2
 70
0
 10
87.39654621648609
 20
112.3760354659204
 10
85.80656017585099
 20
112.53936057411802
  0
LWPOLYLINE
  5
1F3
330
17
100
AcDbEntity
  8
MAT-MATERIAL
  6
Continuous
370
20
100
AcDbPolyline
 90
2
 70
0
 10
88.92542998525401
 20
111.89233663364175
 10
87.39654621648609
 20
112.3760354659204
  0
LWPOLYLINE
  5
1F4
330
17
100
AcDbEntity
  8
MAT-MATERIAL
  6
Continuous
370
20
100
AcDbPolyline
 90
2
 70
0
 10
90.59700972956563
 20
110.91600510954672
 10
88.92542998525401
 20
111.89233663364175
  0
LWPOLYLINE
  5
1F5
330
17
100
AcDbEntity
  8
MAT-MATERIAL
  6
Continuous
370
20
100
AcDbPolyline
 90
2
 70
0
 10
92.00386846887714
 20
109.55966913771579
 10
90.59700972956563
 20
110.91600510954672
  0
LWPOLYLINE
  5
1F6
330
17
100
AcDbEntity
  8
MAT-MATERIAL
  6
Continuous
370
20
100
AcDbPolyline
 90
2
 70
0
 10
93.06826296527575
 20
107.89828005988728
 10
92.00386846887714
 20
109.55966913771579
  0
LWPOLYLINE
  5
1F7
330
17
100
AcDbEntity
  8
MAT-MATERIAL
  6
Continuous
370
20
100
AcDbPolyline
 90
2
 70
0
 10
93.73137460943393
 20
106.02364650100293
 10
93.06826296527575
 20
107.89828005988728
  0
LWPOLYLINE
  5
1F8
330
17
100
AcDbEntity
  8
MAT-MATERIAL
  6
Continuous
370
20
100
AcDbPolyline
 90
2
 70
0
 10
93.95655974632503
 20
104.03936100997699
 10
93.73137460943393
 20
106.02364650100293
  0
HATCH
  5
1F9
330
17
100
AcDbEntity
  8
MAT-CONCRETE
 62
7
100
AcDbHatch
 10
0.0
 20
0.0
 30
0.0
210
0.0
220
0.0
230
1.0
  2
SOLID
 70
1
 71
0
 91
1
 92
3
 72
0
 73
1
 93
5
 10
66.30655955745287
 20
150.53936759256425
 10
71.30655944569416
 20
150.53936759256425
 10
71.30655944569416
 20
155.53936748080554
 10
66.30655955745287
 20
155.53936748080554
 10
66.30655955745287
 20
150.53936759256425
 97
0
 75
0
 76
1
 98
0
  0
LWPOLYLINE
  5
1FA
330
17
100
AcDbEntity
  8
MAT-CONCRETE
  6
Continuous
370
35
100
AcDbPolyline
 90
4
 70
1
 10
66.30655955745287
 20
150.53936759256425
 10
71.30655944569416
 20
150.53936759256425
 10
71.30655944569416
 20
155.53936748080554
 10
66.30655955745287
 20
155.53936748080554
  0
HATCH
  5
1FB
330
17
100
AcDbEntity
  8
MAT-CONCRETE
 62
7
100
AcDbHatch
 10
0.0
 20
0.0
 30
0.0
210
0.0
220
0.0
230
1.0
  2
SOLID
 70
1
 71
0
 91
1
 92
3
 72
0
 73
1
 93
5
 10
66.30655955745287
 20
103.53936101370228
 10
71.30655944569416
 20
103.53936101370228
 10
71.30655944569416
 20
108.53936090194357
 10
66.30655955745287
 20
108.53936090194357
 10
66.30655955745287
 20
103.53936101370228
 97
0
 75
0
 76
1
 98
0
  0
LWPOLYLINE
  5
1FC
330
17
100
AcDbEntity
  8
MAT-CONCRETE
  6
Continuous
370
35
100
AcDbPolyline
 90
4
 70
1
 10
66.30655955745287
 20
103.53936101370228
 10
71.30655944569416
 20
103.53936101370228
 10
71.30655944569416
 20
108.53936090194357
 10
66.30655955745287
 20
108.53936090194357
  0
HATCH
  5
1FD
330
17
100
AcDbEntity
  8
MAT-CONCRETE
 62
7
100
AcDbHatch
 10
0.0
 20
0.0
 30
0.0
210
0.0
220
0.0
230
1.0
  2
SOLID
 70
1
 71
0
 91
1
 92
3
 72
0
 73
1
 93
5
 10
156.30656946672485
 20
150.53936759256425
 10
161.30656935496614
 20
150.53936759256425
 10
161.30656935496614
 20
155.53936748080554
 10
156.30656946672485
 20
155.53936748080554
 10
156.30656946672485
 20
150.53936759256425
 97
0
 75
0
 76
1
 98
0
  0
LWPOLYLINE
  5
1FE
330
17
100
AcDbEntity
  8
MAT-CONCRETE
  6
Continuous
370
35
100
AcDbPolyline
 90
4
 70
1
 10
156.30656946672485
 20
150.53936759256425
 10
161.30656935496614
 20
150.53936759256425
 10
161.30656935496614
 20
155.53936748080554
 10
156.30656946672485
 20
155.53936748080554
  0
HATCH
  5
1FF
330
17
100
AcDbEntity
  8
MAT-CONCRETE
 62
7
100
AcDbHatch
 10
0.0
 20
0.0
 30
0.0
210
0.0
220
0.0
230
1.0
  2
SOLID
 70
1
 71
0
 91
1
 92
3
 72
0
 73
1
 93
5
 10
233.3065658382918
 20
150.53936759256425
 10
238.30656572653308
 20
150.53936759256425
 10
238.30656572653308
 20
155.53936748080554
 10
233.3065658382918
 20
155.53936748080554
 10
233.3065658382918
 20
150.53936759256425
 97
0
 75
0
 76
1
 98
0
  0
LWPOLYLINE
  5
200
330
17
100
AcDbEntity
  8
MAT-CONCRETE
  6
Continuous
370
35
100
AcDbPolyline
 90
4
 70
1
 10
233.3065658382918
 20
150.53936759256425
 10
238.30656572653308
 20
150.53936759256425
 10
238.30656572653308
 20
155.53936748080554
 10
233.3065658382918
 20
155.53936748080554
  0
HATCH
  5
201
330
17
100
AcDbEntity
  8
MAT-CONCRETE
 62
7
100
AcDbHatch
 10
0.0
 20
0.0
 30
0.0
210
0.0
220
0.0
230
1.0
  2
SOLID
 70
1
 71
0
 91
1
 92
3
 72
0
 73
1
 93
5
 10
156.30656946672485
 20
103.53936101370228
 10
161.30656935496614
 20
103.53936101370228
 10
161.30656935496614
 20
108.53936090194357
 10
156.30656946672485
 20
108.53936090194357
 10
156.30656946672485
 20
103.53936101370228
 97
0
 75
0
 76
1
 98
0
  0
LWPOLYLINE
  5
202
330
17
100
AcDbEntity
  8
MAT-CONCRETE
  6
Continuous
370
35
100
AcDbPolyline
 90
4
 70
1
 10
156.30656946672485
 20
103.53936101370228
 10
161.30656935496614
 20
103.53936101370228
 10
161.30656935496614
 20
108.53936090194357
 10
156.30656946672485
 20
108.53936090194357
  0
HATCH
  5
203
330
17
100
AcDbEntity
  8
MAT-CONCRETE
 62
7
100
AcDbHatch
 10
0.0
 20
0.0
 30
0.0
210
0.0
220
0.0
230
1.0
  2
SOLID
 70
1
 71
0
 91
1
 92
3
 72
0
 73
1
 93
5
 10
233.3065658382918
 20
103.53936101370228
 10
238.30656572653308
 20
103.53936101370228
 10
238.30656572653308
 20
108.53936090194357
 10
233.3065658382918
 20
108.53936090194357
 10
233.3065658382918
 20
103.53936101370228
 97
0
 75
0
 76
1
 98
0
  0
LWPOLYLINE
  5
204
330
17
100
AcDbEntity
  8
MAT-CONCRETE
  6
Continuous
370
35
100
AcDbPolyline
 90
4
 70
1
 10
233.3065658382918
 20
103.53936101370228
 10
238.30656572653308
 20
103.53936101370228
 10
238.30656572653308
 20
108.53936090194357
 10
233.3065658382918
 20
108.53936090194357
  0
HATCH
  5
205
330
17
100
AcDbEntity
  8
MAT-CONCRETE
 62
7
100
AcDbHatch
 10
0.0
 20
0.0
 30
0.0
210
0.0
220
0.0
230
1.0
  2
SOLID
 70
1
 71
0
 91
1
 92
3
 72
0
 73
1
 93
5
 10
156.30656946672485
 20
33.5393625783241
 10
161.30656935496614
 20
33.5393625783241
 10
161.30656935496614
 20
38.53936246656539
 10
156.30656946672485
 20
38.53936246656539
 10
156.30656946672485
 20
33.5393625783241
 97
0
 75
0
 76
1
 98
0
  0
LWPOLYLINE
  5
206
330
17
100
AcDbEntity
  8
MAT-CONCRETE
  6
Continuous
370
35
100
AcDbPolyline
 90
4
 70
1
 10
156.30656946672485
 20
33.5393625783241
 10
161.30656935496614
 20
33.5393625783241
 10
161.30656935496614
 20
38.53936246656539
 10
156.30656946672485
 20
38.53936246656539
  0
HATCH
  5
207
330
17
100
AcDbEntity
  8
MAT-CONCRETE
 62
7
100
AcDbHatch
 10
0.0
 20
0.0
 30
0.0
210
0.0
220
0.0
230
1.0
  2
SOLID
 70
1
 71
0
 91
1
 92
3
 72
0
 73
1
 93
5
 10
233.3065658382918
 20
33.5393625783241
 10
238.30656572653308
 20
33.5393625783241
 10
238.30656572653308
 20
38.53936246656539
 10
233.3065658382918
 20
38.53936246656539
 10
233.3065658382918
 20
33.5393625783241
 97
0
 75
0
 76
1
 98
0
  0
LWPOLYLINE
  5
208
330
17
100
AcDbEntity
  8
MAT-CONCRETE
  6
Continuous
370
35
100
AcDbPolyline
 90
4
 70
1
 10
233.3065658382918
 20
33.5393625783241
 10
238.30656572653308
 20
33.5393625783241
 10
238.30656572653308
 20
38.53936246656539
 10
233.3065658382918
 20
38.53936246656539
  0
LWPOLYLINE
  5
209
330
17
100
AcDbEntity
  8
MAT-NULL
  6
Continuous
370
35
100
AcDbPolyline
 90
11
 70
0
 10
193.65655926620107
 20
122.72730172580107
 10
193.3565589677308
 20
122.7273017389145
 10
193.3565591664609
 20
140.5893405088845
 10
192.4565573176789
 20
140.58934054822487
 10
192.4565573307923
 20
140.88934054151937
 10
193.5065594530902
 20
140.8893404956223
 10
193.50655943997677
 20
140.5893405023278
 10
193.35655916646095
 20
140.58934050888456
 10
193.35655914471045
 20
140.7393405055318
 10
193.65655944318073
 20
140.73934049241842
 10
193.65655926620104
 20
122.72730172580101
  0
LWPOLYLINE
  5
20A
330
17
100
AcDbEntity
  8
MAT-NULL
  6
Continuous
370
35
100
AcDbPolyline
 90
2
 70
0
 10
193.35655912412014
 20
126.30507309744988
 10
193.65655942259042
 20
126.30507308433643
  0
LWPOLYLINE
  5
20B
330
17
100
AcDbEntity
  8
MAT-NULL
  6
Continuous
370
35
100
AcDbPolyline
 90
2
 70
0
 10
193.65655930180674
 20
137.50508031080346
 10
193.35655961368803
 20
137.50508032391687
  0
LWPOLYLINE
  5
20C
330
17
100
AcDbEntity
  8
MAT-NULL
  6
Continuous
370
35
100
AcDbPolyline
 90
5
 70
0
 10
206.3065591364977
 20
139.48377570076178
 10
206.30655907951228
 20
134.70507442842208
 10
193.8065605796121
 20
134.70507457748312
 10
193.80656063659757
 20
139.4837758498228
 10
206.30655913649773
 20
139.4837757007618
  0
LWPOLYLINE
  5
20D
330
17
100
AcDbEntity
  8
MAT-NULL
  6
Continuous
370
20
100
AcDbPolyline
 90
5
 70
0
 10
65.45647571470525
 20
94.03936281490846
 10
65.45647842869636
 20
99.03936152059302
 10
65.65649719253614
 20
99.03936145780382
 10
65.65649455483896
 20
94.03936275211926
 10
65.45647571470525
 20
94.03936281490844
  0
LWPOLYLINE
  5
20E
330
17
100
AcDbEntity
  8
MAT-NULL
  6
Continuous
370
20
100
AcDbPolyline
 90
5
 70
0
 10
66.3065022897013
 20
99.03936003305341
 10
64.80648393478089
 20
99.03936050393389
 10
64.80648409174007
 20
99.53936354451577
 10
66.30650244666049
 20
99.53936307363529
 10
66.3065022897013
 20
99.03936003305343
  0
LWPOLYLINE
  5
20F
330
17
100
AcDbEntity
  8
MAT-NULL
  6
Continuous
370
20
100
AcDbPolyline
 90
5
 70
0
 10
66.30649949504497
 20
93.53935838215486
 10
64.80648115126986
 20
93.53935885303532
 10
64.80648130822941
 20
94.0393630189524
 10
66.30649965200452
 20
94.03936254807195
 10
66.30649949504497
 20
93.53935838215484
  0
LWPOLYLINE
  5
210
330
17
100
AcDbEntity
  8
MAT-FIN
  6
Continuous
370
5
100
AcDbPolyline
 90
4
 70
1
 10
156.30656946672485
 20
155.53936748080554
 10
156.30656946672485
 20
156.53936745845382
 10
238.30658493957964
 20
156.53936745845382
 10
238.30658493957964
 20
155.53936748080554
  0
LWPOLYLINE
  5
211
330
17
100
AcDbEntity
  8
MAT-FIN
  6
Continuous
370
5
100
AcDbPolyline
 90
2
 70
1
 10
238.30658480001964
 20
156.5393712731517
 10
238.30658480001966
 20
156.5393712731517
  0
LWPOLYLINE
  5
212
330
17
100
AcDbEntity
  8
MAT-FIN
  6
Continuous
370
5
100
AcDbPolyline
 90
4
 70
1
 10
238.30658480001966
 20
156.5393712731517
 10
238.30654680003968
 20
83.53949507975301
 10
239.3065467776878
 20
83.53949455920446
 10
239.30658477766775
 20
156.53937075260316
  0
LWPOLYLINE
  5
213
330
17
100
AcDbEntity
  8
MAT-NULL
  6
Continuous
370
13
100
AcDbPolyline
 90
2
 70
1
 10
124.30657155875066
 20
156.53936789556766
 10
124.30657155875066
 20
156.53936745845382
  0
LWPOLYLINE
  5
214
330
17
100
AcDbEntity
  8
MAT-NULL
  6
Continuous
370
13
100
AcDbPolyline
 90
5
 70
1
 10
94.3065710085998
 20
156.53936789556758
 10
94.3065710085998
 20
155.53936791791935
 10
104.3065732264886
 20
155.53936748080554
 10
104.3065732264886
 20
156.53936702133998
 10
94.30657100859982
 20
156.53936745845382
  0
LWPOLYLINE
  5
215
330
17
100
AcDbEntity
  8
MAT-NULL
  6
Continuous
370
13
100
AcDbPolyline
 90
4
 70
1
 10
156.30657635436998
 20
156.53936745845382
 10
154.30656135145554
 20
156.53936789556766
 10
154.30656135145554
 20
155.53936748080554
 10
156.30657635436998
 20
155.53936748080554
  0
LWPOLYLINE
  5
216
330
17
100
AcDbEntity
  8
MAT-NULL
  6
Continuous
370
13
100
AcDbPolyline
 90
4
 70
1
 10
66.30655717326712
 20
156.53936745845382
 10
66.30655717326712
 20
155.53936748080554
 10
74.30657511774395
 20
155.53936748080554
 10
74.30657511774396
 20
156.53936702134
  0
LWPOLYLINE
  5
217
330
17
100
AcDbEntity
  8
MAT-NULL
  6
Continuous
370
13
100
AcDbPolyline
 90
4
 70
1
 10
124.30657155875066
 20
156.53936745845382
 10
124.30657155875066
 20
155.53936791791938
 10
134.30656301919348
 20
155.53936748080554
 10
134.30656301919345
 20
156.53936702133998
  0
LWPOLYLINE
  5
218
330
17
100
AcDbEntity
  8
MAT-NULL
  6
Continuous
370
13
100
AcDbPolyline
 90
4
 70
1
 10
156.30655039323926
 20
83.53935192399433
 10
156.30655000382492
 20
82.53935194634616
 10
154.49158232830717
 20
82.53935265312063
 10
154.49158232830715
 20
83.53935263076897
  0
LWPOLYLINE
  5
219
330
17
100
AcDbEntity
  8
MAT-NULL
  6
Continuous
370
13
100
AcDbPolyline
 90
4
 70
1
 10
65.30653700078032
 20
83.539387360707
 10
144.9915855924064
 20
83.53935633020419
 10
144.99158559240638
 20
82.53935635255584
 10
65.30653661136597
 20
82.5393873830588
  0
LWPOLYLINE
  5
21A
330
17
100
AcDbEntity
  8
MAT-NULL
  6
Continuous
370
13
100
AcDbPolyline
 90
2
 70
1
 10
239.30655029439686
 20
82.5394949974899
 10
239.30655029439689
 20
82.5394949974899
  0
LWPOLYLINE
  5
21B
330
17
100
AcDbEntity
  8
MAT-NULL
  6
Continuous
370
13
100
AcDbPolyline
 90
4
 70
1
 10
239.30655029439686
 20
82.5394949974899
 10
239.30655044539267
 20
83.53949497554007
 10
156.27713875156203
 20
83.53950751223078
 10
156.27713860056622
 20
82.53950753458255
  0
LWPOLYLINE
  5
21C
330
17
100
AcDbEntity
  8
MAT-NULL
  6
Continuous
370
13
100
AcDbPolyline
 90
4
 70
1
 10
66.30653571559552
 20
83.53939007096548
 10
65.3065357379473
 20
83.53939038488195
 10
65.30653887710335
 20
93.53936269432171
 10
66.30654025351576
 20
93.53936158964932
  0
LWPOLYLINE
  5
21D
330
17
100
AcDbEntity
  8
MAT-NULL
  6
Continuous
370
13
100
AcDbPolyline
 90
4
 70
1
 10
66.30655863149201
 20
156.53937077671603
 10
66.30654073825126
 20
99.53936511764972
 10
65.30654006122107
 20
99.53936622232214
 10
65.3065586538438
 20
156.53937109063253
  0
LWPOLYLINE
  5
21E
330
17
100
AcDbEntity
  8
MAT-FIN
  6
Continuous
370
5
100
AcDbPolyline
 90
5
 70
1
 10
220.81324577331543
 20
155.53936703999835
 10
238.3065891265869
 20
155.53936703999835
 10
238.3065891265869
 20
156.53937085469562
 10
156.30657196044922
 20
156.53937085469562
 10
156.30657196044922
 20
155.53936703999835
  0
LWPOLYLINE
  5
21F
330
17
100
AcDbEntity
  8
MAT-FIN
  6
Continuous
370
5
100
AcDbPolyline
 90
5
 70
1
 10
238.30655097961426
 20
99.11280377705891
 10
238.30655097961426
 20
83.53949292500815
 10
239.30655479431152
 20
83.53949292500815
 10
239.30659294128418
 20
156.53937085469562
 10
238.3065891265869
 20
156.53937085469562
  0
LWPOLYLINE
  5
220
330
17
100
AcDbEntity
  8
MAT-NULL
  6
Continuous
370
13
100
AcDbPolyline
 90
5
 70
1
 10
154.66553688049316
 20
156.53937085469562
 10
154.30655479431152
 20
156.53937085469562
 10
154.30655479431152
 20
155.53936703999835
 10
156.30658149719238
 20
155.53936703999835
 10
156.30658149719238
 20
156.53937085469562
  0
LWPOLYLINE
  5
221
330
17
100
AcDbEntity
  8
MAT-NULL
  6
Continuous
370
13
100
AcDbPolyline
 90
4
 70
1
 10
134.3065643310547
 20
156.53937085469562
 10
124.30657386779785
 20
156.53937085469562
 10
124.30657386779785
 20
155.53936703999835
 10
134.3065643310547
 20
155.53936703999835
  0
LWPOLYLINE
  5
222
330
17
100
AcDbEntity
  8
MAT-NULL
  6
Continuous
370
13
100
AcDbPolyline
 90
4
 70
1
 10
104.30657386779785
 20
156.53937085469562
 10
94.30657386779785
 20
156.53937085469562
 10
94.30657386779785
 20
155.53936703999835
 10
104.30657386779785
 20
155.53936703999835
  0
LWPOLYLINE
  5
223
330
17
100
AcDbEntity
  8
MAT-NULL
  6
Continuous
370
13
100
AcDbPolyline
 90
4
 70
1
 10
74.30657386779785
 20
156.53937085469562
 10
66.30656242370605
 20
156.53937085469562
 10
66.30656242370605
 20
155.53936703999835
 10
74.30657386779785
 20
155.53936703999835
  0
LWPOLYLINE
  5
224
330
17
100
AcDbEntity
  8
MAT-NULL
  6
Continuous
370
13
100
AcDbPolyline
 90
5
 70
1
 10
65.30653953552246
 20
83.20605023701987
 10
65.30653953552246
 20
82.53938420613608
 10
144.9915885925293
 20
82.53935559590658
 10
144.9915885925293
 20
83.53934987386069
 10
65.30653953552246
 20
83.53938802083334
  0
LWPOLYLINE
  5
225
330
17
100
AcDbEntity
  8
MAT-NULL
  6
Continuous
370
13
100
AcDbPolyline
 90
4
 70
1
 10
154.49158668518066
 20
82.53934605916342
 10
156.3065528869629
 20
82.53934605916342
 10
156.3065528869629
 20
83.53934987386069
 10
154.49158668518066
 20
83.53934987386069
  0
LWPOLYLINE
  5
226
330
17
100
AcDbEntity
  8
MAT-NULL
  6
Continuous
370
13
100
AcDbPolyline
 90
5
 70
1
 10
219.74621772766113
 20
82.53949864705405
 10
239.30655479431152
 20
82.53948911031088
 10
239.30655479431152
 20
83.53949292500815
 10
156.27714157104492
 20
83.53950246175131
 10
156.27714157104492
 20
82.53950818379721
  0
LWPOLYLINE
  5
227
330
17
100
AcDbEntity
  8
MAT-NULL
  6
Continuous
370
13
100
AcDbPolyline
 90
4
 70
1
 10
65.30655860900879
 20
156.53937085469562
 10
65.30653953552246
 20
99.5393632253011
 10
66.30654335021973
 20
99.5393632253011
 10
66.30656242370605
 20
156.53937085469562
  0
LWPOLYLINE
  5
228
330
17
100
AcDbEntity
  8
MAT-NULL
  6
Continuous
370
13
100
AcDbPolyline
 90
5
 70
1
 10
65.97320556640625
 20
93.53935941060384
 10
65.30653953552246
 20
93.53935941060384
 10
65.30653953552246
 20
83.53938802083334
 10
66.30653381347656
 20
83.53938802083334
 10
66.30654335021973
 20
93.53935941060384
  0
HATCH
  5
229
330
17
100
AcDbEntity
  8
MAT-CONCRETE
 62
7
100
AcDbHatch
 10
0.0
 20
0.0
 30
0.0
210
0.0
220
0.0
230
1.0
  2
SOLID
 70
1
 71
0
 91
1
 92
3
 72
0
 73
1
 93
5
 10
71.307
 20
155.5390139872233
 10
71.307
 20
153.5390139872233
 10
74.307
 20
153.5390139872233
 10
74.307
 20
155.5390139872233
 10
71.307
 20
155.5390139872233
 97
0
 75
0
 76
1
 98
0
  0
LWPOLYLINE
  5
22A
330
17
100
AcDbEntity
  8
MAT-CONCRETE
  6
Continuous
370
35
100
AcDbPolyline
 90
4
 70
1
 10
71.307
 20
155.5390139872233
 10
71.307
 20
153.5390139872233
 10
74.307
 20
153.5390139872233
 10
74.307
 20
155.5390139872233
  0
HATCH
  5
22B
330
17
100
AcDbEntity
  8
MAT-CONCRETE
 62
7
100
AcDbHatch
 10
0.0
 20
0.0
 30
0.0
210
0.0
220
0.0
230
1.0
  2
SOLID
 70
1
 71
0
 91
1
 92
3
 72
0
 73
1
 93
13
 10
96.307
 20
105.5390139872233
 10
94.207
 20
105.5390139872233
 10
94.207
 20
103.5390139872233
 10
115.207
 20
103.5390139872233
 10
115.207
 20
105.5390139872233
 10
98.307
 20
105.5390139872233
 10
98.307
 20
153.5390139872233
 10
104.307
 20
153.5390139872233
 10
104.307
 20
155.5390139872233
 10
94.307
 20
155.5390139872233
 10
94.307
 20
153.5390139872233
 10
96.307
 20
153.5390139872233
 10
96.307
 20
105.5390139872233
 97
0
 75
0
 76
1
 98
0
  0
LWPOLYLINE
  5
22C
330
17
100
AcDbEntity
  8
MAT-CONCRETE
  6
Continuous
370
35
100
AcDbPolyline
 90
12
 70
1
 10
96.307
 20
105.5390139872233
 10
94.207
 20
105.5390139872233
 10
94.207
 20
103.5390139872233
 10
115.207
 20
103.5390139872233
 10
115.207
 20
105.5390139872233
 10
98.307
 20
105.5390139872233
 10
98.307
 20
153.5390139872233
 10
104.307
 20
153.5390139872233
 10
104.307
 20
155.5390139872233
 10
94.307
 20
155.5390139872233
 10
94.307
 20
153.5390139872233
 10
96.307
 20
153.5390139872233
  0
HATCH
  5
22D
330
17
100
AcDbEntity
  8
MAT-CONCRETE
 62
7
100
AcDbHatch
 10
0.0
 20
0.0
 30
0.0
210
0.0
220
0.0
230
1.0
  2
SOLID
 70
1
 71
0
 91
1
 92
3
 72
0
 73
1
 93
13
 10
124.307
 20
153.5390139872233
 10
126.307
 20
153.5390139872233
 10
126.307
 20
105.5390139872233
 10
124.207
 20
105.5390139872233
 10
124.207
 20
103.5390139872233
 10
145.242
 20
103.5390139872233
 10
145.242
 20
105.5390139872233
 10
128.307
 20
105.5390139872233
 10
128.307
 20
153.5390139872233
 10
134.307
 20
153.5390139872233
 10
134.307
 20
155.5390139872233
 10
124.307
 20
155.5390139872233
 10
124.307
 20
153.5390139872233
 97
0
 75
0
 76
1
 98
0
  0
LWPOLYLINE
  5
22E
330
17
100
AcDbEntity
  8
MAT-CONCRETE
  6
Continuous
370
35
100
AcDbPolyline
 90
12
 70
1
 10
124.307
 20
153.5390139872233
 10
126.307
 20
153.5390139872233
 10
126.307
 20
105.5390139872233
 10
124.207
 20
105.5390139872233
 10
124.207
 20
103.5390139872233
 10
145.242
 20
103.5390139872233
 10
145.242
 20
105.5390139872233
 10
128.307
 20
105.5390139872233
 10
128.307
 20
153.5390139872233
 10
134.307
 20
153.5390139872233
 10
134.307
 20
155.5390139872233
 10
124.307
 20
155.5390139872233
  0
HATCH
  5
22F
330
17
100
AcDbEntity
  8
MAT-CONCRETE
 62
7
100
AcDbHatch
 10
0.0
 20
0.0
 30
0.0
210
0.0
220
0.0
230
1.0
  2
SOLID
 70
1
 71
0
 91
1
 92
3
 72
0
 73
1
 93
5
 10
68.307
 20
150.5390139872233
 10
66.307
 20
150.5390139872233
 10
66.307
 20
108.5390139872233
 10
68.307
 20
108.5390139872233
 10
68.307
 20
150.5390139872233
 97
0
 75
0
 76
1
 98
0
  0
LWPOLYLINE
  5
230
330
17
100
AcDbEntity
  8
MAT-CONCRETE
  6
Continuous
370
35
100
AcDbPolyline
 90
4
 70
1
 10
68.307
 20
150.5390139872233
 10
66.307
 20
150.5390139872233
 10
66.307
 20
108.5390139872233
 10
68.307
 20
108.5390139872233
  0
HATCH
  5
231
330
17
100
AcDbEntity
  8
MAT-CONCRETE
 62
7
100
AcDbHatch
 10
0.0
 20
0.0
 30
0.0
210
0.0
220
0.0
230
1.0
  2
SOLID
 70
1
 71
0
 91
1
 92
3
 72
0
 73
1
 93
5
 10
85.207
 20
103.5390139872233
 10
85.207
 20
105.5390139872233
 10
71.307
 20
105.5390139872233
 10
71.307
 20
103.5390139872233
 10
85.207
 20
103.5390139872233
 97
0
 75
0
 76
1
 98
0
  0
LWPOLYLINE
  5
232
330
17
100
AcDbEntity
  8
MAT-CONCRETE
  6
Continuous
370
35
100
AcDbPolyline
 90
4
 70
1
 10
85.207
 20
103.5390139872233
 10
85.207
 20
105.5390139872233
 10
71.307
 20
105.5390139872233
 10
71.307
 20
103.5390139872233
  0
HATCH
  5
233
330
17
100
AcDbEntity
  8
MAT-CONCRETE
 62
7
100
AcDbHatch
 10
0.0
 20
0.0
 30
0.0
210
0.0
220
0.0
230
1.0
  2
SOLID
 70
1
 71
0
 91
1
 92
3
 72
0
 73
1
 93
5
 10
154.242
 20
103.5390139872233
 10
156.307
 20
103.5390139872233
 10
156.307
 20
105.5390139872233
 10
154.242
 20
105.5390139872233
 10
154.242
 20
103.5390139872233
 97
0
 75
0
 76
1
 98
0
  0
LWPOLYLINE
  5
234
330
17
100
AcDbEntity
  8
MAT-CONCRETE
  6
Continuous
370
35
100
AcDbPolyline
 90
4
 70
1
 10
154.242
 20
103.5390139872233
 10
156.307
 20
103.5390139872233
 10
156.307
 20
105.5390139872233
 10
154.242
 20
105.5390139872233
  0
HATCH
  5
235
330
17
100
AcDbEntity
  8
MAT-CONCRETE
 62
7
100
AcDbHatch
 10
0.0
 20
0.0
 30
0.0
210
0.0
220
0.0
230
1.0
  2
SOLID
 70
1
 71
0
 91
1
 92
3
 72
0
 73
1
 93
5
 10
66.307
 20
103.5390139872233
 10
66.307
 20
99.5390139872233
 10
68.307
 20
99.5390139872233
 10
68.307
 20
103.5390139872233
 10
66.307
 20
103.5390139872233
 97
0
 75
0
 76
1
 98
0
  0
LWPOLYLINE
  5
236
330
17
100
AcDbEntity
  8
MAT-CONCRETE
  6
Continuous
370
35
100
AcDbPolyline
 90
4
 70
1
 10
66.307
 20
103.5390139872233
 10
66.307
 20
99.5390139872233
 10
68.307
 20
99.5390139872233
 10
68.307
 20
103.5390139872233
  0
HATCH
  5
237
330
17
100
AcDbEntity
  8
MAT-CONCRETE
 62
7
100
AcDbHatch
 10
0.0
 20
0.0
 30
0.0
210
0.0
220
0.0
230
1.0
  2
SOLID
 70
1
 71
0
 91
1
 92
3
 72
0
 73
1
 93
7
 10
68.307
 20
93.5390139872233
 10
66.307
 20
93.5390139872233
 10
66.307
 20
83.53901398722329
 10
145.242
 20
83.53901398722329
 10
145.242
 20
85.53901398722329
 10
68.307
 20
85.53901398722329
 10
68.307
 20
93.5390139872233
 97
0
 75
0
 76
1
 98
0
  0
LWPOLYLINE
  5
238
330
17
100
AcDbEntity
  8
MAT-CONCRETE
  6
Continuous
370
35
100
AcDbPolyline
 90
6
 70
1
 10
68.307
 20
93.5390139872233
 10
66.307
 20
93.5390139872233
 10
66.307
 20
83.53901398722329
 10
145.242
 20
83.53901398722329
 10
145.242
 20
85.53901398722329
 10
68.307
 20
85.53901398722329
  0
HATCH
  5
239
330
17
100
AcDbEntity
  8
MAT-CONCRETE
 62
7
100
AcDbHatch
 10
0.0
 20
0.0
 30
0.0
210
0.0
220
0.0
230
1.0
  2
SOLID
 70
1
 71
0
 91
1
 92
3
 72
0
 73
1
 93
5
 10
154.307
 20
155.5390139872233
 10
154.307
 20
153.5390139872233
 10
156.307
 20
153.5390139872233
 10
156.307
 20
155.5390139872233
 10
154.307
 20
155.5390139872233
 97
0
 75
0
 76
1
 98
0
  0
LWPOLYLINE
  5
23A
330
17
100
AcDbEntity
  8
MAT-CONCRETE
  6
Continuous
370
35
100
AcDbPolyline
 90
4
 70
1
 10
154.307
 20
155.5390139872233
 10
154.307
 20
153.5390139872233
 10
156.307
 20
153.5390139872233
 10
156.307
 20
155.5390139872233
  0
HATCH
  5
23B
330
17
100
AcDbEntity
  8
MAT-CONCRETE
 62
7
100
AcDbHatch
 10
0.0
 20
0.0
 30
0.0
210
0.0
220
0.0
230
1.0
  2
SOLID
 70
1
 71
0
 91
1
 92
3
 72
0
 73
1
 93
19
 10
206.307
 20
153.5390139872233
 10
206.307
 20
103.5390139872233
 10
209.969
 20
103.5390139872233
 10
209.969
 20
105.5390139872233
 10
208.307
 20
105.5390139872233
 10
208.307
 20
138.5390139872233
 10
236.307
 20
138.5390139872233
 10
236.307
 20
108.5390139872233
 10
238.307
 20
108.5390139872233
 10
238.307
 20
150.5390139872233
 10
236.307
 20
150.5390139872233
 10
236.307
 20
140.5390139872233
 10
223.307
 20
140.5390139872233
 10
223.307
 20
153.5390139872233
 10
233.307
 20
153.5390139872233
 10
233.307
 20
155.5390139872233
 10
161.307
 20
155.5390139872233
 10
161.307
 20
153.5390139872233
 10
206.307
 20
153.5390139872233
 97
0
 75
0
 76
1
 98
0
  0
LWPOLYLINE
  5
23C
330
17
100
AcDbEntity
  8
MAT-CONCRETE
  6
Continuous
370
35
100
AcDbPolyline
 90
18
 70
1
 10
206.307
 20
153.5390139872233
 10
206.307
 20
103.5390139872233
 10
209.969
 20
103.5390139872233
 10
209.969
 20
105.5390139872233
 10
208.307
 20
105.5390139872233
 10
208.307
 20
138.5390139872233
 10
236.307
 20
138.5390139872233
 10
236.307
 20
108.5390139872233
 10
238.307
 20
108.5390139872233
 10
238.307
 20
150.5390139872233
 10
236.307
 20
150.5390139872233
 10
236.307
 20
140.5390139872233
 10
223.307
 20
140.5390139872233
 10
223.307
 20
153.5390139872233
 10
233.307
 20
153.5390139872233
 10
233.307
 20
155.5390139872233
 10
161.307
 20
155.5390139872233
 10
161.307
 20
153.5390139872233
  0
HATCH
  5
23D
330
17
100
AcDbEntity
  8
MAT-CONCRETE
 62
7
100
AcDbHatch
 10
0.0
 20
0.0
 30
0.0
210
0.0
220
0.0
230
1.0
  2
SOLID
 70
1
 71
0
 91
1
 92
3
 72
0
 73
1
 93
5
 10
221.307
 20
140.5390139872233
 10
208.307
 20
140.5390139872233
 10
208.307
 20
153.5390139872233
 10
221.307
 20
153.5390139872233
 10
221.307
 20
140.5390139872233
 97
0
 75
0
 76
1
 98
0
  0
LWPOLYLINE
  5
23E
330
17
100
AcDbEntity
  8
MAT-CONCRETE
  6
Continuous
370
35
100
AcDbPolyline
 90
4
 70
1
 10
221.307
 20
140.5390139872233
 10
208.307
 20
140.5390139872233
 10
208.307
 20
153.5390139872233
 10
221.307
 20
153.5390139872233
  0
HATCH
  5
23F
330
17
100
AcDbEntity
  8
MAT-CONCRETE
 62
7
100
AcDbHatch
 10
0.0
 20
0.0
 30
0.0
210
0.0
220
0.0
230
1.0
  2
SOLID
 70
1
 71
0
 91
1
 92
3
 72
0
 73
1
 93
5
 10
158.307
 20
150.5390139872233
 10
156.307
 20
150.5390139872233
 10
156.307
 20
108.5390139872233
 10
158.307
 20
108.5390139872233
 10
158.307
 20
150.5390139872233
 97
0
 75
0
 76
1
 98
0
  0
LWPOLYLINE
  5
240
330
17
100
AcDbEntity
  8
MAT-CONCRETE
  6
Continuous
370
35
100
AcDbPolyline
 90
4
 70
1
 10
158.307
 20
150.5390139872233
 10
156.307
 20
150.5390139872233
 10
156.307
 20
108.5390139872233
 10
158.307
 20
108.5390139872233
  0
HATCH
  5
241
330
17
100
AcDbEntity
  8
MAT-CONCRETE
 62
7
100
AcDbHatch
 10
0.0
 20
0.0
 30
0.0
210
0.0
220
0.0
230
1.0
  2
SOLID
 70
1
 71
0
 91
1
 92
3
 72
0
 73
1
 93
5
 10
218.969
 20
103.5390139872233
 10
233.307
 20
103.5390139872233
 10
233.307
 20
105.5390139872233
 10
218.969
 20
105.5390139872233
 10
218.969
 20
103.5390139872233
 97
0
 75
0
 76
1
 98
0
  0
LWPOLYLINE
  5
242
330
17
100
AcDbEntity
  8
MAT-CONCRETE
  6
Continuous
370
35
100
AcDbPolyline
 90
4
 70
1
 10
218.969
 20
103.5390139872233
 10
233.307
 20
103.5390139872233
 10
233.307
 20
105.5390139872233
 10
218.969
 20
105.5390139872233
  0
HATCH
  5
243
330
17
100
AcDbEntity
  8
MAT-CONCRETE
 62
7
100
AcDbHatch
 10
0.0
 20
0.0
 30
0.0
210
0.0
220
0.0
230
1.0
  2
SOLID
 70
1
 71
0
 91
1
 92
3
 72
0
 73
1
 93
7
 10
154.242
 20
83.53901398722329
 10
238.307
 20
83.53901398722329
 10
238.307
 20
103.5390139872233
 10
236.307
 20
103.5390139872233
 10
236.307
 20
85.53901398722329
 10
154.242
 20
85.53901398722329
 10
154.242
 20
83.53901398722329
 97
0
 75
0
 76
1
 98
0
  0
LWPOLYLINE
  5
244
330
17
100
AcDbEntity
  8
MAT-CONCRETE
  6
Continuous
370
35
100
AcDbPolyline
 90
6
 70
1
 10
154.242
 20
83.53901398722329
 10
238.307
 20
83.53901398722329
 10
238.307
 20
103.5390139872233
 10
236.307
 20
103.5390139872233
 10
236.307
 20
85.53901398722329
 10
154.242
 20
85.53901398722329
  0
HATCH
  5
245
330
17
100
AcDbEntity
  8
MAT-CONCRETE
 62
7
100
AcDbHatch
 10
0.0
 20
0.0
 30
0.0
210
0.0
220
0.0
230
1.0
  2
SOLID
 70
1
 71
0
 91
1
 92
3
 72
0
 73
1
 93
5
 10
71.307
 20
153.5390139872233
 10
74.307
 20
153.5390139872233
 10
74.307
 20
155.5390139872233
 10
71.307
 20
155.5390139872233
 10
71.307
 20
153.5390139872233
 97
0
 75
0
 76
1
 98
0
  0
LWPOLYLINE
  5
246
330
17
100
AcDbEntity
  8
MAT-CONCRETE
  6
Continuous
370
35
100
AcDbPolyline
 90
4
 70
1
 10
71.307
 20
153.5390139872233
 10
74.307
 20
153.5390139872233
 10
74.307
 20
155.5390139872233
 10
71.307
 20
155.5390139872233
  0
HATCH
  5
247
330
17
100
AcDbEntity
  8
MAT-CONCRETE
 62
7
100
AcDbHatch
 10
0.0
 20
0.0
 30
0.0
210
0.0
220
0.0
230
1.0
  2
SOLID
 70
1
 71
0
 91
1
 92
3
 72
0
 73
1
 93
13
 10
96.307
 20
153.5390139872233
 10
96.307
 20
105.5390139872233
 10
94.207
 20
105.5390139872233
 10
94.207
 20
103.5390139872233
 10
115.207
 20
103.5390139872233
 10
115.207
 20
105.5390139872233
 10
98.307
 20
105.5390139872233
 10
98.307
 20
153.5390139872233
 10
104.307
 20
153.5390139872233
 10
104.307
 20
155.5390139872233
 10
94.307
 20
155.5390139872233
 10
94.307
 20
153.5390139872233
 10
96.307
 20
153.5390139872233
 97
0
 75
0
 76
1
 98
0
  0
LWPOLYLINE
  5
248
330
17
100
AcDbEntity
  8
MAT-CONCRETE
  6
Continuous
370
35
100
AcDbPolyline
 90
12
 70
1
 10
96.307
 20
153.5390139872233
 10
96.307
 20
105.5390139872233
 10
94.207
 20
105.5390139872233
 10
94.207
 20
103.5390139872233
 10
115.207
 20
103.5390139872233
 10
115.207
 20
105.5390139872233
 10
98.307
 20
105.5390139872233
 10
98.307
 20
153.5390139872233
 10
104.307
 20
153.5390139872233
 10
104.307
 20
155.5390139872233
 10
94.307
 20
155.5390139872233
 10
94.307
 20
153.5390139872233
  0
HATCH
  5
249
330
17
100
AcDbEntity
  8
MAT-CONCRETE
 62
7
100
AcDbHatch
 10
0.0
 20
0.0
 30
0.0
210
0.0
220
0.0
230
1.0
  2
SOLID
 70
1
 71
0
 91
1
 92
3
 72
0
 73
1
 93
14
 10
126.307
 20
131.2780139872233
 10
126.307
 20
105.5390139872233
 10
124.207
 20
105.5390139872233
 10
124.207
 20
103.5390139872233
 10
145.242
 20
103.5390139872233
 10
145.242
 20
105.5390139872233
 10
128.307
 20
105.5390139872233
 10
128.307
 20
153.5390139872233
 10
134.307
 20
153.5390139872233
 10
134.307
 20
155.5390139872233
 10
124.307
 20
155.5390139872233
 10
124.307
 20
153.5390139872233
 10
126.307
 20
153.5390139872233
 10
126.307
 20
131.2780139872233
 97
0
 75
0
 76
1
 98
0
  0
LWPOLYLINE
  5
24A
330
17
100
AcDbEntity
  8
MAT-CONCRETE
  6
Continuous
370
35
100
AcDbPolyline
 90
13
 70
1
 10
126.307
 20
131.2780139872233
 10
126.307
 20
105.5390139872233
 10
124.207
 20
105.5390139872233
 10
124.207
 20
103.5390139872233
 10
145.242
 20
103.5390139872233
 10
145.242
 20
105.5390139872233
 10
128.307
 20
105.5390139872233
 10
128.307
 20
153.5390139872233
 10
134.307
 20
153.5390139872233
 10
134.307
 20
155.5390139872233
 10
124.307
 20
155.5390139872233
 10
124.307
 20
153.5390139872233
 10
126.307
 20
153.5390139872233
  0
HATCH
  5
24B
330
17
100
AcDbEntity
  8
MAT-CONCRETE
 62
7
100
AcDbHatch
 10
0.0
 20
0.0
 30
0.0
210
0.0
220
0.0
230
1.0
  2
SOLID
 70
1
 71
0
 91
1
 92
3
 72
0
 73
1
 93
6
 10
66.307
 20
130.9390139872233
 10
66.307
 20
108.5390139872233
 10
68.307
 20
108.5390139872233
 10
68.307
 20
150.5390139872233
 10
66.307
 20
150.5390139872233
 10
66.307
 20
130.9390139872233
 97
0
 75
0
 76
1
 98
0
  0
LWPOLYLINE
  5
24C
330
17
100
AcDbEntity
  8
MAT-CONCRETE
  6
Continuous
370
35
100
AcDbPolyline
 90
5
 70
1
 10
66.307
 20
130.9390139872233
 10
66.307
 20
108.5390139872233
 10
68.307
 20
108.5390139872233
 10
68.307
 20
150.5390139872233
 10
66.307
 20
150.5390139872233
  0
HATCH
  5
24D
330
17
100
AcDbEntity
  8
MAT-CONCRETE
 62
7
100
AcDbHatch
 10
0.0
 20
0.0
 30
0.0
210
0.0
220
0.0
230
1.0
  2
SOLID
 70
1
 71
0
 91
1
 92
3
 72
0
 73
1
 93
6
 10
82.427
 20
103.5390139872233
 10
85.207
 20
103.5390139872233
 10
85.207
 20
105.5390139872233
 10
71.307
 20
105.5390139872233
 10
71.307
 20
103.5390139872233
 10
82.427
 20
103.5390139872233
 97
0
 75
0
 76
1
 98
0
  0
LWPOLYLINE
  5
24E
330
17
100
AcDbEntity
  8
MAT-CONCRETE
  6
Continuous
370
35
100
AcDbPolyline
 90
5
 70
1
 10
82.427
 20
103.5390139872233
 10
85.207
 20
103.5390139872233
 10
85.207
 20
105.5390139872233
 10
71.307
 20
105.5390139872233
 10
71.307
 20
103.5390139872233
  0
HATCH
  5
24F
330
17
100
AcDbEntity
  8
MAT-CONCRETE
 62
7
100
AcDbHatch
 10
0.0
 20
0.0
 30
0.0
210
0.0
220
0.0
230
1.0
  2
SOLID
 70
1
 71
0
 91
1
 92
3
 72
0
 73
1
 93
5
 10
68.307
 20
99.5390139872233
 10
68.307
 20
103.5390139872233
 10
66.307
 20
103.5390139872233
 10
66.307
 20
99.5390139872233
 10
68.307
 20
99.5390139872233
 97
0
 75
0
 76
1
 98
0
  0
LWPOLYLINE
  5
250
330
17
100
AcDbEntity
  8
MAT-CONCRETE
  6
Continuous
370
35
100
AcDbPolyline
 90
4
 70
1
 10
68.307
 20
99.5390139872233
 10
68.307
 20
103.5390139872233
 10
66.307
 20
103.5390139872233
 10
66.307
 20
99.5390139872233
  0
HATCH
  5
251
330
17
100
AcDbEntity
  8
MAT-CONCRETE
 62
7
100
AcDbHatch
 10
0.0
 20
0.0
 30
0.0
210
0.0
220
0.0
230
1.0
  2
SOLID
 70
1
 71
0
 91
1
 92
3
 72
0
 73
1
 93
8
 10
68.307
 20
83.53901398722329
 10
145.242
 20
83.53901398722329
 10
145.242
 20
85.53901398722329
 10
68.307
 20
85.53901398722329
 10
68.307
 20
93.5390139872233
 10
66.307
 20
93.5390139872233
 10
66.307
 20
83.53901398722329
 10
68.307
 20
83.53901398722329
 97
0
 75
0
 76
1
 98
0
  0
LWPOLYLINE
  5
252
330
17
100
AcDbEntity
  8
MAT-CONCRETE
  6
Continuous
370
35
100
AcDbPolyline
 90
7
 70
1
 10
68.307
 20
83.53901398722329
 10
145.242
 20
83.53901398722329
 10
145.242
 20
85.53901398722329
 10
68.307
 20
85.53901398722329
 10
68.307
 20
93.5390139872233
 10
66.307
 20
93.5390139872233
 10
66.307
 20
83.53901398722329
  0
HATCH
  5
253
330
17
100
AcDbEntity
  8
MAT-CONCRETE
 62
7
100
AcDbHatch
 10
0.0
 20
0.0
 30
0.0
210
0.0
220
0.0
230
1.0
  2
SOLID
 70
1
 71
0
 91
1
 92
3
 72
0
 73
1
 93
6
 10
154.973
 20
153.5390139872233
 10
156.307
 20
153.5390139872233
 10
156.307
 20
155.5390139872233
 10
154.307
 20
155.5390139872233
 10
154.307
 20
153.5390139872233
 10
154.973
 20
153.5390139872233
 97
0
 75
0
 76
1
 98
0
  0
LWPOLYLINE
  5
254
330
17
100
AcDbEntity
  8
MAT-CONCRETE
  6
Continuous
370
35
100
AcDbPolyline
 90
5
 70
1
 10
154.973
 20
153.5390139872233
 10
156.307
 20
153.5390139872233
 10
156.307
 20
155.5390139872233
 10
154.307
 20
155.5390139872233
 10
154.307
 20
153.5390139872233
  0
HATCH
  5
255
330
17
100
AcDbEntity
  8
MAT-CONCRETE
 62
7
100
AcDbHatch
 10
0.0
 20
0.0
 30
0.0
210
0.0
220
0.0
230
1.0
  2
SOLID
 70
1
 71
0
 91
1
 92
3
 72
0
 73
1
 93
19
 10
236.307
 20
138.5390139872233
 10
236.307
 20
108.5390139872233
 10
238.307
 20
108.5390139872233
 10
238.307
 20
150.5390139872233
 10
236.307
 20
150.5390139872233
 10
236.307
 20
140.5390139872233
 10
223.307
 20
140.5390139872233
 10
223.307
 20
153.5390139872233
 10
233.307
 20
153.5390139872233
 10
233.307
 20
155.5390139872233
 10
161.307
 20
155.5390139872233
 10
161.307
 20
153.5390139872233
 10
206.307
 20
153.5390139872233
 10
206.307
 20
103.5390139872233
 10
209.969
 20
103.5390139872233
 10
209.969
 20
105.5390139872233
 10
208.307
 20
105.5390139872233
 10
208.307
 20
138.5390139872233
 10
236.307
 20
138.5390139872233
 97
0
 75
0
 76
1
 98
0
  0
LWPOLYLINE
  5
256
330
17
100
AcDbEntity
  8
MAT-CONCRETE
  6
Continuous
370
35
100
AcDbPolyline
 90
18
 70
1
 10
236.307
 20
138.5390139872233
 10
236.307
 20
108.5390139872233
 10
238.307
 20
108.5390139872233
 10
238.307
 20
150.5390139872233
 10
236.307
 20
150.5390139872233
 10
236.307
 20
140.5390139872233
 10
223.307
 20
140.5390139872233
 10
223.307
 20
153.5390139872233
 10
233.307
 20
153.5390139872233
 10
233.307
 20
155.5390139872233
 10
161.307
 20
155.5390139872233
 10
161.307
 20
153.5390139872233
 10
206.307
 20
153.5390139872233
 10
206.307
 20
103.5390139872233
 10
209.969
 20
103.5390139872233
 10
209.969
 20
105.5390139872233
 10
208.307
 20
105.5390139872233
 10
208.307
 20
138.5390139872233
  0
HATCH
  5
257
330
17
100
AcDbEntity
  8
MAT-CONCRETE
 62
7
100
AcDbHatch
 10
0.0
 20
0.0
 30
0.0
210
0.0
220
0.0
230
1.0
  2
SOLID
 70
1
 71
0
 91
1
 92
3
 72
0
 73
1
 93
5
 10
208.307
 20
153.5390139872233
 10
221.307
 20
153.5390139872233
 10
221.307
 20
140.5390139872233
 10
208.307
 20
140.5390139872233
 10
208.307
 20
153.5390139872233
 97
0
 75
0
 76
1
 98
0
  0
LWPOLYLINE
  5
258
330
17
100
AcDbEntity
  8
MAT-CONCRETE
  6
Continuous
370
35
100
AcDbPolyline
 90
4
 70
1
 10
208.307
 20
153.5390139872233
 10
221.307
 20
153.5390139872233
 10
221.307
 20
140.5390139872233
 10
208.307
 20
140.5390139872233
  0
HATCH
  5
259
330
17
100
AcDbEntity
  8
MAT-CONCRETE
 62
7
100
AcDbHatch
 10
0.0
 20
0.0
 30
0.0
210
0.0
220
0.0
230
1.0
  2
SOLID
 70
1
 71
0
 91
1
 92
3
 72
0
 73
1
 93
5
 10
156.307
 20
108.5390139872233
 10
158.307
 20
108.5390139872233
 10
158.307
 20
150.5390139872233
 10
156.307
 20
150.5390139872233
 10
156.307
 20
108.5390139872233
 97
0
 75
0
 76
1
 98
0
  0
LWPOLYLINE
  5
25A
330
17
100
AcDbEntity
  8
MAT-CONCRETE
  6
Continuous
370
35
100
AcDbPolyline
 90
4
 70
1
 10
156.307
 20
108.5390139872233
 10
158.307
 20
108.5390139872233
 10
158.307
 20
150.5390139872233
 10
156.307
 20
150.5390139872233
  0
HATCH
  5
25B
330
17
100
AcDbEntity
  8
MAT-CONCRETE
 62
7
100
AcDbHatch
 10
0.0
 20
0.0
 30
0.0
210
0.0
220
0.0
230
1.0
  2
SOLID
 70
1
 71
0
 91
1
 92
3
 72
0
 73
1
 93
6
 10
154.655
 20
103.5390139872233
 10
156.307
 20
103.5390139872233
 10
156.307
 20
105.5390139872233
 10
154.242
 20
105.5390139872233
 10
154.242
 20
103.5390139872233
 10
154.655
 20
103.5390139872233
 97
0
 75
0
 76
1
 98
0
  0
LWPOLYLINE
  5
25C
330
17
100
AcDbEntity
  8
MAT-CONCRETE
  6
Continuous
370
35
100
AcDbPolyline
 90
5
 70
1
 10
154.655
 20
103.5390139872233
 10
156.307
 20
103.5390139872233
 10
156.307
 20
105.5390139872233
 10
154.242
 20
105.5390139872233
 10
154.242
 20
103.5390139872233
  0
HATCH
  5
25D
330
17
100
AcDbEntity
  8
MAT-CONCRETE
 62
7
100
AcDbHatch
 10
0.0
 20
0.0
 30
0.0
210
0.0
220
0.0
230
1.0
  2
SOLID
 70
1
 71
0
 91
1
 92
3
 72
0
 73
1
 93
5
 10
218.969
 20
103.5390139872233
 10
233.307
 20
103.5390139872233
 10
233.307
 20
105.5390139872233
 10
218.969
 20
105.5390139872233
 10
218.969
 20
103.5390139872233
 97
0
 75
0
 76
1
 98
0
  0
LWPOLYLINE
  5
25E
330
17
100
AcDbEntity
  8
MAT-CONCRETE
  6
Continuous
370
35
100
AcDbPolyline
 90
4
 70
1
 10
218.969
 20
103.5390139872233
 10
233.307
 20
103.5390139872233
 10
233.307
 20
105.5390139872233
 10
218.969
 20
105.5390139872233
  0
HATCH
  5
25F
330
17
100
AcDbEntity
  8
MAT-CONCRETE
 62
7
100
AcDbHatch
 10
0.0
 20
0.0
 30
0.0
210
0.0
220
0.0
230
1.0
  2
SOLID
 70
1
 71
0
 91
1
 92
3
 72
0
 73
1
 93
7
 10
236.307
 20
85.53901398722329
 10
154.242
 20
85.53901398722329
 10
154.242
 20
83.53901398722329
 10
238.307
 20
83.53901398722329
 10
238.307
 20
103.5390139872233
 10
236.307
 20
103.5390139872233
 10
236.307
 20
85.53901398722329
 97
0
 75
0
 76
1
 98
0
  0
LWPOLYLINE
  5
260
330
17
100
AcDbEntity
  8
MAT-CONCRETE
  6
Continuous
370
35
100
AcDbPolyline
 90
6
 70
1
 10
236.307
 20
85.53901398722329
 10
154.242
 20
85.53901398722329
 10
154.242
 20
83.53901398722329
 10
238.307
 20
83.53901398722329
 10
238.307
 20
103.5390139872233
 10
236.307
 20
103.5390139872233
  0
LWPOLYLINE
  5
261
330
17
100
AcDbEntity
  8
MAT-NULL
  6
Continuous
100
AcDbPolyline
 90
5
 70
1
 10
141.37324333190918
 20
153.53935941060382
 10
128.30657958984375
 20
153.53935941060382
 10
128.30656051635742
 20
105.5393575032552
 10
156.30657196044922
 20
105.5393575032552
 10
156.30657196044922
 20
153.53935941060382
  0
LWPOLYLINE
  5
262
330
17
100
AcDbEntity
  8
MAT-NULL
  6
Continuous
100
AcDbPolyline
 90
4
 70
1
 10
208.3065891265869
 20
153.53935941060382
 10
208.3065891265869
 20
140.53936703999835
 10
221.30656242370605
 20
140.53936703999835
 10
221.30658149719238
 20
153.53935941060382
  0
LWPOLYLINE
  5
263
330
17
100
AcDbEntity
  8
MAT-NULL
  6
Continuous
100
AcDbPolyline
 90
6
 70
1
 10
233.3065700531006
 20
150.53936703999835
 10
233.3065700531006
 20
153.53935941060382
 10
223.3065700531006
 20
153.53935941060382
 10
223.3065700531006
 20
140.53936703999835
 10
236.30656242370605
 20
140.53936703999835
 10
236.30656242370605
 20
150.53936703999835
  0
LWPOLYLINE
  5
264
330
17
100
AcDbEntity
  8
MAT-NULL
  6
Continuous
100
AcDbPolyline
 90
5
 70
1
 10
111.3732385635376
 20
153.53935941060382
 10
98.30657005310059
 20
153.53935941060382
 10
98.30655574798584
 20
105.5393575032552
 10
126.30656242370605
 20
105.5393575032552
 10
126.30657196044922
 20
153.53935941060382
  0
LWPOLYLINE
  5
265
330
17
100
AcDbEntity
  8
MAT-NULL
  6
Continuous
100
AcDbPolyline
 90
8
 70
1
 10
96.30656242370605
 20
105.5393575032552
 10
96.3065767288208
 20
153.53935941060382
 10
71.30655765533447
 20
153.53935941060382
 10
71.30655765533447
 20
150.53936703999835
 10
68.30657005310059
 20
150.53936703999835
 10
68.30655097961426
 20
108.53935941060384
 10
71.30655765533447
 20
108.53935941060384
 10
71.30655765533447
 20
105.5393575032552
  0
LWPOLYLINE
  5
266
330
17
100
AcDbEntity
  8
MAT-NULL
  6
Continuous
100
AcDbPolyline
 90
12
 70
1
 10
158.30656051635742
 20
150.53936703999835
 10
158.30655097961426
 20
108.53935941060384
 10
161.30657196044922
 20
108.53935941060384
 10
161.30657196044922
 20
103.53935941060384
 10
68.30656051635742
 20
103.53935941060384
 10
68.30655097961426
 20
85.53935750325522
 10
236.3065242767334
 20
85.53935750325522
 10
236.30656242370605
 20
103.53935941060384
 10
206.30656242370605
 20
103.53935941060384
 10
206.30658149719238
 20
153.53935941060382
 10
161.30657196044922
 20
153.53935941060382
 10
161.30657196044922
 20
150.53936703999835
  0
LWPOLYLINE
  5
267
330
17
100
AcDbEntity
  8
MAT-NULL
  6
Continuous
100
AcDbPolyline
 90
7
 70
1
 10
221.6399097442627
 20
105.5393575032552
 10
233.3065700531006
 20
105.5393575032552
 10
233.3065700531006
 20
108.53935941060384
 10
236.30654335021973
 20
108.53935941060384
 10
236.30656242370605
 20
138.53935941060382
 10
208.3065891265869
 20
138.53935941060382
 10
208.3065700531006
 20
105.5393575032552
  0
LINE
  5
269
330
17
100
AcDbEntity
  8
A-ANNO
  6
Continuous
370
18
420
0
100
AcDbLine
 10
20.20716667175293
 20
104.53933588663736
 30
0.0
 11
280.68585205078125
 21
104.53933588663736
 31
0.0
  0
TEXT
  5
26B
330
17
100
AcDbEntity
  8
A-GRID
  6
Continuous
370
18
420
0
100
AcDbText
 10
20.20716667175293
 20
104.53933588663736
 30
0.0
 40
1.0927291666666668
  1
Y02
 72
1
 11
20.20716667175293
 21
104.53933588663736
 31
0.0
100
AcDbText
  0
TEXT
  5
26C
330
17
100
AcDbEntity
  8
A-GRID
  6
Continuous
370
18
420
0
100
AcDbText
 10
280.68585205078125
 20
104.53933588663736
 30
0.0
 40
1.0927291666666668
  1
Y02
 72
1
 11
280.68585205078125
 21
104.53933588663736
 31
0.0
100
AcDbText
  0
LINE
  5
26D
330
17
100
AcDbEntity
  8
A-ANNO
  6
Continuous
370
18
420
0
100
AcDbLine
 10
67.30656433105469
 20
7.17898432413736
 30
0.0
 11
67.30656433105469
 21
195.54712931315103
 31
0.0
  0
TEXT
  5
26E
330
17
100
AcDbEntity
  8
A-GRID
  6
Continuous
370
18
420
0
100
AcDbText
 10
67.30656433105469
 20
7.17898432413736
 30
0.0
 40
1.0927291666666668
  1
X01
 72
1
 11
67.30656433105469
 21
7.17898432413736
 31
0.0
100
AcDbText
  0
TEXT
  5
26F
330
17
100
AcDbEntity
  8
A-GRID
  6
Continuous
370
18
420
0
100
AcDbText
 10
67.30656433105469
 20
195.54712931315103
 30
0.0
 40
1.0927291666666668
  1
X01
 72
1
 11
67.30656433105469
 21
195.54712931315103
 31
0.0
100
AcDbText
  0
LINE
  5
271
330
17
100
AcDbEntity
  8
A-DIMS
  6
Continuous
370
18
420
0
100
AcDbLine
 10
67.30656433105469
 20
171.54717127482095
 30
0.0
 11
97.30657958984375
 21
171.54717127482095
 31
0.0
  0
TEXT
  5
273
330
17
100
AcDbEntity
  8
A-TEXT
  6
Continuous
370
18
420
0
100
AcDbText
 10
82.30657196044922
 20
172.54717127482095
 30
0.0
 40
2.5
  1
3000
 72
1
 11
82.30657196044922
 21
172.54717127482095
 31
0.0
100
AcDbText
  0
LINE
  5
274
330
17
100
AcDbEntity
  8
A-DIMS
  6
Continuous
370
18
420
0
100
AcDbLine
 10
97.30657958984375
 20
171.54717127482095
 30
0.0
 11
127.30656433105469
 21
171.54717127482095
 31
0.0
  0
TEXT
  5
275
330
17
100
AcDbEntity
  8
A-TEXT
  6
Continuous
370
18
420
0
100
AcDbText
 10
112.30657196044922
 20
172.54717127482095
 30
0.0
 40
2.5
  1
3000
 72
1
 11
112.30657196044922
 21
172.54717127482095
 31
0.0
100
AcDbText
  0
LINE
  5
276
330
17
100
AcDbEntity
  8
A-DIMS
  6
Continuous
370
18
420
0
100
AcDbLine
 10
127.30656433105469
 20
171.54717127482095
 30
0.0
 11
157.3065643310547
 21
171.54717127482095
 31
0.0
  0
TEXT
  5
277
330
17
100
AcDbEntity
  8
A-TEXT
  6
Continuous
370
18
420
0
100
AcDbText
 10
142.3065643310547
 20
172.54717127482095
 30
0.0
 40
2.5
  1
3000
 72
1
 11
142.3065643310547
 21
172.54717127482095
 31
0.0
100
AcDbText
  0
LINE
  5
278
330
17
100
AcDbEntity
  8
A-DIMS
  6
Continuous
370
18
420
0
100
AcDbLine
 10
157.3065643310547
 20
171.54717127482095
 30
0.0
 11
207.3065948486328
 21
171.54717127482095
 31
0.0
  0
TEXT
  5
279
330
17
100
AcDbEntity
  8
A-TEXT
  6
Continuous
370
18
420
0
100
AcDbText
 10
182.30657958984375
 20
172.54717127482095
 30
0.0
 40
2.5
  1
5000
 72
1
 11
182.30657958984375
 21
172.54717127482095
 31
0.0
100
AcDbText
  0
LINE
  5
27A
330
17
100
AcDbEntity
  8
A-DIMS
  6
Continuous
370
18
420
0
100
AcDbLine
 10
207.3065948486328
 20
171.54717127482095
 30
0.0
 11
222.3065948486328
 21
171.54717127482095
 31
0.0
  0
TEXT
  5
27B
330
17
100
AcDbEntity
  8
A-TEXT
  6
Continuous
370
18
420
0
100
AcDbText
 10
214.8065948486328
 20
172.54717127482095
 30
0.0
 40
2.5
  1
1500
 72
1
 11
214.8065948486328
 21
172.54717127482095
 31
0.0
100
AcDbText
  0
LINE
  5
27C
330
17
100
AcDbEntity
  8
A-DIMS
  6
Continuous
370
18
420
0
100
AcDbLine
 10
222.3065948486328
 20
171.54717127482095
 30
0.0
 11
237.3065185546875
 21
171.54717127482095
 31
0.0
  0
TEXT
  5
27D
330
17
100
AcDbEntity
  8
A-TEXT
  6
Continuous
370
18
420
0
100
AcDbText
 10
229.80654907226562
 20
172.54717127482095
 30
0.0
 40
2.5
  1
1500
 72
1
 11
229.80654907226562
 21
172.54717127482095
 31
0.0
100
AcDbText
  0
LINE
  5
27E
330
17
100
AcDbEntity
  8
A-ANNO
  6
Continuous
370
18
420
0
100
AcDbLine
 10
237.30654907226562
 20
7.17898432413736
 30
0.0
 11
237.30654907226562
 21
195.54714838663736
 31
0.0
  0
TEXT
  5
27F
330
17
100
AcDbEntity
  8
A-GRID
  6
Continuous
370
18
420
0
100
AcDbText
 10
237.30654907226562
 20
7.17898432413736
 30
0.0
 40
1.0927291666666668
  1
X03
 72
1
 11
237.30654907226562
 21
7.17898432413736
 31
0.0
100
AcDbText
  0
TEXT
  5
280
330
17
100
AcDbEntity
  8
A-GRID
  6
Continuous
370
18
420
0
100
AcDbText
 10
237.30654907226562
 20
195.54714838663736
 30
0.0
 40
1.0927291666666668
  1
X03
 72
1
 11
237.30654907226562
 21
195.54714838663736
 31
0.0
100
AcDbText
  0
TEXT
  5
281
330
17
100
AcDbEntity
  8
A-TEXT
  6
Continuous
370
18
420
0
100
AcDbText
 10
147.3798065185547
 20
-29.87173589070639
 30
0.0
 40
1.0927291666666668
  1
1
 72
1
 11
147.3798065185547
 21
-29.87173589070639
 31
0.0
100
AcDbText
  0
TEXT
  5
282
330
17
100
AcDbEntity
  8
A-TEXT
  6
Continuous
370
18
420
0
100
AcDbText
 10
147.3798065185547
 20
-34.87173589070639
 30
0.0
 40
1.0927291666666668
  1
A301
 72
1
 11
147.3798065185547
 21
-34.87173589070639
 31
0.0
100
AcDbText
  0
LINE
  5
283
330
17
100
AcDbEntity
  8
A-ANNO
  6
Continuous
370
18
420
0
100
AcDbLine
 10
43.30963134765625
 20
125.18166224161783
 30
0.0
 11
293.306640625
 21
125.18166224161783
 31
0.0
  0
TEXT
  5
284
330
17
100
AcDbEntity
  8
A-TEXT
  6
Continuous
370
18
420
0
100
AcDbText
 10
43.30963134765625
 20
127.68166224161783
 30
0.0
 40
1.0927291666666668
  1
1
 72
1
 11
43.30963134765625
 21
127.68166224161783
 31
0.0
100
AcDbText
  0
TEXT
  5
285
330
17
100
AcDbEntity
  8
A-TEXT
  6
Continuous
370
18
420
0
100
AcDbText
 10
43.30963134765625
 20
122.68166224161783
 30
0.0
 40
1.0927291666666668
  1
A201
 72
1
 11
43.30963134765625
 21
122.68166224161783
 31
0.0
100
AcDbText
  0
TEXT
  5
286
330
17
100
AcDbEntity
  8
A-TEXT
  6
Continuous
370
18
420
0
100
AcDbText
 10
293.306640625
 20
127.68166224161783
 30
0.0
 40
1.0927291666666668
  1
1
 72
1
 11
293.306640625
 21
127.68166224161783
 31
0.0
100
AcDbText
  0
TEXT
  5
287
330
17
100
AcDbEntity
  8
A-TEXT
  6
Continuous
370
18
420
0
100
AcDbText
 10
293.306640625
 20
122.68166224161783
 30
0.0
 40
1.0927291666666668
  1
A201
 72
1
 11
293.306640625
 21
122.68166224161783
 31
0.0
100
AcDbText
  0
LINE
  5
288
330
17
100
AcDbEntity
  8
A-DIMS
  6
Continuous
370
18
420
0
100
AcDbLine
 10
67.30656433105469
 20
183.54717890421549
 30
0.0
 11
237.30654907226562
 21
183.54717890421549
 31
0.0
  0
TEXT
  5
289
330
17
100
AcDbEntity
  8
A-TEXT
  6
Continuous
370
18
420
0
100
AcDbText
 10
152.30654907226562
 20
184.54717890421549
 30
0.0
 40
2.5
  1
17000
 72
1
 11
152.30654907226562
 21
184.54717890421549
 31
0.0
100
AcDbText
  0
LINE
  5
28A
330
17
100
AcDbEntity
  8
A-ANNO
  6
Continuous
370
18
420
0
100
AcDbLine
 10
20.20716667175293
 20
34.53935114542642
 30
0.0
 11
280.68585205078125
 21
34.53935114542642
 31
0.0
  0
TEXT
  5
28B
330
17
100
AcDbEntity
  8
A-GRID
  6
Continuous
370
18
420
0
100
AcDbText
 10
20.20716667175293
 20
34.53935114542642
 30
0.0
 40
1.0927291666666668
  1
Y01
 72
1
 11
20.20716667175293
 21
34.53935114542642
 31
0.0
100
AcDbText
  0
TEXT
  5
28C
330
17
100
AcDbEntity
  8
A-GRID
  6
Continuous
370
18
420
0
100
AcDbText
 10
280.68585205078125
 20
34.53935114542642
 30
0.0
 40
1.0927291666666668
  1
Y01
 72
1
 11
280.68585205078125
 21
34.53935114542642
 31
0.0
100
AcDbText
  0
LINE
  5
28D
330
17
100
AcDbEntity
  8
A-DIMS
  6
Continuous
370
18
420
0
100
AcDbLine
 10
67.30656433105469
 20
177.54717127482095
 30
0.0
 11
157.3065643310547
 21
177.54717127482095
 31
0.0
  0
TEXT
  5
28E
330
17
100
AcDbEntity
  8
A-TEXT
  6
Continuous
370
18
420
0
100
AcDbText
 10
112.30656433105469
 20
178.54717127482095
 30
0.0
 40
2.5
  1
9000
 72
1
 11
112.30656433105469
 21
178.54717127482095
 31
0.0
100
AcDbText
  0
LINE
  5
28F
330
17
100
AcDbEntity
  8
A-DIMS
  6
Continuous
370
18
420
0
100
AcDbLine
 10
157.3065643310547
 20
177.54717127482095
 30
0.0
 11
237.3065185546875
 21
177.54717127482095
 31
0.0
  0
TEXT
  5
290
330
17
100
AcDbEntity
  8
A-TEXT
  6
Continuous
370
18
420
0
100
AcDbText
 10
197.30654907226562
 20
178.54717127482095
 30
0.0
 40
2.5
  1
8000
 72
1
 11
197.30654907226562
 21
178.54717127482095
 31
0.0
100
AcDbText
  0
LINE
  5
291
330
17
100
AcDbEntity
  8
A-DIMS
  6
Continuous
370
18
420
0
100
AcDbLine
 10
37.207176208496094
 20
84.53948847452799
 30
0.0
 11
37.207176208496094
 21
104.53933588663736
 31
0.0
  0
TEXT
  5
292
330
17
100
AcDbEntity
  8
A-TEXT
  6
Continuous
370
18
420
0
100
AcDbText
 10
36.207176208496094
 20
94.53941218058267
 30
0.0
 40
2.5
  1
2000
 72
1
 11
36.207176208496094
 21
94.53941218058267
 31
0.0
100
AcDbText
  0
LINE
  5
293
330
17
100
AcDbEntity
  8
A-DIMS
  6
Continuous
370
18
420
0
100
AcDbLine
 10
37.207176208496094
 20
104.53933588663736
 30
0.0
 11
37.207176208496094
 21
154.5393435160319
 31
0.0
  0
TEXT
  5
294
330
17
100
AcDbEntity
  8
A-TEXT
  6
Continuous
370
18
420
0
100
AcDbText
 10
36.207176208496094
 20
129.53933588663736
 30
0.0
 40
2.5
  1
5000
 72
1
 11
36.207176208496094
 21
129.53933588663736
 31
0.0
100
AcDbText
  0
LWPOLYLINE
  5
295
330
17
100
AcDbEntity
  8
A-ANNO
  6
Continuous
370
18
420
0
100
AcDbPolyline
 90
3
 70
0
 10
110.30736446380615
 20
162.13362439473468
 10
99.55395698547363
 20
162.13362439473468
 10
99.50404167175293
 20
156.63937314351398
  0
TEXT
  5
296
330
17
100
AcDbEntity
  8
A-TEXT
  6
Continuous
370
18
420
0
100
AcDbText
 10
110.307373046875
 20
162.13362757364908
 30
0.0
 40
2.5
  1
T200 
100
AcDbText
  0
LINE
  5
297
330
17
100
AcDbEntity
  8
A-ANNO
  6
Continuous
370
18
420
0
100
AcDbLine
 10
20.20716667175293
 20
154.53936640421549
 30
0.0
 11
280.68585205078125
 21
154.53936640421549
 31
0.0
  0
TEXT
  5
298
330
17
100
AcDbEntity
  8
A-GRID
  6
Continuous
370
18
420
0
100
AcDbText
 10
20.20716667175293
 20
154.53936640421549
 30
0.0
 40
1.0927291666666668
  1
Y03
 72
1
 11
20.20716667175293
 21
154.53936640421549
 31
0.0
100
AcDbText
  0
TEXT
  5
299
330
17
100
AcDbEntity
  8
A-GRID
  6
Continuous
370
18
420
0
100
AcDbText
 10
280.68585205078125
 20
154.53936640421549
 30
0.0
 40
1.0927291666666668
  1
Y03
 72
1
 11
280.68585205078125
 21
154.53936640421549
 31
0.0
100
AcDbText
  0
LINE
  5
29A
330
17
100
AcDbEntity
  8
A-DIMS
  6
Continuous
370
18
420
0
100
AcDbLine
 10
32.207176208496094
 20
84.53948847452799
 30
0.0
 11
32.207176208496094
 21
154.53935877482095
 31
0.0
  0
TEXT
  5
29B
330
17
100
AcDbEntity
  8
A-TEXT
  6
Continuous
370
18
420
0
100
AcDbText
 10
31.207176208496094
 20
119.53942743937174
 30
0.0
 40
2.5
  1
7000
 72
1
 11
31.207176208496094
 21
119.53942743937174
 31
0.0
100
AcDbText
  0
LWPOLYLINE
  5
29C
330
17
100
AcDbEntity
  8
A-ANNO
  6
Continuous
370
18
420
0
100
AcDbPolyline
 90
3
 70
0
 10
114.54893589019775
 20
77.62837155659994
 10
103.79552841186523
 20
77.62837155659994
 10
103.74561309814453
 20
82.53937466939291
  0
TEXT
  5
29D
330
17
100
AcDbEntity
  8
A-TEXT
  6
Continuous
370
18
420
0
100
AcDbText
 10
114.54893493652344
 20
77.62837092081705
 30
0.0
 40
2.5
  1
T200 
100
AcDbText
  0
LINE
  5
29E
330
17
100
AcDbEntity
  8
A-ANNO
  6
Continuous
370
18
420
0
100
AcDbLine
 10
127.30656433105469
 20
104.53934351603189
 30
0.0
 11
127.30656433105469
 21
168.17343775431314
 31
0.0
  0
LINE
  5
29F
330
17
100
AcDbEntity
  8
A-ANNO
  6
Continuous
370
18
420
0
100
AcDbLine
 10
97.30656433105469
 20
104.53934351603189
 30
0.0
 11
97.30657958984375
 21
168.17343775431314
 31
0.0
  0
LINE
  5
2A0
330
17
100
AcDbEntity
  8
A-ANNO
  6
Continuous
370
18
420
0
100
AcDbLine
 10
49.88043975830078
 20
84.53948847452799
 30
0.0
 11
238.80653381347656
 21
84.53948847452799
 31
0.0
  0
LINE
  5
2A1
330
17
100
AcDbEntity
  8
A-ANNO
  6
Continuous
370
18
420
0
100
AcDbLine
 10
238.80653381347656
 20
84.53948847452799
 30
0.0
 11
251.58424377441406
 21
84.53948847452799
 31
0.0
  0
LINE
  5
2A2
330
17
100
AcDbEntity
  8
A-ANNO
  6
Continuous
370
18
420
0
100
AcDbLine
 10
222.30654907226562
 20
139.5393435160319
 30
0.0
 11
222.30654907226562
 21
168.17343775431314
 31
0.0
  0
LINE
  5
2A3
330
17
100
AcDbEntity
  8
A-ANNO
  6
Continuous
370
18
420
0
100
AcDbLine
 10
207.30654907226562
 20
104.53934351603189
 30
0.0
 11
207.3065948486328
 21
168.17343775431314
 31
0.0
  0
LINE
  5
2A4
330
17
100
AcDbEntity
  8
A-ANNO
  6
Continuous
370
18
420
0
100
AcDbLine
 10
202.33657836914062
 20
139.5393435160319
 30
0.0
 11
251.58424377441406
 21
139.5393435160319
 31
0.0
  0
LINE
  5
2A5
330
17
100
AcDbEntity
  8
A-ANNO
  6
Continuous
370
18
420
0
100
AcDbLine
 10
202.33657836914062
 20
139.5393435160319
 30
0.0
 11
251.58424377441406
 21
139.5393435160319
 31
0.0
  0
LINE
  5
2A6
330
17
100
AcDbEntity
  8
A-ANNO
  6
Continuous
370
18
420
0
100
AcDbLine
 10
157.3065643310547
 20
7.17898432413736
 30
0.0
 11
157.3065643310547
 21
195.54712931315103
 31
0.0
  0
TEXT
  5
2A7
330
17
100
AcDbEntity
  8
A-GRID
  6
Continuous
370
18
420
0
100
AcDbText
 10
157.3065643310547
 20
7.17898432413736
 30
0.0
 40
1.0927291666666668
  1
X02
 72
1
 11
157.3065643310547
 21
7.17898432413736
 31
0.0
100
AcDbText
  0
TEXT
  5
2A8
330
17
100
AcDbEntity
  8
A-GRID
  6
Continuous
370
18
420
0
100
AcDbText
 10
157.3065643310547
 20
195.54712931315103
 30
0.0
 40
1.0927291666666668
  1
X02
 72
1
 11
157.3065643310547
 21
195.54712931315103
 31
0.0
100
AcDbText
  0
TEXT
  5
2A9
330
17
100
AcDbEntity
  8
A-ANNO
  6
Continuous
370
18
420
0
100
AcDbText
 10
214.8065948486328
 20
152.03936640421549
 30
0.0
 40
1.0927291666666668
  1
PS
 72
1
 11
214.8065948486328
 21
152.03936640421549
 31
0.0
100
AcDbText
  0
HATCH
  5
2AA
330
17
100
AcDbEntity
  8
0
 62
7
100
AcDbHatch
 10
0.0
 20
0.0
 30
0.0
210
0.0
220
0.0
230
1.0
  2
SOLID
 70
1
 71
0
 91
1
 92
3
 72
0
 73
1
 93
5
 10
208.8065948486328
 20
149.53936640421549
 10
220.8065948486328
 20
149.53936640421549
 10
220.8065948486328
 20
144.53936640421549
 10
208.8065948486328
 20
144.53936640421549
 10
208.8065948486328
 20
149.53936640421549
 97
0
 75
0
 76
1
 98
0
  0
LWPOLYLINE
  5
2AB
330
17
100
AcDbEntity
  8
0
  6
Continuous
370
25
100
AcDbPolyline
 90
4
 70
1
 10
208.8065948486328
 20
149.53936640421549
 10
220.8065948486328
 20
149.53936640421549
 10
220.8065948486328
 20
144.53936640421549
 10
208.8065948486328
 20
144.53936640421549
  0
TEXT
  5
2AC
330
17
100
AcDbEntity
  8
A-ANNO
  6
Continuous
370
18
420
0
100
AcDbText
 10
214.8065948486328
 20
147.03936640421549
 30
0.0
 40
1.0927291666666668
  1
1.69
 72
1
 11
214.8065948486328
 21
147.03936640421549
 31
0.0
100
AcDbText
  0
TEXT
  5
2AD
330
17
100
AcDbEntity
  8
A-ANNO
  6
Continuous
370
18
420
0
100
AcDbText
 10
177.30929565429688
 20
121.89240137736002
 30
0.0
 40
1.0927291666666668
  1
  
 72
1
 11
177.30929565429688
 21
121.89240137736002
 31
0.0
100
AcDbText
  0
HATCH
  5
2AE
330
17
100
AcDbEntity
  8
0
 62
7
100
AcDbHatch
 10
0.0
 20
0.0
 30
0.0
210
0.0
220
0.0
230
1.0
  2
SOLID
 70
1
 71
0
 91
1
 92
3
 72
0
 73
1
 93
5
 10
171.30929565429688
 20
119.39240137736002
 10
183.30929565429688
 20
119.39240137736002
 10
183.30929565429688
 20
114.39240137736002
 10
171.30929565429688
 20
114.39240137736002
 10
171.30929565429688
 20
119.39240137736002
 97
0
 75
0
 76
1
 98
0
  0
LWPOLYLINE
  5
2AF
330
17
100
AcDbEntity
  8
0
  6
Continuous
370
25
100
AcDbPolyline
 90
4
 70
1
 10
171.30929565429688
 20
119.39240137736002
 10
183.30929565429688
 20
119.39240137736002
 10
183.30929565429688
 20
114.39240137736002
 10
171.30929565429688
 20
114.39240137736002
  0
TEXT
  5
2B0
330
17
100
AcDbEntity
  8
A-ANNO
  6
Continuous
370
18
420
0
100
AcDbText
 10
177.30929565429688
 20
116.89240137736002
 30
0.0
 40
1.0927291666666668
  1
54.00
 72
1
 11
177.30929565429688
 21
116.89240137736002
 31
0.0
100
AcDbText
  0
TEXT
  5
2B1
330
17
100
AcDbEntity
  8
A-ANNO
  6
Continuous
370
18
420
0
100
AcDbText
 10
229.80654907226562
 20
152.03936640421549
 30
0.0
 40
1.0927291666666668
  1
EPS
 72
1
 11
229.80654907226562
 21
152.03936640421549
 31
0.0
100
AcDbText
  0
HATCH
  5
2B2
330
17
100
AcDbEntity
  8
0
 62
7
100
AcDbHatch
 10
0.0
 20
0.0
 30
0.0
210
0.0
220
0.0
230
1.0
  2
SOLID
 70
1
 71
0
 91
1
 92
3
 72
0
 73
1
 93
5
 10
223.80654907226562
 20
149.53936640421549
 10
235.80654907226562
 20
149.53936640421549
 10
235.80654907226562
 20
144.53936640421549
 10
223.80654907226562
 20
144.53936640421549
 10
223.80654907226562
 20
149.53936640421549
 97
0
 75
0
 76
1
 98
0
  0
LWPOLYLINE
  5
2B3
330
17
100
AcDbEntity
  8
0
  6
Continuous
370
25
100
AcDbPolyline
 90
4
 70
1
 10
223.80654907226562
 20
149.53936640421549
 10
235.80654907226562
 20
149.53936640421549
 10
235.80654907226562
 20
144.53936640421549
 10
223.80654907226562
 20
144.53936640421549
  0
TEXT
  5
2B4
330
17
100
AcDbEntity
  8
A-ANNO
  6
Continuous
370
18
420
0
100
AcDbText
 10
229.80654907226562
 20
147.03936640421549
 30
0.0
 40
1.0927291666666668
  1
1.60
 72
1
 11
229.80654907226562
 21
147.03936640421549
 31
0.0
100
AcDbText
  0
TEXT
  5
2B5
330
17
100
AcDbEntity
  8
A-ANNO
  6
Continuous
370
18
420
0
100
AcDbText
 10
111.43156433105469
 20
136.03935877482095
 30
0.0
 40
1.0927291666666668
  1
2
 72
1
 11
111.43156433105469
 21
136.03935877482095
 31
0.0
100
AcDbText
  0
HATCH
  5
2B6
330
17
100
AcDbEntity
  8
0
 62
7
100
AcDbHatch
 10
0.0
 20
0.0
 30
0.0
210
0.0
220
0.0
230
1.0
  2
SOLID
 70
1
 71
0
 91
1
 92
3
 72
0
 73
1
 93
5
 10
105.43156433105469
 20
133.53935877482095
 10
117.43156433105469
 20
133.53935877482095
 10
117.43156433105469
 20
128.53935877482095
 10
105.43156433105469
 20
128.53935877482095
 10
105.43156433105469
 20
133.53935877482095
 97
0
 75
0
 76
1
 98
0
  0
LWPOLYLINE
  5
2B7
330
17
100
AcDbEntity
  8
0
  6
Continuous
370
25
100
AcDbPolyline
 90
4
 70
1
 10
105.43156433105469
 20
133.53935877482095
 10
117.43156433105469
 20
133.53935877482095
 10
117.43156433105469
 20
128.53935877482095
 10
105.43156433105469
 20
128.53935877482095
  0
TEXT
  5
2B8
330
17
100
AcDbEntity
  8
A-ANNO
  6
Continuous
370
18
420
0
100
AcDbText
 10
111.43156433105469
 20
131.03935877482095
 30
0.0
 40
1.0927291666666668
  1
13.44
 72
1
 11
111.43156433105469
 21
131.03935877482095
 31
0.0
100
AcDbText
  0
TEXT
  5
2B9
330
17
100
AcDbEntity
  8
A-ANNO
  6
Continuous
370
18
420
0
100
AcDbText
 10
220.80657958984375
 20
128.53935877482095
 30
0.0
 40
1.0927291666666668
  1

 72
1
 11
220.80657958984375
 21
128.53935877482095
 31
0.0
100
AcDbText
  0
HATCH
  5
2BA
330
17
100
AcDbEntity
  8
0
 62
7
100
AcDbHatch
 10
0.0
 20
0.0
 30
0.0
210
0.0
220
0.0
230
1.0
  2
SOLID
 70
1
 71
0
 91
1
 92
3
 72
0
 73
1
 93
5
 10
214.80657958984375
 20
126.03935877482095
 10
226.80657958984375
 20
126.03935877482095
 10
226.80657958984375
 20
121.03935877482095
 10
214.80657958984375
 20
121.03935877482095
 10
214.80657958984375
 20
126.03935877482095
 97
0
 75
0
 76
1
 98
0
  0
LWPOLYLINE
  5
2BB
330
17
100
AcDbEntity
  8
0
  6
Continuous
370
25
100
AcDbPolyline
 90
4
 70
1
 10
214.80657958984375
 20
126.03935877482095
 10
226.80657958984375
 20
126.03935877482095
 10
226.80657958984375
 20
121.03935877482095
 10
214.80657958984375
 20
121.03935877482095
  0
TEXT
  5
2BC
330
17
100
AcDbEntity
  8
A-ANNO
  6
Continuous
370
18
420
0
100
AcDbText
 10
220.80657958984375
 20
123.53935877482095
 30
0.0
 40
1.0927291666666668
  1
9.15
 72
1
 11
220.80657958984375
 21
123.53935877482095
 31
0.0
100
AcDbText
  0
TEXT
  5
2BD
330
17
100
AcDbEntity
  8
A-ANNO
  6
Continuous
370
18
420
0
100
AcDbText
 10
83.80657196044922
 20
136.03935877482095
 30
0.0
 40
1.0927291666666668
  1
1
 72
1
 11
83.80657196044922
 21
136.03935877482095
 31
0.0
100
AcDbText
  0
HATCH
  5
2BE
330
17
100
AcDbEntity
  8
0
 62
7
100
AcDbHatch
 10
0.0
 20
0.0
 30
0.0
210
0.0
220
0.0
230
1.0
  2
SOLID
 70
1
 71
0
 91
1
 92
3
 72
0
 73
1
 93
5
 10
77.80657196044922
 20
133.53935877482095
 10
89.80657196044922
 20
133.53935877482095
 10
89.80657196044922
 20
128.53935877482095
 10
77.80657196044922
 20
128.53935877482095
 10
77.80657196044922
 20
133.53935877482095
 97
0
 75
0
 76
1
 98
0
  0
LWPOLYLINE
  5
2BF
330
17
100
AcDbEntity
  8
0
  6
Continuous
370
25
100
AcDbPolyline
 90
4
 70
1
 10
77.80657196044922
 20
133.53935877482095
 10
89.80657196044922
 20
133.53935877482095
 10
89.80657196044922
 20
128.53935877482095
 10
77.80657196044922
 20
128.53935877482095
  0
TEXT
  5
2C0
330
17
100
AcDbEntity
  8
A-ANNO
  6
Continuous
370
18
420
0
100
AcDbText
 10
83.80657196044922
 20
131.03935877482095
 30
0.0
 40
1.0927291666666668
  1
13.26
 72
1
 11
83.80657196044922
 21
131.03935877482095
 31
0.0
100
AcDbText
  0
TEXT
  5
2C1
330
17
100
AcDbEntity
  8
A-ANNO
  6
Continuous
370
18
420
0
100
AcDbText
 10
142.30657958984375
 20
136.03935877482095
 30
0.0
 40
1.0927291666666668
  1
3
 72
1
 11
142.30657958984375
 21
136.03935877482095
 31
0.0
100
AcDbText
  0
HATCH
  5
2C2
330
17
100
AcDbEntity
  8
0
 62
7
100
AcDbHatch
 10
0.0
 20
0.0
 30
0.0
210
0.0
220
0.0
230
1.0
  2
SOLID
 70
1
 71
0
 91
1
 92
3
 72
0
 73
1
 93
5
 10
136.30657958984375
 20
133.53935877482095
 10
148.30657958984375
 20
133.53935877482095
 10
148.30657958984375
 20
128.53935877482095
 10
136.30657958984375
 20
128.53935877482095
 10
136.30657958984375
 20
133.53935877482095
 97
0
 75
0
 76
1
 98
0
  0
LWPOLYLINE
  5
2C3
330
17
100
AcDbEntity
  8
0
  6
Continuous
370
25
100
AcDbPolyline
 90
4
 70
1
 10
136.30657958984375
 20
133.53935877482095
 10
148.30657958984375
 20
133.53935877482095
 10
148.30657958984375
 20
128.53935877482095
 10
136.30657958984375
 20
128.53935877482095
  0
TEXT
  5
2C4
330
17
100
AcDbEntity
  8
A-ANNO
  6
Continuous
370
18
420
0
100
AcDbText
 10
142.30657958984375
 20
131.03935877482095
 30
0.0
 40
1.0927291666666668
  1
13.44
 72
1
 11
142.30657958984375
 21
131.03935877482095
 31
0.0
100
AcDbText
  0
ENDSEC
  0
SECTION
  2
OBJECTS
  0
DICTIONARY
  5
A
330
0
100
AcDbDictionary
281
1
  3
ACAD_COLOR
350
B
  3
ACAD_GROUP
350
C
  3
ACAD_LAYOUT
350
D
  3
ACAD_MATERIAL
350
E
  3
ACAD_MLEADERSTYLE
350
F
  3
ACAD_MLINESTYLE
350
10
  3
ACAD_PLOTSETTINGS
350
11
  3
ACAD_PLOTSTYLENAME
350
12
  3
ACAD_SCALELIST
350
14
  3
ACAD_TABLESTYLE
350
15
  3
ACAD_VISUALSTYLE
350
16
  3
EZDXF_META
350
2D
  0
DICTIONARY
  5
B
330
A
100
AcDbDictionary
281
1
  0
DICTIONARY
  5
C
330
A
100
AcDbDictionary
281
1
  0
DICTIONARY
  5
D
330
A
100
AcDbDictionary
281
1
  3
Model
350
1A
  3
Layout1
350
1E
  0
DICTIONARY
  5
E
330
A
100
AcDbDictionary
281
1
  3
ByBlock
350
1F
  3
ByLayer
350
20
  3
Global
350
21
  0
DICTIONARY
  5
F
330
A
100
AcDbDictionary
281
1
  3
Standard
350
2C
  0
DICTIONARY
  5
10
330
A
100
AcDbDictionary
281
1
  3
Standard
350
22
  0
DICTIONARY
  5
11
330
A
100
AcDbDictionary
281
1
  0
ACDBDICTIONARYWDFLT
  5
12
330
A
100
AcDbDictionary
281
1
  3
Normal
350
13
100
AcDbDictionaryWithDefault
340
13
  0
ACDBPLACEHOLDER
  5
13
330
12
  0
DICTIONARY
  5
14
330
A
100
AcDbDictionary
281
1
  0
DICTIONARY
  5
15
330
A
100
AcDbDictionary
281
1
  0
DICTIONARY
  5
16
330
A
100
AcDbDictionary
281
1
  0
LAYOUT
  5
1A
330
D
100
AcDbPlotSettings
  1

  4
A3
  6

 40
7.5
 41
20.0
 42
7.5
 43
20.0
 44
420.0
 45
297.0
 46
0.0
 47
0.0
 48
0.0
 49
0.0
140
0.0
141
0.0
142
1.0
143
1.0
 70
1024
 72
1
 73
0
 74
5
  7

 75
16
 76
0
 77
2
 78
300
147
1.0
148
0.0
149
0.0
100
AcDbLayout
  1
Model
 70
1
 71
0
 10
0.0
 20
0.0
 11
420.0
 21
297.0
 12
0.0
 22
0.0
 32
0.0
 14
1e+20
 24
1e+20
 34
1e+20
 15
-1e+20
 25
-1e+20
 35
-1e+20
146
0.0
 13
0.0
 23
0.0
 33
0.0
 16
1.0
 26
0.0
 36
0.0
 17
0.0
 27
1.0
 37
0.0
 76
1
330
17
  0
LAYOUT
  5
1E
330
D
100
AcDbPlotSettings
  1

  4
A3
  6

 40
7.5
 41
20.0
 42
7.5
 43
20.0
 44
420.0
 45
297.0
 46
0.0
 47
0.0
 48
0.0
 49
0.0
140
0.0
141
0.0
142
1.0
143
1.0
 70
0
 72
1
 73
0
 74
5
  7

 75
16
 76
0
 77
2
 78
300
147
1.0
148
0.0
149
0.0
100
AcDbLayout
  1
Layout1
 70
1
 71
1
 10
0.0
 20
0.0
 11
420.0
 21
297.0
 12
0.0
 22
0.0
 32
0.0
 14
1e+20
 24
1e+20
 34
1e+20
 15
-1e+20
 25
-1e+20
 35
-1e+20
146
0.0
 13
0.0
 23
0.0
 33
0.0
 16
1.0
 26
0.0
 36
0.0
 17
0.0
 27
1.0
 37
0.0
 76
1
330
1B
  0
MATERIAL
  5
1F
102
{ACAD_REACTORS
330
E
102
}
330
E
100
AcDbMaterial
  1
ByBlock
  2

 70
0
 40
1.0
 71
1
 41
1.0
 91
-1023410177
 42
1.0
 72
1
  3

 73
1
 74
1
 75
1
 44
0.5
 73
0
 45
1.0
 46
1.0
 77
1
  4

 78
1
 79
1
170
1
 48
1.0
171
1
  6

172
1
173
1
174
1
140
1.0
141
1.0
175
1
  7

176
1
177
1
178
1
143
1.0
179
1
  8

270
1
271
1
272
1
145
1.0
146
1.0
273
1
  9

274
1
275
1
276
1
 42
1.0
 72
1
  3

 73
1
 74
1
 75
1
 94
63
  0
MATERIAL
  5
20
102
{ACAD_REACTORS
330
E
102
}
330
E
100
AcDbMaterial
  1
ByLayer
  2

 70
0
 40
1.0
 71
1
 41
1.0
 91
-1023410177
 42
1.0
 72
1
  3

 73
1
 74
1
 75
1
 44
0.5
 73
0
 45
1.0
 46
1.0
 77
1
  4

 78
1
 79
1
170
1
 48
1.0
171
1
  6

172
1
173
1
174
1
140
1.0
141
1.0
175
1
  7

176
1
177
1
178
1
143
1.0
179
1
  8

270
1
271
1
272
1
145
1.0
146
1.0
273
1
  9

274
1
275
1
276
1
 42
1.0
 72
1
  3

 73
1
 74
1
 75
1
 94
63
  0
MATERIAL
  5
21
102
{ACAD_REACTORS
330
E
102
}
330
E
100
AcDbMaterial
  1
Global
  2

 70
0
 40
1.0
 71
1
 41
1.0
 91
-1023410177
 42
1.0
 72
1
  3

 73
1
 74
1
 75
1
 44
0.5
 73
0
 45
1.0
 46
1.0
 77
1
  4

 78
1
 79
1
170
1
 48
1.0
171
1
  6

172
1
173
1
174
1
140
1.0
141
1.0
175
1
  7

176
1
177
1
178
1
143
1.0
179
1
  8

270
1
271
1
272
1
145
1.0
146
1.0
273
1
  9

274
1
275
1
276
1
 42
1.0
 72
1
  3

 73
1
 74
1
 75
1
 94
63
  0
MLINESTYLE
  5
22
102
{ACAD_REACTORS
330
10
102
}
330
10
100
AcDbMlineStyle
  2
Standard
 70
0
  3

 62
256
 51
90.0
 52
90.0
 71
2
 49
0.5
 62
256
  6
BYLAYER
 49
-0.5
 62
256
  6
BYLAYER
  0
MLEADERSTYLE
  5
2C
102
{ACAD_REACTORS
330
F
102
}
330
F
100
AcDbMLeaderStyle
179
2
170
2
171
1
172
0
 90
2
 40
0.0
 41
0.0
173
1
 91
-1056964608
 92
-2
290
1
 42
2.0
291
1
 43
8.0
  3
Standard
 44
4.0
300

342
29
174
1
175
1
176
0
178
1
 93
-1056964608
 45
4.0
292
0
297
0
 46
4.0
 94
-1056964608
 47
1.0
 49
1.0
140
1.0
294
1
141
0.0
177
0
142
1.0
295
0
296
0
143
3.75
271
0
272
9
273
9
  0
DICTIONARY
  5
2D
330
A
100
AcDbDictionary
280
1
281
1
  3
CREATED_BY_EZDXF
350
2E
  3
WRITTEN_BY_EZDXF
350
2C7
  0
DICTIONARYVAR
  5
2E
330
2D
100
DictionaryVariables
280
0
  1
1.4.3 @ 2025-10-21T12:57:22.339790+00:00
  0
DICTIONARYVAR
  5
2C7
330
2D
100
DictionaryVariables
280
0
  1
1.4.3 @ 2025-10-21T12:57:22.355532+00:00
  0
ENDSEC
  0
EOF
