  0
SECTION
  2
HEADER
  9
$ACADVER
  1
AC1027
  9
$ACADMAINTVER
 70
105
  9
$DWGCODEPAGE
  3
ANSI_1252
  9
$LASTSAVEDBY
  1
ezdxf
  9
$REQUIREDVERSIONS
160
0
  9
$INSBASE
 10
0.0
 20
0.0
 30
0.0
  9
$EXTMIN
 10
1e+20
 20
1e+20
 30
1e+20
  9
$EXTMAX
 10
-1e+20
 20
-1e+20
 30
-1e+20
  9
$LIMMIN
 10
0.0
 20
0.0
  9
$LIMMAX
 10
420.0
 20
297.0
  9
$ORTHOMODE
 70
0
  9
$REGENMODE
 70
1
  9
$FILLMODE
 70
1
  9
$QTEXTMODE
 70
0
  9
$MIRRTEXT
 70
1
  9
$LTSCALE
 40
1.0
  9
$ATTMODE
 70
1
  9
$TEXTSIZE
 40
2.5
  9
$TRACEWID
 40
1.0
  9
$TEXTSTYLE
  7
Standard
  9
$CLAYER
  8
0
  9
$CELTYPE
  6
ByLayer
  9
$CECOLOR
 62
256
  9
$CELTSCALE
 40
1.0
  9
$DISPSILH
 70
0
  9
$DIMSCALE
 40
1.0
  9
$DIMASZ
 40
2.5
  9
$DIMEXO
 40
0.625
  9
$DIMDLI
 40
3.75
  9
$DIMRND
 40
0.0
  9
$DIMDLE
 40
0.0
  9
$DIMEXE
 40
1.25
  9
$DIMTP
 40
0.0
  9
$DIMTM
 40
0.0
  9
$DIMTXT
 40
2.5
  9
$DIMCEN
 40
2.5
  9
$DIMTSZ
 40
0.0
  9
$DIMTOL
 70
0
  9
$DIMLIM
 70
0
  9
$DIMTIH
 70
0
  9
$DIMTOH
 70
0
  9
$DIMSE1
 70
0
  9
$DIMSE2
 70
0
  9
$DIMTAD
 70
1
  9
$DIMZIN
 70
8
  9
$DIMBLK
  1

  9
$DIMASO
 70
1
  9
$DIMSHO
 70
1
  9
$DIMPOST
  1

  9
$DIMAPOST
  1

  9
$DIMALT
 70
0
  9
$DIMALTD
 70
3
  9
$DIMALTF
 40
0.03937007874
  9
$DIMLFAC
 40
1.0
  9
$DIMTOFL
 70
1
  9
$DIMTVP
 40
0.0
  9
$DIMTIX
 70
0
  9
$DIMSOXD
 70
0
  9
$DIMSAH
 70
0
  9
$DIMBLK1
  1

  9
$DIMBLK2
  1

  9
$DIMSTYLE
  2
ISO-25
  9
$DIMCLRD
 70
0
  9
$DIMCLRE
 70
0
  9
$DIMCLRT
 70
0
  9
$DIMTFAC
 40
1.0
  9
$DIMGAP
 40
0.625
  9
$DIMJUST
 70
0
  9
$DIMSD1
 70
0
  9
$DIMSD2
 70
0
  9
$DIMTOLJ
 70
0
  9
$DIMTZIN
 70
8
  9
$DIMALTZ
 70
0
  9
$DIMALTTZ
 70
0
  9
$DIMUPT
 70
0
  9
$DIMDEC
 70
2
  9
$DIMTDEC
 70
2
  9
$DIMALTU
 70
2
  9
$DIMALTTD
 70
3
  9
$DIMTXSTY
  7
Standard
  9
$DIMAUNIT
 70
0
  9
$DIMADEC
 70
0
  9
$DIMALTRND
 40
0.0
  9
$DIMAZIN
 70
0
  9
$DIMDSEP
 70
44
  9
$DIMATFIT
 70
3
  9
$DIMFRAC
 70
0
  9
$DIMLDRBLK
  1

  9
$DIMLUNIT
 70
2
  9
$DIMLWD
 70
-2
  9
$DIMLWE
 70
-2
  9
$DIMTMOVE
 70
0
  9
$DIMFXL
 40
1.0
  9
$DIMFXLON
 70
0
  9
$DIMJOGANG
 40
0.785398163397
  9
$DIMTFILL
 70
0
  9
$DIMTFILLCLR
 70
0
  9
$DIMARCSYM
 70
0
  9
$DIMLTYPE
  6

  9
$DIMLTEX1
  6

  9
$DIMLTEX2
  6

  9
$DIMTXTDIRECTION
 70
0
  9
$LUNITS
 70
2
  9
$LUPREC
 70
4
  9
$SKETCHINC
 40
1.0
  9
$FILLETRAD
 40
10.0
  9
$AUNITS
 70
0
  9
$AUPREC
 70
2
  9
$MENU
  1
.
  9
$ELEVATION
 40
0.0
  9
$PELEVATION
 40
0.0
  9
$THICKNESS
 40
0.0
  9
$LIMCHECK
 70
0
  9
$CHAMFERA
 40
0.0
  9
$CHAMFERB
 40
0.0
  9
$CHAMFERC
 40
0.0
  9
$CHAMFERD
 40
0.0
  9
$SKPOLY
 70
0
  9
$TDCREATE
 40
2460970.900740741
  9
$TDUCREATE
 40
2458532.153996898
  9
$TDUPDATE
 40
2460970.900740741
  9
$TDUUPDATE
 40
2458532.1544311
  9
$TDINDWG
 40
0.0
  9
$TDUSRTIMER
 40
0.0
  9
$USRTIMER
 70
1
  9
$ANGBASE
 50
0.0
  9
$ANGDIR
 70
0
  9
$PDMODE
 70
0
  9
$PDSIZE
 40
0.0
  9
$PLINEWID
 40
0.0
  9
$SPLFRAME
 70
0
  9
$SPLINETYPE
 70
6
  9
$SPLINESEGS
 70
8
  9
$HANDSEED
  5
29D
  9
$SURFTAB1
 70
6
  9
$SURFTAB2
 70
6
  9
$SURFTYPE
 70
6
  9
$SURFU
 70
6
  9
$SURFV
 70
6
  9
$UCSBASE
  2

  9
$UCSNAME
  2

  9
$UCSORG
 10
0.0
 20
0.0
 30
0.0
  9
$UCSXDIR
 10
1.0
 20
0.0
 30
0.0
  9
$UCSYDIR
 10
0.0
 20
1.0
 30
0.0
  9
$UCSORTHOREF
  2

  9
$UCSORTHOVIEW
 70
0
  9
$UCSORGTOP
 10
0.0
 20
0.0
 30
0.0
  9
$UCSORGBOTTOM
 10
0.0
 20
0.0
 30
0.0
  9
$UCSORGLEFT
 10
0.0
 20
0.0
 30
0.0
  9
$UCSORGRIGHT
 10
0.0
 20
0.0
 30
0.0
  9
$UCSORGFRONT
 10
0.0
 20
0.0
 30
0.0
  9
$UCSORGBACK
 10
0.0
 20
0.0
 30
0.0
  9
$PUCSBASE
  2

  9
$PUCSNAME
  2

  9
$PUCSORG
 10
0.0
 20
0.0
 30
0.0
  9
$PUCSXDIR
 10
1.0
 20
0.0
 30
0.0
  9
$PUCSYDIR
 10
0.0
 20
1.0
 30
0.0
  9
$PUCSORTHOREF
  2

  9
$PUCSORTHOVIEW
 70
0
  9
$PUCSORGTOP
 10
0.0
 20
0.0
 30
0.0
  9
$PUCSORGBOTTOM
 10
0.0
 20
0.0
 30
0.0
  9
$PUCSORGLEFT
 10
0.0
 20
0.0
 30
0.0
  9
$PUCSORGRIGHT
 10
0.0
 20
0.0
 30
0.0
  9
$PUCSORGFRONT
 10
0.0
 20
0.0
 30
0.0
  9
$PUCSORGBACK
 10
0.0
 20
0.0
 30
0.0
  9
$USERI1
 70
0
  9
$USERI2
 70
0
  9
$USERI3
 70
0
  9
$USERI4
 70
0
  9
$USERI5
 70
0
  9
$USERR1
 40
0.0
  9
$USERR2
 40
0.0
  9
$USERR3
 40
0.0
  9
$USERR4
 40
0.0
  9
$USERR5
 40
0.0
  9
$WORLDVIEW
 70
1
  9
$SHADEDGE
 70
3
  9
$SHADEDIF
 70
70
  9
$TILEMODE
 70
1
  9
$MAXACTVP
 70
64
  9
$PINSBASE
 10
0.0
 20
0.0
 30
0.0
  9
$PLIMCHECK
 70
0
  9
$PEXTMIN
 10
1e+20
 20
1e+20
 30
1e+20
  9
$PEXTMAX
 10
-1e+20
 20
-1e+20
 30
-1e+20
  9
$PLIMMIN
 10
0.0
 20
0.0
  9
$PLIMMAX
 10
420.0
 20
297.0
  9
$UNITMODE
 70
0
  9
$VISRETAIN
 70
1
  9
$PLINEGEN
 70
0
  9
$PSLTSCALE
 70
1
  9
$TREEDEPTH
 70
3020
  9
$CMLSTYLE
  2
Standard
  9
$CMLJUST
 70
0
  9
$CMLSCALE
 40
20.0
  9
$PROXYGRAPHICS
 70
1
  9
$MEASUREMENT
 70
1
  9
$CELWEIGHT
370
-1
  9
$ENDCAPS
280
0
  9
$JOINSTYLE
280
0
  9
$LWDISPLAY
290
0
  9
$INSUNITS
 70
6
  9
$HYPERLINKBASE
  1

  9
$STYLESHEET
  1

  9
$XEDIT
290
1
  9
$CEPSNTYPE
380
0
  9
$PSTYLEMODE
290
1
  9
$FINGERPRINTGUID
  2
{6128A476-6A21-4989-99F9-BB05D5F3FCFF}
  9
$VERSIONGUID
  2
{7659C4B5-C3B6-4B23-BCB8-E543CFA77F21}
  9
$EXTNAMES
290
1
  9
$PSVPSCALE
 40
0.0
  9
$OLESTARTUP
290
0
  9
$SORTENTS
280
127
  9
$INDEXCTL
280
0
  9
$HIDETEXT
280
1
  9
$XCLIPFRAME
280
1
  9
$HALOGAP
280
0
  9
$OBSCOLOR
 70
257
  9
$OBSLTYPE
280
0
  9
$INTERSECTIONDISPLAY
280
0
  9
$INTERSECTIONCOLOR
 70
257
  9
$DIMASSOC
280
2
  9
$PROJECTNAME
  1

  9
$CAMERADISPLAY
290
0
  9
$LENSLENGTH
 40
50.0
  9
$CAMERAHEIGHT
 40
0.0
  9
$STEPSPERSEC
 40
24.0
  9
$STEPSIZE
 40
100.0
  9
$3DDWFPREC
 40
2.0
  9
$PSOLWIDTH
 40
0.005
  9
$PSOLHEIGHT
 40
0.08
  9
$LOFTANG1
 40
1.570796326795
  9
$LOFTANG2
 40
1.570796326795
  9
$LOFTMAG1
 40
0.0
  9
$LOFTMAG2
 40
0.0
  9
$LOFTPARAM
 70
7
  9
$LOFTNORMALS
280
1
  9
$LATITUDE
 40
37.795
  9
$LONGITUDE
 40
-122.394
  9
$NORTHDIRECTION
 40
0.0
  9
$TIMEZONE
 70
-8000
  9
$LIGHTGLYPHDISPLAY
280
1
  9
$TILEMODELIGHTSYNCH
280
1
  9
$CMATERIAL
347
20
  9
$SOLIDHIST
280
0
  9
$SHOWHIST
280
1
  9
$DWFFRAME
280
2
  9
$DGNFRAME
280
2
  9
$REALWORLDSCALE
290
1
  9
$INTERFERECOLOR
 62
256
  9
$CSHADOW
280
0
  9
$SHADOWPLANELOCATION
 40
0.0
  0
ENDSEC
  0
SECTION
  2
CLASSES
  0
CLASS
  1
ACDBDICTIONARYWDFLT
  2
AcDbDictionaryWithDefault
  3
ObjectDBX Classes
 90
0
 91
0
280
0
281
0
  0
CLASS
  1
SUN
  2
AcDbSun
  3
SCENEOE
 90
1153
 91
0
280
0
281
0
  0
CLASS
  1
VISUALSTYLE
  2
AcDbVisualStyle
  3
ObjectDBX Classes
 90
4095
 91
0
280
0
281
0
  0
CLASS
  1
MATERIAL
  2
AcDbMaterial
  3
ObjectDBX Classes
 90
1153
 91
0
280
0
281
0
  0
CLASS
  1
SCALE
  2
AcDbScale
  3
ObjectDBX Classes
 90
1153
 91
0
280
0
281
0
  0
CLASS
  1
TABLESTYLE
  2
AcDbTableStyle
  3
ObjectDBX Classes
 90
4095
 91
0
280
0
281
0
  0
CLASS
  1
MLEADERSTYLE
  2
AcDbMLeaderStyle
  3
ACDB_MLEADERSTYLE_CLASS
 90
4095
 91
0
280
0
281
0
  0
CLASS
  1
DICTIONARYVAR
  2
AcDbDictionaryVar
  3
ObjectDBX Classes
 90
0
 91
0
280
0
281
0
  0
CLASS
  1
CELLSTYLEMAP
  2
AcDbCellStyleMap
  3
ObjectDBX Classes
 90
1152
 91
0
280
0
281
0
  0
CLASS
  1
MENTALRAYRENDERSETTINGS
  2
AcDbMentalRayRenderSettings
  3
SCENEOE
 90
1024
 91
0
280
0
281
0
  0
CLASS
  1
ACDBDETAILVIEWSTYLE
  2
AcDbDetailViewStyle
  3
ObjectDBX Classes
 90
1025
 91
0
280
0
281
0
  0
CLASS
  1
ACDBSECTIONVIEWSTYLE
  2
AcDbSectionViewStyle
  3
ObjectDBX Classes
 90
1025
 91
0
280
0
281
0
  0
CLASS
  1
RASTERVARIABLES
  2
AcDbRasterVariables
  3
ISM
 90
0
 91
0
280
0
281
0
  0
CLASS
  1
ACDBPLACEHOLDER
  2
AcDbPlaceHolder
  3
ObjectDBX Classes
 90
0
 91
0
280
0
281
0
  0
CLASS
  1
LAYOUT
  2
AcDbLayout
  3
ObjectDBX Classes
 90
0
 91
0
280
0
281
0
  0
ENDSEC
  0
SECTION
  2
TABLES
  0
TABLE
  2
VPORT
  5
8
330
0
100
AcDbSymbolTable
 70
1
  0
VPORT
  5
23
330
8
100
AcDbSymbolTableRecord
100
AcDbViewportTableRecord
  2
*Active
 70
0
 10
0.0
 20
0.0
 11
1.0
 21
1.0
 12
0.0
 22
0.0
 13
0.0
 23
0.0
 14
0.5
 24
0.5
 15
0.5
 25
0.5
 16
0.0
 26
0.0
 36
1.0
 17
0.0
 27
0.0
 37
0.0
 40
1000.0
 41
1.34
 42
50.0
 43
0.0
 44
0.0
 50
0.0
 51
0.0
 71
0
 72
1000
 73
1
 74
3
 75
0
 76
0
 77
0
 78
0
281
0
 65
0
146
0.0
  0
ENDTAB
  0
TABLE
  2
LTYPE
  5
2
330
0
100
AcDbSymbolTable
 70
3
  0
LTYPE
  5
24
330
2
100
AcDbSymbolTableRecord
100
AcDbLinetypeTableRecord
  2
ByBlock
 70
0
  3

 72
65
 73
0
 40
0.0
  0
LTYPE
  5
25
330
2
100
AcDbSymbolTableRecord
100
AcDbLinetypeTableRecord
  2
ByLayer
 70
0
  3

 72
65
 73
0
 40
0.0
  0
LTYPE
  5
26
330
2
100
AcDbSymbolTableRecord
100
AcDbLinetypeTableRecord
  2
Continuous
 70
0
  3

 72
65
 73
0
 40
0.0
  0
ENDTAB
  0
TABLE
  2
LAYER
  5
1
330
0
100
AcDbSymbolTable
 70
11
  0
LAYER
  5
27
330
1
100
AcDbSymbolTableRecord
100
AcDbLayerTableRecord
  2
0
 70
0
 62
7
  6
Continuous
370
-3
390
13
347
21
  0
LAYER
  5
28
330
1
100
AcDbSymbolTableRecord
100
AcDbLayerTableRecord
  2
Defpoints
 70
0
 62
7
  6
Continuous
290
0
370
-3
390
13
347
21
  0
LAYER
  5
2F
330
1
100
AcDbSymbolTableRecord
100
AcDbLayerTableRecord
  2
MAT-NULL
 70
0
 62
7
  6
Continuous
370
-3
390
13
347
21
  0
LAYER
  5
3C
330
1
100
AcDbSymbolTableRecord
100
AcDbLayerTableRecord
  2
MAT-SAND
 70
0
 62
7
  6
Continuous
370
-3
390
13
347
21
  0
LAYER
  5
6B
330
1
100
AcDbSymbolTableRecord
100
AcDbLayerTableRecord
  2
MAT-CONCRETE
 70
0
 62
7
  6
Continuous
370
-3
390
13
347
21
  0
LAYER
  5
74
330
1
100
AcDbSymbolTableRecord
100
AcDbLayerTableRecord
  2
MAT-FIN
 70
0
 62
7
  6
Continuous
370
-3
390
13
347
21
  0
LAYER
  5
187
330
1
100
AcDbSymbolTableRecord
100
AcDbLayerTableRecord
  2
MAT-MATERIAL
 70
0
 62
7
  6
Continuous
370
-3
390
13
347
21
  0
LAYER
  5
244
330
1
100
AcDbSymbolTableRecord
100
AcDbLayerTableRecord
  2
A-ANNO
 70
0
 62
7
  6
Continuous
370
-3
390
13
347
21
  0
LAYER
  5
246
330
1
100
AcDbSymbolTableRecord
100
AcDbLayerTableRecord
  2
A-GRID
 70
0
 62
7
  6
Continuous
370
-3
390
13
347
21
  0
LAYER
  5
24C
330
1
100
AcDbSymbolTableRecord
100
AcDbLayerTableRecord
  2
A-DIMS
 70
0
 62
7
  6
Continuous
370
-3
390
13
347
21
  0
LAYER
  5
24E
330
1
100
AcDbSymbolTableRecord
100
AcDbLayerTableRecord
  2
A-TEXT
 70
0
 62
7
  6
Continuous
370
-3
390
13
347
21
  0
ENDTAB
  0
TABLE
  2
STYLE
  5
5
330
0
100
AcDbSymbolTable
 70
1
  0
STYLE
  5
29
330
5
100
AcDbSymbolTableRecord
100
AcDbTextStyleTableRecord
  2
Standard
 70
0
 40
0.0
 41
1.0
 50
0.0
 71
0
 42
2.5
  3
txt
  4

  0
ENDTAB
  0
TABLE
  2
VIEW
  5
7
330
0
100
AcDbSymbolTable
 70
0
  0
ENDTAB
  0
TABLE
  2
UCS
  5
6
330
0
100
AcDbSymbolTable
 70
0
  0
ENDTAB
  0
TABLE
  2
APPID
  5
3
330
0
100
AcDbSymbolTable
 70
3
  0
APPID
  5
2A
330
3
100
AcDbSymbolTableRecord
100
AcDbRegAppTableRecord
  2
ACAD
 70
0
  0
APPID
  5
29A
330
3
100
AcDbSymbolTableRecord
100
AcDbRegAppTableRecord
  2
HATCHBACKGROUNDCOLOR
 70
0
  0
APPID
  5
29B
330
3
100
AcDbSymbolTableRecord
100
AcDbRegAppTableRecord
  2
EZDXF
 70
0
  0
ENDTAB
  0
TABLE
  2
DIMSTYLE
  5
4
330
0
100
AcDbSymbolTable
 70
1
100
AcDbDimStyleTable
  0
DIMSTYLE
105
2B
330
4
100
AcDbSymbolTableRecord
100
AcDbDimStyleTableRecord
  2
Standard
 70
0
 40
1.0
 41
2.5
 42
0.625
 43
3.75
 44
1.25
 45
0.0
 46
0.0
 47
0.0
 48
0.0
 49
2.5
140
2.5
141
2.5
142
0.0
143
0.03937007874
144
1.0
145
0.0
146
1.0
147
0.625
148
0.0
 69
0
 70
0
 71
0
 72
0
 73
0
 74
0
 75
0
 76
0
 77
1
 78
8
 79
3
170
0
171
3
172
1
173
0
174
0
175
0
176
0
177
0
178
0
179
2
271
2
272
2
273
2
274
3
275
0
276
0
277
2
278
44
279
0
280
0
281
0
282
0
283
0
284
8
285
0
286
0
288
0
289
3
290
0
371
-2
372
-2
  0
ENDTAB
  0
TABLE
  2
BLOCK_RECORD
  5
9
330
0
100
AcDbSymbolTable
 70
2
  0
BLOCK_RECORD
  5
17
330
9
100
AcDbSymbolTableRecord
100
AcDbBlockTableRecord
  2
*Model_Space
340
1A
 70
0
280
1
281
0
  0
BLOCK_RECORD
  5
1B
330
9
100
AcDbSymbolTableRecord
100
AcDbBlockTableRecord
  2
*Paper_Space
340
1E
 70
0
280
1
281
0
  0
ENDTAB
  0
ENDSEC
  0
SECTION
  2
BLOCKS
  0
BLOCK
  5
18
330
17
100
AcDbEntity
  8
0
100
AcDbBlockBegin
  2
*Model_Space
 70
0
 10
0.0
 20
0.0
 30
0.0
  3
*Model_Space
  1

  0
ENDBLK
  5
19
330
17
100
AcDbEntity
  8
0
100
AcDbBlockEnd
  0
BLOCK
  5
1C
330
1B
100
AcDbEntity
  8
0
100
AcDbBlockBegin
  2
*Paper_Space
 70
0
 10
0.0
 20
0.0
 30
0.0
  3
*Paper_Space
  1

  0
ENDBLK
  5
1D
330
1B
100
AcDbEntity
  8
0
100
AcDbBlockEnd
  0
ENDSEC
  0
SECTION
  2
ENTITIES
  0
LWPOLYLINE
  5
30
330
17
100
AcDbEntity
  8
MAT-NULL
  6
Continuous
370
13
100
AcDbPolyline
 90
2
 70
0
 10
125.39930350176488
 20
75.12672686704784
 10
126.3993034158348
 20
75.12672718096428
  0
LWPOLYLINE
  5
31
330
17
100
AcDbEntity
  8
MAT-NULL
  6
Continuous
370
13
100
AcDbPolyline
 90
2
 70
0
 10
125.3992856085255
 20
132.1267281113965
 10
125.39930350176488
 20
75.12672686704784
  0
LWPOLYLINE
  5
32
330
17
100
AcDbEntity
  8
MAT-NULL
  6
Continuous
370
13
100
AcDbPolyline
 90
2
 70
0
 10
125.3992856085255
 20
132.1267281113965
 10
126.39928552259518
 20
132.1267292160665
  0
LWPOLYLINE
  5
33
330
17
100
AcDbEntity
  8
MAT-NULL
  6
Continuous
370
13
100
AcDbPolyline
 90
2
 70
0
 10
126.3993034158348
 20
75.12672718096428
 10
126.39928552259518
 20
132.1267292160665
  0
LWPOLYLINE
  5
34
330
17
100
AcDbEntity
  8
MAT-NULL
  6
Continuous
370
13
100
AcDbPolyline
 90
2
 70
0
 10
126.39928363909536
 20
138.126732362597
 10
126.39928049993978
 20
148.12670324550135
  0
LWPOLYLINE
  5
35
330
17
100
AcDbEntity
  8
MAT-NULL
  6
Continuous
370
13
100
AcDbPolyline
 90
2
 70
0
 10
126.39928363909536
 20
138.126732362597
 10
125.39928372502568
 20
138.126731257927
  0
LWPOLYLINE
  5
36
330
17
100
AcDbEntity
  8
MAT-NULL
  6
Continuous
370
13
100
AcDbPolyline
 90
2
 70
0
 10
125.39928058586983
 20
148.1267029315849
 10
125.39928372502568
 20
138.126731257927
  0
LWPOLYLINE
  5
37
330
17
100
AcDbEntity
  8
MAT-NULL
  6
Continuous
370
13
100
AcDbPolyline
 90
2
 70
0
 10
126.39928049993978
 20
148.12670324550135
 10
125.39928058586983
 20
148.1267029315849
  0
LWPOLYLINE
  5
38
330
17
100
AcDbEntity
  8
MAT-NULL
  6
Continuous
370
13
100
AcDbPolyline
 90
2
 70
0
 10
299.3992840796971
 20
149.12659825540533
 10
299.3992842306929
 20
148.12659834133538
  0
LWPOLYLINE
  5
39
330
17
100
AcDbEntity
  8
MAT-NULL
  6
Continuous
370
13
100
AcDbPolyline
 90
2
 70
0
 10
216.36987781572975
 20
148.12658580424352
 10
299.3992842306929
 20
148.12659834133538
  0
LWPOLYLINE
  5
3A
330
17
100
AcDbEntity
  8
MAT-NULL
  6
Continuous
370
13
100
AcDbPolyline
 90
2
 70
0
 10
216.36987766473396
 20
149.1265857183135
 10
216.36987781572975
 20
148.12658580424352
  0
LWPOLYLINE
  5
3B
330
17
100
AcDbEntity
  8
MAT-NULL
  6
Continuous
370
13
100
AcDbPolyline
 90
2
 70
0
 10
216.36987766473396
 20
149.1265857183135
 10
299.3992840796971
 20
149.12659825540533
  0
LWPOLYLINE
  5
3D
330
17
100
AcDbEntity
  8
MAT-SAND
  6
Continuous
370
5
100
AcDbPolyline
 90
2
 70
0
 10
205.33433183396122
 20
148.1265717983326
 10
205.5843280889548
 20
148.12657177647725
  0
LWPOLYLINE
  5
3E
330
17
100
AcDbEntity
  8
MAT-SAND
  6
Continuous
370
5
100
AcDbPolyline
 90
2
 70
0
 10
205.9343280603694
 20
148.12657174587932
 10
214.33433106059098
 20
148.12657101152772
  0
LWPOLYLINE
  5
3F
330
17
100
AcDbEntity
  8
MAT-SAND
  6
Continuous
370
5
100
AcDbPolyline
 90
2
 70
0
 10
298.3992962823885
 20
118.09391451101115
 10
298.3992930506157
 20
81.1267426088336
  0
LWPOLYLINE
  5
40
330
17
100
AcDbEntity
  8
MAT-SAND
  6
Continuous
370
5
100
AcDbPolyline
 90
2
 70
0
 10
304.39929066749755
 20
204.12672691090592
 10
304.39929369940967
 20
204.12672691090566
  0
LWPOLYLINE
  5
41
330
17
100
AcDbEntity
  8
MAT-SAND
  6
Continuous
370
5
100
AcDbPolyline
 90
2
 70
0
 10
304.3992922132225
 20
187.1267271510131
 10
304.39929066749755
 20
187.12672715101326
  0
LWPOLYLINE
  5
42
330
17
100
AcDbEntity
  8
MAT-SAND
  6
Continuous
370
5
100
AcDbPolyline
 90
2
 70
0
 10
304.39929369940967
 20
204.12672691090566
 10
304.3992936994096
 20
204.12672624256035
  0
LWPOLYLINE
  5
43
330
17
100
AcDbEntity
  8
MAT-SAND
  6
Continuous
370
5
100
AcDbPolyline
 90
2
 70
0
 10
210.39930673593744
 20
204.12672839709245
 10
210.39930866313205
 20
204.12672839709228
  0
LWPOLYLINE
  5
44
330
17
100
AcDbEntity
  8
MAT-SAND
  6
Continuous
370
5
100
AcDbPolyline
 90
2
 70
0
 10
227.39930872820045
 20
204.1267269109051
 10
227.39931137864204
 20
204.12672691090486
  0
LWPOLYLINE
  5
45
330
17
100
AcDbEntity
  8
MAT-SAND
  6
Continuous
370
5
100
AcDbPolyline
 90
2
 70
0
 10
210.39930673593724
 20
204.12672624256035
 10
210.39930673593744
 20
204.12672839709245
  0
LWPOLYLINE
  5
46
330
17
100
AcDbEntity
  8
MAT-SAND
  6
Continuous
370
5
100
AcDbPolyline
 90
2
 70
0
 10
227.39930989245488
 20
187.12672715101232
 10
227.39930872820045
 20
187.12672715101243
  0
LWPOLYLINE
  5
47
330
17
100
AcDbEntity
  8
MAT-SAND
  6
Continuous
370
5
100
AcDbPolyline
 90
2
 70
0
 10
210.39930805278055
 20
187.12672863719968
 10
210.39930524975026
 20
187.12672863719993
  0
LWPOLYLINE
  5
48
330
17
100
AcDbEntity
  8
MAT-SAND
  6
Continuous
370
5
100
AcDbPolyline
 90
2
 70
0
 10
227.39931137864204
 20
204.12672691090486
 10
227.39931137864198
 20
204.12672624256035
  0
LWPOLYLINE
  5
49
330
17
100
AcDbEntity
  8
MAT-SAND
  6
Continuous
370
5
100
AcDbPolyline
 90
2
 70
0
 10
45.54627107114611
 20
331.1543507488255
 10
45.54627107114611
 20
-50.323507095770275
  0
LWPOLYLINE
  5
4A
330
17
100
AcDbEntity
  8
MAT-SAND
  6
Continuous
370
5
100
AcDbPolyline
 90
2
 70
0
 10
433.56873772836343
 20
-50.323507095770275
 10
45.54627107114616
 20
-50.323507095770275
  0
LWPOLYLINE
  5
4B
330
17
100
AcDbEntity
  8
MAT-SAND
  6
Continuous
370
5
100
AcDbPolyline
 90
2
 70
0
 10
433.56873772836343
 20
331.1543507488255
 10
45.54627107114616
 20
331.1543507488255
  0
LWPOLYLINE
  5
4C
330
17
100
AcDbEntity
  8
MAT-SAND
  6
Continuous
370
5
100
AcDbPolyline
 90
2
 70
0
 10
433.56873772836343
 20
331.1543507488255
 10
433.56873772836343
 20
-50.323507095770275
  0
LWPOLYLINE
  5
4D
330
17
100
AcDbEntity
  8
MAT-NULL
  6
Continuous
370
13
100
AcDbPolyline
 90
2
 70
0
 10
125.39928145928846
 20
149.12670586982958
 10
125.39928184870278
 20
148.12670595575966
  0
LWPOLYLINE
  5
4E
330
17
100
AcDbEntity
  8
MAT-NULL
  6
Continuous
370
13
100
AcDbPolyline
 90
2
 70
0
 10
205.08432537409024
 20
149.12673690033054
 10
125.39928145928846
 20
149.12670586982958
  0
LWPOLYLINE
  5
4F
330
17
100
AcDbEntity
  8
MAT-NULL
  6
Continuous
370
13
100
AcDbPolyline
 90
2
 70
0
 10
205.08432537409024
 20
149.12673690033054
 10
205.08432537409024
 20
148.1267369862605
  0
LWPOLYLINE
  5
50
330
17
100
AcDbEntity
  8
MAT-NULL
  6
Continuous
370
13
100
AcDbPolyline
 90
2
 70
0
 10
125.39928184870278
 20
148.12670595575966
 10
205.08432537409024
 20
148.1267369862605
  0
LWPOLYLINE
  5
51
330
17
100
AcDbEntity
  8
MAT-NULL
  6
Continuous
370
13
100
AcDbPolyline
 90
2
 70
0
 10
214.5843215059975
 20
148.1267406856955
 10
216.39928945553706
 20
148.12674139247008
  0
LWPOLYLINE
  5
52
330
17
100
AcDbEntity
  8
MAT-NULL
  6
Continuous
370
13
100
AcDbPolyline
 90
2
 70
0
 10
214.5843215059975
 20
148.1267406856955
 10
214.5843215059975
 20
149.12674059976553
  0
LWPOLYLINE
  5
53
330
17
100
AcDbEntity
  8
MAT-NULL
  6
Continuous
370
13
100
AcDbPolyline
 90
2
 70
0
 10
216.39928906612275
 20
149.12674130653997
 10
214.5843215059975
 20
149.12674059976553
  0
LWPOLYLINE
  5
54
330
17
100
AcDbEntity
  8
MAT-NULL
  6
Continuous
370
13
100
AcDbPolyline
 90
2
 70
0
 10
216.39928945553706
 20
148.12674139247008
 10
216.39928906612275
 20
149.12674130653997
  0
LWPOLYLINE
  5
55
330
17
100
AcDbEntity
  8
MAT-NULL
  6
Continuous
370
13
100
AcDbPolyline
 90
2
 70
0
 10
214.39930084688885
 20
75.12673006211247
 10
194.3993037861924
 20
75.12673093634012
  0
LWPOLYLINE
  5
56
330
17
100
AcDbEntity
  8
MAT-NULL
  6
Continuous
370
13
100
AcDbPolyline
 90
2
 70
0
 10
214.39930084688885
 20
76.12672997618246
 10
194.3993037861924
 20
76.12673085041007
  0
LWPOLYLINE
  5
57
330
17
100
AcDbEntity
  8
MAT-NULL
  6
Continuous
370
13
100
AcDbPolyline
 90
2
 70
0
 10
184.3993126555522
 20
75.12673006211247
 10
184.3993126555522
 20
76.12672997618242
  0
LWPOLYLINE
  5
58
330
17
100
AcDbEntity
  8
MAT-NULL
  6
Continuous
370
13
100
AcDbPolyline
 90
2
 70
0
 10
194.3993034802127
 20
76.12673085041007
 10
184.3993126555522
 20
76.12672997618242
  0
LWPOLYLINE
  5
59
330
17
100
AcDbEntity
  8
MAT-NULL
  6
Continuous
370
13
100
AcDbPolyline
 90
2
 70
0
 10
194.3993034802127
 20
75.12673093634012
 10
194.3993034802127
 20
76.12673085041007
  0
LWPOLYLINE
  5
5A
330
17
100
AcDbEntity
  8
MAT-NULL
  6
Continuous
370
13
100
AcDbPolyline
 90
2
 70
0
 10
194.3993034802127
 20
75.12673093634012
 10
184.3993126555522
 20
75.12673006211247
  0
LWPOLYLINE
  5
5B
330
17
100
AcDbEntity
  8
MAT-NULL
  6
Continuous
370
13
100
AcDbPolyline
 90
2
 70
0
 10
184.39931296153185
 20
75.12673006211247
 10
164.3993159008354
 20
75.12673093634012
  0
LWPOLYLINE
  5
5C
330
17
100
AcDbEntity
  8
MAT-NULL
  6
Continuous
370
13
100
AcDbPolyline
 90
2
 70
0
 10
184.39931296153185
 20
76.12672997618246
 10
164.3993159008354
 20
76.12673085041007
  0
LWPOLYLINE
  5
5D
330
17
100
AcDbEntity
  8
MAT-NULL
  6
Continuous
370
13
100
AcDbPolyline
 90
2
 70
0
 10
154.39931401274987
 20
75.12673006211254
 10
154.39931401274987
 20
76.12672997618249
  0
LWPOLYLINE
  5
5E
330
17
100
AcDbEntity
  8
MAT-NULL
  6
Continuous
370
13
100
AcDbPolyline
 90
2
 70
0
 10
164.3993155948557
 20
76.12673085041007
 10
154.39931401274987
 20
76.12672997618249
  0
LWPOLYLINE
  5
5F
330
17
100
AcDbEntity
  8
MAT-NULL
  6
Continuous
370
13
100
AcDbPolyline
 90
2
 70
0
 10
164.3993155948557
 20
75.12673093634012
 10
164.3993155948557
 20
76.12673085041007
  0
LWPOLYLINE
  5
60
330
17
100
AcDbEntity
  8
MAT-NULL
  6
Continuous
370
13
100
AcDbPolyline
 90
2
 70
0
 10
164.3993155948557
 20
75.12673093634012
 10
154.39931401274987
 20
75.12673006211254
  0
LWPOLYLINE
  5
61
330
17
100
AcDbEntity
  8
MAT-NULL
  6
Continuous
370
13
100
AcDbPolyline
 90
2
 70
0
 10
154.39931431872955
 20
75.12673006211254
 10
134.39931969943913
 20
75.12673093634005
  0
LWPOLYLINE
  5
62
330
17
100
AcDbEntity
  8
MAT-NULL
  6
Continuous
370
13
100
AcDbPolyline
 90
2
 70
0
 10
154.39931431872955
 20
76.12672997618249
 10
134.39931969943913
 20
76.12673085041004
  0
LWPOLYLINE
  5
63
330
17
100
AcDbEntity
  8
MAT-NULL
  6
Continuous
370
13
100
AcDbPolyline
 90
2
 70
0
 10
126.39930195761002
 20
75.12673049922628
 10
126.39930195761002
 20
76.12673041329626
  0
LWPOLYLINE
  5
64
330
17
100
AcDbEntity
  8
MAT-NULL
  6
Continuous
370
13
100
AcDbPolyline
 90
2
 70
0
 10
134.39931939345942
 20
76.12673085041
 10
126.39930195761002
 20
76.12673041329626
  0
LWPOLYLINE
  5
65
330
17
100
AcDbEntity
  8
MAT-NULL
  6
Continuous
370
13
100
AcDbPolyline
 90
2
 70
0
 10
134.39931939345942
 20
75.12673093634005
 10
134.39931939345942
 20
76.12673085041
  0
LWPOLYLINE
  5
66
330
17
100
AcDbEntity
  8
MAT-NULL
  6
Continuous
370
13
100
AcDbPolyline
 90
2
 70
0
 10
134.39931939345942
 20
75.12673093634005
 10
126.39930195761002
 20
75.12673049922628
  0
LWPOLYLINE
  5
67
330
17
100
AcDbEntity
  8
MAT-NULL
  6
Continuous
370
13
100
AcDbPolyline
 90
2
 70
0
 10
216.39931541666613
 20
75.12673049922628
 10
214.3993005409092
 20
75.12673006211247
  0
LWPOLYLINE
  5
68
330
17
100
AcDbEntity
  8
MAT-NULL
  6
Continuous
370
13
100
AcDbPolyline
 90
2
 70
0
 10
214.3993005409092
 20
75.12673006211247
 10
214.3993005409092
 20
76.12672997618242
  0
LWPOLYLINE
  5
69
330
17
100
AcDbEntity
  8
MAT-NULL
  6
Continuous
370
13
100
AcDbPolyline
 90
2
 70
0
 10
216.39931541666613
 20
76.12673041329626
 10
214.3993005409092
 20
76.12672997618242
  0
LWPOLYLINE
  5
6A
330
17
100
AcDbEntity
  8
MAT-NULL
  6
Continuous
370
13
100
AcDbPolyline
 90
2
 70
0
 10
216.39931541666613
 20
75.12673049922628
 10
216.39931541666613
 20
76.12673041329626
  0
LWPOLYLINE
  5
6C
330
17
100
AcDbEntity
  8
MAT-CONCRETE
  6
Continuous
370
5
100
AcDbPolyline
 90
2
 70
0
 10
126.3992920234771
 20
128.12673342333204
 10
128.39929185161705
 20
128.12673357432783
  0
LWPOLYLINE
  5
6D
330
17
100
AcDbEntity
  8
MAT-CONCRETE
  6
Continuous
370
5
100
AcDbPolyline
 90
2
 70
0
 10
126.39929172148592
 20
132.126727722347
 10
126.3992920234771
 20
128.12673342333204
  0
LWPOLYLINE
  5
6E
330
17
100
AcDbEntity
  8
MAT-CONCRETE
  6
Continuous
370
5
100
AcDbPolyline
 90
2
 70
0
 10
126.39929172148592
 20
132.126727722347
 10
128.39929154962584
 20
132.12672835017992
  0
LWPOLYLINE
  5
6F
330
17
100
AcDbEntity
  8
MAT-CONCRETE
  6
Continuous
370
5
100
AcDbPolyline
 90
2
 70
0
 10
128.39929185161705
 20
128.12673357432783
 10
128.39929154962584
 20
132.12672835017992
  0
LWPOLYLINE
  5
70
330
17
100
AcDbEntity
  8
MAT-CONCRETE
  6
Continuous
370
5
100
AcDbPolyline
 90
2
 70
0
 10
128.3992910966381
 20
138.12673271741198
 10
128.39929034165914
 20
148.1267318557279
  0
LWPOLYLINE
  5
71
330
17
100
AcDbEntity
  8
MAT-CONCRETE
  6
Continuous
370
5
100
AcDbPolyline
 90
2
 70
0
 10
128.3992910966381
 20
138.12673271741198
 10
126.39929126849819
 20
138.1267320895791
  0
LWPOLYLINE
  5
72
330
17
100
AcDbEntity
  8
MAT-CONCRETE
  6
Continuous
370
5
100
AcDbPolyline
 90
2
 70
0
 10
126.39929051351922
 20
148.12673170473212
 10
126.39929126849819
 20
138.1267320895791
  0
LWPOLYLINE
  5
73
330
17
100
AcDbEntity
  8
MAT-CONCRETE
  6
Continuous
370
5
100
AcDbPolyline
 90
2
 70
0
 10
128.39929034165914
 20
148.1267318557279
 10
126.39929051351922
 20
148.12673170473212
  0
LWPOLYLINE
  5
75
330
17
100
AcDbEntity
  8
MAT-FIN
  6
Continuous
370
5
100
AcDbPolyline
 90
2
 70
0
 10
298.3992806489184
 20
148.12659823672053
 10
298.3993186488959
 20
75.12672668452865
  0
LWPOLYLINE
  5
76
330
17
100
AcDbEntity
  8
MAT-FIN
  6
Continuous
370
5
100
AcDbPolyline
 90
2
 70
0
 10
299.3992805629882
 20
148.12659875726902
 10
298.3992806489184
 20
148.12659823672053
  0
LWPOLYLINE
  5
77
330
17
100
AcDbEntity
  8
MAT-FIN
  6
Continuous
370
5
100
AcDbPolyline
 90
2
 70
0
 10
299.3993185629658
 20
75.12672720507715
 10
299.3992805629882
 20
148.12659875726902
  0
LWPOLYLINE
  5
78
330
17
100
AcDbEntity
  8
MAT-FIN
  6
Continuous
370
5
100
AcDbPolyline
 90
2
 70
0
 10
298.3993186488959
 20
75.12672668452865
 10
299.3993185629658
 20
75.12672720507715
  0
LWPOLYLINE
  5
79
330
17
100
AcDbEntity
  8
MAT-CONCRETE
  6
Continuous
370
5
100
AcDbPolyline
 90
2
 70
0
 10
158.39931713686173
 20
78.12673882450444
 10
158.39930206887198
 20
126.12673565353725
  0
LWPOLYLINE
  5
7A
330
17
100
AcDbEntity
  8
MAT-CONCRETE
  6
Continuous
370
5
100
AcDbPolyline
 90
2
 70
0
 10
156.39931730872186
 20
78.12673819667157
 10
158.39931713686173
 20
78.12673882450444
  0
LWPOLYLINE
  5
7B
330
17
100
AcDbEntity
  8
MAT-CONCRETE
  6
Continuous
370
5
100
AcDbPolyline
 90
2
 70
0
 10
156.39930224073214
 20
126.12673502570435
 10
156.39931730872186
 20
78.12673819667157
  0
LWPOLYLINE
  5
7C
330
17
100
AcDbEntity
  8
MAT-CONCRETE
  6
Continuous
370
5
100
AcDbPolyline
 90
2
 70
0
 10
158.39930206887198
 20
126.12673565353725
 10
156.39930224073214
 20
126.12673502570435
  0
LWPOLYLINE
  5
7D
330
17
100
AcDbEntity
  8
MAT-CONCRETE
  6
Continuous
370
5
100
AcDbPolyline
 90
2
 70
0
 10
188.39931455896098
 20
78.12673882450275
 10
188.3992994909713
 20
126.12673565353725
  0
LWPOLYLINE
  5
7E
330
17
100
AcDbEntity
  8
MAT-CONCRETE
  6
Continuous
370
5
100
AcDbPolyline
 90
2
 70
0
 10
186.39931473082112
 20
78.12673819666986
 10
188.39931455896098
 20
78.12673882450275
  0
LWPOLYLINE
  5
7F
330
17
100
AcDbEntity
  8
MAT-CONCRETE
  6
Continuous
370
5
100
AcDbPolyline
 90
2
 70
0
 10
186.39929966283142
 20
126.12673502570435
 10
186.39931473082112
 20
78.12673819666986
  0
LWPOLYLINE
  5
80
330
17
100
AcDbEntity
  8
MAT-CONCRETE
  6
Continuous
370
5
100
AcDbPolyline
 90
2
 70
0
 10
188.3992994909713
 20
126.12673565353725
 10
186.39929966283142
 20
126.12673502570435
  0
LWPOLYLINE
  5
81
330
17
100
AcDbEntity
  8
MAT-FIN
  6
Continuous
370
5
100
AcDbPolyline
 90
2
 70
0
 10
298.39931878845596
 20
76.12673041329626
 10
216.39930852902143
 20
76.12673041329626
  0
LWPOLYLINE
  5
82
330
17
100
AcDbEntity
  8
MAT-FIN
  6
Continuous
370
5
100
AcDbPolyline
 90
2
 70
0
 10
298.39931878845596
 20
75.12673049922628
 10
298.39931878845596
 20
76.12673041329626
  0
LWPOLYLINE
  5
83
330
17
100
AcDbEntity
  8
MAT-FIN
  6
Continuous
370
5
100
AcDbPolyline
 90
2
 70
0
 10
216.39930852902143
 20
75.12673049922628
 10
298.39931878845596
 20
75.12673049922628
  0
LWPOLYLINE
  5
84
330
17
100
AcDbEntity
  8
MAT-FIN
  6
Continuous
370
5
100
AcDbPolyline
 90
2
 70
0
 10
216.39930852902143
 20
76.12673041329626
 10
216.39930852902143
 20
75.12673049922628
  0
LWPOLYLINE
  5
85
330
17
100
AcDbEntity
  8
MAT-CONCRETE
  6
Continuous
370
5
100
AcDbPolyline
 90
2
 70
0
 10
270.0618996666946
 20
128.12673357432837
 10
270.0618996666946
 20
126.12673374618844
  0
LWPOLYLINE
  5
86
330
17
100
AcDbEntity
  8
MAT-CONCRETE
  6
Continuous
370
5
100
AcDbPolyline
 90
2
 70
0
 10
270.0618996666946
 20
126.12673374618844
 10
268.39930215331134
 20
126.12673374618844
  0
LWPOLYLINE
  5
87
330
17
100
AcDbEntity
  8
MAT-CONCRETE
  6
Continuous
370
5
100
AcDbPolyline
 90
2
 70
0
 10
268.39930215331134
 20
126.12673374618844
 10
268.39930215331134
 20
128.12673357432837
  0
LWPOLYLINE
  5
88
330
17
100
AcDbEntity
  8
MAT-CONCRETE
  6
Continuous
370
5
100
AcDbPolyline
 90
2
 70
0
 10
270.0618996666946
 20
128.12673357432837
 10
268.39930215331134
 20
128.12673357432837
  0
LWPOLYLINE
  5
89
330
17
100
AcDbEntity
  8
MAT-CONCRETE
  6
Continuous
370
5
100
AcDbPolyline
 90
2
 70
0
 10
279.0618988933244
 20
126.12673374618844
 10
279.0618988933244
 20
128.12673357432837
  0
LWPOLYLINE
  5
8A
330
17
100
AcDbEntity
  8
MAT-CONCRETE
  6
Continuous
370
5
100
AcDbPolyline
 90
2
 70
0
 10
293.39930000506075
 20
128.12673357432837
 10
279.0618988933244
 20
128.12673357432837
  0
LWPOLYLINE
  5
8B
330
17
100
AcDbEntity
  8
MAT-CONCRETE
  6
Continuous
370
5
100
AcDbPolyline
 90
2
 70
0
 10
293.39930000506075
 20
126.12673374618844
 10
293.39930000506075
 20
128.12673357432837
  0
LWPOLYLINE
  5
8C
330
17
100
AcDbEntity
  8
MAT-CONCRETE
  6
Continuous
370
5
100
AcDbPolyline
 90
2
 70
0
 10
293.39930000506075
 20
126.12673374618844
 10
279.0618988933244
 20
126.12673374618844
  0
LWPOLYLINE
  5
8D
330
17
100
AcDbEntity
  8
MAT-CONCRETE
  6
Continuous
370
5
100
AcDbPolyline
 90
2
 70
0
 10
218.3993100975637
 20
81.12672925703849
 10
218.39929691307037
 20
123.1267340039785
  0
LWPOLYLINE
  5
8E
330
17
100
AcDbEntity
  8
MAT-CONCRETE
  6
Continuous
370
5
100
AcDbPolyline
 90
2
 70
0
 10
216.39931026942386
 20
81.12672862920562
 10
218.3993100975637
 20
81.12672925703849
  0
LWPOLYLINE
  5
8F
330
17
100
AcDbEntity
  8
MAT-CONCRETE
  6
Continuous
370
5
100
AcDbPolyline
 90
2
 70
0
 10
216.3992970849305
 20
123.12673337614561
 10
216.39931026942386
 20
81.12672862920562
  0
LWPOLYLINE
  5
90
330
17
100
AcDbEntity
  8
MAT-CONCRETE
  6
Continuous
370
5
100
AcDbPolyline
 90
2
 70
0
 10
218.39929691307037
 20
123.1267340039785
 10
216.3992970849305
 20
123.12673337614561
  0
LWPOLYLINE
  5
91
330
17
100
AcDbEntity
  8
MAT-CONCRETE
  6
Continuous
370
5
100
AcDbPolyline
 90
2
 70
0
 10
298.3992861524229
 20
128.12673346836598
 10
298.3992805019263
 20
146.1267339349368
  0
LWPOLYLINE
  5
92
330
17
100
AcDbEntity
  8
MAT-CONCRETE
  6
Continuous
370
5
100
AcDbPolyline
 90
2
 70
0
 10
296.3992863242831
 20
128.1267328405331
 10
298.3992861524229
 20
128.12673346836598
  0
LWPOLYLINE
  5
93
330
17
100
AcDbEntity
  8
MAT-CONCRETE
  6
Continuous
370
5
100
AcDbPolyline
 90
2
 70
0
 10
296.3992806737864
 20
146.12673330710388
 10
296.3992863242831
 20
128.1267328405331
  0
LWPOLYLINE
  5
94
330
17
100
AcDbEntity
  8
MAT-CONCRETE
  6
Continuous
370
5
100
AcDbPolyline
 90
2
 70
0
 10
298.3992805019263
 20
146.1267339349368
 10
296.3992806737864
 20
146.12673330710388
  0
LWPOLYLINE
  5
95
330
17
100
AcDbEntity
  8
MAT-CONCRETE
  6
Continuous
370
5
100
AcDbPolyline
 90
2
 70
0
 10
293.3992993692783
 20
78.1267378708296
 10
221.3993080993713
 20
78.1267378708296
  0
LWPOLYLINE
  5
96
330
17
100
AcDbEntity
  8
MAT-CONCRETE
  6
Continuous
370
5
100
AcDbPolyline
 90
2
 70
0
 10
293.3992993692783
 20
76.12673804268965
 10
293.3992993692783
 20
78.1267378708296
  0
LWPOLYLINE
  5
97
330
17
100
AcDbEntity
  8
MAT-CONCRETE
  6
Continuous
370
5
100
AcDbPolyline
 90
2
 70
0
 10
221.3993080993713
 20
76.12673804268965
 10
293.3992993692783
 20
76.12673804268965
  0
LWPOLYLINE
  5
98
330
17
100
AcDbEntity
  8
MAT-CONCRETE
  6
Continuous
370
5
100
AcDbPolyline
 90
2
 70
0
 10
221.3993080993713
 20
78.1267378708296
 10
221.3993080993713
 20
76.12673804268965
  0
LWPOLYLINE
  5
99
330
17
100
AcDbEntity
  8
MAT-CONCRETE
  6
Continuous
370
5
100
AcDbPolyline
 90
2
 70
0
 10
145.29930376675978
 20
128.12673357432837
 10
145.29930376675978
 20
126.12673374618844
  0
LWPOLYLINE
  5
9A
330
17
100
AcDbEntity
  8
MAT-CONCRETE
  6
Continuous
370
5
100
AcDbPolyline
 90
2
 70
0
 10
145.29930376675978
 20
126.12673374618844
 10
131.39930391214548
 20
126.12673374618844
  0
LWPOLYLINE
  5
9B
330
17
100
AcDbEntity
  8
MAT-CONCRETE
  6
Continuous
370
5
100
AcDbPolyline
 90
2
 70
0
 10
131.39930391214548
 20
126.12673374618844
 10
131.39930391214548
 20
128.12673357432837
  0
LWPOLYLINE
  5
9C
330
17
100
AcDbEntity
  8
MAT-CONCRETE
  6
Continuous
370
5
100
AcDbPolyline
 90
2
 70
0
 10
145.29930376675978
 20
128.12673357432837
 10
131.39930391214548
 20
128.12673357432837
  0
LWPOLYLINE
  5
9D
330
17
100
AcDbEntity
  8
MAT-CONCRETE
  6
Continuous
370
5
100
AcDbPolyline
 90
2
 70
0
 10
175.29930118885903
 20
128.12673357432837
 10
175.29930118885903
 20
126.12673374618844
  0
LWPOLYLINE
  5
9E
330
17
100
AcDbEntity
  8
MAT-CONCRETE
  6
Continuous
370
5
100
AcDbPolyline
 90
2
 70
0
 10
175.29930118885903
 20
126.12673374618844
 10
154.29930299338957
 20
126.12673374618844
  0
LWPOLYLINE
  5
9F
330
17
100
AcDbEntity
  8
MAT-CONCRETE
  6
Continuous
370
5
100
AcDbPolyline
 90
2
 70
0
 10
154.29930299338957
 20
126.12673374618844
 10
154.29930299338957
 20
128.12673357432837
  0
LWPOLYLINE
  5
A0
330
17
100
AcDbEntity
  8
MAT-CONCRETE
  6
Continuous
370
5
100
AcDbPolyline
 90
2
 70
0
 10
175.29930118885903
 20
128.12673357432837
 10
154.29930299338957
 20
128.12673357432837
  0
LWPOLYLINE
  5
A1
330
17
100
AcDbEntity
  8
MAT-CONCRETE
  6
Continuous
370
5
100
AcDbPolyline
 90
2
 70
0
 10
205.33433183396113
 20
128.12673357432837
 10
205.33433183396113
 20
126.12673374618844
  0
LWPOLYLINE
  5
A2
330
17
100
AcDbEntity
  8
MAT-CONCRETE
  6
Continuous
370
5
100
AcDbPolyline
 90
2
 70
0
 10
205.33433183396113
 20
126.12673374618844
 10
184.2993004154888
 20
126.12673374618844
  0
LWPOLYLINE
  5
A3
330
17
100
AcDbEntity
  8
MAT-CONCRETE
  6
Continuous
370
5
100
AcDbPolyline
 90
2
 70
0
 10
184.2993004154888
 20
126.12673374618844
 10
184.2993004154888
 20
128.12673357432837
  0
LWPOLYLINE
  5
A4
330
17
100
AcDbEntity
  8
MAT-CONCRETE
  6
Continuous
370
5
100
AcDbPolyline
 90
2
 70
0
 10
205.33433183396113
 20
128.12673357432837
 10
184.2993004154888
 20
128.12673357432837
  0
LWPOLYLINE
  5
A5
330
17
100
AcDbEntity
  8
MAT-CONCRETE
  6
Continuous
370
5
100
AcDbPolyline
 90
2
 70
0
 10
214.3343310605909
 20
126.12673374618844
 10
214.3343310605909
 20
128.12673357432837
  0
LWPOLYLINE
  5
A6
330
17
100
AcDbEntity
  8
MAT-CONCRETE
  6
Continuous
370
5
100
AcDbPolyline
 90
2
 70
0
 10
216.39929660809347
 20
128.12673357432837
 10
214.3343310605909
 20
128.12673357432837
  0
LWPOLYLINE
  5
A7
330
17
100
AcDbEntity
  8
MAT-CONCRETE
  6
Continuous
370
5
100
AcDbPolyline
 90
2
 70
0
 10
216.39929660809347
 20
126.12673374618844
 10
216.39929660809347
 20
128.12673357432837
  0
LWPOLYLINE
  5
A8
330
17
100
AcDbEntity
  8
MAT-CONCRETE
  6
Continuous
370
5
100
AcDbPolyline
 90
2
 70
0
 10
216.39929660809347
 20
126.12673374618844
 10
214.3343310605909
 20
126.12673374618844
  0
LWPOLYLINE
  5
A9
330
17
100
AcDbEntity
  8
MAT-CONCRETE
  6
Continuous
370
5
100
AcDbPolyline
 90
2
 70
0
 10
194.399302790088
 20
76.12673804268965
 10
214.39929985078453
 20
76.12673804268965
  0
LWPOLYLINE
  5
AA
330
17
100
AcDbEntity
  8
MAT-CONCRETE
  6
Continuous
370
5
100
AcDbPolyline
 90
2
 70
0
 10
194.399302790088
 20
78.1267378708296
 10
214.39929985078453
 20
78.1267378708296
  0
LWPOLYLINE
  5
AB
330
17
100
AcDbEntity
  8
MAT-CONCRETE
  6
Continuous
370
5
100
AcDbPolyline
 90
2
 70
0
 10
184.39931196542761
 20
76.12673804268965
 10
184.39931196542761
 20
78.1267378708296
  0
LWPOLYLINE
  5
AC
330
17
100
AcDbEntity
  8
MAT-CONCRETE
  6
Continuous
370
5
100
AcDbPolyline
 90
2
 70
0
 10
194.399302790088
 20
78.1267378708296
 10
184.39931196542761
 20
78.1267378708296
  0
LWPOLYLINE
  5
AD
330
17
100
AcDbEntity
  8
MAT-CONCRETE
  6
Continuous
370
5
100
AcDbPolyline
 90
2
 70
0
 10
194.399302790088
 20
78.1267378708296
 10
194.399302790088
 20
76.12673804268965
  0
LWPOLYLINE
  5
AE
330
17
100
AcDbEntity
  8
MAT-CONCRETE
  6
Continuous
370
5
100
AcDbPolyline
 90
2
 70
0
 10
194.399302790088
 20
76.12673804268965
 10
184.39931196542761
 20
76.12673804268965
  0
LWPOLYLINE
  5
AF
330
17
100
AcDbEntity
  8
MAT-CONCRETE
  6
Continuous
370
5
100
AcDbPolyline
 90
2
 70
0
 10
164.3993149047311
 20
76.12673804268965
 10
184.39931196542761
 20
76.12673804268965
  0
LWPOLYLINE
  5
B0
330
17
100
AcDbEntity
  8
MAT-CONCRETE
  6
Continuous
370
5
100
AcDbPolyline
 90
2
 70
0
 10
164.3993149047311
 20
78.1267378708296
 10
184.39931196542761
 20
78.1267378708296
  0
LWPOLYLINE
  5
B1
330
17
100
AcDbEntity
  8
MAT-CONCRETE
  6
Continuous
370
5
100
AcDbPolyline
 90
2
 70
0
 10
164.3993149047311
 20
78.1267378708296
 10
164.3993149047311
 20
76.12673804268965
  0
LWPOLYLINE
  5
B2
330
17
100
AcDbEntity
  8
MAT-CONCRETE
  6
Continuous
370
5
100
AcDbPolyline
 90
2
 70
0
 10
164.3993149047311
 20
76.12673804268965
 10
154.39931692751395
 20
76.12673804268965
  0
LWPOLYLINE
  5
B3
330
17
100
AcDbEntity
  8
MAT-CONCRETE
  6
Continuous
370
5
100
AcDbPolyline
 90
2
 70
0
 10
154.39931692751395
 20
76.12673804268965
 10
154.39931692751395
 20
78.1267378708296
  0
LWPOLYLINE
  5
B4
330
17
100
AcDbEntity
  8
MAT-CONCRETE
  6
Continuous
370
5
100
AcDbPolyline
 90
2
 70
0
 10
164.3993149047311
 20
78.1267378708296
 10
154.39931692751395
 20
78.1267378708296
  0
LWPOLYLINE
  5
B5
330
17
100
AcDbEntity
  8
MAT-CONCRETE
  6
Continuous
370
5
100
AcDbPolyline
 90
2
 70
0
 10
134.39931986681742
 20
76.12673804268965
 10
154.39931692751395
 20
76.12673804268965
  0
LWPOLYLINE
  5
B6
330
17
100
AcDbEntity
  8
MAT-CONCRETE
  6
Continuous
370
5
100
AcDbPolyline
 90
2
 70
0
 10
134.39931986681742
 20
78.1267378708296
 10
154.39931692751395
 20
78.1267378708296
  0
LWPOLYLINE
  5
B7
330
17
100
AcDbEntity
  8
MAT-CONCRETE
  6
Continuous
370
5
100
AcDbPolyline
 90
2
 70
0
 10
131.39930391214548
 20
76.12673804268965
 10
131.39930391214548
 20
78.1267378708296
  0
LWPOLYLINE
  5
B8
330
17
100
AcDbEntity
  8
MAT-CONCRETE
  6
Continuous
370
5
100
AcDbPolyline
 90
2
 70
0
 10
134.39931986681742
 20
78.1267378708296
 10
131.39930391214548
 20
78.1267378708296
  0
LWPOLYLINE
  5
B9
330
17
100
AcDbEntity
  8
MAT-CONCRETE
  6
Continuous
370
5
100
AcDbPolyline
 90
2
 70
0
 10
134.39931986681742
 20
78.1267378708296
 10
134.39931986681742
 20
76.12673804268965
  0
LWPOLYLINE
  5
BA
330
17
100
AcDbEntity
  8
MAT-CONCRETE
  6
Continuous
370
5
100
AcDbPolyline
 90
2
 70
0
 10
134.39931986681742
 20
76.12673804268965
 10
131.39930391214548
 20
76.12673804268965
  0
LWPOLYLINE
  5
BB
330
17
100
AcDbEntity
  8
MAT-CONCRETE
  6
Continuous
370
5
100
AcDbPolyline
 90
2
 70
0
 10
216.3993055838505
 20
76.12673804268965
 10
214.39929985078453
 20
76.12673804268965
  0
LWPOLYLINE
  5
BC
330
17
100
AcDbEntity
  8
MAT-CONCRETE
  6
Continuous
370
5
100
AcDbPolyline
 90
2
 70
0
 10
214.39929985078453
 20
76.12673804268965
 10
214.39929985078453
 20
78.1267378708296
  0
LWPOLYLINE
  5
BD
330
17
100
AcDbEntity
  8
MAT-CONCRETE
  6
Continuous
370
5
100
AcDbPolyline
 90
2
 70
0
 10
216.3993055838505
 20
78.1267378708296
 10
214.39929985078453
 20
78.1267378708296
  0
LWPOLYLINE
  5
BE
330
17
100
AcDbEntity
  8
MAT-CONCRETE
  6
Continuous
370
5
100
AcDbPolyline
 90
2
 70
0
 10
216.3993055838505
 20
76.12673804268965
 10
216.3993055838505
 20
78.1267378708296
  0
LWPOLYLINE
  5
BF
330
17
100
AcDbEntity
  8
MAT-CONCRETE
  6
Continuous
370
5
100
AcDbPolyline
 90
2
 70
0
 10
283.39930494527835
 20
78.1267380909139
 10
283.39930086436095
 20
91.12674819783028
  0
LWPOLYLINE
  5
C0
330
17
100
AcDbEntity
  8
MAT-CONCRETE
  6
Continuous
370
5
100
AcDbPolyline
 90
2
 70
0
 10
281.39930511713845
 20
78.12673746308099
 10
283.39930494527835
 20
78.1267380909139
  0
LWPOLYLINE
  5
C1
330
17
100
AcDbEntity
  8
MAT-CONCRETE
  6
Continuous
370
5
100
AcDbPolyline
 90
2
 70
0
 10
281.3993010362211
 20
91.12674756999739
 10
281.39930511713845
 20
78.12673746308099
  0
LWPOLYLINE
  5
C2
330
17
100
AcDbEntity
  8
MAT-CONCRETE
  6
Continuous
370
5
100
AcDbPolyline
 90
2
 70
0
 10
283.39930086436095
 20
91.12674819783028
 10
281.3993010362211
 20
91.12674756999739
  0
LWPOLYLINE
  5
C3
330
17
100
AcDbEntity
  8
MAT-CONCRETE
  6
Continuous
370
5
100
AcDbPolyline
 90
2
 70
0
 10
205.33433183396122
 20
148.1267318557279
 10
205.33433183396122
 20
146.12673202758796
  0
LWPOLYLINE
  5
C4
330
17
100
AcDbEntity
  8
MAT-CONCRETE
  6
Continuous
370
5
100
AcDbPolyline
 90
2
 70
0
 10
205.33433183396122
 20
146.12673202758796
 10
128.39929034165914
 20
146.12673202758796
  0
LWPOLYLINE
  5
C5
330
17
100
AcDbEntity
  8
MAT-CONCRETE
  6
Continuous
370
5
100
AcDbPolyline
 90
2
 70
0
 10
128.39929034165914
 20
146.12673202758796
 10
128.39929034165914
 20
148.1267318557279
  0
LWPOLYLINE
  5
C6
330
17
100
AcDbEntity
  8
MAT-CONCRETE
  6
Continuous
370
5
100
AcDbPolyline
 90
2
 70
0
 10
205.33433183396122
 20
148.1267318557279
 10
128.39929034165914
 20
148.1267318557279
  0
LWPOLYLINE
  5
C7
330
17
100
AcDbEntity
  8
MAT-CONCRETE
  6
Continuous
370
5
100
AcDbPolyline
 90
2
 70
0
 10
214.33433106059098
 20
146.12673202758796
 10
214.33433106059098
 20
148.1267318557279
  0
LWPOLYLINE
  5
C8
330
17
100
AcDbEntity
  8
MAT-CONCRETE
  6
Continuous
370
5
100
AcDbPolyline
 90
2
 70
0
 10
298.39927573355504
 20
148.1267318557279
 10
214.33433106059098
 20
148.1267318557279
  0
LWPOLYLINE
  5
C9
330
17
100
AcDbEntity
  8
MAT-CONCRETE
  6
Continuous
370
5
100
AcDbPolyline
 90
2
 70
0
 10
298.39927573355504
 20
146.12673202758796
 10
298.39927573355504
 20
148.1267318557279
  0
LWPOLYLINE
  5
CA
330
17
100
AcDbEntity
  8
MAT-CONCRETE
  6
Continuous
370
5
100
AcDbPolyline
 90
2
 70
0
 10
298.39927573355504
 20
146.12673202758796
 10
214.33433106059098
 20
146.12673202758796
  0
LWPOLYLINE
  5
CB
330
17
100
AcDbEntity
  8
MAT-NULL
  6
Continuous
370
20
100
AcDbPolyline
 90
2
 70
0
 10
124.8992261879453
 20
137.62672856182562
 10
124.89922881449624
 20
132.62673257729145
  0
LWPOLYLINE
  5
CC
330
17
100
AcDbEntity
  8
MAT-NULL
  6
Continuous
370
20
100
AcDbPolyline
 90
2
 70
0
 10
126.39924707404806
 20
132.62673304817187
 10
124.89922881449624
 20
132.62673257729145
  0
LWPOLYLINE
  5
CD
330
17
100
AcDbEntity
  8
MAT-NULL
  6
Continuous
370
20
100
AcDbPolyline
 90
2
 70
0
 10
126.39924443635182
 20
137.62672903270607
 10
126.39924707404806
 20
132.62673304817187
  0
LWPOLYLINE
  5
CE
330
17
100
AcDbEntity
  8
MAT-NULL
  6
Continuous
370
20
100
AcDbPolyline
 90
2
 70
0
 10
126.39924443635182
 20
137.62672903270607
 10
124.8992261879453
 20
137.62672856182562
  0
LWPOLYLINE
  5
CF
330
17
100
AcDbEntity
  8
MAT-NULL
  6
Continuous
370
20
100
AcDbPolyline
 90
2
 70
0
 10
124.89922618794455
 20
137.6267309650847
 10
124.89922603098502
 20
138.12673509921237
  0
LWPOLYLINE
  5
D0
330
17
100
AcDbEntity
  8
MAT-NULL
  6
Continuous
370
20
100
AcDbPolyline
 90
2
 70
0
 10
124.89922618794455
 20
137.6267309650847
 10
124.89922603098502
 20
138.12673509921237
  0
LWPOLYLINE
  5
D1
330
17
100
AcDbEntity
  8
MAT-NULL
  6
Continuous
370
20
100
AcDbPolyline
 90
2
 70
0
 10
126.39924443635107
 20
137.62673143596513
 10
124.89922618794455
 20
137.6267309650847
  0
LWPOLYLINE
  5
D2
330
17
100
AcDbEntity
  8
MAT-NULL
  6
Continuous
370
20
100
AcDbPolyline
 90
2
 70
0
 10
126.39924427939154
 20
138.12673557009282
 10
126.39924443635107
 20
137.62673143596513
  0
LWPOLYLINE
  5
D3
330
17
100
AcDbEntity
  8
MAT-NULL
  6
Continuous
370
20
100
AcDbPolyline
 90
2
 70
0
 10
126.39924427939154
 20
138.12673557009282
 10
126.39924443635107
 20
137.62673143596513
  0
LWPOLYLINE
  5
D4
330
17
100
AcDbEntity
  8
MAT-NULL
  6
Continuous
370
20
100
AcDbPolyline
 90
2
 70
0
 10
126.39924427939154
 20
138.12673557009282
 10
124.89922603098502
 20
138.12673509921237
  0
LWPOLYLINE
  5
D5
330
17
100
AcDbEntity
  8
MAT-NULL
  6
Continuous
370
20
100
AcDbPolyline
 90
2
 70
0
 10
125.39928372502442
 20
138.1267352561887
 10
124.89922603098502
 20
138.12673509921237
  0
LWPOLYLINE
  5
D6
330
17
100
AcDbEntity
  8
MAT-NULL
  6
Continuous
370
20
100
AcDbPolyline
 90
2
 70
0
 10
124.89922897145503
 20
132.12673078920196
 10
124.89922881449586
 20
132.62673379799446
  0
LWPOLYLINE
  5
D7
330
17
100
AcDbEntity
  8
MAT-NULL
  6
Continuous
370
20
100
AcDbPolyline
 90
2
 70
0
 10
124.89922897145503
 20
132.12673078920196
 10
124.89922881449586
 20
132.62673379799446
  0
LWPOLYLINE
  5
D8
330
17
100
AcDbEntity
  8
MAT-NULL
  6
Continuous
370
20
100
AcDbPolyline
 90
2
 70
0
 10
125.3992856085255
 20
132.12673094617796
 10
124.89922897145503
 20
132.12673078920196
  0
LWPOLYLINE
  5
D9
330
17
100
AcDbEntity
  8
MAT-NULL
  6
Continuous
370
20
100
AcDbPolyline
 90
2
 70
0
 10
126.39924723100685
 20
132.1267312600824
 10
124.89922897145503
 20
132.12673078920196
  0
LWPOLYLINE
  5
DA
330
17
100
AcDbEntity
  8
MAT-NULL
  6
Continuous
370
20
100
AcDbPolyline
 90
2
 70
0
 10
126.39924707404768
 20
132.6267342688749
 10
126.39924723100685
 20
132.1267312600824
  0
LWPOLYLINE
  5
DB
330
17
100
AcDbEntity
  8
MAT-NULL
  6
Continuous
370
20
100
AcDbPolyline
 90
2
 70
0
 10
126.39924707404768
 20
132.6267342688749
 10
126.39924723100685
 20
132.1267312600824
  0
LWPOLYLINE
  5
DC
330
17
100
AcDbEntity
  8
MAT-NULL
  6
Continuous
370
20
100
AcDbPolyline
 90
2
 70
0
 10
126.39924707404768
 20
132.6267342688749
 10
124.89922881449586
 20
132.62673379799446
  0
LWPOLYLINE
  5
DD
330
17
100
AcDbEntity
  8
MAT-NULL
  6
Continuous
370
20
100
AcDbPolyline
 90
2
 70
0
 10
125.74923938051171
 20
137.62673123191783
 10
125.54922055309484
 20
137.62673116912865
  0
LWPOLYLINE
  5
DE
330
17
100
AcDbEntity
  8
MAT-NULL
  6
Continuous
370
20
100
AcDbPolyline
 90
2
 70
0
 10
125.54922055309484
 20
137.62673116912865
 10
125.74923938051171
 20
137.62673123191783
  0
LWPOLYLINE
  5
DF
330
17
100
AcDbEntity
  8
MAT-NULL
  6
Continuous
370
20
100
AcDbPolyline
 90
2
 70
0
 10
125.7492420182087
 20
132.62673284412458
 10
125.74923938051171
 20
137.62673123191783
  0
LWPOLYLINE
  5
E0
330
17
100
AcDbEntity
  8
MAT-NULL
  6
Continuous
370
20
100
AcDbPolyline
 90
2
 70
0
 10
125.74923938051171
 20
137.62673123191783
 10
125.7492420182087
 20
132.62673284412458
  0
LWPOLYLINE
  5
E1
330
17
100
AcDbEntity
  8
MAT-NULL
  6
Continuous
370
20
100
AcDbPolyline
 90
2
 70
0
 10
125.5492232670858
 20
132.62673278133542
 10
125.7492420182087
 20
132.62673284412458
  0
LWPOLYLINE
  5
E2
330
17
100
AcDbEntity
  8
MAT-NULL
  6
Continuous
370
20
100
AcDbPolyline
 90
2
 70
0
 10
125.7492420182087
 20
132.62673284412458
 10
125.5492232670858
 20
132.62673278133542
  0
LWPOLYLINE
  5
E3
330
17
100
AcDbEntity
  8
MAT-NULL
  6
Continuous
370
20
100
AcDbPolyline
 90
2
 70
0
 10
125.54922055309484
 20
137.62673116912865
 10
125.5492232670858
 20
132.62673278133542
  0
LWPOLYLINE
  5
E4
330
17
100
AcDbEntity
  8
MAT-NULL
  6
Continuous
370
20
100
AcDbPolyline
 90
2
 70
0
 10
125.54922055309484
 20
137.62673116912865
 10
125.5492232670858
 20
132.62673278133542
  0
LWPOLYLINE
  5
E5
330
17
100
AcDbEntity
  8
MAT-CONCRETE
  6
Continuous
370
5
100
AcDbPolyline
 90
2
 70
0
 10
298.3992936864196
 20
81.1267292570353
 10
298.3992805019263
 20
123.1267340039785
  0
LWPOLYLINE
  5
E6
330
17
100
AcDbEntity
  8
MAT-CONCRETE
  6
Continuous
370
5
100
AcDbPolyline
 90
2
 70
0
 10
296.39929385827975
 20
81.12672862920242
 10
298.3992936864196
 20
81.1267292570353
  0
LWPOLYLINE
  5
E7
330
17
100
AcDbEntity
  8
MAT-CONCRETE
  6
Continuous
370
5
100
AcDbPolyline
 90
2
 70
0
 10
296.3992806737864
 20
123.12673337614561
 10
296.39929385827975
 20
81.12672862920242
  0
LWPOLYLINE
  5
E8
330
17
100
AcDbEntity
  8
MAT-CONCRETE
  6
Continuous
370
5
100
AcDbPolyline
 90
2
 70
0
 10
298.3992805019263
 20
123.1267340039785
 10
296.3992806737864
 20
123.12673337614561
  0
LWPOLYLINE
  5
E9
330
17
100
AcDbEntity
  8
MAT-CONCRETE
  6
Continuous
370
5
100
AcDbPolyline
 90
2
 70
0
 10
268.3993178491337
 20
78.12673787082842
 10
268.39930215331134
 20
128.12673357432837
  0
LWPOLYLINE
  5
EA
330
17
100
AcDbEntity
  8
MAT-CONCRETE
  6
Continuous
370
5
100
AcDbPolyline
 90
2
 70
0
 10
266.39931802099386
 20
78.12673724299555
 10
268.3993178491337
 20
78.12673787082842
  0
LWPOLYLINE
  5
EB
330
17
100
AcDbEntity
  8
MAT-CONCRETE
  6
Continuous
370
5
100
AcDbPolyline
 90
2
 70
0
 10
266.3993023251715
 20
128.12673294649548
 10
266.39931802099386
 20
78.12673724299555
  0
LWPOLYLINE
  5
EC
330
17
100
AcDbEntity
  8
MAT-CONCRETE
  6
Continuous
370
5
100
AcDbPolyline
 90
2
 70
0
 10
268.39930215331134
 20
128.12673357432837
 10
266.3993023251715
 20
128.12673294649548
  0
LWPOLYLINE
  5
ED
330
17
100
AcDbEntity
  8
MAT-CONCRETE
  6
Continuous
370
5
100
AcDbPolyline
 90
2
 70
0
 10
296.39927277190077
 20
93.12673658187924
 10
268.39930215331134
 20
93.12673658187924
  0
LWPOLYLINE
  5
EE
330
17
100
AcDbEntity
  8
MAT-CONCRETE
  6
Continuous
370
5
100
AcDbPolyline
 90
2
 70
0
 10
296.39927277190077
 20
91.1267367537393
 10
296.39927277190077
 20
93.12673658187924
  0
LWPOLYLINE
  5
EF
330
17
100
AcDbEntity
  8
MAT-CONCRETE
  6
Continuous
370
5
100
AcDbPolyline
 90
2
 70
0
 10
268.39930215331134
 20
91.1267367537393
 10
296.39927277190077
 20
91.1267367537393
  0
LWPOLYLINE
  5
F0
330
17
100
AcDbEntity
  8
MAT-CONCRETE
  6
Continuous
370
5
100
AcDbPolyline
 90
2
 70
0
 10
268.39930215331134
 20
93.12673658187924
 10
268.39930215331134
 20
91.1267367537393
  0
LWPOLYLINE
  5
F1
330
17
100
AcDbEntity
  8
MAT-NULL
  6
Continuous
370
5
100
AcDbPolyline
 90
2
 70
0
 10
266.399294896116
 20
102.56102043916003
 10
253.89929719094428
 20
102.56102029009904
  0
LWPOLYLINE
  5
F2
330
17
100
AcDbEntity
  8
MAT-NULL
  6
Continuous
370
5
100
AcDbPolyline
 90
2
 70
0
 10
266.39929476255736
 20
113.76101886639226
 10
253.89929705738564
 20
113.76101871733128
  0
LWPOLYLINE
  5
F3
330
17
100
AcDbEntity
  8
MAT-NULL
  6
Continuous
370
5
100
AcDbPolyline
 90
2
 70
0
 10
266.3992948627263
 20
105.36102019855593
 10
253.8992971575546
 20
105.36102004949497
  0
LWPOLYLINE
  5
F4
330
17
100
AcDbEntity
  8
MAT-NULL
  6
Continuous
370
5
100
AcDbPolyline
 90
2
 70
0
 10
266.39929472916765
 20
116.56101832061243
 10
253.89929702399598
 20
116.56101817155145
  0
LWPOLYLINE
  5
F5
330
17
100
AcDbEntity
  8
MAT-NULL
  6
Continuous
370
5
100
AcDbPolyline
 90
2
 70
0
 10
253.89929731470903
 20
92.18232102349205
 10
266.3992950198807
 20
92.18232117255306
  0
LWPOLYLINE
  5
F6
330
17
100
AcDbEntity
  8
MAT-NULL
  6
Continuous
370
5
100
AcDbPolyline
 90
2
 70
0
 10
266.39929496289534
 20
96.96102214107114
 10
253.8992972577236
 20
96.96102199201015
  0
LWPOLYLINE
  5
F7
330
17
100
AcDbEntity
  8
MAT-NULL
  6
Continuous
370
5
100
AcDbPolyline
 90
2
 70
0
 10
266.39929482933667
 20
108.16101995795188
 10
253.89929712416495
 20
108.1610198088909
  0
LWPOLYLINE
  5
F8
330
17
100
AcDbEntity
  8
MAT-NULL
  6
Continuous
370
5
100
AcDbPolyline
 90
2
 70
0
 10
266.3992949295057
 20
99.76102190046709
 10
253.8992972243339
 20
99.7610217514061
  0
LWPOLYLINE
  5
F9
330
17
100
AcDbEntity
  8
MAT-NULL
  6
Continuous
370
5
100
AcDbPolyline
 90
2
 70
0
 10
266.39929496289534
 20
96.96102214107114
 10
253.8992972577236
 20
96.96102199201015
  0
LWPOLYLINE
  5
FA
330
17
100
AcDbEntity
  8
MAT-NULL
  6
Continuous
370
5
100
AcDbPolyline
 90
2
 70
0
 10
266.39929469577805
 20
119.3610177748326
 10
253.89929699060633
 20
119.36101762577164
  0
LWPOLYLINE
  5
FB
330
17
100
AcDbEntity
  8
MAT-NULL
  6
Continuous
370
5
100
AcDbPolyline
 90
2
 70
0
 10
266.399294795947
 20
110.96101849664481
 10
253.89929709077532
 20
110.96101834758383
  0
LWPOLYLINE
  5
FC
330
17
100
AcDbEntity
  8
MAT-NULL
  6
Continuous
370
5
100
AcDbPolyline
 90
2
 70
0
 10
253.89929699060633
 20
119.36101762577164
 10
253.89929702399598
 20
116.56101817155145
  0
LWPOLYLINE
  5
FD
330
17
100
AcDbEntity
  8
MAT-NULL
  6
Continuous
370
5
100
AcDbPolyline
 90
2
 70
0
 10
253.89929702399598
 20
116.56101817155145
 10
253.89929705738564
 20
113.76101871733128
  0
LWPOLYLINE
  5
FE
330
17
100
AcDbEntity
  8
MAT-NULL
  6
Continuous
370
5
100
AcDbPolyline
 90
2
 70
0
 10
253.89929705738564
 20
113.76101871733128
 10
253.89929709077532
 20
110.96101834758383
  0
LWPOLYLINE
  5
FF
330
17
100
AcDbEntity
  8
MAT-NULL
  6
Continuous
370
5
100
AcDbPolyline
 90
2
 70
0
 10
253.89929709077532
 20
110.96101834758383
 10
253.89929712416495
 20
108.1610198088909
  0
LWPOLYLINE
  5
100
330
17
100
AcDbEntity
  8
MAT-NULL
  6
Continuous
370
5
100
AcDbPolyline
 90
2
 70
0
 10
253.89929712416495
 20
108.1610198088909
 10
253.8992971575546
 20
105.36102004949497
  0
LWPOLYLINE
  5
101
330
17
100
AcDbEntity
  8
MAT-NULL
  6
Continuous
370
5
100
AcDbPolyline
 90
2
 70
0
 10
253.8992971575546
 20
105.36102004949497
 10
253.89929719094428
 20
102.56102029009904
  0
LWPOLYLINE
  5
102
330
17
100
AcDbEntity
  8
MAT-NULL
  6
Continuous
370
5
100
AcDbPolyline
 90
2
 70
0
 10
253.89929719094428
 20
102.56102029009904
 10
253.8992972243339
 20
99.7610217514061
  0
LWPOLYLINE
  5
103
330
17
100
AcDbEntity
  8
MAT-NULL
  6
Continuous
370
5
100
AcDbPolyline
 90
2
 70
0
 10
253.8992972243339
 20
99.7610217514061
 10
253.8992972577236
 20
96.96102199201015
  0
LWPOLYLINE
  5
104
330
17
100
AcDbEntity
  8
MAT-NULL
  6
Continuous
370
5
100
AcDbPolyline
 90
2
 70
0
 10
253.8992972577236
 20
96.96102199201015
 10
253.89929731470903
 20
92.18232102349205
  0
LWPOLYLINE
  5
105
330
17
100
AcDbEntity
  8
MAT-NULL
  6
Continuous
370
5
100
AcDbPolyline
 90
2
 70
0
 10
253.89929731470903
 20
92.18232102349205
 10
253.89929702399598
 20
116.56101817155145
  0
LWPOLYLINE
  5
106
330
17
100
AcDbEntity
  8
MAT-NULL
  6
Continuous
370
5
100
AcDbPolyline
 90
2
 70
0
 10
266.39929472916765
 20
116.56101832061245
 10
266.3992950198807
 20
92.18232117255306
  0
LWPOLYLINE
  5
107
330
17
100
AcDbEntity
  8
MAT-NULL
  6
Continuous
370
5
100
AcDbPolyline
 90
2
 70
0
 10
266.3992950198807
 20
92.18232117255306
 10
266.39929496289534
 20
96.96102214107114
  0
LWPOLYLINE
  5
108
330
17
100
AcDbEntity
  8
MAT-NULL
  6
Continuous
370
5
100
AcDbPolyline
 90
2
 70
0
 10
266.39929496289534
 20
96.96102214107114
 10
266.3992949295057
 20
99.76102190046709
  0
LWPOLYLINE
  5
109
330
17
100
AcDbEntity
  8
MAT-NULL
  6
Continuous
370
5
100
AcDbPolyline
 90
2
 70
0
 10
266.3992949295057
 20
99.76102190046709
 10
266.399294896116
 20
102.56102043916003
  0
LWPOLYLINE
  5
10A
330
17
100
AcDbEntity
  8
MAT-NULL
  6
Continuous
370
5
100
AcDbPolyline
 90
2
 70
0
 10
266.399294896116
 20
102.56102043916003
 10
266.3992948627263
 20
105.36102019855593
  0
LWPOLYLINE
  5
10B
330
17
100
AcDbEntity
  8
MAT-NULL
  6
Continuous
370
5
100
AcDbPolyline
 90
2
 70
0
 10
266.3992948627263
 20
105.36102019855593
 10
266.39929482933667
 20
108.16101995795188
  0
LWPOLYLINE
  5
10C
330
17
100
AcDbEntity
  8
MAT-NULL
  6
Continuous
370
5
100
AcDbPolyline
 90
2
 70
0
 10
266.39929482933667
 20
108.16101995795188
 10
266.399294795947
 20
110.96101849664481
  0
LWPOLYLINE
  5
10D
330
17
100
AcDbEntity
  8
MAT-NULL
  6
Continuous
370
5
100
AcDbPolyline
 90
2
 70
0
 10
266.399294795947
 20
110.96101849664481
 10
266.39929476255736
 20
113.76101886639226
  0
LWPOLYLINE
  5
10E
330
17
100
AcDbEntity
  8
MAT-NULL
  6
Continuous
370
5
100
AcDbPolyline
 90
2
 70
0
 10
266.39929476255736
 20
113.76101886639226
 10
266.39929472916765
 20
116.56101832061243
  0
LWPOLYLINE
  5
10F
330
17
100
AcDbEntity
  8
MAT-NULL
  6
Continuous
370
5
100
AcDbPolyline
 90
2
 70
0
 10
266.39929469577805
 20
119.3610177748326
 10
266.39929472916765
 20
116.56101832061243
  0
LWPOLYLINE
  5
110
330
17
100
AcDbEntity
  8
MAT-NULL
  6
Continuous
370
5
100
AcDbPolyline
 90
2
 70
0
 10
253.44929587318273
 20
91.07675643472024
 10
252.54929408162124
 20
91.07675639537987
  0
LWPOLYLINE
  5
111
330
17
100
AcDbEntity
  8
MAT-NULL
  6
Continuous
370
5
100
AcDbPolyline
 90
2
 70
0
 10
253.44929567445263
 20
108.93879406905255
 10
253.44929583084195
 20
105.36102293798567
  0
LWPOLYLINE
  5
112
330
17
100
AcDbEntity
  8
MAT-NULL
  6
Continuous
370
5
100
AcDbPolyline
 90
2
 70
0
 10
253.44929583084195
 20
105.36102293798567
 10
253.4492963204098
 20
94.16101642359598
  0
LWPOLYLINE
  5
113
330
17
100
AcDbEntity
  8
MAT-NULL
  6
Continuous
370
5
100
AcDbPolyline
 90
2
 70
0
 10
253.74929598945502
 20
94.16101643670937
 10
253.7492961102387
 20
105.36102295109912
  0
LWPOLYLINE
  5
114
330
17
100
AcDbEntity
  8
MAT-NULL
  6
Continuous
370
5
100
AcDbPolyline
 90
2
 70
0
 10
252.54929409473465
 20
90.77675642115891
 10
253.59929615027522
 20
90.77675646705595
  0
LWPOLYLINE
  5
115
330
17
100
AcDbEntity
  8
MAT-NULL
  6
Continuous
370
5
100
AcDbPolyline
 90
2
 70
0
 10
253.7492961102387
 20
105.36102295109912
 10
253.74929595384936
 20
108.93879408216598
  0
LWPOLYLINE
  5
116
330
17
100
AcDbEntity
  8
MAT-NULL
  6
Continuous
370
5
100
AcDbPolyline
 90
2
 70
0
 10
253.59929615027522
 20
90.77675646705595
 10
253.5992961437185
 20
90.92675645416637
  0
LWPOLYLINE
  5
117
330
17
100
AcDbEntity
  8
MAT-NULL
  6
Continuous
370
5
100
AcDbPolyline
 90
2
 70
0
 10
253.44929583084195
 20
105.36102293798567
 10
253.7492961102387
 20
105.36102295109912
  0
LWPOLYLINE
  5
118
330
17
100
AcDbEntity
  8
MAT-NULL
  6
Continuous
370
5
100
AcDbPolyline
 90
2
 70
0
 10
253.74929598945502
 20
94.16101643670937
 10
253.74929613082904
 20
90.92675646072315
  0
LWPOLYLINE
  5
119
330
17
100
AcDbEntity
  8
MAT-NULL
  6
Continuous
370
5
100
AcDbPolyline
 90
2
 70
0
 10
253.74929598945502
 20
94.16101643670937
 10
253.4492963204098
 20
94.16101642359598
  0
LWPOLYLINE
  5
11A
330
17
100
AcDbEntity
  8
MAT-NULL
  6
Continuous
370
5
100
AcDbPolyline
 90
2
 70
0
 10
253.4492963204098
 20
94.16101642359598
 10
253.44929585143225
 20
90.9267564476097
  0
LWPOLYLINE
  5
11B
330
17
100
AcDbEntity
  8
MAT-NULL
  6
Continuous
370
5
100
AcDbPolyline
 90
2
 70
0
 10
253.74929613082904
 20
90.92675646072315
 10
253.44929585143225
 20
90.9267564476097
  0
LWPOLYLINE
  5
11C
330
17
100
AcDbEntity
  8
MAT-NULL
  6
Continuous
370
5
100
AcDbPolyline
 90
2
 70
0
 10
252.54929408162124
 20
91.07675639537987
 10
253.4492958731827
 20
91.07675643472024
  0
LWPOLYLINE
  5
11D
330
17
100
AcDbEntity
  8
MAT-NULL
  6
Continuous
370
5
100
AcDbPolyline
 90
2
 70
0
 10
253.5992961437185
 20
90.92675645416644
 10
253.59929615027522
 20
90.77675646705595
  0
LWPOLYLINE
  5
11E
330
17
100
AcDbEntity
  8
MAT-NULL
  6
Continuous
370
5
100
AcDbPolyline
 90
2
 70
0
 10
253.59929615027522
 20
90.77675646705595
 10
252.54929409473465
 20
90.77675642115891
  0
LWPOLYLINE
  5
11F
330
17
100
AcDbEntity
  8
MAT-NULL
  6
Continuous
370
5
100
AcDbPolyline
 90
2
 70
0
 10
252.54929409473465
 20
90.77675642115891
 10
252.54929408162124
 20
91.07675639537987
  0
LWPOLYLINE
  5
120
330
17
100
AcDbEntity
  8
MAT-NULL
  6
Continuous
370
5
100
AcDbPolyline
 90
2
 70
0
 10
253.44929583084195
 20
105.36102293798567
 10
253.4492963204098
 20
94.16101642359598
  0
LWPOLYLINE
  5
121
330
17
100
AcDbEntity
  8
MAT-NULL
  6
Continuous
370
5
100
AcDbPolyline
 90
2
 70
0
 10
253.7492961102387
 20
105.36102295109912
 10
253.74929598945502
 20
94.16101643670937
  0
LWPOLYLINE
  5
122
330
17
100
AcDbEntity
  8
MAT-NULL
  6
Continuous
370
5
100
AcDbPolyline
 90
2
 70
0
 10
253.44929567445263
 20
108.93879406905249
 10
253.44929583084195
 20
105.36102293798567
  0
LWPOLYLINE
  5
123
330
17
100
AcDbEntity
  8
MAT-NULL
  6
Continuous
370
5
100
AcDbPolyline
 90
2
 70
0
 10
253.7492961102387
 20
105.36102295109912
 10
253.74929595384936
 20
108.93879408216598
  0
LWPOLYLINE
  5
124
330
17
100
AcDbEntity
  8
MAT-NULL
  6
Continuous
370
5
100
AcDbPolyline
 90
2
 70
0
 10
253.74929595384936
 20
108.93879408216598
 10
253.44929567445263
 20
108.93879406905255
  0
LWPOLYLINE
  5
125
330
17
100
AcDbEntity
  8
MAT-NULL
  6
Continuous
370
5
100
AcDbPolyline
 90
2
 70
0
 10
253.44929567445263
 20
108.93879406905255
 10
253.4492952188828
 20
119.36101669956534
  0
LWPOLYLINE
  5
126
330
17
100
AcDbEntity
  8
MAT-NULL
  6
Continuous
370
5
100
AcDbPolyline
 90
2
 70
0
 10
253.4492952188828
 20
119.36101669956534
 10
253.74929549827954
 20
119.36101671267879
  0
LWPOLYLINE
  5
127
330
17
100
AcDbEntity
  8
MAT-NULL
  6
Continuous
370
5
100
AcDbPolyline
 90
2
 70
0
 10
253.74929595384936
 20
108.93879408216598
 10
253.74929549827954
 20
119.36101671267879
  0
LWPOLYLINE
  5
128
330
17
100
AcDbEntity
  8
MAT-CONCRETE
  6
Continuous
370
5
100
AcDbPolyline
 90
2
 70
0
 10
128.39931306289492
 20
81.12672925703721
 10
128.39929987840154
 20
123.1267340039785
  0
LWPOLYLINE
  5
129
330
17
100
AcDbEntity
  8
MAT-CONCRETE
  6
Continuous
370
5
100
AcDbPolyline
 90
2
 70
0
 10
126.39931323475504
 20
81.12672862920431
 10
128.39931306289492
 20
81.12672925703721
  0
LWPOLYLINE
  5
12A
330
17
100
AcDbEntity
  8
MAT-CONCRETE
  6
Continuous
370
5
100
AcDbPolyline
 90
2
 70
0
 10
126.39930005026169
 20
123.12673337614561
 10
126.39931323475504
 20
81.12672862920431
  0
LWPOLYLINE
  5
12B
330
17
100
AcDbEntity
  8
MAT-CONCRETE
  6
Continuous
370
5
100
AcDbPolyline
 90
2
 70
0
 10
128.39929987840154
 20
123.1267340039785
 10
126.39930005026169
 20
123.12673337614561
  0
LWPOLYLINE
  5
12C
330
17
100
AcDbEntity
  8
MAT-CONCRETE
  6
Continuous
370
5
100
AcDbPolyline
 90
2
 70
0
 10
126.39924069714837
 20
138.12673236254955
 10
126.39924121041506
 20
137.62672903270504
  0
LWPOLYLINE
  5
12D
330
17
100
AcDbEntity
  8
MAT-CONCRETE
  6
Continuous
370
5
100
AcDbPolyline
 90
2
 70
0
 10
126.39924634304361
 20
132.62673304817164
 10
126.39924685631081
 20
132.1267292160238
  0
LWPOLYLINE
  5
12E
330
17
100
AcDbEntity
  8
MAT-CONCRETE
  6
Continuous
370
5
100
AcDbPolyline
 90
2
 70
0
 10
298.39928064893417
 20
148.12656797634799
 10
298.39927573355504
 20
148.12656797634799
  0
LWPOLYLINE
  5
12F
330
17
100
AcDbEntity
  8
MAT-CONCRETE
  6
Continuous
370
5
100
AcDbPolyline
 90
2
 70
0
 10
214.33433106059098
 20
148.12656797634799
 10
205.93432806036998
 20
148.12656797634799
  0
LWPOLYLINE
  5
130
330
17
100
AcDbEntity
  8
MAT-CONCRETE
  6
Continuous
370
5
100
AcDbPolyline
 90
2
 70
0
 10
205.58432808895535
 20
148.12656797634799
 10
205.33433183396122
 20
148.12656797634799
  0
LWPOLYLINE
  5
131
330
17
100
AcDbEntity
  8
MAT-CONCRETE
  6
Continuous
370
5
100
AcDbPolyline
 90
2
 70
0
 10
126.39929051353161
 20
148.12656797634799
 10
126.39928049998227
 20
148.12656797634799
  0
LWPOLYLINE
  5
132
330
17
100
AcDbEntity
  8
MAT-CONCRETE
  6
Continuous
370
5
100
AcDbPolyline
 90
2
 70
0
 10
298.39928956183144
 20
94.26585546353635
 10
298.39928956183144
 20
123.1267340039785
  0
LWPOLYLINE
  5
133
330
17
100
AcDbEntity
  8
MAT-CONCRETE
  6
Continuous
370
5
100
AcDbPolyline
 90
2
 70
0
 10
298.39928956183144
 20
128.12673357432837
 10
298.39928956183144
 20
131.00444321227178
  0
LWPOLYLINE
  5
134
330
17
100
AcDbEntity
  8
MAT-CONCRETE
  6
Continuous
370
5
100
AcDbPolyline
 90
2
 70
0
 10
164.3993155948557
 20
76.12673041329626
 10
189.39930828445736
 20
76.12673041329626
  0
LWPOLYLINE
  5
135
330
17
100
AcDbEntity
  8
MAT-CONCRETE
  6
Continuous
370
5
100
AcDbPolyline
 90
2
 70
0
 10
194.3993034802127
 20
76.12673041329626
 10
216.3993085290212
 20
76.12673041329626
  0
LWPOLYLINE
  5
136
330
17
100
AcDbEntity
  8
MAT-NULL
  6
Continuous
370
5
100
AcDbPolyline
 90
2
 70
0
 10
210.39930805278055
 20
187.12672705487228
 10
227.39930872820045
 20
187.12672705487228
  0
LWPOLYLINE
  5
137
330
17
100
AcDbEntity
  8
MAT-NULL
  6
Continuous
370
5
100
AcDbPolyline
 90
2
 70
0
 10
210.39930866313205
 20
204.12672624256035
 10
210.39930805278055
 20
187.12672705487228
  0
LWPOLYLINE
  5
138
330
17
100
AcDbEntity
  8
MAT-NULL
  6
Continuous
370
5
100
AcDbPolyline
 90
2
 70
0
 10
227.39930872820045
 20
204.12672624256035
 10
210.39930866313205
 20
204.12672624256035
  0
LWPOLYLINE
  5
139
330
17
100
AcDbEntity
  8
MAT-NULL
  6
Continuous
370
5
100
AcDbPolyline
 90
2
 70
0
 10
227.39930872820045
 20
187.12672705487228
 10
227.39930872820045
 20
204.12672624256035
  0
LWPOLYLINE
  5
13A
330
17
100
AcDbEntity
  8
MAT-NULL
  6
Continuous
370
5
100
AcDbPolyline
 90
2
 70
0
 10
287.3992899920777
 20
187.12672705487228
 10
304.39929066749755
 20
187.12672705487228
  0
LWPOLYLINE
  5
13B
330
17
100
AcDbEntity
  8
MAT-NULL
  6
Continuous
370
5
100
AcDbPolyline
 90
2
 70
0
 10
287.3992906024292
 20
204.12672624256035
 10
287.3992899920777
 20
187.12672705487228
  0
LWPOLYLINE
  5
13C
330
17
100
AcDbEntity
  8
MAT-NULL
  6
Continuous
370
5
100
AcDbPolyline
 90
2
 70
0
 10
304.39929066749755
 20
204.12672624256035
 10
287.3992906024292
 20
204.12672624256035
  0
LWPOLYLINE
  5
13D
330
17
100
AcDbEntity
  8
MAT-NULL
  6
Continuous
370
5
100
AcDbPolyline
 90
2
 70
0
 10
304.39929066749755
 20
187.12672705487228
 10
304.39929066749755
 20
204.12672624256035
  0
LWPOLYLINE
  5
13E
330
17
100
AcDbEntity
  8
MAT-CONCRETE
  6
Continuous
370
5
100
AcDbPolyline
 90
2
 70
0
 10
293.39930000506075
 20
198.1267275592268
 10
298.3992995754106
 20
198.1267275592268
  0
LWPOLYLINE
  5
13F
330
17
100
AcDbEntity
  8
MAT-CONCRETE
  6
Continuous
370
5
100
AcDbPolyline
 90
2
 70
0
 10
298.3992995754106
 20
198.1267275592268
 10
298.3992995754106
 20
193.12672798887692
  0
LWPOLYLINE
  5
140
330
17
100
AcDbEntity
  8
MAT-CONCRETE
  6
Continuous
370
5
100
AcDbPolyline
 90
2
 70
0
 10
298.3992995754106
 20
193.12672798887692
 10
293.39930000506075
 20
193.12672798887692
  0
LWPOLYLINE
  5
141
330
17
100
AcDbEntity
  8
MAT-CONCRETE
  6
Continuous
370
5
100
AcDbPolyline
 90
2
 70
0
 10
293.39930000506075
 20
193.12672798887692
 10
293.39930000506075
 20
198.1267275592268
  0
LWPOLYLINE
  5
142
330
17
100
AcDbEntity
  8
MAT-CONCRETE
  6
Continuous
370
5
100
AcDbPolyline
 90
2
 70
0
 10
216.39930852902143
 20
198.1267275592268
 10
221.3993080993713
 20
198.1267275592268
  0
LWPOLYLINE
  5
143
330
17
100
AcDbEntity
  8
MAT-CONCRETE
  6
Continuous
370
5
100
AcDbPolyline
 90
2
 70
0
 10
221.3993080993713
 20
198.1267275592268
 10
221.3993080993713
 20
193.12672798887692
  0
LWPOLYLINE
  5
144
330
17
100
AcDbEntity
  8
MAT-CONCRETE
  6
Continuous
370
5
100
AcDbPolyline
 90
2
 70
0
 10
221.3993080993713
 20
193.12672798887692
 10
216.39930852902143
 20
193.12672798887692
  0
LWPOLYLINE
  5
145
330
17
100
AcDbEntity
  8
MAT-CONCRETE
  6
Continuous
370
5
100
AcDbPolyline
 90
2
 70
0
 10
216.39930852902143
 20
193.12672798887692
 10
216.39930852902143
 20
198.1267275592268
  0
LWPOLYLINE
  5
146
330
17
100
AcDbEntity
  8
MAT-CONCRETE
  6
Continuous
370
5
100
AcDbPolyline
 90
2
 70
0
 10
293.39930000506075
 20
128.12673357432837
 10
298.3992995754106
 20
128.12673357432837
  0
LWPOLYLINE
  5
147
330
17
100
AcDbEntity
  8
MAT-CONCRETE
  6
Continuous
370
5
100
AcDbPolyline
 90
2
 70
0
 10
298.3992995754106
 20
128.12673357432837
 10
298.3992995754106
 20
123.1267340039785
  0
LWPOLYLINE
  5
148
330
17
100
AcDbEntity
  8
MAT-CONCRETE
  6
Continuous
370
5
100
AcDbPolyline
 90
2
 70
0
 10
298.3992995754106
 20
123.1267340039785
 10
293.39930000506075
 20
123.1267340039785
  0
LWPOLYLINE
  5
149
330
17
100
AcDbEntity
  8
MAT-CONCRETE
  6
Continuous
370
5
100
AcDbPolyline
 90
2
 70
0
 10
293.39930000506075
 20
123.1267340039785
 10
293.39930000506075
 20
128.12673357432837
  0
LWPOLYLINE
  5
14A
330
17
100
AcDbEntity
  8
MAT-CONCRETE
  6
Continuous
370
5
100
AcDbPolyline
 90
2
 70
0
 10
216.39930852902143
 20
128.12673357432837
 10
221.3993080993713
 20
128.12673357432837
  0
LWPOLYLINE
  5
14B
330
17
100
AcDbEntity
  8
MAT-CONCRETE
  6
Continuous
370
5
100
AcDbPolyline
 90
2
 70
0
 10
221.3993080993713
 20
128.12673357432837
 10
221.3993080993713
 20
123.1267340039785
  0
LWPOLYLINE
  5
14C
330
17
100
AcDbEntity
  8
MAT-CONCRETE
  6
Continuous
370
5
100
AcDbPolyline
 90
2
 70
0
 10
221.3993080993713
 20
123.1267340039785
 10
216.39930852902143
 20
123.1267340039785
  0
LWPOLYLINE
  5
14D
330
17
100
AcDbEntity
  8
MAT-CONCRETE
  6
Continuous
370
5
100
AcDbPolyline
 90
2
 70
0
 10
216.39930852902143
 20
123.1267340039785
 10
216.39930852902143
 20
128.12673357432837
  0
LWPOLYLINE
  5
14E
330
17
100
AcDbEntity
  8
MAT-CONCRETE
  6
Continuous
370
5
100
AcDbPolyline
 90
2
 70
0
 10
293.39930000506075
 20
81.12672998364614
 10
298.3992995754106
 20
81.12672998364614
  0
LWPOLYLINE
  5
14F
330
17
100
AcDbEntity
  8
MAT-CONCRETE
  6
Continuous
370
5
100
AcDbPolyline
 90
2
 70
0
 10
298.3992995754106
 20
81.12672998364614
 10
298.3992995754106
 20
76.12673041329626
  0
LWPOLYLINE
  5
150
330
17
100
AcDbEntity
  8
MAT-CONCRETE
  6
Continuous
370
5
100
AcDbPolyline
 90
2
 70
0
 10
298.3992995754106
 20
76.12673041329626
 10
293.39930000506075
 20
76.12673041329626
  0
LWPOLYLINE
  5
151
330
17
100
AcDbEntity
  8
MAT-CONCRETE
  6
Continuous
370
5
100
AcDbPolyline
 90
2
 70
0
 10
293.39930000506075
 20
76.12673041329626
 10
293.39930000506075
 20
81.12672998364614
  0
LWPOLYLINE
  5
152
330
17
100
AcDbEntity
  8
MAT-CONCRETE
  6
Continuous
370
5
100
AcDbPolyline
 90
2
 70
0
 10
216.39930852902143
 20
81.12672998364614
 10
221.3993080993713
 20
81.12672998364614
  0
LWPOLYLINE
  5
153
330
17
100
AcDbEntity
  8
MAT-CONCRETE
  6
Continuous
370
5
100
AcDbPolyline
 90
2
 70
0
 10
221.3993080993713
 20
81.12672998364614
 10
221.3993080993713
 20
76.12673041329626
  0
LWPOLYLINE
  5
154
330
17
100
AcDbEntity
  8
MAT-CONCRETE
  6
Continuous
370
5
100
AcDbPolyline
 90
2
 70
0
 10
221.3993080993713
 20
76.12673041329626
 10
216.39930852902143
 20
76.12673041329626
  0
LWPOLYLINE
  5
155
330
17
100
AcDbEntity
  8
MAT-CONCRETE
  6
Continuous
370
5
100
AcDbPolyline
 90
2
 70
0
 10
216.39930852902143
 20
76.12673041329626
 10
216.39930852902143
 20
81.12672998364614
  0
LWPOLYLINE
  5
156
330
17
100
AcDbEntity
  8
MAT-CONCRETE
  6
Continuous
370
5
100
AcDbPolyline
 90
2
 70
0
 10
126.39930434179561
 20
128.12673357432837
 10
131.39930391214548
 20
128.12673357432837
  0
LWPOLYLINE
  5
157
330
17
100
AcDbEntity
  8
MAT-CONCRETE
  6
Continuous
370
5
100
AcDbPolyline
 90
2
 70
0
 10
131.39930391214548
 20
128.12673357432837
 10
131.39930391214548
 20
123.1267340039785
  0
LWPOLYLINE
  5
158
330
17
100
AcDbEntity
  8
MAT-CONCRETE
  6
Continuous
370
5
100
AcDbPolyline
 90
2
 70
0
 10
131.39930391214548
 20
123.1267340039785
 10
126.39930434179561
 20
123.1267340039785
  0
LWPOLYLINE
  5
159
330
17
100
AcDbEntity
  8
MAT-CONCRETE
  6
Continuous
370
5
100
AcDbPolyline
 90
2
 70
0
 10
126.39930434179561
 20
123.1267340039785
 10
126.39930434179561
 20
128.12673357432837
  0
LWPOLYLINE
  5
15A
330
17
100
AcDbEntity
  8
MAT-CONCRETE
  6
Continuous
370
5
100
AcDbPolyline
 90
2
 70
0
 10
126.39930434179561
 20
81.12672998364614
 10
131.39930391214548
 20
81.12672998364614
  0
LWPOLYLINE
  5
15B
330
17
100
AcDbEntity
  8
MAT-CONCRETE
  6
Continuous
370
5
100
AcDbPolyline
 90
2
 70
0
 10
131.39930391214548
 20
81.12672998364614
 10
131.39930391214548
 20
76.12673041329626
  0
LWPOLYLINE
  5
15C
330
17
100
AcDbEntity
  8
MAT-CONCRETE
  6
Continuous
370
5
100
AcDbPolyline
 90
2
 70
0
 10
131.39930391214548
 20
76.12673041329626
 10
126.39930434179561
 20
76.12673041329626
  0
LWPOLYLINE
  5
15D
330
17
100
AcDbEntity
  8
MAT-CONCRETE
  6
Continuous
370
5
100
AcDbPolyline
 90
2
 70
0
 10
126.39930434179561
 20
76.12673041329626
 10
126.39930434179561
 20
81.12672998364614
  0
LWPOLYLINE
  5
15E
330
17
100
AcDbEntity
  8
MAT-NULL
  6
Continuous
370
20
100
AcDbPolyline
 90
2
 70
0
 10
213.8992986730466
 20
75.87673188436322
 10
194.89930465447154
 20
75.87673188436322
  0
LWPOLYLINE
  5
15F
330
17
100
AcDbEntity
  8
MAT-NULL
  6
Continuous
370
20
100
AcDbPolyline
 90
2
 70
0
 10
213.8992986730466
 20
75.6767320541371
 10
194.89930465447154
 20
75.6767320541371
  0
LWPOLYLINE
  5
160
330
17
100
AcDbEntity
  8
MAT-NULL
  6
Continuous
370
20
100
AcDbPolyline
 90
2
 70
0
 10
194.39930279008806
 20
75.0267244043038
 10
194.89930465447154
 20
75.0267244043038
  0
LWPOLYLINE
  5
161
330
17
100
AcDbEntity
  8
MAT-NULL
  6
Continuous
370
20
100
AcDbPolyline
 90
2
 70
0
 10
194.39930279008806
 20
76.1267380426897
 10
194.39930279008806
 20
76.12673085041004
  0
LWPOLYLINE
  5
162
330
17
100
AcDbEntity
  8
MAT-NULL
  6
Continuous
370
20
100
AcDbPolyline
 90
2
 70
0
 10
194.39930279008806
 20
75.1267309363401
 10
194.39930279008806
 20
75.0267244043038
  0
LWPOLYLINE
  5
163
330
17
100
AcDbEntity
  8
MAT-NULL
  6
Continuous
370
20
100
AcDbPolyline
 90
2
 70
0
 10
194.89930465447154
 20
76.52673953419652
 10
194.39930279008806
 20
76.52673953419652
  0
LWPOLYLINE
  5
164
330
17
100
AcDbEntity
  8
MAT-NULL
  6
Continuous
370
20
100
AcDbPolyline
 90
2
 70
0
 10
214.39930107148757
 20
76.52673953419652
 10
213.8992986730466
 20
76.52673953419652
  0
LWPOLYLINE
  5
165
330
17
100
AcDbEntity
  8
MAT-NULL
  6
Continuous
370
20
100
AcDbPolyline
 90
2
 70
0
 10
214.39930107148757
 20
75.0267244043038
 10
214.39930107148757
 20
75.12673006211261
  0
LWPOLYLINE
  5
166
330
17
100
AcDbEntity
  8
MAT-NULL
  6
Continuous
370
20
100
AcDbPolyline
 90
2
 70
0
 10
214.39930107148757
 20
76.12672997618253
 10
214.39930107148757
 20
76.12673804268965
  0
LWPOLYLINE
  5
167
330
17
100
AcDbEntity
  8
MAT-NULL
  6
Continuous
370
20
100
AcDbPolyline
 90
2
 70
0
 10
213.8992986730466
 20
75.0267244043038
 10
214.39930107148757
 20
75.0267244043038
  0
LWPOLYLINE
  5
168
330
17
100
AcDbEntity
  8
MAT-NULL
  6
Continuous
370
20
100
AcDbPolyline
 90
2
 70
0
 10
213.8992986730466
 20
76.52673953419652
 10
213.8992986730466
 20
75.0267244043038
  0
LWPOLYLINE
  5
169
330
17
100
AcDbEntity
  8
MAT-NULL
  6
Continuous
370
20
100
AcDbPolyline
 90
2
 70
0
 10
194.89930465447154
 20
76.52673953419652
 10
213.8992986730466
 20
76.52673953419652
  0
LWPOLYLINE
  5
16A
330
17
100
AcDbEntity
  8
MAT-NULL
  6
Continuous
370
20
100
AcDbPolyline
 90
2
 70
0
 10
194.89930465447154
 20
75.0267244043038
 10
194.89930465447154
 20
76.52673953419652
  0
LWPOLYLINE
  5
16B
330
17
100
AcDbEntity
  8
MAT-NULL
  6
Continuous
370
20
100
AcDbPolyline
 90
2
 70
0
 10
213.8992986730466
 20
75.0267244043038
 10
194.89930465447154
 20
75.0267244043038
  0
LWPOLYLINE
  5
16C
330
17
100
AcDbEntity
  8
MAT-NULL
  6
Continuous
370
20
100
AcDbPolyline
 90
2
 70
0
 10
183.89931078768967
 20
75.87673188436322
 10
164.8993167691146
 20
75.87673188436322
  0
LWPOLYLINE
  5
16D
330
17
100
AcDbEntity
  8
MAT-NULL
  6
Continuous
370
20
100
AcDbPolyline
 90
2
 70
0
 10
183.89931078768967
 20
75.6767320541371
 10
164.8993167691146
 20
75.6767320541371
  0
LWPOLYLINE
  5
16E
330
17
100
AcDbEntity
  8
MAT-NULL
  6
Continuous
370
20
100
AcDbPolyline
 90
2
 70
0
 10
164.3993149047311
 20
75.0267244043038
 10
164.8993167691146
 20
75.0267244043038
  0
LWPOLYLINE
  5
16F
330
17
100
AcDbEntity
  8
MAT-NULL
  6
Continuous
370
20
100
AcDbPolyline
 90
2
 70
0
 10
164.3993149047311
 20
76.12673804268965
 10
164.3993149047311
 20
76.12673085041004
  0
LWPOLYLINE
  5
170
330
17
100
AcDbEntity
  8
MAT-NULL
  6
Continuous
370
20
100
AcDbPolyline
 90
2
 70
0
 10
164.3993149047311
 20
75.1267309363401
 10
164.3993149047311
 20
75.0267244043038
  0
LWPOLYLINE
  5
171
330
17
100
AcDbEntity
  8
MAT-NULL
  6
Continuous
370
20
100
AcDbPolyline
 90
2
 70
0
 10
164.8993167691146
 20
76.52673953419652
 10
164.3993149047311
 20
76.52673953419652
  0
LWPOLYLINE
  5
172
330
17
100
AcDbEntity
  8
MAT-NULL
  6
Continuous
370
20
100
AcDbPolyline
 90
2
 70
0
 10
184.39931318613066
 20
76.52673953419652
 10
183.89931078768967
 20
76.52673953419652
  0
LWPOLYLINE
  5
173
330
17
100
AcDbEntity
  8
MAT-NULL
  6
Continuous
370
20
100
AcDbPolyline
 90
2
 70
0
 10
184.39931318613066
 20
75.0267244043038
 10
184.39931318613066
 20
75.12673006211254
  0
LWPOLYLINE
  5
174
330
17
100
AcDbEntity
  8
MAT-NULL
  6
Continuous
370
20
100
AcDbPolyline
 90
2
 70
0
 10
184.39931318613066
 20
76.12672997618249
 10
184.39931318613066
 20
76.12673804268965
  0
LWPOLYLINE
  5
175
330
17
100
AcDbEntity
  8
MAT-NULL
  6
Continuous
370
20
100
AcDbPolyline
 90
2
 70
0
 10
183.89931078768967
 20
75.0267244043038
 10
184.39931318613066
 20
75.0267244043038
  0
LWPOLYLINE
  5
176
330
17
100
AcDbEntity
  8
MAT-NULL
  6
Continuous
370
20
100
AcDbPolyline
 90
2
 70
0
 10
183.89931078768967
 20
76.52673953419652
 10
183.89931078768967
 20
75.0267244043038
  0
LWPOLYLINE
  5
177
330
17
100
AcDbEntity
  8
MAT-NULL
  6
Continuous
370
20
100
AcDbPolyline
 90
2
 70
0
 10
164.8993167691146
 20
76.52673953419652
 10
183.89931078768967
 20
76.52673953419652
  0
LWPOLYLINE
  5
178
330
17
100
AcDbEntity
  8
MAT-NULL
  6
Continuous
370
20
100
AcDbPolyline
 90
2
 70
0
 10
164.8993167691146
 20
75.0267244043038
 10
164.8993167691146
 20
76.52673953419652
  0
LWPOLYLINE
  5
179
330
17
100
AcDbEntity
  8
MAT-NULL
  6
Continuous
370
20
100
AcDbPolyline
 90
2
 70
0
 10
183.89931078768967
 20
75.0267244043038
 10
164.8993167691146
 20
75.0267244043038
  0
LWPOLYLINE
  5
17A
330
17
100
AcDbEntity
  8
MAT-NULL
  6
Continuous
370
20
100
AcDbPolyline
 90
2
 70
0
 10
153.89931574977595
 20
75.87673188436322
 10
134.89932173120087
 20
75.87673188436322
  0
LWPOLYLINE
  5
17B
330
17
100
AcDbEntity
  8
MAT-NULL
  6
Continuous
370
20
100
AcDbPolyline
 90
2
 70
0
 10
153.89931574977595
 20
75.6767320541371
 10
134.89932173120087
 20
75.6767320541371
  0
LWPOLYLINE
  5
17C
330
17
100
AcDbEntity
  8
MAT-NULL
  6
Continuous
370
20
100
AcDbPolyline
 90
2
 70
0
 10
134.39931986681742
 20
75.0267244043038
 10
134.89932173120087
 20
75.0267244043038
  0
LWPOLYLINE
  5
17D
330
17
100
AcDbEntity
  8
MAT-NULL
  6
Continuous
370
20
100
AcDbPolyline
 90
2
 70
0
 10
134.39931986681742
 20
76.12673804268965
 10
134.39931986681742
 20
75.0267244043038
  0
LWPOLYLINE
  5
17E
330
17
100
AcDbEntity
  8
MAT-NULL
  6
Continuous
370
20
100
AcDbPolyline
 90
2
 70
0
 10
134.89932173120087
 20
76.52673953419652
 10
134.39931986681742
 20
76.52673953419652
  0
LWPOLYLINE
  5
17F
330
17
100
AcDbEntity
  8
MAT-NULL
  6
Continuous
370
20
100
AcDbPolyline
 90
2
 70
0
 10
154.39931814821693
 20
76.52673953419652
 10
153.89931574977595
 20
76.52673953419652
  0
LWPOLYLINE
  5
180
330
17
100
AcDbEntity
  8
MAT-NULL
  6
Continuous
370
20
100
AcDbPolyline
 90
2
 70
0
 10
154.39931814821693
 20
75.0267244043038
 10
154.39931814821693
 20
75.12673006211293
  0
LWPOLYLINE
  5
181
330
17
100
AcDbEntity
  8
MAT-NULL
  6
Continuous
370
20
100
AcDbPolyline
 90
2
 70
0
 10
154.39931814821693
 20
76.12672997618289
 10
154.39931814821693
 20
76.12673804268965
  0
LWPOLYLINE
  5
182
330
17
100
AcDbEntity
  8
MAT-NULL
  6
Continuous
370
20
100
AcDbPolyline
 90
2
 70
0
 10
153.89931574977595
 20
75.0267244043038
 10
154.39931814821693
 20
75.0267244043038
  0
LWPOLYLINE
  5
183
330
17
100
AcDbEntity
  8
MAT-NULL
  6
Continuous
370
20
100
AcDbPolyline
 90
2
 70
0
 10
153.89931574977595
 20
76.52673953419652
 10
153.89931574977595
 20
75.0267244043038
  0
LWPOLYLINE
  5
184
330
17
100
AcDbEntity
  8
MAT-NULL
  6
Continuous
370
20
100
AcDbPolyline
 90
2
 70
0
 10
134.89932173120087
 20
76.52673953419652
 10
153.89931574977595
 20
76.52673953419652
  0
LWPOLYLINE
  5
185
330
17
100
AcDbEntity
  8
MAT-NULL
  6
Continuous
370
20
100
AcDbPolyline
 90
2
 70
0
 10
134.89932173120087
 20
75.0267244043038
 10
134.89932173120087
 20
76.52673953419652
  0
LWPOLYLINE
  5
186
330
17
100
AcDbEntity
  8
MAT-NULL
  6
Continuous
370
20
100
AcDbPolyline
 90
2
 70
0
 10
153.89931574977595
 20
75.0267244043038
 10
134.89932173120087
 20
75.0267244043038
  0
LWPOLYLINE
  5
188
330
17
100
AcDbEntity
  8
MAT-MATERIAL
  6
Continuous
370
20
100
AcDbPolyline
 90
2
 70
0
 10
205.58432688096366
 20
156.12673533070148
 10
205.58432816442786
 20
147.6267363069759
  0
LWPOLYLINE
  5
189
330
17
100
AcDbEntity
  8
MAT-MATERIAL
  6
Continuous
370
20
100
AcDbPolyline
 90
2
 70
0
 10
205.9343268523783
 20
156.12673538354997
 10
205.58432688096366
 20
156.12673533070148
  0
LWPOLYLINE
  5
18A
330
17
100
AcDbEntity
  8
MAT-MATERIAL
  6
Continuous
370
20
100
AcDbPolyline
 90
2
 70
0
 10
205.93432813584246
 20
147.62673635982443
 10
205.9343268523783
 20
156.12673538354997
  0
LWPOLYLINE
  5
18B
330
17
100
AcDbEntity
  8
MAT-MATERIAL
  6
Continuous
370
20
100
AcDbPolyline
 90
2
 70
0
 10
205.58432816442786
 20
147.6267363069759
 10
205.93432813584246
 20
147.62673635982443
  0
LWPOLYLINE
  5
18C
330
17
100
AcDbEntity
  8
MAT-MATERIAL
  6
Continuous
370
20
100
AcDbPolyline
 90
2
 70
0
 10
205.58432816442786
 20
147.6267363069759
 10
205.33432818218506
 20
147.62673626922697
  0
LWPOLYLINE
  5
18D
330
17
100
AcDbEntity
  8
MAT-MATERIAL
  6
Continuous
370
20
100
AcDbPolyline
 90
2
 70
0
 10
205.58432823992572
 20
147.12673634249032
 10
205.58432816442786
 20
147.6267363069759
  0
LWPOLYLINE
  5
18E
330
17
100
AcDbEntity
  8
MAT-MATERIAL
  6
Continuous
370
20
100
AcDbPolyline
 90
2
 70
0
 10
205.33432825768296
 20
147.1267363047414
 10
205.58432823992572
 20
147.12673634249032
  0
LWPOLYLINE
  5
18F
330
17
100
AcDbEntity
  8
MAT-MATERIAL
  6
Continuous
370
20
100
AcDbPolyline
 90
2
 70
0
 10
214.33432717039616
 20
147.62673762818903
 10
214.33432724589406
 20
147.12673766370347
  0
LWPOLYLINE
  5
190
330
17
100
AcDbEntity
  8
MAT-MATERIAL
  6
Continuous
370
20
100
AcDbPolyline
 90
2
 70
0
 10
214.0843271881534
 20
147.6267375904401
 10
214.33432717039616
 20
147.62673762818903
  0
LWPOLYLINE
  5
191
330
17
100
AcDbEntity
  8
MAT-MATERIAL
  6
Continuous
370
20
100
AcDbPolyline
 90
2
 70
0
 10
214.08432726365126
 20
147.12673762595452
 10
214.0843271881534
 20
147.6267375904401
  0
LWPOLYLINE
  5
192
330
17
100
AcDbEntity
  8
MAT-MATERIAL
  6
Continuous
370
20
100
AcDbPolyline
 90
2
 70
0
 10
214.33432724589406
 20
147.12673766370347
 10
214.08432726365126
 20
147.12673762595452
  0
LWPOLYLINE
  5
193
330
17
100
AcDbEntity
  8
MAT-MATERIAL
  6
Continuous
370
20
100
AcDbPolyline
 90
2
 70
0
 10
207.71730380094493
 20
139.33263752162225
 10
205.9343294193066
 20
139.12673733609887
  0
LWPOLYLINE
  5
194
330
17
100
AcDbEntity
  8
MAT-MATERIAL
  6
Continuous
370
20
100
AcDbPolyline
 90
2
 70
0
 10
209.41389828084726
 20
139.9403622842584
 10
207.71730380094493
 20
139.33263752162225
  0
LWPOLYLINE
  5
195
330
17
100
AcDbEntity
  8
MAT-MATERIAL
  6
Continuous
370
20
100
AcDbPolyline
 90
2
 70
0
 10
210.97071806114596
 20
140.94396951850234
 10
209.41389828084726
 20
139.9403622842584
  0
LWPOLYLINE
  5
196
330
17
100
AcDbEntity
  8
MAT-MATERIAL
  6
Continuous
370
20
100
AcDbPolyline
 90
2
 70
0
 10
212.27355352710825
 20
142.28458758376556
 10
210.97071806114596
 20
140.94396951850234
  0
LWPOLYLINE
  5
197
330
17
100
AcDbEntity
  8
MAT-MATERIAL
  6
Continuous
370
20
100
AcDbPolyline
 90
2
 70
0
 10
213.25670290078926
 20
143.89460933184407
 10
212.27355352710825
 20
142.28458758376556
  0
LWPOLYLINE
  5
198
330
17
100
AcDbEntity
  8
MAT-MATERIAL
  6
Continuous
370
20
100
AcDbPolyline
 90
2
 70
0
 10
213.87058612121913
 20
145.69284163118587
 10
213.25670290078926
 20
143.89460933184407
  0
LWPOLYLINE
  5
199
330
17
100
AcDbEntity
  8
MAT-MATERIAL
  6
Continuous
370
20
100
AcDbPolyline
 90
2
 70
0
 10
214.08424515871076
 20
147.5885999231408
 10
213.87058612121913
 20
145.69284163118587
  0
LWPOLYLINE
  5
19A
330
17
100
AcDbEntity
  8
MAT-MATERIAL
  6
Continuous
370
20
100
AcDbPolyline
 90
2
 70
0
 10
213.88690522319743
 20
149.48628142931585
 10
214.08424515871076
 20
147.5885999231408
  0
LWPOLYLINE
  5
19B
330
17
100
AcDbEntity
  8
MAT-MATERIAL
  6
Continuous
370
20
100
AcDbPolyline
 90
2
 70
0
 10
213.28851813512114
 20
151.2901863839416
 10
213.88690522319743
 20
149.48628142931585
  0
LWPOLYLINE
  5
19C
330
17
100
AcDbEntity
  8
MAT-MATERIAL
  6
Continuous
370
20
100
AcDbPolyline
 90
2
 70
0
 10
212.319260456767
 20
152.90934415729643
 10
213.28851813512114
 20
151.2901863839416
  0
LWPOLYLINE
  5
19D
330
17
100
AcDbEntity
  8
MAT-MATERIAL
  6
Continuous
370
20
100
AcDbPolyline
 90
2
 70
0
 10
211.0280116931978
 20
154.26210088957845
 10
212.319260456767
 20
152.90934415729643
  0
LWPOLYLINE
  5
19E
330
17
100
AcDbEntity
  8
MAT-MATERIAL
  6
Continuous
370
20
100
AcDbPolyline
 90
2
 70
0
 10
209.4798893068652
 20
155.28023728160548
 10
211.0280116931978
 20
154.26210088957845
  0
LWPOLYLINE
  5
19F
330
17
100
AcDbEntity
  8
MAT-MATERIAL
  6
Continuous
370
20
100
AcDbPolyline
 90
2
 70
0
 10
207.75296485470446
 20
155.91240888283545
 10
209.4798893068652
 20
155.28023728160548
  0
LWPOLYLINE
  5
1A0
330
17
100
AcDbEntity
  8
MAT-MATERIAL
  6
Continuous
370
20
100
AcDbPolyline
 90
2
 70
0
 10
205.9343268523783
 20
156.12673538354997
 10
207.75296485470446
 20
155.91240888283545
  0
LWPOLYLINE
  5
1A1
330
17
100
AcDbEntity
  8
MAT-MATERIAL
  6
Continuous
370
20
100
AcDbPolyline
 90
2
 70
0
 10
205.584329447892
 20
139.12673728325035
 10
205.9343294193066
 20
139.12673733609887
  0
LWPOLYLINE
  5
1A2
330
17
100
AcDbEntity
  8
MAT-MATERIAL
  6
Continuous
370
20
100
AcDbPolyline
 90
2
 70
0
 10
205.58432816442786
 20
147.6267363069759
 10
205.584329447892
 20
139.12673728325035
  0
LWPOLYLINE
  5
1A3
330
17
100
AcDbEntity
  8
MAT-MATERIAL
  6
Continuous
370
20
100
AcDbPolyline
 90
2
 70
0
 10
270.31189964893736
 20
117.5267362494841
 10
270.31189964893736
 20
126.02673527320975
  0
LWPOLYLINE
  5
1A4
330
17
100
AcDbEntity
  8
MAT-MATERIAL
  6
Continuous
370
20
100
AcDbPolyline
 90
2
 70
0
 10
270.66189962035196
 20
117.5267362494841
 10
270.31189964893736
 20
117.5267362494841
  0
LWPOLYLINE
  5
1A5
330
17
100
AcDbEntity
  8
MAT-MATERIAL
  6
Continuous
370
20
100
AcDbPolyline
 90
2
 70
0
 10
270.66189962035196
 20
126.02673527320975
 10
270.66189962035196
 20
117.5267362494841
  0
LWPOLYLINE
  5
1A6
330
17
100
AcDbEntity
  8
MAT-MATERIAL
  6
Continuous
370
20
100
AcDbPolyline
 90
2
 70
0
 10
270.31189964893736
 20
126.02673527320975
 10
270.66189962035196
 20
126.02673527320975
  0
LWPOLYLINE
  5
1A7
330
17
100
AcDbEntity
  8
MAT-MATERIAL
  6
Continuous
370
20
100
AcDbPolyline
 90
2
 70
0
 10
278.5618986904203
 20
126.52673523769532
 10
279.06189865490586
 20
126.52673523769532
  0
LWPOLYLINE
  5
1A8
330
17
100
AcDbEntity
  8
MAT-MATERIAL
  6
Continuous
370
20
100
AcDbPolyline
 90
2
 70
0
 10
278.5618986904203
 20
126.27673525545254
 10
278.5618986904203
 20
126.52673523769532
  0
LWPOLYLINE
  5
1A9
330
17
100
AcDbEntity
  8
MAT-MATERIAL
  6
Continuous
370
20
100
AcDbPolyline
 90
2
 70
0
 10
278.81189867266306
 20
126.27673525545254
 10
278.5618986904203
 20
126.27673525545254
  0
LWPOLYLINE
  5
1AA
330
17
100
AcDbEntity
  8
MAT-MATERIAL
  6
Continuous
370
20
100
AcDbPolyline
 90
2
 70
0
 10
278.81189867266306
 20
126.02673527320975
 10
278.81189867266306
 20
126.27673525545254
  0
LWPOLYLINE
  5
1AB
330
17
100
AcDbEntity
  8
MAT-MATERIAL
  6
Continuous
370
20
100
AcDbPolyline
 90
2
 70
0
 10
279.06189865490586
 20
126.02673527320975
 10
278.81189867266306
 20
126.02673527320975
  0
LWPOLYLINE
  5
1AC
330
17
100
AcDbEntity
  8
MAT-MATERIAL
  6
Continuous
370
20
100
AcDbPolyline
 90
2
 70
0
 10
279.06189865490586
 20
126.12673374618844
 10
279.06189865490586
 20
126.02673527320975
  0
LWPOLYLINE
  5
1AD
330
17
100
AcDbEntity
  8
MAT-MATERIAL
  6
Continuous
370
20
100
AcDbPolyline
 90
2
 70
0
 10
270.56189963118015
 20
126.52673523769532
 10
270.0618996666946
 20
126.52673523769532
  0
LWPOLYLINE
  5
1AE
330
17
100
AcDbEntity
  8
MAT-MATERIAL
  6
Continuous
370
20
100
AcDbPolyline
 90
2
 70
0
 10
270.56189963118015
 20
126.27673525545254
 10
270.56189963118015
 20
126.52673523769532
  0
LWPOLYLINE
  5
1AF
330
17
100
AcDbEntity
  8
MAT-MATERIAL
  6
Continuous
370
20
100
AcDbPolyline
 90
2
 70
0
 10
270.31189964893736
 20
126.27673525545254
 10
270.56189963118015
 20
126.27673525545254
  0
LWPOLYLINE
  5
1B0
330
17
100
AcDbEntity
  8
MAT-MATERIAL
  6
Continuous
370
20
100
AcDbPolyline
 90
2
 70
0
 10
270.31189964893736
 20
126.02673527320975
 10
270.31189964893736
 20
126.27673525545254
  0
LWPOLYLINE
  5
1B1
330
17
100
AcDbEntity
  8
MAT-MATERIAL
  6
Continuous
370
20
100
AcDbPolyline
 90
2
 70
0
 10
270.0618996666946
 20
126.02673527320975
 10
270.31189964893736
 20
126.02673527320975
  0
LWPOLYLINE
  5
1B2
330
17
100
AcDbEntity
  8
MAT-MATERIAL
  6
Continuous
370
20
100
AcDbPolyline
 90
2
 70
0
 10
270.0618996666946
 20
126.12673374618845
 10
270.0618996666946
 20
126.02673527320975
  0
LWPOLYLINE
  5
1B3
330
17
100
AcDbEntity
  8
MAT-MATERIAL
  6
Continuous
370
20
100
AcDbPolyline
 90
2
 70
0
 10
272.2518855598985
 20
117.6900613472978
 10
270.66189962035196
 20
117.5267362494841
  0
LWPOLYLINE
  5
1B4
330
17
100
AcDbEntity
  8
MAT-MATERIAL
  6
Continuous
370
20
100
AcDbPolyline
 90
2
 70
0
 10
273.7807692314626
 20
118.1737601488237
 10
272.2518855598985
 20
117.6900613472978
  0
LWPOLYLINE
  5
1B5
330
17
100
AcDbEntity
  8
MAT-MATERIAL
  6
Continuous
370
20
100
AcDbPolyline
 90
2
 70
0
 10
275.4523488694981
 20
119.15009161084525
 10
273.7807692314626
 20
118.1737601488237
  0
LWPOLYLINE
  5
1B6
330
17
100
AcDbEntity
  8
MAT-MATERIAL
  6
Continuous
370
20
100
AcDbPolyline
 90
2
 70
0
 10
276.8592075193639
 20
120.50642749644267
 10
275.4523488694981
 20
119.15009161084525
  0
LWPOLYLINE
  5
1B7
330
17
100
AcDbEntity
  8
MAT-MATERIAL
  6
Continuous
370
20
100
AcDbPolyline
 90
2
 70
0
 10
277.92360194809015
 20
122.16781646864288
 10
276.8592075193639
 20
120.50642749644267
  0
LWPOLYLINE
  5
1B8
330
17
100
AcDbEntity
  8
MAT-MATERIAL
  6
Continuous
370
20
100
AcDbPolyline
 90
2
 70
0
 10
278.58671355008886
 20
124.04244990834127
 10
277.92360194809015
 20
122.16781646864288
  0
LWPOLYLINE
  5
1B9
330
17
100
AcDbEntity
  8
MAT-MATERIAL
  6
Continuous
370
20
100
AcDbPolyline
 90
2
 70
0
 10
278.81189867266306
 20
126.02673527320975
 10
278.58671355008886
 20
124.04244990834127
  0
LWPOLYLINE
  5
1BA
330
17
100
AcDbEntity
  8
MAT-MATERIAL
  6
Continuous
370
20
100
AcDbPolyline
 90
2
 70
0
 10
205.5843318162039
 20
119.12673458611715
 10
205.5843318162039
 20
127.6267336098428
  0
LWPOLYLINE
  5
1BB
330
17
100
AcDbEntity
  8
MAT-MATERIAL
  6
Continuous
370
20
100
AcDbPolyline
 90
2
 70
0
 10
205.9343317876185
 20
119.12673458611715
 10
205.5843318162039
 20
119.12673458611715
  0
LWPOLYLINE
  5
1BC
330
17
100
AcDbEntity
  8
MAT-MATERIAL
  6
Continuous
370
20
100
AcDbPolyline
 90
2
 70
0
 10
205.9343317876185
 20
127.6267336098428
 10
205.9343317876185
 20
119.12673458611715
  0
LWPOLYLINE
  5
1BD
330
17
100
AcDbEntity
  8
MAT-MATERIAL
  6
Continuous
370
20
100
AcDbPolyline
 90
2
 70
0
 10
205.5843318162039
 20
127.6267336098428
 10
205.9343317876185
 20
127.6267336098428
  0
LWPOLYLINE
  5
1BE
330
17
100
AcDbEntity
  8
MAT-MATERIAL
  6
Continuous
370
20
100
AcDbPolyline
 90
2
 70
0
 10
213.83433085768678
 20
128.12673357432837
 10
214.33433082217235
 20
128.12673357432837
  0
LWPOLYLINE
  5
1BF
330
17
100
AcDbEntity
  8
MAT-MATERIAL
  6
Continuous
370
20
100
AcDbPolyline
 90
2
 70
0
 10
213.83433085768678
 20
127.87673359208559
 10
213.83433085768678
 20
128.12673357432837
  0
LWPOLYLINE
  5
1C0
330
17
100
AcDbEntity
  8
MAT-MATERIAL
  6
Continuous
370
20
100
AcDbPolyline
 90
2
 70
0
 10
214.08433083992955
 20
127.87673359208559
 10
213.83433085768678
 20
127.87673359208559
  0
LWPOLYLINE
  5
1C1
330
17
100
AcDbEntity
  8
MAT-MATERIAL
  6
Continuous
370
20
100
AcDbPolyline
 90
2
 70
0
 10
214.08433083992955
 20
127.6267336098428
 10
214.08433083992955
 20
127.87673359208559
  0
LWPOLYLINE
  5
1C2
330
17
100
AcDbEntity
  8
MAT-MATERIAL
  6
Continuous
370
20
100
AcDbPolyline
 90
2
 70
0
 10
214.33433082217235
 20
127.6267336098428
 10
214.08433083992955
 20
127.6267336098428
  0
LWPOLYLINE
  5
1C3
330
17
100
AcDbEntity
  8
MAT-MATERIAL
  6
Continuous
370
20
100
AcDbPolyline
 90
2
 70
0
 10
205.8343317984467
 20
128.12673357432837
 10
205.33433183396113
 20
128.12673357432837
  0
LWPOLYLINE
  5
1C4
330
17
100
AcDbEntity
  8
MAT-MATERIAL
  6
Continuous
370
20
100
AcDbPolyline
 90
2
 70
0
 10
205.8343317984467
 20
127.87673359208559
 10
205.8343317984467
 20
128.12673357432837
  0
LWPOLYLINE
  5
1C5
330
17
100
AcDbEntity
  8
MAT-MATERIAL
  6
Continuous
370
20
100
AcDbPolyline
 90
2
 70
0
 10
205.5843318162039
 20
127.87673359208559
 10
205.8343317984467
 20
127.87673359208559
  0
LWPOLYLINE
  5
1C6
330
17
100
AcDbEntity
  8
MAT-MATERIAL
  6
Continuous
370
20
100
AcDbPolyline
 90
2
 70
0
 10
205.5843318162039
 20
127.6267336098428
 10
205.5843318162039
 20
127.87673359208559
  0
LWPOLYLINE
  5
1C7
330
17
100
AcDbEntity
  8
MAT-MATERIAL
  6
Continuous
370
20
100
AcDbPolyline
 90
2
 70
0
 10
205.33433183396113
 20
127.6267336098428
 10
205.5843318162039
 20
127.6267336098428
  0
LWPOLYLINE
  5
1C8
330
17
100
AcDbEntity
  8
MAT-MATERIAL
  6
Continuous
370
20
100
AcDbPolyline
 90
2
 70
0
 10
207.524317727165
 20
119.29005968393085
 10
205.9343317876185
 20
119.12673458611715
  0
LWPOLYLINE
  5
1C9
330
17
100
AcDbEntity
  8
MAT-MATERIAL
  6
Continuous
370
20
100
AcDbPolyline
 90
2
 70
0
 10
209.05320139872913
 20
119.77375848545675
 10
207.524317727165
 20
119.29005968393085
  0
LWPOLYLINE
  5
1CA
330
17
100
AcDbEntity
  8
MAT-MATERIAL
  6
Continuous
370
20
100
AcDbPolyline
 90
2
 70
0
 10
210.7247810367646
 20
120.7500899474783
 10
209.05320139872913
 20
119.77375848545675
  0
LWPOLYLINE
  5
1CB
330
17
100
AcDbEntity
  8
MAT-MATERIAL
  6
Continuous
370
20
100
AcDbPolyline
 90
2
 70
0
 10
212.13163968663045
 20
122.10642583307572
 10
210.7247810367646
 20
120.7500899474783
  0
LWPOLYLINE
  5
1CC
330
17
100
AcDbEntity
  8
MAT-MATERIAL
  6
Continuous
370
20
100
AcDbPolyline
 90
2
 70
0
 10
213.19603411535667
 20
123.76781480527596
 10
212.13163968663045
 20
122.10642583307572
  0
LWPOLYLINE
  5
1CD
330
17
100
AcDbEntity
  8
MAT-MATERIAL
  6
Continuous
370
20
100
AcDbPolyline
 90
2
 70
0
 10
213.85914571735535
 20
125.64244824497433
 10
213.19603411535667
 20
123.76781480527596
  0
LWPOLYLINE
  5
1CE
330
17
100
AcDbEntity
  8
MAT-MATERIAL
  6
Continuous
370
20
100
AcDbPolyline
 90
2
 70
0
 10
214.08433083992955
 20
127.6267336098428
 10
213.85914571735535
 20
125.64244824497433
  0
LWPOLYLINE
  5
1CF
330
17
100
AcDbEntity
  8
MAT-MATERIAL
  6
Continuous
370
20
100
AcDbPolyline
 90
2
 70
0
 10
175.54930117110183
 20
119.12673458611715
 10
175.54930117110183
 20
127.6267336098428
  0
LWPOLYLINE
  5
1D0
330
17
100
AcDbEntity
  8
MAT-MATERIAL
  6
Continuous
370
20
100
AcDbPolyline
 90
2
 70
0
 10
175.89930114251644
 20
119.12673458611715
 10
175.54930117110183
 20
119.12673458611715
  0
LWPOLYLINE
  5
1D1
330
17
100
AcDbEntity
  8
MAT-MATERIAL
  6
Continuous
370
20
100
AcDbPolyline
 90
2
 70
0
 10
175.89930114251644
 20
127.6267336098428
 10
175.89930114251644
 20
119.12673458611715
  0
LWPOLYLINE
  5
1D2
330
17
100
AcDbEntity
  8
MAT-MATERIAL
  6
Continuous
370
20
100
AcDbPolyline
 90
2
 70
0
 10
175.54930117110183
 20
127.6267336098428
 10
175.89930114251644
 20
127.6267336098428
  0
LWPOLYLINE
  5
1D3
330
17
100
AcDbEntity
  8
MAT-MATERIAL
  6
Continuous
370
20
100
AcDbPolyline
 90
2
 70
0
 10
183.79930021258468
 20
128.12673357432837
 10
184.29930017707028
 20
128.12673357432837
  0
LWPOLYLINE
  5
1D4
330
17
100
AcDbEntity
  8
MAT-MATERIAL
  6
Continuous
370
20
100
AcDbPolyline
 90
2
 70
0
 10
183.79930021258468
 20
127.87673359208559
 10
183.79930021258468
 20
128.12673357432837
  0
LWPOLYLINE
  5
1D5
330
17
100
AcDbEntity
  8
MAT-MATERIAL
  6
Continuous
370
20
100
AcDbPolyline
 90
2
 70
0
 10
184.04930019482748
 20
127.87673359208559
 10
183.79930021258468
 20
127.87673359208559
  0
LWPOLYLINE
  5
1D6
330
17
100
AcDbEntity
  8
MAT-MATERIAL
  6
Continuous
370
20
100
AcDbPolyline
 90
2
 70
0
 10
184.04930019482748
 20
127.6267336098428
 10
184.04930019482748
 20
127.87673359208559
  0
LWPOLYLINE
  5
1D7
330
17
100
AcDbEntity
  8
MAT-MATERIAL
  6
Continuous
370
20
100
AcDbPolyline
 90
2
 70
0
 10
184.29930017707028
 20
127.6267336098428
 10
184.04930019482748
 20
127.6267336098428
  0
LWPOLYLINE
  5
1D8
330
17
100
AcDbEntity
  8
MAT-MATERIAL
  6
Continuous
370
20
100
AcDbPolyline
 90
2
 70
0
 10
175.7993011533446
 20
128.12673357432837
 10
175.29930118885903
 20
128.12673357432837
  0
LWPOLYLINE
  5
1D9
330
17
100
AcDbEntity
  8
MAT-MATERIAL
  6
Continuous
370
20
100
AcDbPolyline
 90
2
 70
0
 10
175.7993011533446
 20
127.87673359208559
 10
175.7993011533446
 20
128.12673357432837
  0
LWPOLYLINE
  5
1DA
330
17
100
AcDbEntity
  8
MAT-MATERIAL
  6
Continuous
370
20
100
AcDbPolyline
 90
2
 70
0
 10
175.54930117110183
 20
127.87673359208559
 10
175.7993011533446
 20
127.87673359208559
  0
LWPOLYLINE
  5
1DB
330
17
100
AcDbEntity
  8
MAT-MATERIAL
  6
Continuous
370
20
100
AcDbPolyline
 90
2
 70
0
 10
175.54930117110183
 20
127.6267336098428
 10
175.54930117110183
 20
127.87673359208559
  0
LWPOLYLINE
  5
1DC
330
17
100
AcDbEntity
  8
MAT-MATERIAL
  6
Continuous
370
20
100
AcDbPolyline
 90
2
 70
0
 10
175.29930118885903
 20
127.6267336098428
 10
175.54930117110183
 20
127.6267336098428
  0
LWPOLYLINE
  5
1DD
330
17
100
AcDbEntity
  8
MAT-MATERIAL
  6
Continuous
370
20
100
AcDbPolyline
 90
2
 70
0
 10
177.48928708206296
 20
119.29005968393085
 10
175.89930114251644
 20
119.12673458611715
  0
LWPOLYLINE
  5
1DE
330
17
100
AcDbEntity
  8
MAT-MATERIAL
  6
Continuous
370
20
100
AcDbPolyline
 90
2
 70
0
 10
179.0181707536271
 20
119.77375848545675
 10
177.48928708206296
 20
119.29005968393085
  0
LWPOLYLINE
  5
1DF
330
17
100
AcDbEntity
  8
MAT-MATERIAL
  6
Continuous
370
20
100
AcDbPolyline
 90
2
 70
0
 10
180.68975039166253
 20
120.7500899474783
 10
179.0181707536271
 20
119.77375848545675
  0
LWPOLYLINE
  5
1E0
330
17
100
AcDbEntity
  8
MAT-MATERIAL
  6
Continuous
370
20
100
AcDbPolyline
 90
2
 70
0
 10
182.09660904152838
 20
122.10642583307572
 10
180.68975039166253
 20
120.7500899474783
  0
LWPOLYLINE
  5
1E1
330
17
100
AcDbEntity
  8
MAT-MATERIAL
  6
Continuous
370
20
100
AcDbPolyline
 90
2
 70
0
 10
183.1610034702546
 20
123.76781480527596
 10
182.09660904152838
 20
122.10642583307572
  0
LWPOLYLINE
  5
1E2
330
17
100
AcDbEntity
  8
MAT-MATERIAL
  6
Continuous
370
20
100
AcDbPolyline
 90
2
 70
0
 10
183.82411507225328
 20
125.64244824497433
 10
183.1610034702546
 20
123.76781480527596
  0
LWPOLYLINE
  5
1E3
330
17
100
AcDbEntity
  8
MAT-MATERIAL
  6
Continuous
370
20
100
AcDbPolyline
 90
2
 70
0
 10
184.04930019482748
 20
127.6267336098428
 10
183.82411507225328
 20
125.64244824497433
  0
LWPOLYLINE
  5
1E4
330
17
100
AcDbEntity
  8
MAT-MATERIAL
  6
Continuous
370
20
100
AcDbPolyline
 90
2
 70
0
 10
145.54930374900255
 20
119.12673458611715
 10
145.54930374900255
 20
127.6267336098428
  0
LWPOLYLINE
  5
1E5
330
17
100
AcDbEntity
  8
MAT-MATERIAL
  6
Continuous
370
20
100
AcDbPolyline
 90
2
 70
0
 10
145.89930372041715
 20
119.12673458611715
 10
145.54930374900255
 20
119.12673458611715
  0
LWPOLYLINE
  5
1E6
330
17
100
AcDbEntity
  8
MAT-MATERIAL
  6
Continuous
370
20
100
AcDbPolyline
 90
2
 70
0
 10
145.89930372041715
 20
127.6267336098428
 10
145.89930372041715
 20
119.12673458611715
  0
LWPOLYLINE
  5
1E7
330
17
100
AcDbEntity
  8
MAT-MATERIAL
  6
Continuous
370
20
100
AcDbPolyline
 90
2
 70
0
 10
145.54930374900255
 20
127.6267336098428
 10
145.89930372041715
 20
127.6267336098428
  0
LWPOLYLINE
  5
1E8
330
17
100
AcDbEntity
  8
MAT-MATERIAL
  6
Continuous
370
20
100
AcDbPolyline
 90
2
 70
0
 10
153.79930279048543
 20
128.12673357432837
 10
154.299302754971
 20
128.12673357432837
  0
LWPOLYLINE
  5
1E9
330
17
100
AcDbEntity
  8
MAT-MATERIAL
  6
Continuous
370
20
100
AcDbPolyline
 90
2
 70
0
 10
153.79930279048543
 20
127.87673359208559
 10
153.79930279048543
 20
128.12673357432837
  0
LWPOLYLINE
  5
1EA
330
17
100
AcDbEntity
  8
MAT-MATERIAL
  6
Continuous
370
20
100
AcDbPolyline
 90
2
 70
0
 10
154.0493027727282
 20
127.87673359208559
 10
153.79930279048543
 20
127.87673359208559
  0
LWPOLYLINE
  5
1EB
330
17
100
AcDbEntity
  8
MAT-MATERIAL
  6
Continuous
370
20
100
AcDbPolyline
 90
2
 70
0
 10
154.0493027727282
 20
127.6267336098428
 10
154.0493027727282
 20
127.87673359208559
  0
LWPOLYLINE
  5
1EC
330
17
100
AcDbEntity
  8
MAT-MATERIAL
  6
Continuous
370
20
100
AcDbPolyline
 90
2
 70
0
 10
154.299302754971
 20
127.6267336098428
 10
154.0493027727282
 20
127.6267336098428
  0
LWPOLYLINE
  5
1ED
330
17
100
AcDbEntity
  8
MAT-MATERIAL
  6
Continuous
370
20
100
AcDbPolyline
 90
2
 70
0
 10
145.79930373124535
 20
128.12673357432837
 10
145.29930376675978
 20
128.12673357432837
  0
LWPOLYLINE
  5
1EE
330
17
100
AcDbEntity
  8
MAT-MATERIAL
  6
Continuous
370
20
100
AcDbPolyline
 90
2
 70
0
 10
145.79930373124535
 20
127.87673359208559
 10
145.79930373124535
 20
128.12673357432837
  0
LWPOLYLINE
  5
1EF
330
17
100
AcDbEntity
  8
MAT-MATERIAL
  6
Continuous
370
20
100
AcDbPolyline
 90
2
 70
0
 10
145.54930374900255
 20
127.87673359208559
 10
145.79930373124535
 20
127.87673359208559
  0
LWPOLYLINE
  5
1F0
330
17
100
AcDbEntity
  8
MAT-MATERIAL
  6
Continuous
370
20
100
AcDbPolyline
 90
2
 70
0
 10
145.54930374900255
 20
127.6267336098428
 10
145.54930374900255
 20
127.87673359208559
  0
LWPOLYLINE
  5
1F1
330
17
100
AcDbEntity
  8
MAT-MATERIAL
  6
Continuous
370
20
100
AcDbPolyline
 90
2
 70
0
 10
145.29930376675978
 20
127.6267336098428
 10
145.54930374900255
 20
127.6267336098428
  0
LWPOLYLINE
  5
1F2
330
17
100
AcDbEntity
  8
MAT-MATERIAL
  6
Continuous
370
20
100
AcDbPolyline
 90
2
 70
0
 10
147.48928965996367
 20
119.29005968393085
 10
145.89930372041715
 20
119.12673458611715
  0
LWPOLYLINE
  5
1F3
330
17
100
AcDbEntity
  8
MAT-MATERIAL
  6
Continuous
370
20
100
AcDbPolyline
 90
2
 70
0
 10
149.0181733315278
 20
119.77375848545675
 10
147.48928965996367
 20
119.29005968393085
  0
LWPOLYLINE
  5
1F4
330
17
100
AcDbEntity
  8
MAT-MATERIAL
  6
Continuous
370
20
100
AcDbPolyline
 90
2
 70
0
 10
150.68975296956324
 20
120.7500899474783
 10
149.0181733315278
 20
119.77375848545675
  0
LWPOLYLINE
  5
1F5
330
17
100
AcDbEntity
  8
MAT-MATERIAL
  6
Continuous
370
20
100
AcDbPolyline
 90
2
 70
0
 10
152.0966116194291
 20
122.10642583307572
 10
150.68975296956324
 20
120.7500899474783
  0
LWPOLYLINE
  5
1F6
330
17
100
AcDbEntity
  8
MAT-MATERIAL
  6
Continuous
370
20
100
AcDbPolyline
 90
2
 70
0
 10
153.16100604815531
 20
123.76781480527596
 10
152.0966116194291
 20
122.10642583307572
  0
LWPOLYLINE
  5
1F7
330
17
100
AcDbEntity
  8
MAT-MATERIAL
  6
Continuous
370
20
100
AcDbPolyline
 90
2
 70
0
 10
153.824117650154
 20
125.64244824497433
 10
153.16100604815531
 20
123.76781480527596
  0
LWPOLYLINE
  5
1F8
330
17
100
AcDbEntity
  8
MAT-MATERIAL
  6
Continuous
370
20
100
AcDbPolyline
 90
2
 70
0
 10
154.0493027727282
 20
127.6267336098428
 10
153.824117650154
 20
125.64244824497433
  0
LWPOLYLINE
  5
1F9
330
17
100
AcDbEntity
  8
MAT-CONCRETE
  6
Continuous
370
35
100
AcDbPolyline
 90
5
 70
1
 10
126.39930434179561
 20
81.12672998364614
 10
131.39930391214548
 20
81.12672998364614
 10
131.39930391214548
 20
76.12673041329626
 10
126.39930434179561
 20
76.12673041329626
 10
126.39930434179561
 20
81.12672998364614
  0
LWPOLYLINE
  5
1FA
330
17
100
AcDbEntity
  8
MAT-CONCRETE
  6
Continuous
370
35
100
AcDbPolyline
 90
5
 70
1
 10
126.39930434179561
 20
128.12673357432837
 10
131.39930391214548
 20
128.12673357432837
 10
131.39930391214548
 20
123.1267340039785
 10
126.39930434179561
 20
123.1267340039785
 10
126.39930434179561
 20
128.12673357432837
  0
LWPOLYLINE
  5
1FB
330
17
100
AcDbEntity
  8
MAT-CONCRETE
  6
Continuous
370
35
100
AcDbPolyline
 90
5
 70
1
 10
216.39930852902143
 20
81.12672998364614
 10
221.3993080993713
 20
81.12672998364614
 10
221.3993080993713
 20
76.12673041329626
 10
216.39930852902143
 20
76.12673041329626
 10
216.39930852902143
 20
81.12672998364614
  0
LWPOLYLINE
  5
1FC
330
17
100
AcDbEntity
  8
MAT-CONCRETE
  6
Continuous
370
35
100
AcDbPolyline
 90
5
 70
1
 10
293.39930000506075
 20
81.12672998364614
 10
298.3992995754106
 20
81.12672998364614
 10
298.3992995754106
 20
76.12673041329626
 10
293.39930000506075
 20
76.12673041329626
 10
293.39930000506075
 20
81.12672998364614
  0
LWPOLYLINE
  5
1FD
330
17
100
AcDbEntity
  8
MAT-CONCRETE
  6
Continuous
370
35
100
AcDbPolyline
 90
5
 70
1
 10
216.39930852902143
 20
128.12673357432837
 10
221.3993080993713
 20
128.12673357432837
 10
221.3993080993713
 20
123.1267340039785
 10
216.39930852902143
 20
123.1267340039785
 10
216.39930852902143
 20
128.12673357432837
  0
LWPOLYLINE
  5
1FE
330
17
100
AcDbEntity
  8
MAT-CONCRETE
  6
Continuous
370
35
100
AcDbPolyline
 90
5
 70
1
 10
293.39930000506075
 20
128.12673357432837
 10
298.3992995754106
 20
128.12673357432837
 10
298.3992995754106
 20
123.1267340039785
 10
293.39930000506075
 20
123.1267340039785
 10
293.39930000506075
 20
128.12673357432837
  0
LWPOLYLINE
  5
1FF
330
17
100
AcDbEntity
  8
MAT-CONCRETE
  6
Continuous
370
35
100
AcDbPolyline
 90
5
 70
1
 10
216.39930852902143
 20
198.1267275592268
 10
221.3993080993713
 20
198.1267275592268
 10
221.3993080993713
 20
193.12672798887692
 10
216.39930852902143
 20
193.12672798887692
 10
216.39930852902143
 20
198.1267275592268
  0
LWPOLYLINE
  5
200
330
17
100
AcDbEntity
  8
MAT-CONCRETE
  6
Continuous
370
35
100
AcDbPolyline
 90
5
 70
1
 10
293.39930000506075
 20
198.1267275592268
 10
298.3992995754106
 20
198.1267275592268
 10
298.3992995754106
 20
193.12672798887692
 10
293.39930000506075
 20
193.12672798887692
 10
293.39930000506075
 20
198.1267275592268
  0
LWPOLYLINE
  5
201
330
17
100
AcDbEntity
  8
MAT-NULL
  6
Continuous
370
35
100
AcDbPolyline
 90
11
 70
0
 10
253.74929595384938
 20
108.93879408216591
 10
253.44929567445263
 20
108.93879406905248
 10
253.4492958731827
 20
91.07675643472024
 10
252.54929408162127
 20
91.07675639537987
 10
252.54929409473468
 20
90.77675642115886
 10
253.59929615027525
 20
90.77675646705595
 10
253.59929613716182
 20
91.07675644127696
 10
253.44929587318276
 20
91.07675643472021
 10
253.44929585143225
 20
90.9267564476097
 10
253.74929613082904
 20
90.92675646072308
 10
253.74929595384936
 20
108.93879408216597
  0
LWPOLYLINE
  5
202
330
17
100
AcDbEntity
  8
MAT-NULL
  6
Continuous
370
35
100
AcDbPolyline
 90
2
 70
0
 10
253.44929583084195
 20
105.36102293798567
 10
253.74929611023873
 20
105.36102295109912
  0
LWPOLYLINE
  5
203
330
17
100
AcDbEntity
  8
MAT-NULL
  6
Continuous
370
35
100
AcDbPolyline
 90
2
 70
0
 10
253.74929598945505
 20
94.16101643670933
 10
253.44929632040981
 20
94.16101642359591
  0
LWPOLYLINE
  5
204
330
17
100
AcDbEntity
  8
MAT-NULL
  6
Continuous
370
35
100
AcDbPolyline
 90
5
 70
0
 10
266.3992950198807
 20
92.18232117255306
 10
266.39929496289534
 20
96.96102214107114
 10
253.8992972577236
 20
96.96102199201012
 10
253.89929731470906
 20
92.18232102349205
 10
266.39929501988075
 20
92.18232117255303
  0
LWPOLYLINE
  5
205
330
17
100
AcDbEntity
  8
MAT-NULL
  6
Continuous
370
20
100
AcDbPolyline
 90
5
 70
0
 10
125.54922055309486
 20
137.62673116912862
 10
125.5492232670858
 20
132.6267327813354
 10
125.74924201820872
 20
132.62673284412458
 10
125.74923938051171
 20
137.6267312319178
 10
125.54922055309486
 20
137.62673116912865
  0
LWPOLYLINE
  5
206
330
17
100
AcDbEntity
  8
MAT-NULL
  6
Continuous
370
20
100
AcDbPolyline
 90
5
 70
0
 10
126.39924707404768
 20
132.6267342688749
 10
124.89922881449586
 20
132.62673379799446
 10
124.89922897145503
 20
132.12673078920193
 10
126.39924723100685
 20
132.12673126008238
 10
126.39924707404768
 20
132.62673426887488
  0
LWPOLYLINE
  5
207
330
17
100
AcDbEntity
  8
MAT-NULL
  6
Continuous
370
20
100
AcDbPolyline
 90
5
 70
0
 10
126.39924427939154
 20
138.1267355700928
 10
124.89922603098502
 20
138.12673509921237
 10
124.89922618794455
 20
137.6267309650847
 10
126.39924443635107
 20
137.6267314359651
 10
126.39924427939154
 20
138.12673557009282
  0
LWPOLYLINE
  5
208
330
17
100
AcDbEntity
  8
MAT-FIN
  6
Continuous
370
5
100
AcDbPolyline
 90
5
 70
1
 10
216.39930852902143
 20
76.12673041329626
 10
216.39930852902143
 20
75.12673049922628
 10
298.39931878845596
 20
75.12673049922628
 10
298.39931878845596
 20
76.12673041329626
 10
216.39930852902143
 20
76.12673041329626
  0
LWPOLYLINE
  5
209
330
17
100
AcDbEntity
  8
MAT-FIN
  6
Continuous
370
5
100
AcDbPolyline
 90
3
 70
1
 10
298.3993186488959
 20
75.12672668452865
 10
298.399318648896
 20
75.12672668452865
 10
298.3993186488959
 20
75.12672668452865
  0
LWPOLYLINE
  5
20A
330
17
100
AcDbEntity
  8
MAT-FIN
  6
Continuous
370
5
100
AcDbPolyline
 90
5
 70
1
 10
298.399318648896
 20
75.12672668452865
 10
298.3992806489184
 20
148.1265982367205
 10
299.3992805629882
 20
148.12659875726902
 10
299.3993185629658
 20
75.12672720507715
 10
298.399318648896
 20
75.12672668452865
  0
LWPOLYLINE
  5
20B
330
17
100
AcDbEntity
  8
MAT-NULL
  6
Continuous
370
13
100
AcDbPolyline
 90
3
 70
1
 10
184.3993126555522
 20
75.12673006211247
 10
184.3993126555522
 20
75.12673049922628
 10
184.3993126555522
 20
75.12673006211247
  0
LWPOLYLINE
  5
20C
330
17
100
AcDbEntity
  8
MAT-NULL
  6
Continuous
370
13
100
AcDbPolyline
 90
6
 70
1
 10
154.39931401274987
 20
75.12673006211254
 10
154.39931401274987
 20
76.12672997618249
 10
164.3993155948557
 20
76.12673041329626
 10
164.3993155948557
 20
75.1267309363401
 10
154.39931401274987
 20
75.12673049922628
 10
154.39931401274987
 20
75.12673006211254
  0
LWPOLYLINE
  5
20D
330
17
100
AcDbEntity
  8
MAT-NULL
  6
Continuous
370
13
100
AcDbPolyline
 90
5
 70
1
 10
216.39931541666613
 20
75.12673049922628
 10
214.3993005409092
 20
75.12673006211247
 10
214.3993005409092
 20
76.12673041329626
 10
216.39931541666613
 20
76.12673041329626
 10
216.39931541666613
 20
75.12673049922628
  0
LWPOLYLINE
  5
20E
330
17
100
AcDbEntity
  8
MAT-NULL
  6
Continuous
370
13
100
AcDbPolyline
 90
5
 70
1
 10
126.39930195761002
 20
75.12673049922628
 10
126.39930195761002
 20
76.12673041329626
 10
134.39931939345942
 20
76.12673041329626
 10
134.39931939345945
 20
75.12673093634005
 10
126.39930195761002
 20
75.12673049922628
  0
LWPOLYLINE
  5
20F
330
17
100
AcDbEntity
  8
MAT-NULL
  6
Continuous
370
13
100
AcDbPolyline
 90
5
 70
1
 10
184.3993126555522
 20
75.12673049922628
 10
184.3993126555522
 20
76.12672997618246
 10
194.3993034802127
 20
76.12673041329626
 10
194.39930348021267
 20
75.1267309363401
 10
184.3993126555522
 20
75.12673049922628
  0
LWPOLYLINE
  5
210
330
17
100
AcDbEntity
  8
MAT-NULL
  6
Continuous
370
13
100
AcDbPolyline
 90
5
 70
1
 10
216.39928945553706
 20
148.12674139247008
 10
216.39928906612275
 20
149.12674130653997
 10
214.5843215059975
 20
149.12674059976555
 10
214.58432150599748
 20
148.1267406856955
 10
216.39928945553706
 20
148.12674139247008
  0
LWPOLYLINE
  5
211
330
17
100
AcDbEntity
  8
MAT-NULL
  6
Continuous
370
13
100
AcDbPolyline
 90
5
 70
1
 10
125.39928184870278
 20
148.12670595575966
 10
205.08432537409024
 20
148.1267369862605
 10
205.0843253740902
 20
149.12673690033057
 10
125.39928145928846
 20
149.12670586982958
 10
125.39928184870278
 20
148.12670595575966
  0
LWPOLYLINE
  5
212
330
17
100
AcDbEntity
  8
MAT-NULL
  6
Continuous
370
13
100
AcDbPolyline
 90
3
 70
1
 10
299.3992840796971
 20
149.12659825540533
 10
299.39928407969717
 20
149.12659825540533
 10
299.3992840796971
 20
149.12659825540533
  0
LWPOLYLINE
  5
213
330
17
100
AcDbEntity
  8
MAT-NULL
  6
Continuous
370
13
100
AcDbPolyline
 90
5
 70
1
 10
299.3992840796971
 20
149.12659825540533
 10
299.3992842306929
 20
148.12659834093344
 10
216.36987781572975
 20
148.12658580424352
 10
216.36987766473396
 20
149.12658571831346
 10
299.3992840796971
 20
149.12659825540533
  0
LWPOLYLINE
  5
214
330
17
100
AcDbEntity
  8
MAT-NULL
  6
Continuous
370
13
100
AcDbPolyline
 90
5
 70
1
 10
126.39928049993978
 20
148.12670324550135
 10
125.39928058586983
 20
148.1267029315849
 10
125.39928372502568
 20
138.12673125792622
 10
126.39928503785973
 20
138.12673236259855
 10
126.39928049993978
 20
148.12670324550135
  0
LWPOLYLINE
  5
215
330
17
100
AcDbEntity
  8
MAT-NULL
  6
Continuous
370
13
100
AcDbPolyline
 90
5
 70
1
 10
126.39930341583481
 20
75.12672718096428
 10
126.39928552259519
 20
132.12672921606807
 10
125.39928490914333
 20
132.12672811139572
 10
125.39930350176488
 20
75.1267268670478
 10
126.39930341583481
 20
75.12672718096428
  0
LWPOLYLINE
  5
216
330
17
100
AcDbEntity
  8
MAT-FIN
  6
Continuous
370
5
100
AcDbPolyline
 90
6
 70
1
 10
280.9059807343882
 20
76.12673085410341
 10
298.39932297546295
 20
76.12673085410341
 10
298.39932297546295
 20
75.12672710298467
 10
216.39931102274562
 20
75.12672710298467
 10
216.39931102274562
 20
76.12673085410341
 10
280.9059807343882
 20
76.12673085410341
  0
LWPOLYLINE
  5
217
330
17
100
AcDbEntity
  8
MAT-FIN
  6
Continuous
370
5
100
AcDbPolyline
 90
6
 70
1
 10
298.39928482849274
 20
132.55329052953883
 10
298.39928482849274
 20
148.12660039146522
 10
299.3992885796115
 20
148.12660039146522
 10
299.3993267265817
 20
75.12672710298467
 10
298.39932297546295
 20
75.12672710298467
 10
298.39928482849274
 20
132.55329052953883
  0
LWPOLYLINE
  5
218
330
17
100
AcDbEntity
  8
MAT-NULL
  6
Continuous
370
13
100
AcDbPolyline
 90
6
 70
1
 10
214.75827604712376
 20
75.12672710298467
 10
214.3992939837656
 20
75.12672710298467
 10
214.3992939837656
 20
76.12673085410341
 10
216.3993205594882
 20
76.12673085410341
 10
216.3993205594882
 20
75.12672710298467
 10
214.75827604712376
 20
75.12672710298467
  0
LWPOLYLINE
  5
219
330
17
100
AcDbEntity
  8
MAT-NULL
  6
Continuous
370
13
100
AcDbPolyline
 90
5
 70
1
 10
194.39930479207382
 20
75.12672710298467
 10
184.39931496459923
 20
75.12672710298467
 10
184.39931496459923
 20
76.12673085410341
 10
194.39930479207382
 20
76.12673085410341
 10
194.39930479207382
 20
75.12672710298467
  0
LWPOLYLINE
  5
21A
330
17
100
AcDbEntity
  8
MAT-NULL
  6
Continuous
370
13
100
AcDbPolyline
 90
5
 70
1
 10
164.3993162361649
 20
75.12672710298467
 10
154.39931687194775
 20
75.12672710298467
 10
154.39931687194775
 20
76.12673085410341
 10
164.3993162361649
 20
76.12673085410341
 10
164.3993162361649
 20
75.12672710298467
  0
LWPOLYLINE
  5
21B
330
17
100
AcDbEntity
  8
MAT-NULL
  6
Continuous
370
13
100
AcDbPolyline
 90
5
 70
1
 10
134.39931814351343
 20
75.12672710298467
 10
126.39930720804861
 20
75.12672710298467
 10
126.39930720804861
 20
76.12673085410341
 10
134.39931814351343
 20
76.12673085410341
 10
134.39931814351343
 20
75.12672710298467
  0
LWPOLYLINE
  5
21C
330
17
100
AcDbEntity
  8
MAT-NULL
  6
Continuous
370
13
100
AcDbPolyline
 90
6
 70
1
 10
125.39928438344475
 20
148.4600430582538
 10
125.39928438344475
 20
149.1267090467521
 10
205.08432837421293
 20
149.12673765697977
 10
205.08432837421293
 20
148.12674344260358
 10
125.39928438344475
 20
148.12670529563337
 10
125.39928438344475
 20
148.4600430582538
  0
LWPOLYLINE
  5
21D
330
17
100
AcDbEntity
  8
MAT-NULL
  6
Continuous
370
13
100
AcDbPolyline
 90
5
 70
1
 10
214.5843258628707
 20
149.12674719372234
 10
216.39929194926052
 20
149.12674719372234
 10
216.39929194926052
 20
148.12674344260358
 10
214.5843258628707
 20
148.12674344260358
 10
214.5843258628707
 20
149.12674719372234
  0
LWPOLYLINE
  5
21E
330
17
100
AcDbEntity
  8
MAT-NULL
  6
Continuous
370
13
100
AcDbPolyline
 90
6
 70
1
 10
279.83895275657375
 20
149.1265946058414
 10
299.3992885796115
 20
149.12660414258397
 10
299.3992885796115
 20
148.12660039146522
 10
216.36988063521247
 20
148.12659085472268
 10
216.36988063521247
 20
149.12658506909887
 10
279.83895275657375
 20
149.1265946058414
  0
LWPOLYLINE
  5
21F
330
17
100
AcDbEntity
  8
MAT-NULL
  6
Continuous
370
13
100
AcDbPolyline
 90
5
 70
1
 10
125.39930345692987
 20
75.12672710298467
 10
125.39928438344475
 20
132.12673110841655
 10
126.39928813456349
 20
132.12673110841655
 10
126.39930720804861
 20
75.12672710298467
 10
125.39930345692987
 20
75.12672710298467
  0
LWPOLYLINE
  5
220
330
17
100
AcDbEntity
  8
MAT-NULL
  6
Continuous
370
13
100
AcDbPolyline
 90
6
 70
1
 10
126.06595037194306
 20
138.12673454164388
 10
125.39928438344475
 20
138.12673454164388
 10
125.39928438344475
 20
148.12670529563337
 10
126.39927859782094
 20
148.12670529563337
 10
126.39928813456349
 20
138.12673454164388
 10
126.06595037194306
 20
138.12673454164388
  0
LWPOLYLINE
  5
221
330
17
100
AcDbEntity
  8
MAT-CONCRETE
  6
Continuous
370
35
100
AcDbPolyline
 90
5
 70
1
 10
131.39974446642333
 20
76.12708390685604
 10
131.39974446642333
 20
78.12708377969948
 10
134.39974427568848
 20
78.12708377969948
 10
134.39974427568848
 20
76.12708390685604
 10
131.39974446642333
 20
76.12708390685604
  0
LWPOLYLINE
  5
222
330
17
100
AcDbEntity
  8
MAT-CONCRETE
  6
Continuous
370
35
100
AcDbPolyline
 90
13
 70
1
 10
156.39974287696623
 20
126.12708072794186
 10
154.2997430104806
 20
126.12708072794186
 10
154.2997430104806
 20
128.1270806007853
 10
175.29974167533666
 20
128.1270806007853
 10
175.29974167533666
 20
126.12708072794186
 10
158.39974274980966
 20
126.12708072794186
 10
158.39974274980966
 20
78.12708377969948
 10
164.39974236833996
 20
78.12708377969948
 10
164.39974236833996
 20
76.12708390685604
 10
154.3997430041228
 20
76.12708390685604
 10
154.3997430041228
 20
78.12708377969948
 10
156.39974287696623
 20
78.12708377969948
 10
156.39974287696623
 20
126.12708072794186
  0
LWPOLYLINE
  5
223
330
17
100
AcDbEntity
  8
MAT-CONCRETE
  6
Continuous
370
35
100
AcDbPolyline
 90
13
 70
1
 10
184.39974109677428
 20
78.12708377969948
 10
186.3997409696177
 20
78.12708377969948
 10
186.3997409696177
 20
126.12708072794186
 10
184.2997411031321
 20
126.12708072794186
 10
184.2997411031321
 20
128.1270806007853
 10
205.3347397657629
 20
128.1270806007853
 10
205.3347397657629
 20
126.12708072794186
 10
188.39974084246114
 20
126.12708072794186
 10
188.39974084246114
 20
78.12708377969948
 10
194.39974046099144
 20
78.12708377969948
 10
194.39974046099144
 20
76.12708390685604
 10
184.39974109677428
 20
76.12708390685604
 10
184.39974109677428
 20
78.12708377969948
  0
LWPOLYLINE
  5
224
330
17
100
AcDbEntity
  8
MAT-CONCRETE
  6
Continuous
370
35
100
AcDbPolyline
 90
5
 70
1
 10
128.39974465715818
 20
81.12708358896462
 10
126.39974478431473
 20
81.12708358896462
 10
126.39974478431473
 20
123.12708091867671
 10
128.39974465715818
 20
123.12708091867671
 10
128.39974465715818
 20
81.12708358896462
  0
LWPOLYLINE
  5
225
330
17
100
AcDbEntity
  8
MAT-CONCRETE
  6
Continuous
370
35
100
AcDbPolyline
 90
5
 70
1
 10
145.29974358268515
 20
128.1270806007853
 10
145.29974358268515
 20
126.12708072794186
 10
131.39974446642333
 20
126.12708072794186
 10
131.39974446642333
 20
128.1270806007853
 10
145.29974358268515
 20
128.1270806007853
  0
LWPOLYLINE
  5
226
330
17
100
AcDbEntity
  8
MAT-CONCRETE
  6
Continuous
370
35
100
AcDbPolyline
 90
5
 70
1
 10
214.33473919355833
 20
128.1270806007853
 10
216.3997390622692
 20
128.1270806007853
 10
216.3997390622692
 20
126.12708072794186
 10
214.33473919355833
 20
126.12708072794186
 10
214.33473919355833
 20
128.1270806007853
  0
LWPOLYLINE
  5
227
330
17
100
AcDbEntity
  8
MAT-CONCRETE
  6
Continuous
370
35
100
AcDbPolyline
 90
5
 70
1
 10
126.39974478431473
 20
128.1270806007853
 10
126.39974478431473
 20
132.12708034647216
 10
128.39974465715818
 20
132.12708034647216
 10
128.39974465715818
 20
128.1270806007853
 10
126.39974478431473
 20
128.1270806007853
  0
LWPOLYLINE
  5
228
330
17
100
AcDbEntity
  8
MAT-CONCRETE
  6
Continuous
370
35
100
AcDbPolyline
 90
7
 70
1
 10
128.39974465715818
 20
138.12707996500245
 10
126.39974478431473
 20
138.12707996500245
 10
126.39974478431473
 20
148.12707932921964
 10
205.3347397657629
 20
148.12707932921964
 10
205.3347397657629
 20
146.1270794563762
 10
128.39974465715818
 20
146.1270794563762
 10
128.39974465715818
 20
138.12707996500245
  0
LWPOLYLINE
  5
229
330
17
100
AcDbEntity
  8
MAT-CONCRETE
  6
Continuous
370
35
100
AcDbPolyline
 90
5
 70
1
 10
214.39973918942576
 20
76.12708390685604
 10
214.39973918942576
 20
78.12708377969948
 10
216.3997390622692
 20
78.12708377969948
 10
216.3997390622692
 20
76.12708390685604
 10
214.39973918942576
 20
76.12708390685604
  0
LWPOLYLINE
  5
22A
330
17
100
AcDbEntity
  8
MAT-CONCRETE
  6
Continuous
370
35
100
AcDbPolyline
 90
19
 70
1
 10
266.399735883355
 20
78.12708377969948
 10
266.399735883355
 20
128.1270806007853
 10
270.0617356505313
 20
128.1270806007853
 10
270.0617356505313
 20
126.12708072794186
 10
268.3997357561984
 20
126.12708072794186
 10
268.3997357561984
 20
93.12708282602522
 10
296.3997339760065
 20
93.12708282602522
 10
296.3997339760065
 20
123.12708091867671
 10
298.3997338488499
 20
123.12708091867671
 10
298.3997338488499
 20
81.12708358896462
 10
296.3997339760065
 20
81.12708358896462
 10
296.3997339760065
 20
91.12708295318178
 10
283.39973480252416
 20
91.12708295318178
 10
283.39973480252416
 20
78.12708377969948
 10
293.3997341667413
 20
78.12708377969948
 10
293.3997341667413
 20
76.12708390685604
 10
221.39973874437777
 20
76.12708390685604
 10
221.39973874437777
 20
78.12708377969948
 10
266.399735883355
 20
78.12708377969948
  0
LWPOLYLINE
  5
22B
330
17
100
AcDbEntity
  8
MAT-CONCRETE
  6
Continuous
370
35
100
AcDbPolyline
 90
5
 70
1
 10
281.39973492968073
 20
91.12708295318178
 10
268.3997357561984
 20
91.12708295318178
 10
268.3997357561984
 20
78.12708377969948
 10
281.39973492968073
 20
78.12708377969948
 10
281.39973492968073
 20
91.12708295318178
  0
LWPOLYLINE
  5
22C
330
17
100
AcDbEntity
  8
MAT-CONCRETE
  6
Continuous
370
35
100
AcDbPolyline
 90
5
 70
1
 10
218.39973893511262
 20
81.12708358896462
 10
216.3997390622692
 20
81.12708358896462
 10
216.3997390622692
 20
123.12708091867671
 10
218.39973893511262
 20
123.12708091867671
 10
218.39973893511262
 20
81.12708358896462
  0
LWPOLYLINE
  5
22D
330
17
100
AcDbEntity
  8
MAT-CONCRETE
  6
Continuous
370
35
100
AcDbPolyline
 90
5
 70
1
 10
279.0617350783268
 20
128.1270806007853
 10
293.3997341667413
 20
128.1270806007853
 10
293.3997341667413
 20
126.12708072794186
 10
279.0617350783268
 20
126.12708072794186
 10
279.0617350783268
 20
128.1270806007853
  0
LWPOLYLINE
  5
22E
330
17
100
AcDbEntity
  8
MAT-CONCRETE
  6
Continuous
370
35
100
AcDbPolyline
 90
7
 70
1
 10
214.33473919355833
 20
148.12707932921964
 10
298.3997338488499
 20
148.12707932921964
 10
298.3997338488499
 20
128.1270806007853
 10
296.3997339760065
 20
128.1270806007853
 10
296.3997339760065
 20
146.1270794563762
 10
214.33473919355833
 20
146.1270794563762
 10
214.33473919355833
 20
148.12707932921964
  0
LWPOLYLINE
  5
22F
330
17
100
AcDbEntity
  8
MAT-CONCRETE
  6
Continuous
370
35
100
AcDbPolyline
 90
5
 70
1
 10
131.39974446642333
 20
78.12708377969948
 10
134.39974427568848
 20
78.12708377969948
 10
134.39974427568848
 20
76.12708390685604
 10
131.39974446642333
 20
76.12708390685604
 10
131.39974446642333
 20
78.12708377969948
  0
LWPOLYLINE
  5
230
330
17
100
AcDbEntity
  8
MAT-CONCRETE
  6
Continuous
370
35
100
AcDbPolyline
 90
13
 70
1
 10
156.39974287696623
 20
78.12708377969948
 10
156.39974287696623
 20
126.12708072794186
 10
154.2997430104806
 20
126.12708072794186
 10
154.2997430104806
 20
128.1270806007853
 10
175.29974167533666
 20
128.1270806007853
 10
175.29974167533666
 20
126.12708072794186
 10
158.39974274980966
 20
126.12708072794186
 10
158.39974274980966
 20
78.12708377969948
 10
164.39974236833996
 20
78.12708377969948
 10
164.39974236833996
 20
76.12708390685604
 10
154.3997430041228
 20
76.12708390685604
 10
154.3997430041228
 20
78.12708377969948
 10
156.39974287696623
 20
78.12708377969948
  0
LWPOLYLINE
  5
231
330
17
100
AcDbEntity
  8
MAT-CONCRETE
  6
Continuous
370
35
100
AcDbPolyline
 90
14
 70
1
 10
186.3997409696177
 20
100.3880823643833
 10
186.3997409696177
 20
126.12708072794186
 10
184.2997411031321
 20
126.12708072794186
 10
184.2997411031321
 20
128.1270806007853
 10
205.3347397657629
 20
128.1270806007853
 10
205.3347397657629
 20
126.12708072794186
 10
188.39974084246114
 20
126.12708072794186
 10
188.39974084246114
 20
78.12708377969948
 10
194.39974046099144
 20
78.12708377969948
 10
194.39974046099144
 20
76.12708390685604
 10
184.39974109677428
 20
76.12708390685604
 10
184.39974109677428
 20
78.12708377969948
 10
186.3997409696177
 20
78.12708377969948
 10
186.3997409696177
 20
100.3880823643833
  0
LWPOLYLINE
  5
232
330
17
100
AcDbEntity
  8
MAT-CONCRETE
  6
Continuous
370
35
100
AcDbPolyline
 90
6
 70
1
 10
126.39974478431473
 20
100.72708234283027
 10
126.39974478431473
 20
123.12708091867671
 10
128.39974465715818
 20
123.12708091867671
 10
128.39974465715818
 20
81.12708358896462
 10
126.39974478431473
 20
81.12708358896462
 10
126.39974478431473
 20
100.72708234283027
  0
LWPOLYLINE
  5
233
330
17
100
AcDbEntity
  8
MAT-CONCRETE
  6
Continuous
370
35
100
AcDbPolyline
 90
6
 70
1
 10
142.5197437594328
 20
128.1270806007853
 10
145.29974358268515
 20
128.1270806007853
 10
145.29974358268515
 20
126.12708072794186
 10
131.39974446642333
 20
126.12708072794186
 10
131.39974446642333
 20
128.1270806007853
 10
142.5197437594328
 20
128.1270806007853
  0
LWPOLYLINE
  5
234
330
17
100
AcDbEntity
  8
MAT-CONCRETE
  6
Continuous
370
35
100
AcDbPolyline
 90
5
 70
1
 10
128.39974465715818
 20
132.12708034647216
 10
128.39974465715818
 20
128.1270806007853
 10
126.39974478431473
 20
128.1270806007853
 10
126.39974478431473
 20
132.12708034647216
 10
128.39974465715818
 20
132.12708034647216
  0
LWPOLYLINE
  5
235
330
17
100
AcDbEntity
  8
MAT-CONCRETE
  6
Continuous
370
35
100
AcDbPolyline
 90
8
 70
1
 10
128.39974465715818
 20
148.12707932921964
 10
205.3347397657629
 20
148.12707932921964
 10
205.3347397657629
 20
146.1270794563762
 10
128.39974465715818
 20
146.1270794563762
 10
128.39974465715818
 20
138.12707996500245
 10
126.39974478431473
 20
138.12707996500245
 10
126.39974478431473
 20
148.12707932921964
 10
128.39974465715818
 20
148.12707932921964
  0
LWPOLYLINE
  5
236
330
17
100
AcDbEntity
  8
MAT-CONCRETE
  6
Continuous
370
35
100
AcDbPolyline
 90
6
 70
1
 10
215.06573914708264
 20
78.12708377969948
 10
216.3997390622692
 20
78.12708377969948
 10
216.3997390622692
 20
76.12708390685604
 10
214.39973918942576
 20
76.12708390685604
 10
214.39973918942576
 20
78.12708377969948
 10
215.06573914708264
 20
78.12708377969948
  0
LWPOLYLINE
  5
237
330
17
100
AcDbEntity
  8
MAT-CONCRETE
  6
Continuous
370
35
100
AcDbPolyline
 90
19
 70
1
 10
296.3997339760065
 20
93.12708282602522
 10
296.3997339760065
 20
123.12708091867671
 10
298.3997338488499
 20
123.12708091867671
 10
298.3997338488499
 20
81.12708358896462
 10
296.3997339760065
 20
81.12708358896462
 10
296.3997339760065
 20
91.12708295318178
 10
283.39973480252416
 20
91.12708295318178
 10
283.39973480252416
 20
78.12708377969948
 10
293.3997341667413
 20
78.12708377969948
 10
293.3997341667413
 20
76.12708390685604
 10
221.39973874437777
 20
76.12708390685604
 10
221.39973874437777
 20
78.12708377969948
 10
266.399735883355
 20
78.12708377969948
 10
266.399735883355
 20
128.1270806007853
 10
270.0617356505313
 20
128.1270806007853
 10
270.0617356505313
 20
126.12708072794186
 10
268.3997357561984
 20
126.12708072794186
 10
268.3997357561984
 20
93.12708282602522
 10
296.3997339760065
 20
93.12708282602522
  0
LWPOLYLINE
  5
238
330
17
100
AcDbEntity
  8
MAT-CONCRETE
  6
Continuous
370
35
100
AcDbPolyline
 90
5
 70
1
 10
268.3997357561984
 20
78.12708377969948
 10
281.39973492968073
 20
78.12708377969948
 10
281.39973492968073
 20
91.12708295318178
 10
268.3997357561984
 20
91.12708295318178
 10
268.3997357561984
 20
78.12708377969948
  0
LWPOLYLINE
  5
239
330
17
100
AcDbEntity
  8
MAT-CONCRETE
  6
Continuous
370
35
100
AcDbPolyline
 90
5
 70
1
 10
216.3997390622692
 20
123.12708091867671
 10
218.39973893511262
 20
123.12708091867671
 10
218.39973893511262
 20
81.12708358896462
 10
216.3997390622692
 20
81.12708358896462
 10
216.3997390622692
 20
123.12708091867671
  0
LWPOLYLINE
  5
23A
330
17
100
AcDbEntity
  8
MAT-CONCRETE
  6
Continuous
370
35
100
AcDbPolyline
 90
6
 70
1
 10
214.74773916730052
 20
128.1270806007853
 10
216.3997390622692
 20
128.1270806007853
 10
216.3997390622692
 20
126.12708072794186
 10
214.33473919355833
 20
126.12708072794186
 10
214.33473919355833
 20
128.1270806007853
 10
214.74773916730052
 20
128.1270806007853
  0
LWPOLYLINE
  5
23B
330
17
100
AcDbEntity
  8
MAT-CONCRETE
  6
Continuous
370
35
100
AcDbPolyline
 90
5
 70
1
 10
279.0617350783268
 20
128.1270806007853
 10
293.3997341667413
 20
128.1270806007853
 10
293.3997341667413
 20
126.12708072794186
 10
279.0617350783268
 20
126.12708072794186
 10
279.0617350783268
 20
128.1270806007853
  0
LWPOLYLINE
  5
23C
330
17
100
AcDbEntity
  8
MAT-CONCRETE
  6
Continuous
370
35
100
AcDbPolyline
 90
7
 70
1
 10
296.3997339760065
 20
146.1270794563762
 10
214.33473919355833
 20
146.1270794563762
 10
214.33473919355833
 20
148.12707932921964
 10
298.3997338488499
 20
148.12707932921964
 10
298.3997338488499
 20
128.1270806007853
 10
296.3997339760065
 20
128.1270806007853
 10
296.3997339760065
 20
146.1270794563762
  0
LWPOLYLINE
  5
23D
330
17
100
AcDbEntity
  8
MAT-NULL
  6
Continuous
100
AcDbPolyline
 90
6
 70
1
 10
201.465983343641
 20
78.1267383563409
 10
188.39932043233162
 20
78.1267383563409
 10
188.39930135884651
 20
126.1267372119318
 10
216.39931102274562
 20
126.1267372119318
 10
216.39931102274562
 20
78.1267383563409
 10
201.465983343641
 20
78.1267383563409
  0
LWPOLYLINE
  5
23E
330
17
100
AcDbEntity
  8
MAT-NULL
  6
Continuous
100
AcDbPolyline
 90
5
 70
1
 10
268.39932488281147
 20
78.1267383563409
 10
268.39932488281147
 20
91.12672990042915
 10
281.3992973534146
 20
91.12672990042915
 10
281.39931642689976
 20
78.1267383563409
 10
268.39932488281147
 20
78.1267383563409
  0
LWPOLYLINE
  5
23F
330
17
100
AcDbEntity
  8
MAT-NULL
  6
Continuous
100
AcDbPolyline
 90
7
 70
1
 10
293.39930421986924
 20
81.126730536212
 10
293.39930421986924
 20
78.1267383563409
 10
283.3993048556521
 20
78.1267383563409
 10
283.3993048556521
 20
91.12672990042915
 10
296.39929639974036
 20
91.12672990042915
 10
296.39929639974036
 20
81.126730536212
 10
293.39930421986924
 20
81.126730536212
  0
LWPOLYLINE
  5
240
330
17
100
AcDbEntity
  8
MAT-NULL
  6
Continuous
100
AcDbPolyline
 90
6
 70
1
 10
171.46598048261825
 20
78.1267383563409
 10
158.39931280293757
 20
78.1267383563409
 10
158.39929849782374
 20
126.1267372119318
 10
186.3993033933516
 20
126.1267372119318
 10
186.39931293009414
 20
78.1267383563409
 10
171.46598048261825
 20
78.1267383563409
  0
LWPOLYLINE
  5
241
330
17
100
AcDbEntity
  8
MAT-NULL
  6
Continuous
100
AcDbPolyline
 90
9
 70
1
 10
156.39930530070012
 20
126.1267372119318
 10
156.39931960581396
 20
78.1267383563409
 10
131.39930212178592
 20
78.1267383563409
 10
131.39930212178592
 20
81.126730536212
 10
128.3993147102861
 20
81.126730536212
 10
128.39929563680096
 20
123.12673549531813
 10
131.39930212178592
 20
123.12673549531813
 10
131.39930212178592
 20
126.1267372119318
 10
156.39930530070012
 20
126.1267372119318
  0
LWPOLYLINE
  5
242
330
17
100
AcDbEntity
  8
MAT-NULL
  6
Continuous
100
AcDbPolyline
 90
13
 70
1
 10
218.399299451498
 20
81.126730536212
 10
218.39928991475543
 20
123.12673549531813
 10
221.3993107048542
 20
123.12673549531813
 10
221.3993107048542
 20
128.12673517742672
 10
128.39930517354355
 20
128.12673517742672
 10
128.39929563680096
 20
146.12673594036613
 10
296.39925825277015
 20
146.12673594036613
 10
296.39929639974036
 20
128.12673517742672
 10
266.3992983070889
 20
128.12673517742672
 10
266.39931738057396
 20
78.1267383563409
 10
221.3993107048542
 20
78.1267383563409
 10
221.3993107048542
 20
81.126730536212
 10
218.399299451498
 20
81.126730536212
  0
LWPOLYLINE
  5
243
330
17
100
AcDbEntity
  8
MAT-NULL
  6
Continuous
100
AcDbPolyline
 90
8
 70
1
 10
281.7326446527776
 20
126.1267372119318
 10
293.39930421986924
 20
126.1267372119318
 10
293.39930421986924
 20
123.12673549531813
 10
296.3992773262553
 20
123.12673549531813
 10
296.39929639974036
 20
93.12673740266663
 10
268.39932488281147
 20
93.12673740266663
 10
268.3993058093264
 20
126.1267372119318
 10
281.7326446527776
 20
126.1267372119318
  0
LINE
  5
245
330
17
100
AcDbEntity
  8
A-ANNO
  6
Continuous
370
18
420
0
100
AcDbLine
 10
80.29991438701595
 20
127.12675876496998
 30
0.0
 11
340.7785832052565
 21
127.12675876496998
 31
0.0
  0
TEXT
  5
247
330
17
100
AcDbEntity
  8
A-GRID
  6
Continuous
370
18
420
0
100
AcDbText
 10
80.29991438701595
 20
127.12675876496998
 30
0.0
 40
1.0927291666666668
  1
Y02
100
AcDbText
  0
TEXT
  5
248
330
17
100
AcDbEntity
  8
A-GRID
  6
Continuous
370
18
420
0
100
AcDbText
 10
340.7785832052565
 20
127.12675876496998
 30
0.0
 40
1.0927291666666668
  1
Y02
100
AcDbText
  0
LINE
  5
249
330
17
100
AcDbEntity
  8
A-ANNO
  6
Continuous
370
18
420
0
100
AcDbLine
 10
127.39930905181885
 20
224.48710413746593
 30
0.0
 11
127.39930905181885
 21
36.11897112457561
 31
0.0
  0
TEXT
  5
24A
330
17
100
AcDbEntity
  8
A-GRID
  6
Continuous
370
18
420
0
100
AcDbText
 10
127.39930905181885
 20
224.48710413746593
 30
0.0
 40
1.0927291666666668
  1
X01
100
AcDbText
  0
TEXT
  5
24B
330
17
100
AcDbEntity
  8
A-GRID
  6
Continuous
370
18
420
0
100
AcDbText
 10
127.39930905181885
 20
36.11897112457561
 30
0.0
 40
1.0927291666666668
  1
X01
100
AcDbText
  0
LINE
  5
24D
330
17
100
AcDbEntity
  8
A-DIMS
  6
Continuous
370
18
420
0
100
AcDbLine
 10
127.39930905181885
 20
60.11892763702955
 30
0.0
 11
157.39932240325842
 21
60.11892763702955
 31
0.0
  0
TEXT
  5
24F
330
17
100
AcDbEntity
  8
A-TEXT
  6
Continuous
370
18
420
0
100
AcDbText
 10
142.39931572753864
 20
59.11892770060783
 30
0.0
 40
2.5
  1
3000
100
AcDbText
  0
LINE
  5
250
330
17
100
AcDbEntity
  8
A-DIMS
  6
Continuous
370
18
420
0
100
AcDbLine
 10
157.39932240325842
 20
60.11892763702955
 30
0.0
 11
187.3993052371218
 21
60.11892763702955
 31
0.0
  0
TEXT
  5
251
330
17
100
AcDbEntity
  8
A-TEXT
  6
Continuous
370
18
420
0
100
AcDbText
 10
172.39931382019012
 20
59.11892770060783
 30
0.0
 40
2.5
  1
3000
100
AcDbText
  0
LINE
  5
252
330
17
100
AcDbEntity
  8
A-DIMS
  6
Continuous
370
18
420
0
100
AcDbLine
 10
187.3993052371218
 20
60.11892763702955
 30
0.0
 11
217.3993033297733
 21
60.11892763702955
 31
0.0
  0
TEXT
  5
253
330
17
100
AcDbEntity
  8
A-TEXT
  6
Continuous
370
18
420
0
100
AcDbText
 10
202.39930428344755
 20
59.11892770060783
 30
0.0
 40
2.5
  1
3000
100
AcDbText
  0
LINE
  5
254
330
17
100
AcDbEntity
  8
A-DIMS
  6
Continuous
370
18
420
0
100
AcDbLine
 10
217.3993033297733
 20
60.11892763702955
 30
0.0
 11
267.3993306684353
 21
60.11892763702955
 31
0.0
  0
TEXT
  5
255
330
17
100
AcDbEntity
  8
A-TEXT
  6
Continuous
370
18
420
0
100
AcDbText
 10
242.39931699910431
 20
59.11892770060783
 30
0.0
 40
2.5
  1
5000
100
AcDbText
  0
LINE
  5
256
330
17
100
AcDbEntity
  8
A-DIMS
  6
Continuous
370
18
420
0
100
AcDbLine
 10
267.3993306684353
 20
60.11892763702955
 30
0.0
 11
282.39932971476105
 21
60.11892763702955
 31
0.0
  0
TEXT
  5
257
330
17
100
AcDbEntity
  8
A-TEXT
  6
Continuous
370
18
420
0
100
AcDbText
 10
274.8993301915982
 20
59.11892770060783
 30
0.0
 40
2.5
  1
1500
100
AcDbText
  0
LINE
  5
258
330
17
100
AcDbEntity
  8
A-DIMS
  6
Continuous
370
18
420
0
100
AcDbLine
 10
282.39932971476105
 20
60.11892763702955
 30
0.0
 11
297.3992524671463
 21
60.11892763702955
 31
0.0
  0
TEXT
  5
259
330
17
100
AcDbEntity
  8
A-TEXT
  6
Continuous
370
18
420
0
100
AcDbText
 10
289.89928346155966
 20
59.11892770060783
 30
0.0
 40
2.5
  1
1500
100
AcDbText
  0
LINE
  5
25A
330
17
100
AcDbEntity
  8
A-ANNO
  6
Continuous
370
18
420
0
100
AcDbLine
 10
297.3992829847225
 20
224.48710413746593
 30
0.0
 11
297.3992829847225
 21
36.118952051090496
 31
0.0
  0
TEXT
  5
25B
330
17
100
AcDbEntity
  8
A-GRID
  6
Continuous
370
18
420
0
100
AcDbText
 10
297.3992829847225
 20
224.48710413746593
 30
0.0
 40
1.0927291666666668
  1
X03
100
AcDbText
  0
TEXT
  5
25C
330
17
100
AcDbEntity
  8
A-GRID
  6
Continuous
370
18
420
0
100
AcDbText
 10
297.3992829847225
 20
36.118952051090496
 30
0.0
 40
1.0927291666666668
  1
X03
100
AcDbText
  0
TEXT
  5
25D
330
17
100
AcDbEntity
  8
A-TEXT
  6
Continuous
370
18
420
0
100
AcDbText
 10
207.47254614839952
 20
261.5378219966885
 30
0.0
 40
1.0927291666666668
  1
1
100
AcDbText
  0
TEXT
  5
25E
330
17
100
AcDbEntity
  8
A-TEXT
  6
Continuous
370
18
420
0
100
AcDbText
 10
207.47254614839952
 20
266.53782167879706
 30
0.0
 40
1.0927291666666668
  1
A301
100
AcDbText
  0
LINE
  5
25F
330
17
100
AcDbEntity
  8
A-ANNO
  6
Continuous
370
18
420
0
100
AcDbLine
 10
103.40237759410422
 20
106.48443372239319
 30
0.0
 11
353.3993709770672
 21
106.48443372239319
 31
0.0
  0
TEXT
  5
260
330
17
100
AcDbEntity
  8
A-TEXT
  6
Continuous
370
18
420
0
100
AcDbText
 10
103.40237759410422
 20
103.9844338813389
 30
0.0
 40
1.0927291666666668
  1
1
100
AcDbText
  0
TEXT
  5
261
330
17
100
AcDbEntity
  8
A-TEXT
  6
Continuous
370
18
420
0
100
AcDbText
 10
103.40237759410422
 20
108.98443356344748
 30
0.0
 40
1.0927291666666668
  1
A201
100
AcDbText
  0
TEXT
  5
262
330
17
100
AcDbEntity
  8
A-TEXT
  6
Continuous
370
18
420
0
100
AcDbText
 10
353.3993709770672
 20
103.9844338813389
 30
0.0
 40
1.0927291666666668
  1
1
100
AcDbText
  0
TEXT
  5
263
330
17
100
AcDbEntity
  8
A-TEXT
  6
Continuous
370
18
420
0
100
AcDbText
 10
353.3993709770672
 20
108.98443356344748
 30
0.0
 40
1.0927291666666668
  1
A201
100
AcDbText
  0
LINE
  5
264
330
17
100
AcDbEntity
  8
A-DIMS
  6
Continuous
370
18
420
0
100
AcDbLine
 10
127.39930905181885
 20
48.1189207705749
 30
0.0
 11
297.3992829847225
 21
48.1189207705749
 31
0.0
  0
TEXT
  5
265
330
17
100
AcDbEntity
  8
A-TEXT
  6
Continuous
370
18
420
0
100
AcDbText
 10
212.39928838887664
 20
47.11892083415319
 30
0.0
 40
2.5
  1
17000
100
AcDbText
  0
LINE
  5
266
330
17
100
AcDbEntity
  8
A-ANNO
  6
Continuous
370
18
420
0
100
AcDbLine
 10
80.29991438701595
 20
197.12673905570205
 30
0.0
 11
340.7785832052565
 21
197.12673905570205
 31
0.0
  0
TEXT
  5
267
330
17
100
AcDbEntity
  8
A-GRID
  6
Continuous
370
18
420
0
100
AcDbText
 10
80.29991438701595
 20
197.12673905570205
 30
0.0
 40
1.0927291666666668
  1
Y01
100
AcDbText
  0
TEXT
  5
268
330
17
100
AcDbEntity
  8
A-GRID
  6
Continuous
370
18
420
0
100
AcDbText
 10
340.7785832052565
 20
197.12673905570205
 30
0.0
 40
1.0927291666666668
  1
Y01
100
AcDbText
  0
LINE
  5
269
330
17
100
AcDbEntity
  8
A-DIMS
  6
Continuous
370
18
420
0
100
AcDbLine
 10
127.39930905181885
 20
54.11892801849925
 30
0.0
 11
217.3993033297733
 21
54.11892801849925
 31
0.0
  0
TEXT
  5
26A
330
17
100
AcDbEntity
  8
A-TEXT
  6
Continuous
370
18
420
0
100
AcDbText
 10
172.39930619079607
 20
53.11892808207753
 30
0.0
 40
2.5
  1
9000
100
AcDbText
  0
LINE
  5
26B
330
17
100
AcDbEntity
  8
A-DIMS
  6
Continuous
370
18
420
0
100
AcDbLine
 10
217.3993033297733
 20
54.11892801849925
 30
0.0
 11
297.3992524671463
 21
54.11892801849925
 31
0.0
  0
TEXT
  5
26C
330
17
100
AcDbEntity
  8
A-TEXT
  6
Continuous
370
18
420
0
100
AcDbText
 10
257.39928552785386
 20
53.11892808207753
 30
0.0
 40
2.5
  1
8000
100
AcDbText
  0
LINE
  5
26D
330
17
100
AcDbEntity
  8
A-DIMS
  6
Continuous
370
18
420
0
100
AcDbLine
 10
97.29992284292769
 20
147.1266049055234
 30
0.0
 11
97.29992284292769
 21
127.12675876496998
 31
0.0
  0
TEXT
  5
26E
330
17
100
AcDbEntity
  8
A-TEXT
  6
Continuous
370
18
420
0
100
AcDbText
 10
96.29992290650597
 20
137.12668183524667
 30
0.0
 40
2.5
  1
2000
100
AcDbText
  0
LINE
  5
26F
330
17
100
AcDbEntity
  8
A-DIMS
  6
Continuous
370
18
420
0
100
AcDbLine
 10
97.29992284292769
 20
127.12675876496998
 30
0.0
 11
97.29992284292769
 21
77.12675431449011
 31
0.0
  0
TEXT
  5
270
330
17
100
AcDbEntity
  8
A-TEXT
  6
Continuous
370
18
420
0
100
AcDbText
 10
96.29992290650597
 20
102.12676035442706
 30
0.0
 40
2.5
  1
5000
100
AcDbText
  0
LWPOLYLINE
  5
271
330
17
100
AcDbEntity
  8
A-ANNO
  6
Continuous
370
18
420
0
100
AcDbPolyline
 90
3
 70
0
 10
170.40010645065323
 20
69.53247391861865
 10
159.6466996560039
 20
69.53247391861865
 10
159.59678434545674
 20
75.0267248205243
  0
TEXT
  5
272
330
17
100
AcDbEntity
  8
A-TEXT
  6
Continuous
370
18
420
0
100
AcDbText
 10
170.40011503372153
 20
69.53247073970448
 30
0.0
 40
2.5
  1
T200 
100
AcDbText
  0
LINE
  5
273
330
17
100
AcDbEntity
  8
A-ANNO
  6
Continuous
370
18
420
0
100
AcDbLine
 10
80.29991438701595
 20
77.12673142630797
 30
0.0
 11
340.7785832052565
 21
77.12673142630797
 31
0.0
  0
TEXT
  5
274
330
17
100
AcDbEntity
  8
A-GRID
  6
Continuous
370
18
420
0
100
AcDbText
 10
80.29991438701595
 20
77.12673142630797
 30
0.0
 40
1.0927291666666668
  1
Y03
100
AcDbText
  0
TEXT
  5
275
330
17
100
AcDbEntity
  8
A-GRID
  6
Continuous
370
18
420
0
100
AcDbText
 10
340.7785832052565
 20
77.12673142630797
 30
0.0
 40
1.0927291666666668
  1
Y03
100
AcDbText
  0
LINE
  5
276
330
17
100
AcDbEntity
  8
A-DIMS
  6
Continuous
370
18
420
0
100
AcDbLine
 10
92.2999231608191
 20
147.1266049055234
 30
0.0
 11
92.2999231608191
 21
77.12673905570202
 31
0.0
  0
TEXT
  5
277
330
17
100
AcDbEntity
  8
A-TEXT
  6
Continuous
370
18
420
0
100
AcDbText
 10
91.29992322439739
 20
112.12666816591567
 30
0.0
 40
2.5
  1
7000
100
AcDbText
  0
LWPOLYLINE
  5
278
330
17
100
AcDbEntity
  8
A-ANNO
  6
Continuous
370
18
420
0
100
AcDbPolyline
 90
3
 70
0
 10
174.641677607373
 20
154.0377213840545
 10
163.88827081272368
 20
154.0377213840545
 10
163.8383555021765
 20
149.12671858349466
  0
TEXT
  5
279
330
17
100
AcDbEntity
  8
A-TEXT
  6
Continuous
370
18
420
0
100
AcDbText
 10
174.64167665369877
 20
154.03772201983733
 30
0.0
 40
2.5
  1
T200 
100
AcDbText
  0
LINE
  5
27A
330
17
100
AcDbEntity
  8
A-ANNO
  6
Continuous
370
18
420
0
100
AcDbLine
 10
187.3993052371218
 20
127.12675113557593
 30
0.0
 11
187.3993052371218
 21
63.49266094304117
 31
0.0
  0
LINE
  5
27B
330
17
100
AcDbEntity
  8
A-ANNO
  6
Continuous
370
18
420
0
100
AcDbLine
 10
157.39930714447033
 20
127.12675113557593
 30
0.0
 11
157.39932240325842
 21
63.49266094304117
 31
0.0
  0
LINE
  5
27C
330
17
100
AcDbEntity
  8
A-ANNO
  6
Continuous
370
18
420
0
100
AcDbLine
 10
109.97318558698802
 20
147.1266049055234
 30
0.0
 11
298.899267630567
 21
147.1266049055234
 31
0.0
  0
LINE
  5
27D
330
17
100
AcDbEntity
  8
A-ANNO
  6
Continuous
370
18
420
0
100
AcDbLine
 10
298.899267630567
 20
147.1266049055234
 30
0.0
 11
311.6769767791196
 21
147.1266049055234
 31
0.0
  0
LINE
  5
27E
330
17
100
AcDbEntity
  8
A-ANNO
  6
Continuous
370
18
420
0
100
AcDbLine
 10
282.39928393839676
 20
92.12675336081585
 30
0.0
 11
282.39928393839676
 21
63.49266094304117
 31
0.0
  0
LINE
  5
27F
330
17
100
AcDbEntity
  8
A-ANNO
  6
Continuous
370
18
420
0
100
AcDbLine
 10
267.399284892071
 20
127.12675113557593
 30
0.0
 11
267.3993306684353
 21
63.49266094304117
 31
0.0
  0
LINE
  5
280
330
17
100
AcDbEntity
  8
A-ANNO
  6
Continuous
370
18
420
0
100
AcDbLine
 10
262.42931450492824
 20
92.12675336081585
 30
0.0
 11
311.6769767791196
 21
92.12675336081585
 31
0.0
  0
LINE
  5
281
330
17
100
AcDbEntity
  8
A-ANNO
  6
Continuous
370
18
420
0
100
AcDbLine
 10
262.42931450492824
 20
92.12675336081585
 30
0.0
 11
311.6769767791196
 21
92.12675336081585
 31
0.0
  0
LINE
  5
282
330
17
100
AcDbEntity
  8
A-ANNO
  6
Continuous
370
18
420
0
100
AcDbLine
 10
217.3993033297733
 20
224.48710413746593
 30
0.0
 11
217.3993033297733
 21
36.11897112457561
 31
0.0
  0
TEXT
  5
283
330
17
100
AcDbEntity
  8
A-GRID
  6
Continuous
370
18
420
0
100
AcDbText
 10
217.3993033297733
 20
224.48710413746593
 30
0.0
 40
1.0927291666666668
  1
X02
100
AcDbText
  0
TEXT
  5
284
330
17
100
AcDbEntity
  8
A-GRID
  6
Continuous
370
18
420
0
100
AcDbText
 10
217.3993033297733
 20
36.11897112457561
 30
0.0
 40
1.0927291666666668
  1
X02
100
AcDbText
  0
TEXT
  5
285
330
17
100
AcDbEntity
  8
A-ANNO
  6
Continuous
370
18
420
0
100
AcDbText
 10
274.8993301915982
 20
79.62673126736226
 30
0.0
 40
1.0927291666666668
  1
PS
100
AcDbText
  0
LWPOLYLINE
  5
286
330
17
100
AcDbEntity
  8
0
  6
Continuous
370
25
100
AcDbPolyline
 90
5
 70
1
 10
268.8993305730679
 20
82.12673110841655
 10
280.8993298101285
 20
82.12673110841655
 10
280.8993298101285
 20
87.12673079052513
 10
268.8993305730679
 20
87.12673079052513
 10
268.8993305730679
 20
82.12673110841655
  0
TEXT
  5
287
330
17
100
AcDbEntity
  8
A-ANNO
  6
Continuous
370
18
420
0
100
AcDbText
 10
274.8993301915982
 20
84.62673094947084
 30
0.0
 40
1.0927291666666668
  1
1.69
100
AcDbText
  0
TEXT
  5
288
330
17
100
AcDbEntity
  8
A-ANNO
  6
Continuous
370
18
420
0
100
AcDbText
 10
237.40203338127617
 20
109.77369437752544
 30
0.0
 40
1.0927291666666668
  1
  
100
AcDbText
  0
LWPOLYLINE
  5
289
330
17
100
AcDbEntity
  8
0
  6
Continuous
370
25
100
AcDbPolyline
 90
5
 70
1
 10
231.40203376274587
 20
112.27369421857973
 10
243.40203299980647
 20
112.27369421857973
 10
243.40203299980647
 20
117.27369390068831
 10
231.40203376274587
 20
117.27369390068831
 10
231.40203376274587
 20
112.27369421857973
  0
TEXT
  5
28A
330
17
100
AcDbEntity
  8
A-ANNO
  6
Continuous
370
18
420
0
100
AcDbText
 10
237.40203338127617
 20
114.77369405963402
 30
0.0
 40
1.0927291666666668
  1
54.00
100
AcDbText
  0
TEXT
  5
28B
330
17
100
AcDbEntity
  8
A-ANNO
  6
Continuous
370
18
420
0
100
AcDbText
 10
289.89928346155966
 20
79.62673126736226
 30
0.0
 40
1.0927291666666668
  1
EPS
100
AcDbText
  0
LWPOLYLINE
  5
28C
330
17
100
AcDbEntity
  8
0
  6
Continuous
370
25
100
AcDbPolyline
 90
5
 70
1
 10
283.89928384302937
 20
82.12673110841655
 10
295.89928308008996
 20
82.12673110841655
 10
295.89928308008996
 20
87.12673079052513
 10
283.89928384302937
 20
87.12673079052513
 10
283.89928384302937
 20
82.12673110841655
  0
TEXT
  5
28D
330
17
100
AcDbEntity
  8
A-ANNO
  6
Continuous
370
18
420
0
100
AcDbText
 10
289.89928346155966
 20
84.62673094947084
 30
0.0
 40
1.0927291666666668
  1
1.60
100
AcDbText
  0
TEXT
  5
28E
330
17
100
AcDbEntity
  8
A-ANNO
  6
Continuous
370
18
420
0
100
AcDbText
 10
171.52430624642707
 20
95.62673787950378
 30
0.0
 40
1.0927291666666668
  1
2
100
AcDbText
  0
LWPOLYLINE
  5
28F
330
17
100
AcDbEntity
  8
0
  6
Continuous
370
25
100
AcDbPolyline
 90
5
 70
1
 10
165.52430662789678
 20
98.12673772055807
 10
177.52430586495737
 20
98.12673772055807
 10
177.52430586495737
 20
103.12673740266665
 10
165.52430662789678
 20
103.12673740266665
 10
165.52430662789678
 20
98.12673772055807
  0
TEXT
  5
290
330
17
100
AcDbEntity
  8
A-ANNO
  6
Continuous
370
18
420
0
100
AcDbText
 10
171.52430624642707
 20
100.62673756161236
 30
0.0
 40
1.0927291666666668
  1
13.44
100
AcDbText
  0
TEXT
  5
291
330
17
100
AcDbEntity
  8
A-ANNO
  6
Continuous
370
18
420
0
100
AcDbText
 10
280.89931455134035
 20
103.12673740266665
 30
0.0
 40
1.0927291666666668
  1

100
AcDbText
  0
LWPOLYLINE
  5
292
330
17
100
AcDbEntity
  8
0
  6
Continuous
370
25
100
AcDbPolyline
 90
5
 70
1
 10
274.89931493281006
 20
105.62673724372094
 10
286.89931416987065
 20
105.62673724372094
 10
286.89931416987065
 20
110.62673692582952
 10
274.89931493281006
 20
110.62673692582952
 10
274.89931493281006
 20
105.62673724372094
  0
TEXT
  5
293
330
17
100
AcDbEntity
  8
A-ANNO
  6
Continuous
370
18
420
0
100
AcDbText
 10
280.89931455134035
 20
108.12673708477523
 30
0.0
 40
1.0927291666666668
  1
9.15
100
AcDbText
  0
TEXT
  5
294
330
17
100
AcDbEntity
  8
A-ANNO
  6
Continuous
370
18
420
0
100
AcDbText
 10
143.8993156321712
 20
95.62673787950378
 30
0.0
 40
1.0927291666666668
  1
1
100
AcDbText
  0
LWPOLYLINE
  5
295
330
17
100
AcDbEntity
  8
0
  6
Continuous
370
25
100
AcDbPolyline
 90
5
 70
1
 10
137.8993160136409
 20
98.12673772055807
 10
149.8993152507015
 20
98.12673772055807
 10
149.8993152507015
 20
103.12673740266665
 10
137.8993160136409
 20
103.12673740266665
 10
137.8993160136409
 20
98.12673772055807
  0
TEXT
  5
296
330
17
100
AcDbEntity
  8
A-ANNO
  6
Continuous
370
18
420
0
100
AcDbText
 10
143.8993156321712
 20
100.62673756161236
 30
0.0
 40
1.0927291666666668
  1
13.26
100
AcDbText
  0
TEXT
  5
297
330
17
100
AcDbEntity
  8
A-ANNO
  6
Continuous
370
18
420
0
100
AcDbText
 10
202.39931954223565
 20
95.62673787950378
 30
0.0
 40
1.0927291666666668
  1
3
100
AcDbText
  0
LWPOLYLINE
  5
298
330
17
100
AcDbEntity
  8
0
  6
Continuous
370
25
100
AcDbPolyline
 90
5
 70
1
 10
196.39931992370535
 20
98.12673772055807
 10
208.39931916076594
 20
98.12673772055807
 10
208.39931916076594
 20
103.12673740266665
 10
196.39931992370535
 20
103.12673740266665
 10
196.39931992370535
 20
98.12673772055807
  0
TEXT
  5
299
330
17
100
AcDbEntity
  8
A-ANNO
  6
Continuous
370
18
420
0
100
AcDbText
 10
202.39931954223565
 20
100.62673756161236
 30
0.0
 40
1.0927291666666668
  1
13.44
100
AcDbText
  0
ENDSEC
  0
SECTION
  2
OBJECTS
  0
DICTIONARY
  5
A
330
0
100
AcDbDictionary
281
1
  3
ACAD_COLOR
350
B
  3
ACAD_GROUP
350
C
  3
ACAD_LAYOUT
350
D
  3
ACAD_MATERIAL
350
E
  3
ACAD_MLEADERSTYLE
350
F
  3
ACAD_MLINESTYLE
350
10
  3
ACAD_PLOTSETTINGS
350
11
  3
ACAD_PLOTSTYLENAME
350
12
  3
ACAD_SCALELIST
350
14
  3
ACAD_TABLESTYLE
350
15
  3
ACAD_VISUALSTYLE
350
16
  3
EZDXF_META
350
2D
  0
DICTIONARY
  5
B
330
A
100
AcDbDictionary
281
1
  0
DICTIONARY
  5
C
330
A
100
AcDbDictionary
281
1
  0
DICTIONARY
  5
D
330
A
100
AcDbDictionary
281
1
  3
Model
350
1A
  3
Layout1
350
1E
  0
DICTIONARY
  5
E
330
A
100
AcDbDictionary
281
1
  3
ByBlock
350
1F
  3
ByLayer
350
20
  3
Global
350
21
  0
DICTIONARY
  5
F
330
A
100
AcDbDictionary
281
1
  3
Standard
350
2C
  0
DICTIONARY
  5
10
330
A
100
AcDbDictionary
281
1
  3
Standard
350
22
  0
DICTIONARY
  5
11
330
A
100
AcDbDictionary
281
1
  0
ACDBDICTIONARYWDFLT
  5
12
330
A
100
AcDbDictionary
281
1
  3
Normal
350
13
100
AcDbDictionaryWithDefault
340
13
  0
ACDBPLACEHOLDER
  5
13
330
12
  0
DICTIONARY
  5
14
330
A
100
AcDbDictionary
281
1
  0
DICTIONARY
  5
15
330
A
100
AcDbDictionary
281
1
  0
DICTIONARY
  5
16
330
A
100
AcDbDictionary
281
1
  0
LAYOUT
  5
1A
330
D
100
AcDbPlotSettings
  1

  4
A3
  6

 40
7.5
 41
20.0
 42
7.5
 43
20.0
 44
420.0
 45
297.0
 46
0.0
 47
0.0
 48
0.0
 49
0.0
140
0.0
141
0.0
142
1.0
143
1.0
 70
1024
 72
1
 73
0
 74
5
  7

 75
16
 76
0
 77
2
 78
300
147
1.0
148
0.0
149
0.0
100
AcDbLayout
  1
Model
 70
1
 71
0
 10
0.0
 20
0.0
 11
420.0
 21
297.0
 12
0.0
 22
0.0
 32
0.0
 14
1e+20
 24
1e+20
 34
1e+20
 15
-1e+20
 25
-1e+20
 35
-1e+20
146
0.0
 13
0.0
 23
0.0
 33
0.0
 16
1.0
 26
0.0
 36
0.0
 17
0.0
 27
1.0
 37
0.0
 76
1
330
17
  0
LAYOUT
  5
1E
330
D
100
AcDbPlotSettings
  1

  4
A3
  6

 40
7.5
 41
20.0
 42
7.5
 43
20.0
 44
420.0
 45
297.0
 46
0.0
 47
0.0
 48
0.0
 49
0.0
140
0.0
141
0.0
142
1.0
143
1.0
 70
0
 72
1
 73
0
 74
5
  7

 75
16
 76
0
 77
2
 78
300
147
1.0
148
0.0
149
0.0
100
AcDbLayout
  1
Layout1
 70
1
 71
1
 10
0.0
 20
0.0
 11
420.0
 21
297.0
 12
0.0
 22
0.0
 32
0.0
 14
1e+20
 24
1e+20
 34
1e+20
 15
-1e+20
 25
-1e+20
 35
-1e+20
146
0.0
 13
0.0
 23
0.0
 33
0.0
 16
1.0
 26
0.0
 36
0.0
 17
0.0
 27
1.0
 37
0.0
 76
1
330
1B
  0
MATERIAL
  5
1F
102
{ACAD_REACTORS
330
E
102
}
330
E
100
AcDbMaterial
  1
ByBlock
  2

 70
0
 40
1.0
 71
1
 41
1.0
 91
-1023410177
 42
1.0
 72
1
  3

 73
1
 74
1
 75
1
 44
0.5
 73
0
 45
1.0
 46
1.0
 77
1
  4

 78
1
 79
1
170
1
 48
1.0
171
1
  6

172
1
173
1
174
1
140
1.0
141
1.0
175
1
  7

176
1
177
1
178
1
143
1.0
179
1
  8

270
1
271
1
272
1
145
1.0
146
1.0
273
1
  9

274
1
275
1
276
1
 42
1.0
 72
1
  3

 73
1
 74
1
 75
1
 94
63
  0
MATERIAL
  5
20
102
{ACAD_REACTORS
330
E
102
}
330
E
100
AcDbMaterial
  1
ByLayer
  2

 70
0
 40
1.0
 71
1
 41
1.0
 91
-1023410177
 42
1.0
 72
1
  3

 73
1
 74
1
 75
1
 44
0.5
 73
0
 45
1.0
 46
1.0
 77
1
  4

 78
1
 79
1
170
1
 48
1.0
171
1
  6

172
1
173
1
174
1
140
1.0
141
1.0
175
1
  7

176
1
177
1
178
1
143
1.0
179
1
  8

270
1
271
1
272
1
145
1.0
146
1.0
273
1
  9

274
1
275
1
276
1
 42
1.0
 72
1
  3

 73
1
 74
1
 75
1
 94
63
  0
MATERIAL
  5
21
102
{ACAD_REACTORS
330
E
102
}
330
E
100
AcDbMaterial
  1
Global
  2

 70
0
 40
1.0
 71
1
 41
1.0
 91
-1023410177
 42
1.0
 72
1
  3

 73
1
 74
1
 75
1
 44
0.5
 73
0
 45
1.0
 46
1.0
 77
1
  4

 78
1
 79
1
170
1
 48
1.0
171
1
  6

172
1
173
1
174
1
140
1.0
141
1.0
175
1
  7

176
1
177
1
178
1
143
1.0
179
1
  8

270
1
271
1
272
1
145
1.0
146
1.0
273
1
  9

274
1
275
1
276
1
 42
1.0
 72
1
  3

 73
1
 74
1
 75
1
 94
63
  0
MLINESTYLE
  5
22
102
{ACAD_REACTORS
330
10
102
}
330
10
100
AcDbMlineStyle
  2
Standard
 70
0
  3

 62
256
 51
90.0
 52
90.0
 71
2
 49
0.5
 62
256
  6
BYLAYER
 49
-0.5
 62
256
  6
BYLAYER
  0
MLEADERSTYLE
  5
2C
102
{ACAD_REACTORS
330
F
102
}
330
F
100
AcDbMLeaderStyle
179
2
170
2
171
1
172
0
 90
2
 40
0.0
 41
0.0
173
1
 91
-1056964608
 92
-2
290
1
 42
2.0
291
1
 43
8.0
  3
Standard
 44
4.0
300

342
29
174
1
175
1
176
0
178
1
 93
-1056964608
 45
4.0
292
0
297
0
 46
4.0
 94
-1056964608
 47
1.0
 49
1.0
140
1.0
294
1
141
0.0
177
0
142
1.0
295
0
296
0
143
3.75
271
0
272
9
273
9
  0
DICTIONARY
  5
2D
330
A
100
AcDbDictionary
280
1
281
1
  3
CREATED_BY_EZDXF
350
2E
  3
WRITTEN_BY_EZDXF
350
29C
  0
DICTIONARYVAR
  5
2E
330
2D
100
DictionaryVariables
280
0
  1
1.4.3 @ 2025-10-21T12:37:04.983378+00:00
  0
DICTIONARYVAR
  5
29C
330
2D
100
DictionaryVariables
280
0
  1
1.4.3 @ 2025-10-21T12:37:04.996977+00:00
  0
ENDSEC
  0
EOF
